<?xml version="1.0" encoding="UTF-8" standalone="no"?>
<!DOCTYPE svg PUBLIC "-//W3C//DTD SVG 1.1//EN" "http://www.w3.org/Graphics/SVG/1.1/DTD/svg11.dtd">
<svg width="100%" height="100%" viewBox="0 0 167 95" version="1.1" xmlns="http://www.w3.org/2000/svg" xmlns:xlink="http://www.w3.org/1999/xlink" xml:space="preserve" xmlns:serif="http://www.serif.com/" style="fill-rule:evenodd;clip-rule:evenodd;stroke-linejoin:round;stroke-miterlimit:2;">
    <g transform="matrix(1.033211,0,0,1.033211,-3.048964,-1.425144)">
        <path d="M138.848,9.089C139.753,8.895 142.07,9.026 142.96,9.257C149.404,9.634 155.912,9.526 162.323,10.293C163.582,10.444 163.841,11.057 164.475,12.002L164.583,13.164C164.382,13.576 164.149,13.972 163.885,14.348C162.691,16.064 155.623,20.303 153.466,22.06C150.726,24.295 147.485,26.637 144.731,28.949C143.487,29.993 141.577,31.186 140.423,32.203C138.199,34.16 135.406,36.12 133.279,38.046C130.346,40.703 127.448,43.575 124.563,46.285C122.874,47.871 121.154,49.281 119.408,50.787C118.508,51.565 117.668,52.474 116.747,53.294C114.611,55.196 112.573,56.689 110.278,58.352C108.763,59.449 107.149,61.066 105.586,62.187C102.687,64.266 99.655,66.435 96.943,68.753C91.453,73.446 86.21,78.484 80.499,82.928C79.339,83.831 77.02,85.358 75.547,85.743C75.456,85.767 73.581,85.68 73.3,85.673C71.845,85.652 70.391,85.663 68.936,85.708C67.077,85.784 65.269,86.142 63.444,86.327C62.52,86.2 61.938,85.979 60.975,86.048C48.147,86.967 35.306,86.054 22.486,85.462C22.099,85.391 21.396,85.425 21.045,85.34C17.332,84.442 8.293,83.826 5.406,81.789C3.893,78.015 2.879,72.925 3.039,68.865C3.173,65.458 2.905,62.197 2.958,58.845C3.207,46.864 4.692,34.94 7.391,23.264C8.087,20.265 8.957,15.2 11.26,13.033C14.493,9.991 33.637,9.024 38.873,8.897C40.845,8.849 42.823,9.069 44.79,8.996C48.073,8.875 51.381,8.432 54.662,8.216C62.199,7.692 69.749,7.374 77.303,7.264C80.743,7.233 84.123,7.441 87.514,7.543L110.469,8.4C120.057,8.792 129.295,8.836 138.846,9.09L138.848,9.089Z" style="fill:rgb(26,58,46);fill-rule:nonzero;"/>
    </g>
    <g transform="matrix(1.033211,0,0,1.033211,-3.048964,-1.425144)">
        <path d="M138.851,9.089C139.756,8.895 142.072,9.026 142.963,9.257C141.743,9.326 140.103,9.172 138.851,9.089Z" style="fill:rgb(26,58,46);fill-rule:nonzero;"/>
    </g>
    <g transform="matrix(1.033211,0,0,1.033211,-3.048964,-1.425144)">
        <path d="M71.881,11.697C73.927,17.222 74.065,21.61 75.2,27.158C76.277,32.111 77.309,37.06 78.212,42.043C80.4,54.121 78.598,66.17 75.551,77.924C75.112,79.615 74.997,83.872 73.94,84.962C72.946,85.295 71.749,85.312 70.698,85.323C68.698,85.344 66.756,85.521 64.765,85.719C64.49,85.58 64.489,85.576 64.259,85.37C59.068,85.836 53.859,86.079 48.648,86.099C45.007,86.078 41.612,85.855 38.044,85.741L28.594,85.356C26.018,85.256 23.433,85.228 20.867,84.936C19.363,84.765 17.872,84.4 16.385,84.122C14.672,83.802 12.959,83.56 11.251,83.198C9.765,82.884 7.212,82.663 6.088,81.666C4.172,79.969 3.426,71.832 3.398,69.384C3.378,67.594 3.474,65.806 3.457,64.017C3.439,62.122 3.298,60.232 3.344,58.336C3.469,53.201 3.936,48.145 4.482,43.041C4.655,41.424 4.704,39.793 4.899,38.179C5.179,35.866 5.685,33.566 6.097,31.274C6.338,29.935 6.482,28.578 6.757,27.245C7.082,25.674 7.563,24.14 7.94,22.581C8.593,19.877 9.377,15.332 11.368,13.322C14.364,10.295 35.55,9.162 40.359,9.223C44.794,9.279 49.293,9.292 53.716,9.583C55.978,9.732 58.223,10.079 60.481,10.273C63.802,10.557 67.352,10.719 70.617,11.391C68.181,11.504 67.035,11.361 64.616,11.905C61.444,10.708 61,11.396 57.958,11.043C55.623,10.773 53.487,10.243 50.997,10.083C41.21,9.546 31.395,9.901 21.672,11.143C18.876,11.485 16.097,11.563 13.476,12.739C11.954,13.422 11,14.383 10.415,15.965C9.106,19.51 7.768,25.445 7.108,29.177C5.938,35.788 2.786,60.592 5.338,65.901C6.272,67.843 7.883,69.407 9.736,70.467C10.85,72.592 10.955,75.591 9.339,77.5C8.907,78.01 8.442,78.502 8.006,79.016C7.989,79.831 7.923,80.626 8.159,81.405L8.286,81.498C8.479,80.852 8.359,79.946 8.312,79.251L8.388,79.136C8.877,78.405 9.457,77.93 10.053,77.248C11.131,75.918 10.9,73.676 10.752,72.105C10.625,70.762 9.491,69.697 8.478,68.96C3.808,65.561 4.882,60.808 4.775,55.827C4.613,54.812 4.655,53.776 4.898,52.777C5.621,40.455 6.969,27.938 10.689,16.125C12.037,11.845 18.196,12.03 21.781,11.497C29.964,10.28 38.256,10.107 46.515,10.458C47.935,10.518 49.434,10.366 50.86,10.473C54.711,10.951 58.514,11.455 62.392,11.685C63.006,11.721 63.772,12.05 64.295,12.372C66.278,16.124 66.39,21.06 67.237,25.183C67.839,28.114 68.757,30.95 69.371,33.873C70.053,37.122 70.424,40.445 70.946,43.721C71.847,49.373 74.134,60.294 72.485,65.69C70.682,71.592 63.795,72.783 62.449,76.161C62.057,77.145 62.188,78.265 62.216,79.302C63.805,80.6 64.021,81.142 64.239,83.305L64.276,83.688L64.469,83.776C64.68,83.286 64.568,82.862 64.558,82.354C64.529,80.864 63.638,79.97 62.63,79.013C62.573,77.352 62.472,76.378 63.762,75.038C64.623,74.274 66.041,73.102 67.01,72.544C71.643,69.877 73.76,65.788 73.474,60.436C73.229,55.856 72.574,50.646 71.807,46.109C71.092,41.876 70.376,37.698 69.7,33.463C69.247,31.106 68.288,28.721 67.842,26.356C66.692,21.085 66.671,17.508 64.789,12.375C65.893,12.169 67.019,11.946 68.141,11.896C69.461,11.837 70.571,11.919 71.882,11.701L71.881,11.697Z" style="fill:rgb(241,237,234);fill-rule:nonzero;"/>
    </g>
    <g transform="matrix(1.033211,0,0,1.033211,-3.048964,-1.425144)">
        <path d="M4.774,55.826C4.612,54.811 4.654,53.775 4.897,52.776C4.866,53.697 4.859,54.932 4.774,55.826Z" style="fill:rgb(26,58,46);fill-rule:nonzero;"/>
    </g>
    <g transform="matrix(1.033211,0,0,1.033211,-3.048964,-1.425144)">
        <path d="M24.163,21.1C28.766,18.494 36.966,18.775 42.197,18.483C43,18.438 45.217,18.905 46.195,19.017C48.284,20.553 48.236,22.859 48.208,25.214C48.262,26.059 48.276,27.186 48.406,27.992C48.551,29.133 48.362,30.606 48.381,31.773C48.419,34.083 48.243,36.631 48.296,38.911L49.001,61.595C49.114,64.381 49.857,69.538 49.284,72.153C48.8,72.756 45.772,72.527 44.906,72.65C42.682,72.966 40.48,72.853 38.246,72.8C34.474,73.057 30.739,73.337 26.952,73.087C25.706,73.021 24.608,72.39 23.597,71.712C23.353,69.723 22.36,67.027 22.717,65.041C22.72,63.8 22.704,62.559 22.668,61.318C23.081,58.855 22.84,57.155 22.961,54.878C23.106,52.145 23.23,50.076 23.145,47.321C23.107,46.076 23.1,42.044 23.338,41.015C23.496,38.63 23.888,36.582 23.927,34.078C23.984,30.43 23.383,24.554 24.163,21.1Z" style="fill:rgb(241,237,234);fill-rule:nonzero;"/>
    </g>
    <g transform="matrix(1.033211,0,0,1.033211,-3.048964,-1.425144)">
        <path d="M47.824,28.047L47.955,27.725L48.016,27.852L48.407,27.993C48.552,29.134 48.363,30.607 48.382,31.774C48.42,34.084 48.244,36.632 48.297,38.912L49.002,61.596C49.115,64.382 49.858,69.539 49.285,72.154C48.801,72.757 45.773,72.528 44.907,72.651C42.683,72.967 40.481,72.854 38.247,72.801C34.475,73.058 30.74,73.338 26.953,73.088C25.707,73.022 24.609,72.39 23.598,71.713C23.355,69.724 22.361,67.028 22.718,65.042C22.924,64.615 23.306,64.18 23.607,63.803C23.652,64.567 23.737,65.354 23.784,66.123C23.869,67.521 23.439,70.506 24.45,71.533C25.432,72.53 28.429,72.201 29.796,72.266C31.19,72.306 32.59,72.539 33.986,72.513C37.59,72.447 41.162,72.168 44.751,71.87C45.463,71.811 46.291,71.9 47.007,71.937C47.448,71.96 47.809,72.14 48.261,72.115C48.549,71.604 48.602,64.664 48.56,63.594C48.468,61.24 48.209,58.889 48.121,56.53C48.071,55.179 48.168,53.811 48.05,52.466C47.926,51.055 47.364,49.845 47.34,48.385C47.304,46.209 47.537,44.065 47.584,41.895C47.641,39.272 47.454,36.63 47.444,34.005C47.437,32.031 47.61,30.06 47.584,28.09L47.825,28.047L47.824,28.047Z" style="fill:rgb(26,58,46);fill-rule:nonzero;"/>
    </g>
    <g transform="matrix(1.033211,0,0,1.033211,-3.048964,-1.425144)">
        <path d="M47.824,28.047L47.955,27.725L48.016,27.852C48.218,28.549 47.889,33.067 47.99,34.465L47.787,35.512C47.795,35.187 47.768,34.786 47.748,34.455C47.62,32.36 47.998,30.127 47.824,28.046L47.824,28.047Z" style="fill:rgb(26,58,46);fill-rule:nonzero;"/>
    </g>
    <g transform="matrix(1.033211,0,0,1.033211,-3.048964,-1.425144)">
        <path d="M47.99,34.465C48.024,35.382 48.121,36.163 47.809,37.023C47.641,36.655 47.74,35.934 47.787,35.513L47.99,34.466L47.99,34.465Z" style="fill:rgb(26,58,46);fill-rule:nonzero;"/>
    </g>
    <g transform="matrix(1.033211,0,0,1.033211,-3.048964,-1.425144)">
        <path d="M47.962,42.361C48.422,43.141 48.107,48.894 48.146,50.228L47.986,50.338C47.294,49.17 47.792,43.899 47.963,42.361L47.962,42.361Z" style="fill:rgb(241,237,234);fill-rule:nonzero;"/>
    </g>
    <g transform="matrix(1.033211,0,0,1.033211,-3.048964,-1.425144)">
        <path d="M48.407,49.255L48.539,49.325C48.713,50.277 48.773,57.088 48.577,57.936C48.369,57.145 48.324,50.333 48.407,49.255Z" style="fill:rgb(26,58,46);fill-rule:nonzero;"/>
    </g>
    <g transform="matrix(1.033211,0,0,1.033211,-3.048964,-1.425144)">
        <path d="M48.942,65.879C49.15,66.982 49.33,70.362 49.059,71.339C48.576,70.717 48.741,66.788 48.942,65.879Z" style="fill:rgb(241,237,234);fill-rule:nonzero;"/>
    </g>
    <g transform="matrix(1.033211,0,0,1.033211,-3.048964,-1.425144)">
        <path d="M23.113,65.551C23.662,66.151 23.412,67.481 23.353,68.273C22.879,67.337 23.032,66.582 23.113,65.551Z" style="fill:rgb(26,58,46);fill-rule:nonzero;"/>
    </g>
    <g transform="matrix(1.033211,0,0,1.033211,-3.048964,-1.425144)">
        <path d="M24.163,21.1C28.766,18.494 36.966,18.775 42.197,18.483C43,18.438 45.217,18.905 46.195,19.017C48.284,20.553 48.236,22.859 48.208,25.214L47.92,25.117L47.648,24.718L47.364,24.573C47.18,22.603 47.051,21.833 46.447,19.996C45.84,19.791 44.85,19.467 44.251,19.385C40.041,18.814 28.444,19.329 24.971,21.047C24.885,21.09 24.8,21.134 24.715,21.18C24.4,24.074 24.665,26.964 24.492,29.878C24.342,32.403 24.382,34.969 24.136,37.489C23.601,38.23 24.262,39.815 23.762,40.207L23.544,41.118L23.337,41.015C23.495,38.63 23.887,36.582 23.926,34.078C23.983,30.43 23.382,24.554 24.162,21.1L24.163,21.1Z" style="fill:rgb(26,58,46);fill-rule:nonzero;"/>
    </g>
    <g transform="matrix(1.033211,0,0,1.033211,-3.048964,-1.425144)">
        <path d="M47.65,24.719C47.587,23.761 47.353,22.116 47.401,21.293C47.834,22.647 47.894,23.715 47.922,25.117L47.65,24.718L47.65,24.719Z" style="fill:rgb(26,58,46);fill-rule:nonzero;"/>
    </g>
    <g transform="matrix(1.033211,0,0,1.033211,-3.048964,-1.425144)">
        <path d="M23.763,40.208C24.263,39.817 23.602,38.232 24.137,37.49C24.238,43.445 23.807,48.249 23.542,54.076C23.479,55.548 23.431,57.02 23.397,58.493C23.39,58.874 23.424,60.117 23.383,60.4C23.212,60.955 23.179,61.12 23.119,61.699L22.946,61.755L22.667,61.318C23.08,58.855 22.839,57.155 22.96,54.878C23.105,52.145 23.229,50.076 23.144,47.321C23.106,46.076 23.099,42.044 23.337,41.015L23.543,41.118L23.761,40.207L23.763,40.208Z" style="fill:rgb(26,58,46);fill-rule:nonzero;"/>
    </g>
    <g transform="matrix(1.033211,0,0,1.033211,-3.048964,-1.425144)">
        <path d="M23.763,40.208C24.071,41.236 23.665,45.753 23.65,47.211C23.151,46.703 23.539,42.133 23.545,41.12L23.763,40.209L23.763,40.208Z" style="fill:rgb(26,58,46);fill-rule:nonzero;"/>
    </g>
    <g transform="matrix(1.033211,0,0,1.033211,-3.048964,-1.425144)">
        <path d="M22.668,61.318L22.947,61.755L23.12,61.699C23.18,61.121 23.213,60.956 23.384,60.4L23.607,63.802C23.305,64.178 22.923,64.614 22.718,65.041C22.721,63.8 22.705,62.559 22.669,61.318L22.668,61.318Z" style="fill:rgb(26,58,46);fill-rule:nonzero;"/>
    </g>
    <g transform="matrix(1.033211,0,0,1.033211,-3.048964,-1.425144)">
        <path d="M47.365,24.574L47.649,24.719L47.921,25.118L48.209,25.215C48.263,26.06 48.277,27.187 48.407,27.993L48.016,27.852L47.955,27.725L47.824,28.047L47.583,28.09L47.365,24.574Z" style="fill:rgb(26,58,46);fill-rule:nonzero;"/>
    </g>
    <g transform="matrix(1.033211,0,0,1.033211,-3.048964,-1.425144)">
        <path d="M38.211,22.746C39.088,22.424 42.069,22.532 42.861,23.065C43.993,24.302 43.601,28.063 43.595,29.757L43.591,38.424C43.578,41.194 43.856,44.689 43.738,47.295L43.733,47.407C43.765,48.2 43.738,48.95 43.716,49.741C43.122,50.057 43.077,50.124 42.4,50.144C40.481,50.202 38.477,50.508 36.558,50.442C34.399,50.367 32.307,49.887 30.131,49.789C29.712,49.452 29.121,49.196 28.786,48.772C27.573,47.235 28.487,33.917 28.488,31.248C28.489,28.449 28.071,25.958 28.272,23.083C29.294,22.9 32.148,22.793 33.255,22.78C34.679,22.64 36.707,22.743 38.211,22.745L38.211,22.746Z" style="fill:rgb(26,58,46);fill-rule:nonzero;"/>
    </g>
    <g transform="matrix(1.033211,0,0,1.033211,-3.048964,-1.425144)">
        <path d="M28.272,23.084C29.294,22.901 32.148,22.794 33.255,22.781L33.335,22.941C34.014,23.009 34.259,22.915 34.658,23.491C34.145,23.581 33.29,23.738 32.796,23.745C30.975,23.771 30.546,23.245 28.85,23.972C28.8,25.219 28.724,26.518 28.744,27.763C28.858,34.808 28.637,41.78 29.239,48.817C33.056,50.187 36.792,49.844 40.756,49.782C42.246,49.759 42.746,49.792 43.042,48.311C43.074,48.528 43.053,48.447 43.18,48.641L43.394,48.445C43.487,48.015 43.51,47.893 43.693,47.491L43.732,47.408C43.764,48.201 43.738,48.951 43.716,49.742C43.122,50.058 43.077,50.125 42.4,50.145C40.481,50.203 38.477,50.509 36.558,50.443C34.399,50.368 32.308,49.888 30.131,49.79C29.712,49.453 29.121,49.197 28.786,48.773C27.573,47.236 28.487,33.918 28.488,31.249C28.489,28.45 28.071,25.959 28.272,23.084Z" style="fill:rgb(26,58,46);fill-rule:nonzero;"/>
    </g>
    <g transform="matrix(1.033211,0,0,1.033211,-3.048964,-1.425144)">
        <path d="M31.719,23.159C32.218,23.117 33.238,23.067 33.686,23.243L33.495,23.387C32.972,23.409 32.081,23.492 31.622,23.338L31.72,23.158L31.719,23.159Z" style="fill:rgb(26,58,46);fill-rule:nonzero;"/>
    </g>
    <g transform="matrix(1.033211,0,0,1.033211,-3.048964,-1.425144)">
        <path d="M42.861,23.065C43.993,24.302 43.601,28.063 43.595,29.757L43.591,38.423C43.578,41.193 43.856,44.688 43.738,47.295L43.733,47.407L43.694,47.49C43.511,47.892 43.488,48.014 43.395,48.444L43.181,48.64C43.055,48.446 43.075,48.527 43.043,48.31C43.578,44.501 42.91,39.469 42.791,35.579C42.701,32.63 43.712,25.856 42.353,23.473C42.156,23.326 42.123,23.324 42.005,23.101L42.861,23.063L42.861,23.065Z" style="fill:rgb(26,58,46);fill-rule:nonzero;"/>
    </g>
    <g transform="matrix(1.033211,0,0,1.033211,-3.048964,-1.425144)">
        <path d="M38.211,22.746C39.088,22.424 42.069,22.532 42.861,23.065L42.005,23.103C42.122,23.326 42.155,23.327 42.353,23.475C41.406,23.759 38.989,23.719 38.045,23.413C38.323,23.153 38.446,23.133 38.497,22.817L38.211,22.746Z" style="fill:rgb(26,58,46);fill-rule:nonzero;"/>
    </g>
    <g transform="matrix(1.033211,0,0,1.033211,-3.048964,-1.425144)">
        <path d="M38.211,22.746L38.496,22.817C38.445,23.133 38.322,23.153 38.044,23.413C36.594,23.26 36.152,23.258 34.658,23.491C34.259,22.915 34.014,23.009 33.335,22.941L33.255,22.781C34.679,22.641 36.707,22.744 38.211,22.746Z" style="fill:rgb(26,58,46);fill-rule:nonzero;"/>
    </g>
    <g transform="matrix(1.033211,0,0,1.033211,-3.048964,-1.425144)">
        <path d="M35.762,59.168C36.533,58.144 38.226,54.591 39.744,55.452C40.013,55.891 40.03,55.956 40.112,56.465C39.845,56.94 39.907,57.46 39.911,58.013L39.749,58.317C39.442,58.188 39.405,58.151 39.139,57.944C38.641,57.921 38.297,58.186 37.863,58.441L38.397,59.009C37.565,60.502 36.723,61.989 35.869,63.47C34.734,62.044 34.236,61.059 33.266,59.627L32.989,59.589C32.652,60.054 31.944,63.875 31.593,64.961C30.887,64.869 30.586,64.845 29.878,64.866C29.921,63.769 31.385,55.799 31.963,55.21C33.204,55.152 35.021,58.15 35.762,59.168Z" style="fill:rgb(26,58,46);fill-rule:nonzero;"/>
    </g>
    <g transform="matrix(1.033211,0,0,1.033211,-3.048964,-1.425144)">
        <path d="M37.647,58.633L37.864,58.441L38.398,59.01C37.566,60.503 36.724,61.99 35.87,63.471C34.735,62.045 34.237,61.06 33.267,59.628L33.471,59.458L33.321,58.793L33.739,59.177C33.761,58.972 33.748,58.953 33.842,58.773L34.155,59.125C34.668,59.716 35.014,60.057 35.592,60.586C36.709,59.919 36.845,59.337 37.333,59.06L37.647,58.634L37.647,58.633Z" style="fill:rgb(26,58,46);fill-rule:nonzero;"/>
    </g>
    <g transform="matrix(1.033211,0,0,1.033211,-3.048964,-1.425144)">
        <path d="M35.592,60.585C36.709,59.918 36.845,59.336 37.333,59.059C36.809,60.054 36.23,61.124 35.653,62.088C35.334,61.435 34.159,59.52 34.155,59.124C34.668,59.715 35.014,60.056 35.592,60.585Z" style="fill:rgb(26,58,46);fill-rule:nonzero;"/>
    </g>
    <g transform="matrix(1.033211,0,0,1.033211,-3.048964,-1.425144)">
        <path d="M38.931,56.507C39.356,57.021 39.577,57.435 39.911,58.013L39.749,58.317C39.442,58.188 39.405,58.151 39.139,57.944C38.641,57.921 38.297,58.186 37.863,58.441L37.646,58.633C37.992,57.972 38.529,57.156 38.93,56.507L38.931,56.507Z" style="fill:rgb(26,58,46);fill-rule:nonzero;"/>
    </g>
    <g transform="matrix(1.033211,0,0,1.033211,-3.048964,-1.425144)">
        <path d="M32.227,56.991C32.704,57.135 33.303,57.723 33.441,58.201C33.222,58.656 33.262,58.087 32.614,58.445C31.972,59.367 31.524,61.934 31.256,63.145C31.166,63.55 31.162,63.633 30.871,63.92C30.516,63.259 31.964,58.038 32.227,56.991Z" style="fill:rgb(26,58,46);fill-rule:nonzero;"/>
    </g>
    <g transform="matrix(1.033211,0,0,1.033211,-3.048964,-1.425144)">
        <path d="M40.113,56.465C41.045,58.679 42.172,61.367 42.54,63.78C42.623,64.325 42.444,64.609 41.952,64.795C40.97,64.619 40.422,63.194 40.259,62.292C39.819,61.51 39.247,59.486 38.728,58.945L38.398,59.011L37.864,58.442C38.298,58.187 38.642,57.922 39.14,57.945C39.406,58.152 39.443,58.189 39.75,58.318L39.912,58.014C39.909,57.46 39.846,56.94 40.113,56.466L40.113,56.465Z" style="fill:rgb(26,58,46);fill-rule:nonzero;"/>
    </g>
    <g transform="matrix(1.033211,0,0,1.033211,-3.048964,-1.425144)">
        <path d="M37.864,58.441C38.298,58.186 38.642,57.921 39.14,57.944C39.069,58.689 40.567,60.273 40.259,62.291C39.819,61.509 39.247,59.485 38.728,58.944L38.398,59.01L37.864,58.441Z" style="fill:rgb(26,58,46);fill-rule:nonzero;"/>
    </g>
    <g transform="matrix(1.033211,0,0,1.033211,-3.048964,-1.425144)">
        <path d="M50.096,26.35C50.123,25.011 49.839,22.533 50.884,21.546C51.99,20.501 53.831,20.575 55.242,20.644C56.905,20.726 59.147,20.648 60.419,21.897C61.503,22.961 64.373,35.537 65.002,37.775C65.476,39.461 66.193,41.07 66.599,42.779C66.857,43.866 67.057,45.084 67.038,46.202C67.035,46.379 67.016,46.502 66.88,46.621C66.202,47.209 65.437,47.425 64.557,47.516C62.442,47.733 59.996,47.27 57.853,47.146C56.298,47.056 54.722,47.121 53.174,47.002C52.683,46.964 51.907,46.897 51.574,46.488C50.248,44.862 50.165,36.009 50.132,33.667L50.425,33.766C50.443,33.494 50.43,32.896 50.561,32.726C50.622,33.252 50.661,33.661 50.681,34.189L50.389,32.898C50.896,32.971 50.517,28.566 50.311,28.602C51.024,27.322 50.391,25.398 50.744,23.958C50.775,23.704 50.325,23.014 50.822,21.934C51.231,21.504 52.489,21.223 53.159,21.039C55.365,21.255 57.872,20.816 59.828,21.874C59.749,21.838 59.668,21.804 59.588,21.771C57.206,20.79 53.463,21.018 51.058,21.997C51.053,23.469 51.046,24.687 50.915,26.163C50.865,26.783 50.834,27.404 50.681,28.008L50.405,27.074L50.383,27.166L50.282,27.048C50.253,26.759 50.223,26.613 50.099,26.35L50.096,26.35Z" style="fill:rgb(26,58,46);fill-rule:nonzero;"/>
    </g>
    <g transform="matrix(1.033211,0,0,1.033211,-3.048964,-1.425144)">
        <path d="M50.422,33.766C50.44,33.494 50.427,32.896 50.558,32.726C50.619,33.252 50.658,33.661 50.678,34.189C50.674,34.746 50.672,35.045 50.589,35.595C50.519,34.987 50.464,34.377 50.423,33.766L50.422,33.766Z" style="fill:rgb(26,58,46);fill-rule:nonzero;"/>
    </g>
    <g transform="matrix(1.033211,0,0,1.033211,-3.048964,-1.425144)">
        <path d="M50.517,36.242L50.657,36.373C50.898,37.313 50.846,38.17 50.783,39.119C50.416,38.559 50.52,36.976 50.517,36.242Z" style="fill:rgb(26,58,46);fill-rule:nonzero;"/>
    </g>
    <g transform="matrix(1.033211,0,0,1.033211,-3.048964,-1.425144)">
        <path d="M65.551,40.435C65.914,41.265 66.055,41.764 66.253,42.637C65.617,41.943 65.591,41.346 65.551,40.435Z" style="fill:rgb(26,58,46);fill-rule:nonzero;"/>
    </g>
    <g transform="matrix(1.033211,0,0,1.033211,-3.048964,-1.425144)">
        <path d="M50.096,26.35C50.221,26.613 50.251,26.759 50.279,27.048L50.38,27.166L50.402,27.074L50.678,28.008C50.83,27.405 50.861,26.784 50.912,26.163C51.022,27.612 50.861,29.14 50.861,30.598C50.861,31.794 50.921,33.009 50.967,34.205L50.676,34.187C50.656,33.659 50.618,33.25 50.556,32.724C50.425,32.894 50.438,33.491 50.42,33.764L50.127,33.665C49.965,32.691 50.05,27.448 50.093,26.348L50.096,26.35Z" style="fill:rgb(26,58,46);fill-rule:nonzero;"/>
    </g>
    <g transform="matrix(1.033211,0,0,1.033211,-3.048964,-1.425144)">
        <path d="M19.039,21.82C22.637,21.601 22.004,24.298 21.992,26.993C21.979,30.025 21.781,46.275 20.415,47.605C19.14,48.238 11.911,48.178 10.184,48.102C9.205,48.125 7.532,48.276 6.872,47.458C5.924,45.133 11.454,25.936 12.632,22.855C14.774,22.277 16.848,22.04 19.039,21.82Z" style="fill:rgb(26,58,46);fill-rule:nonzero;"/>
    </g>
    <g transform="matrix(1.033211,0,0,1.033211,-3.048964,-1.425144)">
        <path d="M12.123,25.178L12.136,25.225C12.301,25.786 11.693,27.194 11.463,27.829C11.199,27.251 11.852,25.719 12.122,25.178L12.123,25.178Z" style="fill:rgb(26,58,46);fill-rule:nonzero;"/>
    </g>
    <g transform="matrix(1.033211,0,0,1.033211,-3.048964,-1.425144)">
        <path d="M41.726,10.55C42.085,10.462 42.804,10.727 43.238,10.733C47.067,10.789 46.421,12.367 44.648,14.693C40.276,14.259 35.829,14.24 31.524,15.147C27.783,15.743 27.859,15.655 27.055,11.971C31.221,10.524 37.209,11.204 41.726,10.549L41.726,10.55Z" style="fill:rgb(26,58,46);fill-rule:nonzero;"/>
    </g>
    <g transform="matrix(1.033211,0,0,1.033211,-3.048964,-1.425144)">
        <path d="M40.833,11.088C42.872,10.949 42.968,11.216 44.908,11.65C44.936,11.442 44.926,11.445 45.028,11.264L45.354,11.404C45.471,11.909 44.985,13.136 44.742,13.638C44.689,13.748 44.329,14.077 44.274,14.081C42.038,14.232 38.868,13.971 36.689,14.025C35.119,14.062 33.558,14.261 32.028,14.617C30.222,14.973 28.053,15.83 27.847,13.311C27.82,12.979 27.65,12.456 27.557,12.119C30.42,11.315 37.5,11.241 40.834,11.089L40.833,11.088Z" style="fill:rgb(241,237,234);fill-rule:nonzero;"/>
    </g>
    <g transform="matrix(1.033211,0,0,1.033211,-3.048964,-1.425144)">
        <path d="M58.959,74.943C56.649,74.291 55.492,71.737 56.581,69.602C57.046,68.71 57.843,68.036 58.8,67.726C59.678,67.443 60.829,67.424 61.678,67.855C61.981,68.034 62.424,68.278 62.695,68.483C63.098,69.983 63.541,71.627 62.698,73.067C62.364,73.716 62.033,74.322 61.375,74.701C60.312,75.087 60.034,75.304 58.959,74.943Z" style="fill:rgb(26,58,46);fill-rule:nonzero;"/>
    </g>
    <g transform="matrix(1.033211,0,0,1.033211,-3.048964,-1.425144)">
        <path d="M61.678,67.854C61.981,68.033 62.424,68.277 62.694,68.482C63.098,69.982 63.54,71.626 62.697,73.066L62.564,72.859L62.248,73.016L62.136,72.872L62.432,72.355C62.331,71.962 62.4,72.102 62.016,71.813C62.297,70.26 62.114,68.756 60.268,68.445L60.084,68.476L60.01,68.373L60.324,68.166L60.224,68.119L60.656,67.927C61.083,67.98 61.264,68.017 61.678,67.855L61.678,67.854Z" style="fill:rgb(26,58,46);fill-rule:nonzero;"/>
    </g>
    <g transform="matrix(1.033211,0,0,1.033211,-3.048964,-1.425144)">
        <path d="M58.582,70.797L59.033,70.642L59.25,70.775C58.962,72.066 58.48,72.053 58.843,72.91C59.618,73.569 59.79,73.091 59.822,74.226C59.481,74.176 58.707,74.17 58.33,74.156C58.452,73.777 58.471,73.694 58.498,73.298L58.336,73.166C58.048,73.286 57.983,73.368 57.745,73.578C57.408,73.007 57.296,72.835 57.116,72.205L57.229,71.415C57.534,71.291 57.833,71.481 58.385,71.339L58.583,70.798L58.582,70.797Z" style="fill:rgb(26,58,46);fill-rule:nonzero;"/>
    </g>
    <g transform="matrix(1.033211,0,0,1.033211,-3.048964,-1.425144)">
        <path d="M59.822,74.226L59.912,74.205C60.525,74.058 60.401,73.926 60.974,73.884L60.983,74.405L61.375,74.701C60.312,75.087 60.034,75.304 58.959,74.943C58.854,74.706 58.551,74.486 58.33,74.157C58.708,74.171 59.481,74.177 59.822,74.227L59.822,74.226Z" style="fill:rgb(26,58,46);fill-rule:nonzero;"/>
    </g>
    <g transform="matrix(1.033211,0,0,1.033211,-3.048964,-1.425144)">
        <path d="M57.228,71.415C57.118,70.961 57.106,70.216 57.391,69.827L57.706,69.778C58.148,70.147 58.272,70.308 58.582,70.797L58.384,71.338C57.832,71.48 57.533,71.291 57.228,71.414L57.228,71.415Z" style="fill:rgb(26,58,46);fill-rule:nonzero;"/>
    </g>
    <g transform="matrix(1.033211,0,0,1.033211,-3.048964,-1.425144)">
        <path d="M60.269,68.445C62.114,68.756 62.298,70.26 62.017,71.813C61.8,72.263 61.721,72.643 61.356,72.851C61.86,70.238 62.644,70.407 60.269,68.445Z" style="fill:rgb(26,58,46);fill-rule:nonzero;"/>
    </g>
    <g transform="matrix(1.033211,0,0,1.033211,-3.048964,-1.425144)">
        <path d="M57.745,73.578C56.978,73.345 56.685,72.167 56.729,71.451L56.867,71.476L57.115,72.205C57.296,72.835 57.407,73.007 57.744,73.578L57.745,73.578Z" style="fill:rgb(26,58,46);fill-rule:nonzero;"/>
    </g>
    <g transform="matrix(1.033211,0,0,1.033211,-3.048964,-1.425144)">
        <path d="M13.713,72.406C13.192,71.877 12.657,71.394 12.484,70.65C12.29,69.797 12.457,68.901 12.945,68.175C14.166,66.335 16.574,66.43 18.258,67.583C18.639,69.006 18.856,69.955 18.36,71.355C18.111,71.943 17.442,72.626 16.862,72.874C16.161,73.168 15.372,73.172 14.668,72.884C14.363,72.76 14.006,72.565 13.714,72.406L13.713,72.406Z" style="fill:rgb(26,58,46);fill-rule:nonzero;"/>
    </g>
    <g transform="matrix(1.033211,0,0,1.033211,-3.048964,-1.425144)">
        <path d="M14.329,71.702C16.075,73.439 17.966,71.378 17.721,69.353L17.711,69.273C17.953,68.959 17.842,69.004 18.154,68.941C18.578,69.827 17.882,70.343 18.012,71.2L18.36,71.355C18.111,71.943 17.442,72.626 16.862,72.874C16.161,73.168 15.372,73.172 14.668,72.884C14.363,72.76 14.006,72.565 13.714,72.406C13.664,72.149 13.85,71.796 13.953,71.535L14.257,71.3L14.329,71.703L14.329,71.702Z" style="fill:rgb(26,58,46);fill-rule:nonzero;"/>
    </g>
    <g transform="matrix(1.033211,0,0,1.033211,-3.048964,-1.425144)">
        <path d="M14.097,69.304C14.943,69.646 14.656,70.161 15.185,70.533C15.511,70.762 15.527,69.869 16.36,70.881C16.321,71.823 14.963,71.716 14.328,71.703L14.256,71.3L14.42,71.194L14.383,71.085C14.09,70.219 14.036,70.283 14.098,69.304L14.097,69.304Z" style="fill:rgb(26,58,46);fill-rule:nonzero;"/>
    </g>
    <g transform="matrix(1.033211,0,0,1.033211,-3.048964,-1.425144)">
        <path d="M13.952,71.535C13.594,71.175 12.758,70.022 13.296,69.576C13.557,69.563 13.679,69.388 14.098,69.304C14.037,70.283 14.09,70.219 14.383,71.085L14.42,71.194L14.256,71.3L13.951,71.535L13.952,71.535Z" style="fill:rgb(26,58,46);fill-rule:nonzero;"/>
    </g>
    <g transform="matrix(1.033211,0,0,1.033211,-3.048964,-1.425144)">
        <path d="M15.892,67.907C16.156,67.889 16.277,67.946 16.526,68.022C16.867,68.326 16.981,68.399 17.127,68.839L17.007,68.946L16.522,68.551L16.465,68.47C16.061,68.232 15.584,68.337 15.087,68.372L15.124,68.261L15.892,67.907Z" style="fill:rgb(26,58,46);fill-rule:nonzero;"/>
    </g>
    <g transform="matrix(1.033211,0,0,1.033211,-3.048964,-1.425144)">
        <path d="M64.679,83.96L64.905,84.052L64.849,84.265C63.822,84.959 62.133,84.983 60.918,85.007C54.294,85.138 47.671,85.549 41.045,85.366C38.635,85.299 36.218,84.922 33.808,84.824C29.23,84.634 24.124,85.3 19.688,84.084C16.077,83.095 12.532,82.956 8.896,82.359C8.677,82.243 8.689,82.225 8.518,82.045C9.461,81.567 20.334,83.865 22.161,84.173C25.846,84.794 29.698,84.185 33.319,84.467C40.507,85.027 47.509,85.281 54.715,84.803C57.407,84.62 62.307,85.083 64.678,83.961L64.679,83.96Z" style="fill:rgb(26,58,46);fill-rule:nonzero;"/>
    </g>
    <g transform="matrix(1.033211,0,0,1.033211,-3.048964,-1.425144)">
        <path d="M46.355,76.794C47.134,76.78 48.112,76.683 48.758,77.131C48.364,77.277 44.387,77.203 43.695,77.214C38.385,77.298 33.177,78.013 27.874,77.9C26.8,77.891 26.019,77.959 24.978,77.667L24.913,77.533C25.874,77.351 29.898,77.65 31.361,77.566C33.251,77.457 35.273,77.285 37.159,77.161C40.222,76.986 43.288,76.863 46.355,76.793L46.355,76.794Z" style="fill:rgb(26,58,46);fill-rule:nonzero;"/>
    </g>
    <g transform="matrix(1.033211,0,0,1.033211,-3.048964,-1.425144)">
        <path d="M45.931,75.548C46.944,75.487 47.497,75.447 48.472,75.717L48.378,75.83C47.39,75.992 45.979,75.887 44.919,75.914L37.384,76.084C33.982,76.158 30.922,76.543 27.513,76.588C26.844,76.54 25.584,76.512 25.048,76.201C25.663,75.974 27.323,76.264 28.066,76.224C34.006,75.905 39.983,75.585 45.932,75.547L45.931,75.548Z" style="fill:rgb(26,58,46);fill-rule:nonzero;"/>
    </g>
    <g transform="matrix(1.033211,0,0,1.033211,-3.048964,-1.425144)">
        <path d="M46.233,74.162C47.33,74.245 47.94,74.234 48.971,74.646C48.921,74.661 44.83,74.609 44.24,74.601C38.893,74.526 32.739,75.37 27.501,75.096C27.045,75.123 25.539,75.252 25.243,75.01L25.107,75.038C28.069,74.41 27.872,74.922 30.411,74.803L46.232,74.162L46.233,74.162Z" style="fill:rgb(26,58,46);fill-rule:nonzero;"/>
    </g>
    <g transform="matrix(1.033211,0,0,1.033211,-3.048964,-1.425144)">
        <path d="M66.603,66.706C68.503,66.622 68.739,68.14 67.311,69.449C67.174,69.446 67.037,69.438 66.9,69.425C65.252,69.271 64.982,67.646 66.603,66.706Z" style="fill:rgb(26,58,46);fill-rule:nonzero;"/>
    </g>
    <g transform="matrix(1.033211,0,0,1.033211,-3.048964,-1.425144)">
        <path d="M9.542,64.231C9.8,64.238 10.083,64.273 10.342,64.299C11.57,65.066 10.956,66.38 9.822,66.919C8.285,66.162 8.16,65.333 9.542,64.231Z" style="fill:rgb(26,58,46);fill-rule:nonzero;"/>
    </g>
    <g transform="matrix(1.033211,0,0,1.033211,-3.048964,-1.425144)">
        <path d="M59.971,13.121C60.299,12.952 60.694,12.976 60.999,13.183C61.305,13.39 61.473,13.747 61.438,14.115C61.403,14.482 61.17,14.801 60.83,14.946C60.33,15.16 59.75,14.94 59.519,14.448C59.288,13.956 59.487,13.369 59.971,13.121Z" style="fill:rgb(26,58,46);fill-rule:nonzero;"/>
    </g>
    <g transform="matrix(1.033211,0,0,1.033211,-3.048964,-1.425144)">
        <path d="M55.539,12.47C55.889,12.405 56.247,12.535 56.473,12.81C56.7,13.085 56.759,13.46 56.629,13.792C56.499,14.123 56.199,14.358 55.846,14.404C55.319,14.474 54.833,14.111 54.75,13.587C54.667,13.063 55.017,12.568 55.539,12.471L55.539,12.47Z" style="fill:rgb(26,58,46);fill-rule:nonzero;"/>
    </g>
    <g transform="matrix(1.033211,0,0,1.033211,-3.048964,-1.425144)">
        <path d="M16.925,13.308C17.245,13.197 17.6,13.267 17.854,13.492C18.108,13.717 18.22,14.061 18.147,14.392C18.075,14.723 17.829,14.989 17.505,15.088C17.017,15.237 16.499,14.967 16.341,14.482C16.183,13.997 16.442,13.475 16.925,13.308Z" style="fill:rgb(26,58,46);fill-rule:nonzero;"/>
    </g>
    <g transform="matrix(1.033211,0,0,1.033211,-3.048964,-1.425144)">
        <path d="M13.482,13.893C14.046,14.044 14.293,14.32 14.507,14.833C14.5,15.347 14.359,15.468 14.052,15.864C13.673,15.888 13.652,15.876 13.282,15.769C12.529,15.074 12.916,14.545 13.481,13.894L13.482,13.893Z" style="fill:rgb(26,58,46);fill-rule:nonzero;"/>
    </g>
    <g transform="matrix(1.033211,0,0,1.033211,-3.048964,-1.425144)">
        <path d="M158.801,10.918C160.164,10.906 162.526,10.77 163.591,11.738C164.182,12.251 164.144,13.667 163.572,14.183C160.392,17.06 156.397,19.508 152.967,22.074C146.589,26.941 140.288,31.909 134.067,36.978C130.807,39.661 127.712,43.045 124.567,45.913C121.344,48.853 117.975,51.601 114.758,54.54C113.145,56.015 111.23,57.093 109.703,58.442C105.245,62.38 100.246,65.425 95.765,69.324C92.854,71.849 77.796,86.135 74.908,85.399C74.548,84.698 75.334,81.694 75.527,80.603C75.859,77.72 76.821,74.386 77.428,71.455C78.704,65.296 79.842,57.563 79.567,51.279C79.402,47.836 79.021,44.407 78.426,41.012C78.02,38.842 77.601,36.674 77.17,34.509C76.639,31.973 75.719,28.119 75.196,25.457C75.165,25.298 75.417,25.137 75.55,25.027C74.629,23.895 74.312,18.266 73.745,16.522C73.514,15.812 72.415,12.32 72.49,11.787C73.584,11.286 80.833,12.267 82.704,12.192C88.246,11.97 93.828,11.664 99.363,11.409C108.229,11.007 117.101,10.747 125.975,10.627C132.872,10.561 139.77,10.592 146.667,10.719C150.762,10.795 154.572,11.129 158.801,10.917L158.801,10.918Z" style="fill:rgb(241,237,234);fill-rule:nonzero;"/>
    </g>
    <g transform="matrix(1.033211,0,0,1.033211,-3.048964,-1.425144)">
        <path d="M105.846,41.693C105.421,40.309 105.11,37.684 104.82,36.166L103.595,29.545C103.388,28.426 102.998,26.727 102.934,25.641C103.503,24.597 105.363,24.727 106.39,24.49C107.558,24.221 108.342,23.645 109.495,24.191C109.534,24.215 109.575,24.238 109.612,24.265C110.411,24.821 112.56,37.974 112.747,39.734C109.64,40.689 109.421,41.184 105.845,41.693L105.846,41.693Z" style="fill:rgb(26,58,46);fill-rule:nonzero;"/>
    </g>
    <g transform="matrix(1.033211,0,0,1.033211,-3.048964,-1.425144)">
        <path d="M105.846,41.693C105.421,40.309 105.11,37.684 104.82,36.166L103.595,29.545C103.388,28.426 102.998,26.727 102.934,25.641C103.503,24.597 105.363,24.727 106.39,24.49C107.558,24.221 108.342,23.645 109.495,24.191C108.489,24.154 104.393,24.983 103.525,25.396C102.855,26.191 105.925,39.37 106.058,41.241C108.43,41.241 110.256,40.454 112.341,39.415C112.098,35.335 110.815,31.083 110.117,27.048C109.975,26.228 109.839,24.917 109.494,24.191C109.533,24.215 109.574,24.238 109.611,24.265C110.41,24.821 112.559,37.974 112.746,39.734C109.639,40.689 109.42,41.184 105.844,41.693L105.846,41.693Z" style="fill:rgb(26,58,46);fill-rule:nonzero;"/>
    </g>
    <g transform="matrix(1.033211,0,0,1.033211,-3.048964,-1.425144)">
        <path d="M91.802,12.51C92.317,12.476 92.839,12.451 93.333,12.637C93.949,12.869 94.251,14.164 93.986,14.722C91.716,14.501 87.234,15.013 84.884,15.341C84.291,15.36 83.543,15.428 82.978,15.2C82.428,14.977 82.379,14.119 82.624,13.645C83.222,13.421 85.684,13.315 86.519,13.226C88.303,13.035 90.033,12.905 91.803,12.51L91.802,12.51Z" style="fill:rgb(26,58,46);fill-rule:nonzero;"/>
    </g>
    <g transform="matrix(1.033211,0,0,1.033211,-3.048964,-1.425144)">
        <path d="M91.4,12.916C91.965,12.907 92.73,12.839 93.225,13.055C93.591,13.474 93.791,13.689 93.506,14.19C90.915,14.285 87.933,14.62 85.324,14.875C84.764,14.89 83.503,14.969 83.074,14.701C82.86,14.264 82.849,14.402 82.904,13.99C83.777,13.762 85.641,13.659 86.613,13.57C88.218,13.427 89.816,13.209 91.401,12.917L91.4,12.916Z" style="fill:rgb(241,237,234);fill-rule:nonzero;"/>
    </g>
    <g transform="matrix(1.033211,0,0,1.033211,-3.048964,-1.425144)">
        <path d="M120.069,11.671C120.647,11.818 120.818,12.649 120.312,13.158C119.527,13.399 112.036,14.132 110.951,14.068L110.42,12.782C111.099,12.041 118.37,12.249 120.07,11.671L120.069,11.671Z" style="fill:rgb(26,58,46);fill-rule:nonzero;"/>
    </g>
    <g transform="matrix(1.033211,0,0,1.033211,-3.048964,-1.425144)">
        <path d="M119.774,12.095C120.076,12.189 119.973,12.138 120.182,12.473L120.084,12.743C119.456,13.059 112.523,13.701 111.481,13.698C111.095,13.6 111.089,13.508 110.974,13.197L111.09,12.963C112.097,12.484 118.151,12.515 119.773,12.096L119.774,12.095Z" style="fill:rgb(241,237,234);fill-rule:nonzero;"/>
    </g>
    <g transform="matrix(1.033211,0,0,1.033211,-3.048964,-1.425144)">
        <path d="M86.8,27.099C87.213,27.092 87.054,27.049 87.408,27.256C88.804,29.474 91.158,41.929 91.498,44.983C91.528,45.255 83.632,47.667 82.958,47.634C82.793,47.626 82.959,47.509 82.953,47.406C83.697,46.979 82.866,28.29 83.476,28.034C85.216,27.302 90.659,44.136 89.98,43.899C89.911,42.01 86.263,42.252 85.851,40.115C85.573,38.671 85.418,39.796 85.058,38.532C84.747,37.733 85.786,37.905 85.531,37.089C84.084,37.258 85.802,39.93 84.855,40.812C84.831,42.431 83.794,44.173 83.955,45.803C84.367,49.972 84.854,42.597 85.744,46.69C85.801,46.954 83.041,47.458 82.9,47.636C82.333,47.027 80.131,30.434 80.388,28.992C81.148,28.295 85.63,27.278 86.799,27.1L86.8,27.099Z" style="fill:rgb(26,58,46);fill-rule:nonzero;"/>
    </g>
    <g transform="matrix(1.033211,0,0,1.033211,-3.048964,-1.425144)">
        <path d="M134.341,11.297C135.221,11.233 136.148,11.081 136.639,11.873C136.54,13.129 132.822,13.229 131.73,13.345C131.256,13.352 130.916,13.421 130.559,13.142C130.537,13.045 130.511,12.948 130.485,12.851C130.219,11.879 129.989,12.322 129.589,12.094C130.313,11.272 132.916,11.532 134.342,11.296L134.341,11.297Z" style="fill:rgb(26,58,46);fill-rule:nonzero;"/>
    </g>
    <g transform="matrix(1.033211,0,0,1.033211,-3.048964,-1.425144)">
        <path d="M135.134,11.603C135.56,11.635 135.668,11.623 136.017,11.858L135.991,12.097C135.192,12.626 132.8,12.829 131.74,12.954C131.066,12.953 130.936,12.915 130.503,12.392L130.564,12.144C131.232,11.678 133.792,11.831 135.134,11.602L135.134,11.603Z" style="fill:rgb(241,237,234);fill-rule:nonzero;"/>
    </g>
    <g transform="matrix(1.033211,0,0,1.033211,-3.048964,-1.425144)">
        <path d="M153.638,14.367C154.378,14.762 154.411,17.361 154.161,18.067C153.991,18.548 152.496,18.862 151.989,18.997C151.683,18.508 151.57,15.82 151.543,15.105C152.269,14.924 152.857,14.807 153.518,14.437L153.638,14.368L153.638,14.367Z" style="fill:rgb(26,58,46);fill-rule:nonzero;"/>
    </g>
    <g transform="matrix(1.033211,0,0,1.033211,-3.048964,-1.425144)">
        <path d="M153.487,14.77C153.915,15.089 153.936,17.317 153.954,17.896C153.205,18.337 153.008,18.432 152.175,18.673C152.18,17.641 151.946,16.502 151.769,15.478C152.356,15.273 152.918,15.019 153.487,14.77Z" style="fill:rgb(26,58,46);fill-rule:nonzero;"/>
    </g>
    <g transform="matrix(1.033211,0,0,1.033211,-3.048964,-1.425144)">
        <path d="M93.768,22.479C94.806,24.822 95.571,26.696 96.906,28.982C97.75,30.431 98.009,31.987 99.101,33.519C99.039,35.907 99.355,38.754 99.533,41.214C99.776,44.608 99.754,47.872 99.905,51.237L99.689,51.098C99.576,50.821 99.485,46.875 99.498,46.274C99.582,42.244 98.666,37.761 98.821,33.794C97.956,32.458 97.3,30.53 96.615,29.039C95.86,27.395 93.652,24.252 93.769,22.479L93.768,22.479Z" style="fill:rgb(26,58,46);fill-rule:nonzero;"/>
    </g>
    <g transform="matrix(1.033211,0,0,1.033211,-3.048964,-1.425144)">
        <path d="M117.513,18.859C117.785,19.048 121.194,25.334 121.211,25.91C121.34,30.232 122.033,34.776 122.338,39.064L122.169,39.041C121.457,38.183 121.46,26.292 120.384,24.617C119.82,23.739 117.62,19.728 117.512,18.859L117.513,18.859Z" style="fill:rgb(26,58,46);fill-rule:nonzero;"/>
    </g>
    <g transform="matrix(1.033211,0,0,1.033211,-3.048964,-1.425144)">
        <path d="M142.648,16.637C142.783,16.621 142.973,16.675 143.115,16.704C143.191,16.769 143.283,16.848 143.393,16.94C143.643,18.597 143.978,20.756 144.177,22.37C143.846,23.198 142.238,23.7 141.429,23.464C142.015,23.069 140.677,23.73 141.144,20.349C140.822,18.687 142.315,17.795 142.842,18.795C142.845,18.625 142.593,19.735 142.438,19.562C141.608,19.539 143.036,19.472 142.185,19.568C142.39,20.404 141.323,22.207 141.147,22.724L143.836,21.807L141.429,23.461L141.099,22.715L141.196,22.708C140.69,22.468 140.145,18.111 139.697,17.02L139.672,16.957C140.759,16.798 141.552,16.699 142.648,16.638L142.648,16.637Z" style="fill:rgb(26,58,46);fill-rule:nonzero;"/>
    </g>
    <g transform="matrix(1.033211,0,0,1.033211,-3.048964,-1.425144)">
        <path d="M148.199,11.342C148.717,11.274 149.112,11.181 149.612,11.334C149.983,11.643 149.892,11.49 150.018,11.904C149.499,12.485 147.883,12.521 146.928,12.688C146.449,12.715 146.033,12.77 145.573,12.643C145.391,12.36 145.253,12.077 145.099,11.778C145.45,11.45 147.579,11.388 148.2,11.343L148.199,11.342Z" style="fill:rgb(26,58,46);fill-rule:nonzero;"/>
    </g>
    <g transform="matrix(1.033211,0,0,1.033211,-3.048964,-1.425144)">
        <path d="M148.136,11.739L148.184,12.055C147.409,12.229 146.701,12.438 145.925,12.208L146.009,12.037C146.651,11.738 147.418,11.768 148.135,11.739L148.136,11.739Z" style="fill:rgb(241,237,234);fill-rule:nonzero;"/>
    </g>
    <g transform="matrix(1.033211,0,0,1.033211,-3.048964,-1.425144)">
        <path d="M148.136,11.739C148.607,11.678 148.876,11.594 149.314,11.768C149.027,12.039 148.657,11.994 148.184,12.055L148.136,11.739Z" style="fill:rgb(26,58,46);fill-rule:nonzero;"/>
    </g>
    <g transform="matrix(1.033211,0,0,1.033211,-3.048964,-1.425144)">
        <path d="M97.092,63.51L97.217,63.66C97.063,64.025 96.273,64.514 95.905,64.755C90.942,68.01 86.611,72.722 81.787,76.091C81.659,75.961 81.711,76.041 81.706,75.797C86.796,72.18 91.646,67.439 97.092,63.51Z" style="fill:rgb(26,58,46);fill-rule:nonzero;"/>
    </g>
    <g transform="matrix(1.033211,0,0,1.033211,-3.048964,-1.425144)">
        <path d="M123.508,20.825L123.678,20.905C124.159,21.281 125.551,29.676 125.857,30.989C127.579,30.477 128.983,30.499 130.435,29.971C129.677,30.776 127.018,30.962 125.494,31.373C125.224,29.351 124.797,27.248 124.405,25.247C124.148,23.939 123.656,22.138 123.509,20.824L123.508,20.825Z" style="fill:rgb(26,58,46);fill-rule:nonzero;"/>
    </g>
    <g transform="matrix(1.033211,0,0,1.033211,-3.048964,-1.425144)">
        <path d="M119.046,44.073L119.259,44.186L119.289,44.38C118.119,44.742 115.366,46.988 114.21,47.768C111.22,49.787 108.483,51.785 105.43,53.752L105.212,53.626L105.257,53.471C108.513,51.588 111.119,49.501 114.246,47.424C115.817,46.38 117.355,44.985 119.047,44.073L119.046,44.073Z" style="fill:rgb(26,58,46);fill-rule:nonzero;"/>
    </g>
    <g transform="matrix(1.033211,0,0,1.033211,-3.048964,-1.425144)">
        <path d="M123.508,20.825C124.837,20.874 127.273,19.739 128.257,20.08C128.964,20.98 131.009,29.488 130.435,29.972C124.038,33.284 124.205,21.821 128.405,20.338C128.219,20.467 132.595,31.577 125.758,31.055L123.508,20.825Z" style="fill:rgb(26,58,46);fill-rule:nonzero;"/>
    </g>
    <g transform="matrix(1.033211,0,0,1.033211,-3.048964,-1.425144)">
        <path d="M138.072,29.209L138.307,29.374C138.178,29.707 135.152,31.539 134.679,31.899C133.349,32.912 132.016,33.981 130.67,34.971C129.237,36.025 127.588,36.757 126.394,38.105L126.344,38.111L126.241,38.024C127.129,36.614 130.381,35.093 131.834,33.775C133.636,32.141 136.09,30.684 138.072,29.209Z" style="fill:rgb(26,58,46);fill-rule:nonzero;"/>
    </g>
    <g transform="matrix(1.033211,0,0,1.033211,-3.048964,-1.425144)">
        <path d="M92.07,30.558C92.463,31.89 92.778,35.128 93.114,36.672C93.378,37.889 93.995,40.408 93.969,41.459C93.656,41.427 93.79,41.485 93.554,41.283C93.245,40.125 91.991,31.593 92.07,30.558Z" style="fill:rgb(26,58,46);fill-rule:nonzero;"/>
    </g>
    <g transform="matrix(1.033211,0,0,1.033211,-3.048964,-1.425144)">
        <path d="M158.645,11.163L158.811,11.102L159.111,11.261L159.201,11.58C158.678,12.178 157.345,12.164 156.516,12.238C156.163,12.266 156.144,12.277 155.852,12.102L155.782,11.816C156.274,11.28 157.837,11.253 158.645,11.163Z" style="fill:rgb(26,58,46);fill-rule:nonzero;"/>
    </g>
    <g transform="matrix(1.033211,0,0,1.033211,-3.048964,-1.425144)">
        <path d="M95.237,30.818C95.643,31.338 96.407,39.58 96.571,40.853L96.305,40.68C96.138,39.39 96.022,38.01 95.857,36.693C95.643,34.995 95.188,32.446 95.236,30.819L95.237,30.818Z" style="fill:rgb(26,58,46);fill-rule:nonzero;"/>
    </g>
    <g transform="matrix(1.033211,0,0,1.033211,-3.048964,-1.425144)">
        <path d="M149.308,23.419L149.497,23.533C149.102,24.364 143.458,27.58 142.235,28.543L142.095,28.513C142.141,28.232 142.221,28.125 142.493,27.963C144.878,26.539 147.108,25.124 149.308,23.42L149.308,23.419Z" style="fill:rgb(26,58,46);fill-rule:nonzero;"/>
    </g>
    <g transform="matrix(1.033211,0,0,1.033211,-3.048964,-1.425144)">
        <path d="M137.429,18.799C137.932,19.436 138.447,25.462 138.662,26.854C138.559,26.792 138.422,26.67 138.325,26.591C138.148,25.928 137.38,19.503 137.429,18.8L137.429,18.799Z" style="fill:rgb(26,58,46);fill-rule:nonzero;"/>
    </g>
    <g transform="matrix(1.033211,0,0,1.033211,-3.048964,-1.425144)">
        <path d="M148.532,22.299L148.718,22.503L148.701,22.721C147.511,23.2 142.387,26.332 141.508,27.249L141.418,27.177C141.645,26.374 147.435,22.971 148.532,22.299Z" style="fill:rgb(26,58,46);fill-rule:nonzero;"/>
    </g>
    <g transform="matrix(1.033211,0,0,1.033211,-3.048964,-1.425144)">
        <path d="M160.441,12.967C160.653,13.052 160.806,13.22 160.898,13.432C161.37,14.511 160.715,14.704 160.035,14.987C159.879,14.982 159.828,14.869 159.678,14.721C159.432,13.631 159.642,13.471 160.441,12.966L160.441,12.967Z" style="fill:rgb(26,58,46);fill-rule:nonzero;"/>
    </g>
    <g transform="matrix(1.033211,0,0,1.033211,-3.048964,-1.425144)">
        <path d="M147.629,14.503C148.656,14.631 149.102,15.412 149.774,16.221C149.883,17.337 150.4,19.586 150.32,20.493C149.824,20.198 149.569,17.063 149.478,16.324C148.888,15.584 148.405,15.05 147.629,14.504L147.629,14.503Z" style="fill:rgb(26,58,46);fill-rule:nonzero;"/>
    </g>
    <g transform="matrix(1.033211,0,0,1.033211,-3.048964,-1.425144)">
        <path d="M117.238,26.303L117.507,26.181C117.193,27.143 118.461,30.796 118.804,31.979L118.525,31.942C118.477,31.829 118.433,31.715 118.392,31.6C118.119,30.812 116.909,26.998 117.238,26.303Z" style="fill:rgb(26,58,46);fill-rule:nonzero;"/>
    </g>
    <g transform="matrix(1.033211,0,0,1.033211,-3.048964,-1.425144)">
        <path d="M113.82,27.246C114.331,27.911 115.355,31.983 115.617,32.976C115.448,32.89 115.397,32.829 115.253,32.707C114.86,31.105 113.877,28.697 113.82,27.246Z" style="fill:rgb(26,58,46);fill-rule:nonzero;"/>
    </g>
    <g transform="matrix(1.033211,0,0,1.033211,-3.048964,-1.425144)">
        <path d="M131.948,21.911C132.311,22.25 132.897,25.922 133.153,26.903L132.872,26.699C132.28,25.402 132.133,23.368 131.948,21.911Z" style="fill:rgb(26,58,46);fill-rule:nonzero;"/>
    </g>
    <g transform="matrix(1.033211,0,0,1.033211,-3.048964,-1.425144)">
        <path d="M134.566,20.898C134.88,21.21 135.496,24.623 135.645,25.333L135.413,25.217C135.077,24.706 134.548,21.592 134.566,20.899L134.566,20.898Z" style="fill:rgb(26,58,46);fill-rule:nonzero;"/>
    </g>
    <g transform="matrix(1.033211,0,0,1.033211,-3.048964,-1.425144)">
        <path d="M134.455,15.688C134.804,15.701 137.338,18.211 137.395,18.72C137.047,18.569 134.882,16.321 134.426,15.864L134.455,15.688Z" style="fill:rgb(26,58,46);fill-rule:nonzero;"/>
    </g>
    <g transform="matrix(1.033211,0,0,1.033211,-3.048964,-1.425144)">
        <path d="M97.104,58.394L97.323,58.439L97.393,58.616C96.548,59.161 95.147,60.332 94.331,60.984L94.131,61.069C94.189,60.656 96.575,58.826 97.103,58.394L97.104,58.394Z" style="fill:rgb(26,58,46);fill-rule:nonzero;"/>
    </g>
    <g transform="matrix(1.033211,0,0,1.033211,-3.048964,-1.425144)">
        <path d="M157.533,13.697C157.955,13.717 158.391,14.091 158.794,14.351C158.805,15.042 158.835,15.595 158.897,16.283L158.666,16.156C158.362,15.727 158.47,15.235 158.502,14.682C158.251,14.033 157.834,14.275 157.533,13.697Z" style="fill:rgb(26,58,46);fill-rule:nonzero;"/>
    </g>
    <g transform="matrix(1.033211,0,0,1.033211,-3.048964,-1.425144)">
        <path d="M145.624,16.899C146.187,17.69 146.022,19.174 146.467,20.234L146.174,20.154C145.796,19.053 145.709,18.042 145.624,16.899Z" style="fill:rgb(26,58,46);fill-rule:nonzero;"/>
    </g>
    <g transform="matrix(1.033211,0,0,1.033211,-3.048964,-1.425144)">
        <path d="M123.761,9.047L147.195,9.693C151.564,9.854 155.712,9.829 160.087,10.415C156.749,10.977 149.601,10.415 146.073,10.414C141.605,10.413 136.916,10.25 132.462,10.273C121.783,10.348 111.107,10.604 100.437,11.042L89.013,11.557C86.894,11.661 84.494,11.916 82.389,11.842C72.767,11.504 63.242,9.996 53.662,9.241L53.559,8.932C56.949,8.394 60.809,8.513 64.26,8.233C65.696,8.117 66.772,8.468 68.362,8.026C68.428,8.052 66.015,7.98 65.672,7.94C67.462,7.607 69.367,7.879 71.169,7.864C80.173,7.785 89.079,7.644 98.076,8.045C99.145,7.93 110.079,8.404 110.926,8.661C113.059,8.932 116.21,8.728 118.425,8.848C119.841,8.826 122.337,8.908 123.762,9.046L123.761,9.047Z" style="fill:rgb(241,237,234);fill-rule:nonzero;"/>
    </g>
    <g transform="matrix(1.033211,0,0,1.033211,-3.048964,-1.425144)">
        <path d="M98.075,8.046C99.144,7.931 110.078,8.405 110.925,8.662C109.125,8.648 99.31,8.44 98.075,8.046Z" style="fill:rgb(26,58,46);fill-rule:nonzero;"/>
    </g>
    <g transform="matrix(1.033211,0,0,1.033211,-3.048964,-1.425144)">
        <path d="M118.424,8.849C119.84,8.827 122.336,8.909 123.761,9.047C122.956,9.266 119.201,9.094 118.424,8.849Z" style="fill:rgb(26,58,46);fill-rule:nonzero;"/>
    </g>
    <g transform="matrix(1.033211,0,0,1.033211,-3.048964,-1.425144)">
        <path d="M53.661,9.242C53.142,9.208 52.652,9.235 52.269,8.913C52.739,8.724 52.991,8.855 53.558,8.933L53.661,9.242Z" style="fill:rgb(26,58,46);fill-rule:nonzero;"/>
    </g>
</svg>
