<?xml version="1.0" encoding="UTF-8" standalone="no"?>
<!DOCTYPE svg PUBLIC "-//W3C//DTD SVG 1.1//EN" "http://www.w3.org/Graphics/SVG/1.1/DTD/svg11.dtd">
<svg width="100%" height="100%" viewBox="0 0 167 95" version="1.1" xmlns="http://www.w3.org/2000/svg" xmlns:xlink="http://www.w3.org/1999/xlink" xml:space="preserve" xmlns:serif="http://www.serif.com/" style="fill-rule:evenodd;clip-rule:evenodd;stroke-linejoin:round;stroke-miterlimit:2;">
    <g transform="matrix(1.024034,0,0,1.024034,-1.604161,-1.26576)">
        <path d="M138.961,8.512C139.871,8.337 142.189,8.52 143.076,8.772C149.522,9.293 156.043,9.33 162.447,10.241C163.704,10.42 163.95,11.04 164.565,12.001L164.647,13.167C164.436,13.576 164.194,13.967 163.922,14.338C162.688,16.031 155.514,20.118 153.315,21.831C150.52,24.008 147.222,26.282 144.413,28.537C143.144,29.555 141.204,30.707 140.026,31.7C137.755,33.61 134.914,35.512 132.74,37.393C129.743,39.988 126.776,42.801 123.827,45.451C122.1,47.002 120.346,48.375 118.564,49.845C117.645,50.604 116.783,51.496 115.843,52.297C113.661,54.154 111.587,55.605 109.251,57.22C107.709,58.285 106.057,59.869 104.466,60.957C101.516,62.975 98.431,65.079 95.663,67.341C90.059,71.92 84.696,76.848 78.877,81.173C77.695,82.052 75.338,83.529 73.855,83.882C73.763,83.904 71.887,83.775 71.606,83.761C70.15,83.707 68.692,83.687 67.235,83.699C65.371,83.733 63.552,84.052 61.721,84.196C60.798,84.048 60.221,83.814 59.255,83.862C46.386,84.497 33.544,83.296 20.717,82.418C20.331,82.338 19.627,82.357 19.277,82.264C15.578,81.282 6.538,80.464 3.692,78.359C2.261,74.545 1.358,69.425 1.608,65.362C1.818,61.952 1.622,58.68 1.75,55.324C2.266,43.329 4.019,31.419 6.982,19.784C7.746,16.796 8.73,11.741 11.085,9.623C14.391,6.648 33.587,6.106 38.835,6.095C40.812,6.091 42.787,6.355 44.759,6.326C48.05,6.278 51.373,5.908 54.664,5.765C62.225,5.408 69.794,5.258 77.363,5.315C80.81,5.361 84.19,5.644 87.584,5.822L110.557,7.192C120.151,7.798 129.403,8.048 138.964,8.514L138.961,8.512Z" style="fill:rgb(241,237,234);fill-rule:nonzero;"/>
    </g>
    <g transform="matrix(1.024034,0,0,1.024034,-1.604161,-1.26576)">
        <path d="M71.827,9.633C73.754,15.213 73.794,19.611 74.808,25.193C75.776,30.178 76.7,35.158 77.493,40.169C79.415,52.315 77.342,64.344 74.029,76.048C73.552,77.732 73.342,81.993 72.259,83.062C71.256,83.373 70.057,83.364 69.004,83.352C67,83.329 65.051,83.463 63.053,83.616C62.781,83.47 62.78,83.467 62.554,83.255C57.344,83.606 52.122,83.734 46.901,83.638C43.255,83.536 39.859,83.237 36.288,83.044L26.831,82.448C24.253,82.291 21.664,82.204 19.101,81.855C17.598,81.65 16.113,81.251 14.629,80.94C12.921,80.581 11.21,80.301 9.507,79.901C8.025,79.553 5.474,79.275 4.37,78.252C2.489,76.509 1.923,68.343 1.949,65.89C1.968,64.097 2.105,62.307 2.128,60.516C2.152,58.618 2.053,56.721 2.141,54.823C2.381,49.682 2.961,44.628 3.622,39.529C3.831,37.914 3.917,36.28 4.148,34.669C4.48,32.359 5.038,30.066 5.502,27.779C5.773,26.444 5.947,25.087 6.253,23.759C6.613,22.192 7.129,20.667 7.541,19.114C8.256,16.421 9.142,11.886 11.18,9.916C14.249,6.951 35.493,6.287 40.309,6.455C44.75,6.61 49.256,6.723 53.679,7.113C55.941,7.313 58.182,7.711 60.44,7.954C63.761,8.312 67.312,8.554 70.568,9.299C68.126,9.358 66.981,9.189 64.546,9.68C61.396,8.41 60.936,9.089 57.897,8.669C55.564,8.346 53.437,7.769 50.946,7.552C41.155,6.796 31.316,6.933 21.551,7.961C18.743,8.241 15.958,8.257 13.306,9.377C11.766,10.027 10.789,10.968 10.169,12.54C8.779,16.062 7.307,21.977 6.562,25.699C5.243,32.294 1.533,57.069 3.972,62.443C4.864,64.409 6.443,66.011 8.276,67.114C9.345,69.267 9.383,72.273 7.722,74.15C7.278,74.651 6.802,75.133 6.353,75.639C6.318,76.455 6.234,77.249 6.453,78.035L6.578,78.131C6.786,77.488 6.686,76.578 6.654,75.881L6.732,75.767C7.238,75.045 7.83,74.583 8.442,73.913C9.552,72.605 9.37,70.354 9.256,68.778C9.159,67.43 8.046,66.338 7.048,65.578C2.446,62.07 3.628,57.332 3.631,52.341C3.491,51.321 3.556,50.284 3.822,49.289C4.82,36.964 6.449,24.456 10.439,12.707C11.885,8.45 18.049,8.773 21.652,8.318C29.876,7.281 38.184,7.292 46.449,7.828C47.87,7.92 49.374,7.8 50.801,7.94C54.648,8.504 58.445,9.094 62.324,9.41C62.938,9.46 63.698,9.806 64.215,10.14C66.118,13.942 66.12,18.889 66.876,23.037C67.413,25.986 68.271,28.847 68.82,31.788C69.431,35.057 69.729,38.394 70.179,41.687C70.955,47.368 73.003,58.357 71.232,63.725C69.295,69.596 62.37,70.636 60.947,73.989C60.533,74.965 60.639,76.091 60.643,77.13C62.205,78.465 62.41,79.013 62.58,81.184L62.609,81.568L62.8,81.661C63.022,81.175 62.919,80.748 62.921,80.238C62.926,78.745 62.053,77.83 61.064,76.848C61.044,75.183 60.964,74.205 62.286,72.892C63.166,72.146 64.612,71.004 65.595,70.467C70.295,67.899 72.506,63.851 72.339,58.483C72.196,53.89 71.655,48.657 70.989,44.096C70.367,39.84 69.743,35.64 69.16,31.382C68.759,29.011 67.851,26.601 67.457,24.222C66.422,18.917 66.481,15.334 64.71,10.15C65.82,9.968 66.954,9.77 68.078,9.745C69.401,9.715 70.511,9.822 71.83,9.633L71.827,9.633Z" style="fill:rgb(26,58,46);fill-rule:nonzero;"/>
    </g>
    <g transform="matrix(1.024034,0,0,1.024034,-1.604161,-1.26576)">
        <path d="M3.63,52.339C3.49,51.319 3.555,50.282 3.821,49.287C3.77,50.208 3.735,51.446 3.63,52.339Z" style="fill:rgb(241,237,234);fill-rule:nonzero;"/>
    </g>
    <g transform="matrix(1.024034,0,0,1.024034,-1.604161,-1.26576)">
        <path d="M23.822,17.989C28.49,15.482 36.697,15.945 41.944,15.769C42.749,15.742 44.959,16.259 45.937,16.393C47.995,17.978 47.895,20.286 47.816,22.645C47.852,23.492 47.84,24.622 47.952,25.432C48.072,26.578 47.85,28.049 47.843,29.218C47.83,31.533 47.597,34.081 47.599,36.366L47.8,59.102C47.851,61.895 48.481,67.077 47.849,69.683C47.351,70.276 44.323,69.979 43.453,70.083C41.218,70.35 39.015,70.187 36.779,70.085C32.995,70.259 29.248,70.456 25.46,70.121C24.213,70.027 23.128,69.37 22.13,68.669C21.93,66.671 20.995,63.949 21.397,61.968C21.428,60.725 21.439,59.482 21.43,58.238C21.898,55.781 21.695,54.072 21.867,51.795C22.074,49.061 22.243,46.992 22.22,44.23C22.209,42.982 22.292,38.943 22.553,37.918C22.764,35.533 23.202,33.49 23.297,30.983C23.435,27.331 22.965,21.431 23.822,17.989Z" style="fill:rgb(26,58,46);fill-rule:nonzero;"/>
    </g>
    <g transform="matrix(1.024034,0,0,1.024034,-1.604161,-1.26576)">
        <path d="M47.366,25.474L47.504,25.154L47.562,25.283L47.95,25.433C48.07,26.579 47.848,28.05 47.841,29.219C47.828,31.534 47.595,34.082 47.597,36.367L47.798,59.103C47.849,61.896 48.479,67.078 47.847,69.684C47.349,70.277 44.321,69.98 43.451,70.084C41.216,70.351 39.013,70.188 36.777,70.086C32.993,70.26 29.246,70.457 25.458,70.122C24.211,70.028 23.126,69.371 22.128,68.67C21.928,66.672 20.993,63.95 21.395,61.969C21.61,61.546 22.003,61.118 22.313,60.748C22.341,61.514 22.409,62.305 22.438,63.076C22.492,64.478 21.995,67.459 22.985,68.51C23.946,69.53 26.956,69.267 28.324,69.363C29.72,69.434 31.116,69.699 32.515,69.704C36.126,69.718 39.71,69.518 43.312,69.3C44.027,69.257 44.854,69.364 45.57,69.418C46.011,69.451 46.369,69.639 46.823,69.624C47.123,69.119 47.33,62.168 47.312,61.096C47.272,58.736 47.065,56.376 47.029,54.011C47.009,52.657 47.137,51.289 47.048,49.939C46.955,48.524 46.419,47.299 46.427,45.836C46.439,43.656 46.72,41.514 46.816,39.341C46.931,36.715 46.803,34.065 46.852,31.435C46.888,29.458 47.106,27.487 47.123,25.514L47.365,25.476L47.366,25.474Z" style="fill:rgb(241,237,234);fill-rule:nonzero;"/>
    </g>
    <g transform="matrix(1.024034,0,0,1.024034,-1.604161,-1.26576)">
        <path d="M47.366,25.474L47.504,25.154L47.562,25.283C47.749,25.986 47.319,30.504 47.388,31.906L47.161,32.95C47.176,32.625 47.158,32.222 47.145,31.891C47.064,29.79 47.492,27.561 47.364,25.474L47.366,25.474Z" style="fill:rgb(241,237,234);fill-rule:nonzero;"/>
    </g>
    <g transform="matrix(1.024034,0,0,1.024034,-1.604161,-1.26576)">
        <path d="M47.389,31.906C47.403,32.826 47.483,33.61 47.151,34.464C46.991,34.091 47.107,33.371 47.162,32.951L47.389,31.907L47.389,31.906Z" style="fill:rgb(241,237,234);fill-rule:nonzero;"/>
    </g>
    <g transform="matrix(1.024034,0,0,1.024034,-1.604161,-1.26576)">
        <path d="M47.186,39.814C47.629,40.606 47.186,46.361 47.195,47.698L47.032,47.805C46.365,46.62 46.981,41.351 47.186,39.814Z" style="fill:rgb(20,59,39);fill-rule:nonzero;"/>
    </g>
    <g transform="matrix(1.024034,0,0,1.024034,-1.604161,-1.26576)">
        <path d="M47.477,46.729L47.608,46.802C47.761,47.759 47.67,54.582 47.455,55.428C47.264,54.631 47.371,47.807 47.478,46.729L47.477,46.729Z" style="fill:rgb(241,237,234);fill-rule:nonzero;"/>
    </g>
    <g transform="matrix(1.024034,0,0,1.024034,-1.604161,-1.26576)">
        <path d="M47.644,63.392C47.828,64.501 47.933,67.891 47.64,68.863C47.17,68.229 47.423,64.297 47.644,63.392Z" style="fill:rgb(20,59,39);fill-rule:nonzero;"/>
    </g>
    <g transform="matrix(1.024034,0,0,1.024034,-1.604161,-1.26576)">
        <path d="M21.78,62.488C22.317,63.101 22.036,64.428 21.959,65.22C21.505,64.272 21.675,63.519 21.78,62.488Z" style="fill:rgb(241,237,234);fill-rule:nonzero;"/>
    </g>
    <g transform="matrix(1.024034,0,0,1.024034,-1.604161,-1.26576)">
        <path d="M23.822,17.989C28.49,15.482 36.697,15.945 41.944,15.769C42.749,15.742 44.959,16.259 45.937,16.393C47.995,17.978 47.895,20.286 47.816,22.645L47.53,22.542L47.267,22.137L46.985,21.986C46.845,20.008 46.732,19.235 46.169,17.381C45.565,17.162 44.582,16.815 43.983,16.721C39.778,16.055 28.152,16.313 24.635,17.956C24.548,17.997 24.461,18.039 24.376,18.083C23.996,20.975 24.197,23.875 23.959,26.789C23.752,29.315 23.736,31.886 23.433,34.405C22.881,35.136 23.507,36.738 22.998,37.118L22.759,38.026L22.554,37.918C22.765,35.533 23.203,33.49 23.298,30.983C23.436,27.331 22.966,21.431 23.823,17.989L23.822,17.989Z" style="fill:rgb(241,237,234);fill-rule:nonzero;"/>
    </g>
    <g transform="matrix(1.024034,0,0,1.024034,-1.604161,-1.26576)">
        <path d="M47.266,22.137C47.224,21.176 47.026,19.523 47.093,18.7C47.497,20.066 47.533,21.137 47.529,22.542L47.266,22.137Z" style="fill:rgb(241,237,234);fill-rule:nonzero;"/>
    </g>
    <g transform="matrix(1.024034,0,0,1.024034,-1.604161,-1.26576)">
        <path d="M22.996,37.118C23.505,36.737 22.879,35.135 23.431,34.405C23.4,40.372 22.861,45.173 22.466,51.004C22.37,52.477 22.289,53.95 22.222,55.425C22.206,55.807 22.213,57.053 22.166,57.335C21.982,57.888 21.946,58.052 21.873,58.63L21.699,58.682L21.429,58.238C21.897,55.781 21.694,54.072 21.866,51.795C22.073,49.061 22.242,46.992 22.219,44.23C22.208,42.982 22.291,38.943 22.552,37.918L22.757,38.026L22.996,37.118Z" style="fill:rgb(241,237,234);fill-rule:nonzero;"/>
    </g>
    <g transform="matrix(1.024034,0,0,1.024034,-1.604161,-1.26576)">
        <path d="M22.996,37.118C23.282,38.154 22.775,42.67 22.727,44.13C22.239,43.61 22.729,39.041 22.757,38.026L22.996,37.118Z" style="fill:rgb(241,237,234);fill-rule:nonzero;"/>
    </g>
    <g transform="matrix(1.024034,0,0,1.024034,-1.604161,-1.26576)">
        <path d="M21.429,58.238L21.699,58.682L21.873,58.63C21.946,58.052 21.983,57.888 22.167,57.335L22.314,60.747C22.003,61.117 21.611,61.545 21.396,61.968C21.427,60.725 21.438,59.482 21.429,58.238Z" style="fill:rgb(241,237,234);fill-rule:nonzero;"/>
    </g>
    <g transform="matrix(1.024034,0,0,1.024034,-1.604161,-1.26576)">
        <path d="M46.984,21.985L47.266,22.136L47.529,22.541L47.815,22.644C47.85,23.491 47.839,24.621 47.951,25.431L47.563,25.281L47.505,25.152L47.367,25.472L47.125,25.51L46.985,21.984L46.984,21.985Z" style="fill:rgb(241,237,234);fill-rule:nonzero;"/>
    </g>
    <g transform="matrix(1.024034,0,0,1.024034,-1.604161,-1.26576)">
        <path d="M37.855,19.95C38.74,19.647 41.724,19.822 42.505,20.373C43.611,21.638 43.135,25.396 43.091,27.093L42.894,35.773C42.819,38.547 43.02,42.054 42.844,44.662L42.836,44.774C42.85,45.569 42.807,46.32 42.767,47.112C42.165,47.416 42.119,47.481 41.44,47.487C39.517,47.503 37.502,47.764 35.582,47.655C33.421,47.532 31.337,47.005 29.159,46.858C28.747,46.511 28.16,46.241 27.835,45.809C26.654,44.243 27.867,30.923 27.927,28.251C27.99,25.448 27.627,22.943 27.892,20.068C28.92,19.908 31.78,19.864 32.89,19.876C34.32,19.768 36.348,19.915 37.855,19.951L37.855,19.95Z" style="fill:rgb(241,237,234);fill-rule:nonzero;"/>
    </g>
    <g transform="matrix(1.024034,0,0,1.024034,-1.604161,-1.26576)">
        <path d="M27.893,20.068C28.921,19.908 31.781,19.864 32.891,19.876L32.968,20.038C33.646,20.122 33.894,20.032 34.281,20.618C33.765,20.697 32.906,20.835 32.41,20.831C30.585,20.817 30.167,20.28 28.453,20.97C28.375,22.218 28.27,23.518 28.263,24.765C28.221,31.824 27.844,38.801 28.29,45.864C32.083,47.322 35.833,47.061 39.804,47.087C41.297,47.097 41.797,47.141 42.126,45.665C42.153,45.883 42.134,45.801 42.257,45.999L42.475,45.807C42.577,45.379 42.603,45.257 42.796,44.858L42.837,44.775C42.851,45.57 42.808,46.321 42.768,47.113C42.166,47.417 42.12,47.482 41.441,47.488C39.518,47.504 37.503,47.765 35.583,47.656C33.422,47.533 31.338,47.006 29.16,46.859C28.748,46.512 28.161,46.242 27.836,45.81C26.655,44.244 27.868,30.924 27.928,28.252C27.991,25.449 27.628,22.944 27.893,20.069L27.893,20.068Z" style="fill:rgb(241,237,234);fill-rule:nonzero;"/>
    </g>
    <g transform="matrix(1.024034,0,0,1.024034,-1.604161,-1.26576)">
        <path d="M31.344,20.219C31.844,20.188 32.868,20.161 33.312,20.347L33.117,20.487C32.593,20.498 31.698,20.561 31.242,20.397L31.344,20.219Z" style="fill:rgb(241,237,234);fill-rule:nonzero;"/>
    </g>
    <g transform="matrix(1.024034,0,0,1.024034,-1.604161,-1.26576)">
        <path d="M42.506,20.374C43.612,21.639 43.136,25.397 43.092,27.094L42.895,35.774C42.82,38.548 43.021,42.055 42.845,44.663L42.837,44.775L42.796,44.858C42.604,45.256 42.578,45.378 42.475,45.807L42.257,45.999C42.135,45.802 42.154,45.883 42.126,45.665C42.746,41.861 42.19,36.807 42.157,32.908C42.132,29.952 43.296,23.19 41.988,20.773C41.794,20.621 41.761,20.619 41.648,20.393L42.506,20.374Z" style="fill:rgb(241,237,234);fill-rule:nonzero;"/>
    </g>
    <g transform="matrix(1.024034,0,0,1.024034,-1.604161,-1.26576)">
        <path d="M37.855,19.95C38.74,19.647 41.724,19.822 42.505,20.373L41.647,20.392C41.76,20.618 41.792,20.62 41.987,20.772C41.032,21.035 38.612,20.941 37.674,20.614C37.959,20.36 38.082,20.343 38.14,20.027L37.856,19.95L37.855,19.95Z" style="fill:rgb(241,237,234);fill-rule:nonzero;"/>
    </g>
    <g transform="matrix(1.024034,0,0,1.024034,-1.604161,-1.26576)">
        <path d="M37.855,19.95L38.139,20.027C38.081,20.343 37.958,20.36 37.673,20.614C36.224,20.428 35.782,20.417 34.279,20.617C33.892,20.031 33.644,20.12 32.966,20.037L32.889,19.875C34.319,19.767 36.347,19.914 37.854,19.95L37.855,19.95Z" style="fill:rgb(241,237,234);fill-rule:nonzero;"/>
    </g>
    <g transform="matrix(1.024034,0,0,1.024034,-1.604161,-1.26576)">
        <path d="M34.592,56.376C35.387,55.368 37.162,51.847 38.663,52.742C38.923,53.188 38.938,53.253 39.01,53.765C38.732,54.235 38.783,54.757 38.774,55.312L38.605,55.613C38.301,55.477 38.264,55.439 38.003,55.226C37.505,55.192 37.155,55.449 36.714,55.695L37.236,56.276C36.37,57.753 35.493,59.224 34.605,60.688C33.5,59.234 33.023,58.236 32.083,56.781L31.807,56.737C31.459,57.196 30.665,61.007 30.289,62.086C29.584,61.978 29.283,61.948 28.573,61.952C28.641,60.854 30.284,52.904 30.876,52.327C32.12,52.297 33.873,55.34 34.593,56.376L34.592,56.376Z" style="fill:rgb(241,237,234);fill-rule:nonzero;"/>
    </g>
    <g transform="matrix(1.024034,0,0,1.024034,-1.604161,-1.26576)">
        <path d="M36.492,55.882L36.713,55.694L37.235,56.275C36.369,57.752 35.492,59.223 34.604,60.687C33.499,59.233 33.022,58.235 32.082,56.78L32.29,56.614L32.154,55.945L32.564,56.339C32.591,56.134 32.578,56.115 32.677,55.937L32.983,56.296C33.484,56.899 33.823,57.248 34.39,57.791C35.523,57.148 35.673,56.568 36.168,56.301L36.492,55.881L36.492,55.882Z" style="fill:rgb(241,237,234);fill-rule:nonzero;"/>
    </g>
    <g transform="matrix(1.024034,0,0,1.024034,-1.604161,-1.26576)">
        <path d="M34.39,57.792C35.523,57.149 35.673,56.568 36.168,56.302C35.621,57.287 35.017,58.346 34.417,59.298C34.112,58.637 32.978,56.692 32.982,56.296C33.483,56.899 33.822,57.248 34.389,57.791L34.39,57.792Z" style="fill:rgb(241,237,234);fill-rule:nonzero;"/>
    </g>
    <g transform="matrix(1.024034,0,0,1.024034,-1.604161,-1.26576)">
        <path d="M37.826,53.782C38.24,54.306 38.453,54.726 38.774,55.312L38.605,55.613C38.301,55.477 38.264,55.439 38.003,55.226C37.505,55.192 37.155,55.449 36.714,55.695L36.493,55.883C36.854,55.228 37.41,54.423 37.827,53.783L37.826,53.782Z" style="fill:rgb(241,237,234);fill-rule:nonzero;"/>
    </g>
    <g transform="matrix(1.024034,0,0,1.024034,-1.604161,-1.26576)">
        <path d="M31.099,54.117C31.573,54.272 32.16,54.874 32.288,55.356C32.059,55.807 32.111,55.238 31.455,55.582C30.791,56.491 30.285,59.052 29.99,60.26C29.891,60.664 29.886,60.747 29.587,61.028C29.246,60.358 30.812,55.161 31.099,54.118L31.099,54.117Z" style="fill:rgb(241,237,234);fill-rule:nonzero;"/>
    </g>
    <g transform="matrix(1.024034,0,0,1.024034,-1.604161,-1.26576)">
        <path d="M39.01,53.766C39.894,56.005 40.963,58.722 41.278,61.147C41.349,61.694 41.164,61.976 40.667,62.15C39.687,61.951 39.17,60.513 39.027,59.605C38.604,58.812 38.075,56.772 37.567,56.218L37.235,56.276L36.713,55.695C37.154,55.449 37.504,55.192 38.002,55.226C38.263,55.439 38.3,55.477 38.604,55.613L38.773,55.312C38.782,54.757 38.731,54.235 39.009,53.765L39.01,53.766Z" style="fill:rgb(241,237,234);fill-rule:nonzero;"/>
    </g>
    <g transform="matrix(1.024034,0,0,1.024034,-1.604161,-1.26576)">
        <path d="M36.713,55.695C37.154,55.449 37.504,55.192 38.002,55.226C37.914,55.971 39.38,57.591 39.027,59.605C38.604,58.812 38.075,56.772 37.567,56.218L37.235,56.276L36.713,55.695Z" style="fill:rgb(241,237,234);fill-rule:nonzero;"/>
    </g>
    <g transform="matrix(1.024034,0,0,1.024034,-1.604161,-1.26576)">
        <path d="M49.679,23.825C49.736,22.485 49.506,19.996 50.575,19.03C51.706,18.008 53.549,18.123 54.96,18.224C56.624,18.343 58.871,18.315 60.117,19.594C61.179,20.684 63.774,33.344 64.354,35.6C64.791,37.3 65.474,38.927 65.842,40.647C66.077,41.742 66.249,42.966 66.205,44.085C66.198,44.262 66.176,44.385 66.037,44.501C65.345,45.075 64.574,45.275 63.69,45.345C61.566,45.515 59.128,44.997 56.983,44.826C55.427,44.701 53.847,44.731 52.299,44.578C51.808,44.529 51.032,44.444 50.707,44.028C49.415,42.369 49.529,33.501 49.549,31.155L49.84,31.26C49.864,30.988 49.864,30.389 49.999,30.222C50.049,30.75 50.078,31.16 50.086,31.69L49.823,30.39C50.329,30.474 50.048,26.054 49.84,26.086C50.583,24.82 49.992,22.879 50.377,21.444C50.413,21.191 49.978,20.489 50.5,19.419C50.919,18.997 52.185,18.744 52.861,18.575C55.066,18.841 57.587,18.456 59.523,19.56C59.444,19.522 59.365,19.486 59.284,19.451C56.92,18.416 53.166,18.56 50.736,19.488C50.698,20.962 50.663,22.182 50.5,23.657C50.436,24.277 50.391,24.898 50.225,25.499L49.969,24.557L49.944,24.648L49.845,24.528C49.823,24.238 49.796,24.091 49.677,23.825L49.679,23.825Z" style="fill:rgb(241,237,234);fill-rule:nonzero;"/>
    </g>
    <g transform="matrix(1.024034,0,0,1.024034,-1.604161,-1.26576)">
        <path d="M49.841,31.26C49.865,30.988 49.865,30.389 50,30.222C50.05,30.75 50.079,31.16 50.087,31.69C50.07,32.248 50.062,32.547 49.966,33.096C49.909,32.485 49.867,31.873 49.841,31.26Z" style="fill:rgb(241,237,234);fill-rule:nonzero;"/>
    </g>
    <g transform="matrix(1.024034,0,0,1.024034,-1.604161,-1.26576)">
        <path d="M49.881,33.742L50.019,33.877C50.239,34.824 50.168,35.681 50.084,36.63C49.728,36.061 49.868,34.478 49.881,33.742Z" style="fill:rgb(241,237,234);fill-rule:nonzero;"/>
    </g>
    <g transform="matrix(1.024034,0,0,1.024034,-1.604161,-1.26576)">
        <path d="M64.846,38.276C65.191,39.116 65.321,39.618 65.5,40.497C64.878,39.788 64.866,39.189 64.846,38.276Z" style="fill:rgb(241,237,234);fill-rule:nonzero;"/>
    </g>
    <g transform="matrix(1.024034,0,0,1.024034,-1.604161,-1.26576)">
        <path d="M49.679,23.825C49.798,24.091 49.825,24.238 49.847,24.528L49.946,24.648L49.97,24.557L50.226,25.499C50.392,24.898 50.437,24.277 50.501,23.657C50.579,25.111 50.384,26.638 50.352,28.098C50.325,29.296 50.359,30.514 50.378,31.713L50.087,31.689C50.079,31.159 50.05,30.749 50,30.221C49.865,30.388 49.865,30.987 49.841,31.259L49.55,31.154C49.409,30.175 49.611,24.925 49.679,23.825Z" style="fill:rgb(241,237,234);fill-rule:nonzero;"/>
    </g>
    <g transform="matrix(1.024034,0,0,1.024034,-1.604161,-1.26576)">
        <path d="M18.673,18.596C22.282,18.457 21.587,21.144 21.516,23.843C21.436,26.88 20.876,43.151 19.478,44.453C18.187,45.058 10.948,44.838 9.219,44.723C8.238,44.724 6.559,44.838 5.916,44.004C5.018,41.654 10.984,22.549 12.233,19.49C14.391,18.959 16.474,18.767 18.674,18.596L18.673,18.596Z" style="fill:rgb(241,237,234);fill-rule:nonzero;"/>
    </g>
    <g transform="matrix(1.024034,0,0,1.024034,-1.604161,-1.26576)">
        <path d="M11.671,21.806L11.683,21.854C11.836,22.419 11.195,23.816 10.951,24.447C10.699,23.862 11.388,22.342 11.67,21.806L11.671,21.806Z" style="fill:rgb(241,237,234);fill-rule:nonzero;"/>
    </g>
    <g transform="matrix(1.024034,0,0,1.024034,-1.604161,-1.26576)">
        <path d="M41.648,7.813C42.01,7.733 42.724,8.014 43.159,8.03C46.993,8.172 46.311,9.737 44.483,12.028C40.113,11.495 35.66,11.378 31.327,12.191C27.567,12.704 27.645,12.618 26.922,8.91C31.127,7.553 37.11,8.368 41.648,7.813Z" style="fill:rgb(241,237,234);fill-rule:nonzero;"/>
    </g>
    <g transform="matrix(1.024034,0,0,1.024034,-1.604161,-1.26576)">
        <path d="M40.741,8.332C42.787,8.238 42.877,8.507 44.81,8.985C44.843,8.777 44.832,8.78 44.938,8.601L45.261,8.748C45.367,9.257 44.852,10.474 44.598,10.972C44.543,11.081 44.175,11.403 44.119,11.405C41.876,11.507 38.707,11.174 36.523,11.18C34.95,11.183 33.381,11.347 31.842,11.67C30.025,11.987 27.833,12.797 27.683,10.269C27.663,9.936 27.505,9.408 27.419,9.068C30.304,8.326 37.398,8.41 40.74,8.332L40.741,8.332Z" style="fill:rgb(26,58,46);fill-rule:nonzero;"/>
    </g>
    <g transform="matrix(1.024034,0,0,1.024034,-1.604161,-1.26576)">
        <path d="M12.212,69.145C11.702,68.603 11.176,68.108 11.02,67.359C10.845,66.5 11.031,65.607 11.537,64.89C12.801,63.075 15.211,63.223 16.872,64.415C17.222,65.848 17.418,66.805 16.89,68.195C16.627,68.779 15.942,69.448 15.356,69.684C14.647,69.963 13.857,69.949 13.158,69.645C12.855,69.514 12.502,69.311 12.213,69.145L12.212,69.145Z" style="fill:rgb(241,237,234);fill-rule:nonzero;"/>
    </g>
    <g transform="matrix(1.024034,0,0,1.024034,-1.604161,-1.26576)">
        <path d="M14.495,64.687C14.76,64.675 14.88,64.735 15.128,64.816C15.462,65.129 15.576,65.204 15.712,65.648L15.59,65.752L15.113,65.346L15.057,65.263C14.658,65.016 14.178,65.11 13.679,65.134L13.718,65.024L14.495,64.686L14.495,64.687Z" style="fill:rgb(241,237,234);fill-rule:nonzero;"/>
    </g>
    <g transform="matrix(1.024034,0,0,1.024034,-1.604161,-1.26576)">
        <path d="M65.314,64.614C67.219,64.572 67.422,66.098 65.962,67.377C65.825,67.371 65.688,67.36 65.551,67.343C63.904,67.153 63.669,65.519 65.314,64.613L65.314,64.614Z" style="fill:rgb(241,237,234);fill-rule:nonzero;"/>
    </g>
    <g transform="matrix(1.024034,0,0,1.024034,-1.604161,-1.26576)">
        <path d="M8.217,60.864C8.475,60.876 8.758,60.918 9.017,60.95C10.23,61.746 9.586,63.048 8.438,63.563C6.915,62.771 6.809,61.937 8.217,60.865L8.217,60.864Z" style="fill:rgb(241,237,234);fill-rule:nonzero;"/>
    </g>
    <g transform="matrix(1.024034,0,0,1.024034,-1.604161,-1.26576)">
        <path d="M59.865,10.794C60.198,10.632 60.592,10.665 60.893,10.879C61.195,11.093 61.355,11.455 61.312,11.822C61.268,12.189 61.028,12.503 60.685,12.641C60.18,12.844 59.604,12.611 59.383,12.113C59.162,11.615 59.375,11.032 59.865,10.794Z" style="fill:rgb(241,237,234);fill-rule:nonzero;"/>
    </g>
    <g transform="matrix(1.024034,0,0,1.024034,-1.604161,-1.26576)">
        <path d="M55.44,10.044C55.792,9.987 56.147,10.125 56.368,10.405C56.589,10.685 56.64,11.063 56.502,11.392C56.364,11.721 56.059,11.949 55.704,11.988C55.175,12.046 54.696,11.672 54.624,11.145C54.552,10.618 54.914,10.13 55.439,10.044L55.44,10.044Z" style="fill:rgb(241,237,234);fill-rule:nonzero;"/>
    </g>
    <g transform="matrix(1.024034,0,0,1.024034,-1.604161,-1.26576)">
        <path d="M16.745,10.023C17.068,9.919 17.422,9.997 17.671,10.228C17.92,10.459 18.025,10.806 17.945,11.136C17.865,11.466 17.613,11.727 17.286,11.819C16.794,11.957 16.282,11.676 16.134,11.186C15.986,10.697 16.258,10.179 16.745,10.023Z" style="fill:rgb(241,237,234);fill-rule:nonzero;"/>
    </g>
    <g transform="matrix(1.024034,0,0,1.024034,-1.604161,-1.26576)">
        <path d="M13.283,10.532C13.844,10.696 14.086,10.977 14.289,11.496C14.27,12.01 14.127,12.129 13.811,12.518C13.431,12.533 13.41,12.521 13.042,12.406C12.303,11.693 12.703,11.172 13.283,10.532Z" style="fill:rgb(241,237,234);fill-rule:nonzero;"/>
    </g>
    <g transform="matrix(1.024034,0,0,1.024034,-1.604161,-1.26576)">
        <path d="M158.903,10.788C160.269,10.806 162.637,10.722 163.682,11.716C164.262,12.243 164.193,13.66 163.609,14.164C160.359,16.975 156.304,19.337 152.811,21.832C146.314,26.565 139.892,31.401 133.549,36.339C130.224,38.954 127.048,42.275 123.835,45.077C120.541,47.95 117.106,50.627 113.818,53.5C112.169,54.941 110.227,55.979 108.668,57.295C104.115,61.141 99.04,64.079 94.465,67.884C91.493,70.349 76.093,84.322 73.217,83.521C72.872,82.811 73.726,79.819 73.943,78.731C74.34,75.85 75.378,72.533 76.051,69.611C77.466,63.47 78.778,55.75 78.642,49.45C78.553,45.998 78.248,42.555 77.728,39.141C77.369,36.959 76.998,34.778 76.614,32.6C76.139,30.048 75.303,26.168 74.839,23.49C74.811,23.33 75.068,23.174 75.203,23.068C74.306,21.914 74.114,16.268 73.584,14.509C73.368,13.793 72.345,10.271 72.433,9.739C73.54,9.261 80.779,10.405 82.655,10.372C88.211,10.273 93.809,10.091 99.358,9.959C108.247,9.754 117.14,9.691 126.03,9.768C132.939,9.855 139.848,10.04 146.754,10.32C150.854,10.487 154.663,10.907 158.903,10.789L158.903,10.788Z" style="fill:rgb(26,58,46);fill-rule:nonzero;"/>
    </g>
    <g transform="matrix(1.024034,0,0,1.024034,-1.604161,-1.26576)">
        <path d="M91.76,10.891C92.277,10.868 92.8,10.855 93.291,11.052C93.903,11.298 94.176,12.602 93.898,13.155C91.629,12.883 87.129,13.296 84.767,13.572C84.173,13.578 83.421,13.629 82.861,13.388C82.315,13.153 82.285,12.292 82.541,11.823C83.145,11.612 85.614,11.561 86.452,11.49C88.243,11.338 89.979,11.247 91.76,10.891Z" style="fill:rgb(241,237,234);fill-rule:nonzero;"/>
    </g>
    <g transform="matrix(1.024034,0,0,1.024034,-1.604161,-1.26576)">
        <path d="M91.349,11.289C91.915,11.293 92.683,11.242 93.174,11.469C93.531,11.897 93.727,12.117 93.43,12.612C90.833,12.649 87.838,12.918 85.22,13.116C84.659,13.118 83.394,13.17 82.97,12.891C82.765,12.449 82.751,12.586 82.816,12.175C83.696,11.967 85.564,11.905 86.54,11.837C88.151,11.729 89.756,11.546 91.35,11.289L91.349,11.289Z" style="fill:rgb(26,58,46);fill-rule:nonzero;"/>
    </g>
    <g transform="matrix(1.024034,0,0,1.024034,-1.604161,-1.26576)">
        <path d="M86.426,25.392C86.84,25.394 86.681,25.348 87.031,25.563C88.38,27.816 90.46,40.343 90.733,43.41C90.757,43.684 82.795,45.923 82.12,45.875C81.955,45.863 82.124,45.75 82.12,45.646C82.875,45.235 82.459,26.498 83.075,26.254C84.834,25.56 89.911,42.542 89.236,42.289C89.209,40.396 85.55,40.557 85.185,38.407C84.939,36.955 84.758,38.078 84.425,36.803C84.131,35.995 85.168,36.191 84.931,35.368C83.478,35.505 85.139,38.219 84.171,39.081C84.111,40.702 83.033,42.424 83.158,44.06C83.478,48.245 84.13,40.869 84.93,44.988C84.982,45.254 82.206,45.697 82.061,45.873C81.507,45.25 79.67,28.582 79.96,27.143C80.737,26.462 85.249,25.543 86.424,25.391L86.426,25.392Z" style="fill:rgb(241,237,234);fill-rule:nonzero;"/>
    </g>
    <g transform="matrix(1.024034,0,0,1.024034,-1.604161,-1.26576)">
        <path d="M93.508,20.92C94.495,23.29 95.22,25.183 96.506,27.503C97.319,28.973 97.544,30.538 98.604,32.096C98.488,34.486 98.742,37.345 98.865,39.813C99.033,43.218 98.938,46.486 99.014,49.861L98.801,49.717C98.693,49.437 98.691,45.482 98.717,44.881C98.891,40.846 98.073,36.336 98.317,32.366C97.48,31.008 96.866,29.063 96.213,27.554C95.494,25.891 93.352,22.694 93.508,20.92Z" style="fill:rgb(241,237,234);fill-rule:nonzero;"/>
    </g>
    <g transform="matrix(1.024034,0,0,1.024034,-1.604161,-1.26576)">
        <path d="M95.923,62.091L96.045,62.245C95.882,62.608 95.08,63.079 94.706,63.312C89.663,66.462 85.219,71.085 80.313,74.352C80.188,74.219 80.238,74.301 80.238,74.055C85.417,70.545 90.38,65.904 95.922,62.091L95.923,62.091Z" style="fill:rgb(241,237,234);fill-rule:nonzero;"/>
    </g>
    <g transform="matrix(1.024034,0,0,1.024034,-1.604161,-1.26576)">
        <path d="M91.627,28.974C91.991,30.317 92.234,33.567 92.536,35.121C92.773,36.346 93.335,38.883 93.285,39.935C92.973,39.896 93.105,39.957 92.874,39.749C92.59,38.582 91.524,30.008 91.626,28.974L91.627,28.974Z" style="fill:rgb(241,237,234);fill-rule:nonzero;"/>
    </g>
    <g transform="matrix(1.024034,0,0,1.024034,-1.604161,-1.26576)">
        <path d="M94.793,29.305C95.189,29.835 95.77,38.107 95.906,39.386L95.644,39.207C95.505,37.911 95.42,36.526 95.284,35.203C95.108,33.498 94.709,30.934 94.793,29.306L94.793,29.305Z" style="fill:rgb(241,237,234);fill-rule:nonzero;"/>
    </g>
    <g transform="matrix(1.024034,0,0,1.024034,-1.604161,-1.26576)">
        <path d="M96.05,56.967L96.269,57.016L96.336,57.195C95.477,57.722 94.048,58.863 93.216,59.499L93.014,59.58C93.081,59.167 95.512,57.388 96.05,56.967Z" style="fill:rgb(241,237,234);fill-rule:nonzero;"/>
    </g>
    <g transform="matrix(1.024034,0,0,1.024034,-1.604161,-1.26576)">
        <path d="M123.848,8.134L147.305,9.303C151.678,9.561 155.833,9.629 160.201,10.313C156.845,10.802 149.698,10.079 146.165,10C141.689,9.9 136.997,9.632 132.535,9.556C121.838,9.393 111.139,9.413 100.441,9.613L88.987,9.875C86.862,9.932 84.453,10.134 82.346,10.013C72.716,9.46 63.209,7.737 53.631,6.769L53.535,6.457C56.942,5.994 60.805,6.199 64.268,5.995C65.709,5.91 66.779,6.286 68.381,5.879C68.446,5.906 66.031,5.78 65.689,5.733C67.489,5.44 69.392,5.755 71.196,5.779C80.216,5.901 89.14,5.958 98.142,6.56C99.215,6.468 110.157,7.187 110.999,7.463C113.129,7.782 116.29,7.648 118.506,7.817C119.925,7.827 122.423,7.964 123.847,8.134L123.848,8.134Z" style="fill:rgb(26,58,46);fill-rule:nonzero;"/>
    </g>
    <g transform="matrix(1.024034,0,0,1.024034,-1.604161,-1.26576)">
        <path d="M138.961,8.512C139.871,8.337 142.189,8.52 143.076,8.772C141.852,8.814 140.213,8.623 138.961,8.512Z" style="fill:rgb(241,237,234);fill-rule:nonzero;"/>
    </g>
    <g transform="matrix(1.024034,0,0,1.024034,-1.604161,-1.26576)">
        <path d="M57.475,72.693C55.176,71.988 54.073,69.404 55.212,67.29C55.697,66.407 56.51,65.75 57.476,65.46C58.361,65.197 59.514,65.202 60.356,65.653C60.655,65.84 61.093,66.094 61.36,66.304C61.731,67.816 62.137,69.472 61.261,70.896C60.912,71.538 60.567,72.139 59.9,72.504C58.827,72.867 58.543,73.078 57.475,72.693Z" style="fill:rgb(241,237,234);fill-rule:nonzero;"/>
    </g>
    <g transform="matrix(1.024034,0,0,1.024034,-1.604161,-1.26576)">
        <path d="M60.356,65.654C60.655,65.841 61.093,66.095 61.36,66.306C61.731,67.818 62.137,69.474 61.261,70.898L61.133,70.687L60.813,70.838L60.704,70.691L61.012,70.18C60.92,69.784 60.986,69.926 60.607,69.628C60.923,68.079 60.773,66.568 58.931,66.216L58.746,66.243L58.674,66.138L58.993,65.937L58.893,65.888L59.33,65.705C59.757,65.768 59.937,65.808 60.356,65.656L60.356,65.654Z" style="fill:rgb(241,237,234);fill-rule:nonzero;"/>
    </g>
    <g transform="matrix(1.024034,0,0,1.024034,-1.604161,-1.26576)">
        <path d="M57.19,68.533L57.645,68.388L57.859,68.526C57.542,69.813 57.059,69.789 57.404,70.655C58.166,71.333 58.349,70.857 58.355,71.995C58.014,71.938 57.24,71.914 56.862,71.892C56.993,71.515 57.014,71.432 57.05,71.036L56.891,70.9C56.6,71.014 56.533,71.095 56.29,71.299C55.965,70.72 55.857,70.545 55.69,69.91L55.821,69.121C56.129,69.004 56.424,69.201 56.98,69.07L57.19,68.532L57.19,68.533Z" style="fill:rgb(241,237,234);fill-rule:nonzero;"/>
    </g>
    <g transform="matrix(1.024034,0,0,1.024034,-1.604161,-1.26576)">
        <path d="M58.355,71.995L58.445,71.976C59.062,71.842 58.941,71.708 59.516,71.678L59.514,72.2L59.9,72.505C58.827,72.868 58.543,73.079 57.475,72.694C57.375,72.454 57.077,72.227 56.862,71.892C57.24,71.914 58.015,71.938 58.355,71.995Z" style="fill:rgb(241,237,234);fill-rule:nonzero;"/>
    </g>
    <g transform="matrix(1.024034,0,0,1.024034,-1.604161,-1.26576)">
        <path d="M55.82,69.121C55.72,68.664 55.724,67.918 56.018,67.534L56.334,67.492C56.768,67.871 56.889,68.035 57.189,68.532L56.979,69.07C56.423,69.2 56.128,69.004 55.82,69.121Z" style="fill:rgb(241,237,234);fill-rule:nonzero;"/>
    </g>
    <g transform="matrix(1.024034,0,0,1.024034,-1.604161,-1.26576)">
        <path d="M58.931,66.214C60.772,66.566 60.923,68.077 60.607,69.626C60.379,70.072 60.292,70.451 59.922,70.651C60.485,68.045 61.267,68.231 58.932,66.214L58.931,66.214Z" style="fill:rgb(241,237,234);fill-rule:nonzero;"/>
    </g>
    <g transform="matrix(1.024034,0,0,1.024034,-1.604161,-1.26576)">
        <path d="M56.289,71.299C55.526,71.048 55.259,69.862 55.319,69.146L55.457,69.174L55.689,69.91C55.856,70.545 55.963,70.72 56.289,71.299Z" style="fill:rgb(241,237,234);fill-rule:nonzero;"/>
    </g>
    <g transform="matrix(1.024034,0,0,1.024034,-1.604161,-1.26576)">
        <path d="M12.845,68.454C14.555,70.233 16.496,68.21 16.295,66.177L16.287,66.096C16.536,65.786 16.424,65.83 16.738,65.773C17.143,66.67 16.434,67.171 16.545,68.032L16.89,68.195C16.627,68.779 15.942,69.448 15.356,69.684C14.647,69.963 13.857,69.949 13.158,69.645C12.855,69.514 12.502,69.311 12.213,69.145C12.169,68.886 12.363,68.537 12.472,68.278L12.782,68.049L12.845,68.454Z" style="fill:rgb(241,237,234);fill-rule:nonzero;"/>
    </g>
    <g transform="matrix(1.024034,0,0,1.024034,-1.604161,-1.26576)">
        <path d="M12.667,66.046C13.507,66.408 13.208,66.917 13.73,67.301C14.051,67.538 14.087,66.643 14.899,67.675C14.839,68.617 13.481,68.48 12.846,68.452L12.783,68.047L12.949,67.944L12.914,67.835C12.64,66.96 12.585,67.024 12.668,66.045L12.667,66.046Z" style="fill:rgb(241,237,234);fill-rule:nonzero;"/>
    </g>
    <g transform="matrix(1.024034,0,0,1.024034,-1.604161,-1.26576)">
        <path d="M12.471,68.278C12.12,67.91 11.309,66.736 11.857,66.301C12.118,66.294 12.244,66.122 12.666,66.047C12.583,67.027 12.638,66.963 12.912,67.837L12.947,67.946L12.781,68.049L12.471,68.278Z" style="fill:rgb(241,237,234);fill-rule:nonzero;"/>
    </g>
    <g transform="matrix(1.024034,0,0,1.024034,-1.604161,-1.26576)">
        <path d="M63.004,81.852L63.229,81.949L63.168,82.161C62.124,82.833 60.432,82.819 59.214,82.816C52.576,82.8 45.934,83.064 39.301,82.732C36.888,82.611 34.476,82.18 32.065,82.028C27.484,81.735 22.355,82.289 17.939,80.973C14.344,79.902 10.797,79.684 7.168,79.005C6.951,78.884 6.964,78.866 6.797,78.682C7.752,78.224 18.591,80.768 20.415,81.117C24.092,81.821 27.963,81.297 31.584,81.66C38.771,82.381 45.778,82.791 53.007,82.473C55.707,82.349 60.605,82.923 63.005,81.851L63.004,81.852Z" style="fill:rgb(241,237,234);fill-rule:nonzero;"/>
    </g>
    <g transform="matrix(1.024034,0,0,1.024034,-1.604161,-1.26576)">
        <path d="M44.81,74.266C45.59,74.269 46.573,74.194 47.21,74.657C46.812,74.794 42.831,74.632 42.137,74.628C36.817,74.594 31.584,75.194 26.275,74.963C25.2,74.93 24.415,74.981 23.379,74.666L23.317,74.53C24.284,74.369 28.308,74.758 29.775,74.706C31.67,74.639 33.699,74.512 35.591,74.43C38.663,74.323 41.736,74.268 44.81,74.266Z" style="fill:rgb(241,237,234);fill-rule:nonzero;"/>
    </g>
    <g transform="matrix(1.024034,0,0,1.024034,-1.604161,-1.26576)">
        <path d="M44.412,73.009C45.427,72.971 45.982,72.943 46.953,73.235L46.856,73.346C45.863,73.486 44.452,73.349 43.39,73.353L35.839,73.356C32.43,73.355 29.357,73.671 25.941,73.641C25.272,73.578 24.01,73.522 23.48,73.198C24.101,72.985 25.758,73.312 26.503,73.289C32.459,73.101 38.454,72.914 44.413,73.008L44.412,73.009Z" style="fill:rgb(241,237,234);fill-rule:nonzero;"/>
    </g>
    <g transform="matrix(1.024034,0,0,1.024034,-1.604161,-1.26576)">
        <path d="M44.745,71.628C45.842,71.735 46.453,71.738 47.477,72.174C47.427,72.188 43.33,72.045 42.74,72.024C37.386,71.83 31.203,72.538 25.963,72.147C25.506,72.164 23.995,72.259 23.703,72.011L23.566,72.036C26.546,71.473 26.338,71.981 28.884,71.918L44.745,71.628Z" style="fill:rgb(241,237,234);fill-rule:nonzero;"/>
    </g>
    <g transform="matrix(1.024034,0,0,1.024034,-1.604161,-1.26576)">
        <path d="M105.177,40.434C104.782,39.038 104.529,36.402 104.273,34.876L103.194,28.217C103.011,27.092 102.659,25.381 102.618,24.292C103.211,23.259 105.071,23.431 106.106,23.216C107.281,22.972 108.08,22.413 109.223,22.986C109.262,23.011 109.302,23.035 109.339,23.062C110.127,23.637 111.986,36.859 112.135,38.626C109.001,39.513 108.772,40.004 105.178,40.435L105.177,40.434Z" style="fill:rgb(241,237,234);fill-rule:nonzero;"/>
    </g>
    <g transform="matrix(1.024034,0,0,1.024034,-1.604161,-1.26576)">
        <path d="M105.177,40.434C104.782,39.038 104.529,36.402 104.273,34.876L103.194,28.217C103.011,27.092 102.659,25.381 102.618,24.292C103.211,23.259 105.071,23.431 106.106,23.216C107.281,22.972 108.08,22.413 109.223,22.986C108.216,22.926 104.095,23.666 103.217,24.06C102.528,24.841 105.309,38.11 105.401,39.987C107.777,40.039 109.623,39.292 111.735,38.298C111.583,34.206 110.392,29.919 109.783,25.862C109.659,25.038 109.552,23.722 109.223,22.986C109.262,23.011 109.302,23.035 109.339,23.062C110.127,23.637 111.986,36.859 112.135,38.626C109.001,39.513 108.772,40.004 105.178,40.435L105.177,40.434Z" style="fill:rgb(241,237,234);fill-rule:nonzero;"/>
    </g>
    <g transform="matrix(1.024034,0,0,1.024034,-1.604161,-1.26576)">
        <path d="M120.092,10.68C120.667,10.84 120.821,11.676 120.302,12.175C119.511,12.399 111.991,12.966 110.905,12.878L110.402,11.578C111.098,10.851 118.377,11.221 120.092,10.68Z" style="fill:rgb(241,237,234);fill-rule:nonzero;"/>
    </g>
    <g transform="matrix(1.024034,0,0,1.024034,-1.604161,-1.26576)">
        <path d="M119.787,11.098C120.087,11.199 119.985,11.145 120.187,11.485L120.083,11.753C119.447,12.056 112.489,12.544 111.445,12.518C111.061,12.411 111.057,12.319 110.948,12.005L111.069,11.773C112.088,11.316 118.151,11.481 119.786,11.098L119.787,11.098Z" style="fill:rgb(26,58,46);fill-rule:nonzero;"/>
    </g>
    <g transform="matrix(1.024034,0,0,1.024034,-1.604161,-1.26576)">
        <path d="M134.395,10.623C135.278,10.579 136.21,10.447 136.684,11.251C136.557,12.507 132.831,12.524 131.734,12.616C131.259,12.612 130.917,12.674 130.566,12.387C130.546,12.289 130.523,12.191 130.498,12.094C130.253,11.114 130.013,11.554 129.617,11.316C130.36,10.508 132.962,10.828 134.395,10.623Z" style="fill:rgb(241,237,234);fill-rule:nonzero;"/>
    </g>
    <g transform="matrix(1.024034,0,0,1.024034,-1.604161,-1.26576)">
        <path d="M135.183,10.947C135.609,10.989 135.718,10.979 136.062,11.222L136.031,11.461C135.219,11.973 132.818,12.123 131.754,12.225C131.078,12.209 130.949,12.168 130.528,11.635L130.595,11.387C131.275,10.935 133.836,11.145 135.184,10.946L135.183,10.947Z" style="fill:rgb(26,58,46);fill-rule:nonzero;"/>
    </g>
    <g transform="matrix(1.024034,0,0,1.024034,-1.604161,-1.26576)">
        <path d="M153.655,14.128C154.388,14.54 154.363,17.145 154.097,17.845C153.916,18.323 152.411,18.604 151.901,18.728C151.606,18.232 151.552,15.536 151.541,14.82C152.272,14.655 152.863,14.55 153.534,14.195L153.656,14.129L153.655,14.128Z" style="fill:rgb(241,237,234);fill-rule:nonzero;"/>
    </g>
    <g transform="matrix(1.024034,0,0,1.024034,-1.604161,-1.26576)">
        <path d="M153.495,14.528C153.917,14.857 153.889,17.089 153.893,17.67C153.133,18.095 152.934,18.186 152.094,18.408C152.122,17.374 151.913,16.229 151.758,15.199C152.351,15.007 152.919,14.764 153.495,14.528Z" style="fill:rgb(241,237,234);fill-rule:nonzero;"/>
    </g>
    <g transform="matrix(1.024034,0,0,1.024034,-1.604161,-1.26576)">
        <path d="M117.372,17.823C117.64,18.019 120.915,24.39 120.919,24.968C120.952,29.3 121.545,33.866 121.755,38.168L121.586,38.141C120.891,37.265 121.159,25.356 120.119,23.655C119.574,22.763 117.46,18.697 117.371,17.823L117.372,17.823Z" style="fill:rgb(241,237,234);fill-rule:nonzero;"/>
    </g>
    <g transform="matrix(1.024034,0,0,1.024034,-1.604161,-1.26576)">
        <path d="M142.597,16.156C142.732,16.143 142.921,16.201 143.064,16.233C143.139,16.3 143.229,16.381 143.337,16.476C143.55,18.141 143.838,20.311 144.001,21.932C143.651,22.754 142.029,23.221 141.224,22.967C141.82,22.585 140.465,23.216 141.008,19.84C140.723,18.168 142.237,17.308 142.744,18.321C142.75,18.151 142.473,19.257 142.322,19.081C141.492,19.039 142.923,19.004 142.069,19.081C142.256,19.923 141.147,21.705 140.959,22.218L143.672,21.359L141.225,22.963L140.911,22.208L141.008,22.203C140.507,21.951 140.057,17.575 139.633,16.472L139.609,16.409C140.701,16.274 141.498,16.193 142.597,16.156Z" style="fill:rgb(241,237,234);fill-rule:nonzero;"/>
    </g>
    <g transform="matrix(1.024034,0,0,1.024034,-1.604161,-1.26576)">
        <path d="M148.274,10.976C148.795,10.92 149.192,10.835 149.689,10.999C150.053,11.316 149.966,11.161 150.083,11.579C149.55,12.15 147.931,12.15 146.971,12.295C146.49,12.312 146.073,12.357 145.614,12.219C145.438,11.932 145.306,11.645 145.158,11.342C145.517,11.022 147.65,11.007 148.273,10.975L148.274,10.976Z" style="fill:rgb(241,237,234);fill-rule:nonzero;"/>
    </g>
    <g transform="matrix(1.024034,0,0,1.024034,-1.604161,-1.26576)">
        <path d="M148.203,11.373L148.244,11.69C147.464,11.847 146.75,12.041 145.978,11.793L146.066,11.624C146.716,11.339 147.484,11.386 148.203,11.373Z" style="fill:rgb(26,58,46);fill-rule:nonzero;"/>
    </g>
    <g transform="matrix(1.024034,0,0,1.024034,-1.604161,-1.26576)">
        <path d="M148.203,11.373C148.676,11.322 148.947,11.244 149.382,11.428C149.088,11.693 148.719,11.64 148.244,11.69L148.203,11.373Z" style="fill:rgb(241,237,234);fill-rule:nonzero;"/>
    </g>
    <g transform="matrix(1.024034,0,0,1.024034,-1.604161,-1.26576)">
        <path d="M123.332,19.925L123.501,20.009C123.975,20.396 125.181,28.836 125.459,30.158C127.195,29.684 128.601,29.737 130.067,29.24C129.29,30.029 126.622,30.156 125.087,30.534C124.862,28.503 124.481,26.387 124.132,24.373C123.904,23.057 123.451,21.242 123.333,19.923L123.332,19.925Z" style="fill:rgb(241,237,234);fill-rule:nonzero;"/>
    </g>
    <g transform="matrix(1.024034,0,0,1.024034,-1.604161,-1.26576)">
        <path d="M118.346,43.112L118.556,43.23L118.581,43.425C117.401,43.762 114.593,45.95 113.418,46.706C110.378,48.661 107.592,50.602 104.49,52.504L104.275,52.373L104.323,52.218C107.626,50.405 110.283,48.372 113.461,46.362C115.058,45.352 116.63,43.989 118.344,43.113L118.346,43.112Z" style="fill:rgb(241,237,234);fill-rule:nonzero;"/>
    </g>
    <g transform="matrix(1.024034,0,0,1.024034,-1.604161,-1.26576)">
        <path d="M123.333,19.925C124.663,20.004 127.128,18.921 128.106,19.284C128.794,20.201 130.653,28.769 130.067,29.24C123.586,32.415 124.008,20.937 128.248,19.546C128.059,19.672 132.194,30.896 125.358,30.221L123.333,19.925Z" style="fill:rgb(241,237,234);fill-rule:nonzero;"/>
    </g>
    <g transform="matrix(1.024034,0,0,1.024034,-1.604161,-1.26576)">
        <path d="M137.733,28.647L137.965,28.818C137.828,29.149 134.756,30.916 134.275,31.267C132.921,32.252 131.562,33.293 130.191,34.255C128.732,35.279 127.064,35.975 125.839,37.299L125.789,37.303L125.688,37.214C126.609,35.821 129.9,34.37 131.384,33.082C133.225,31.485 135.716,30.081 137.734,28.648L137.733,28.647Z" style="fill:rgb(241,237,234);fill-rule:nonzero;"/>
    </g>
    <g transform="matrix(1.024034,0,0,1.024034,-1.604161,-1.26576)">
        <path d="M158.741,11.029L158.908,10.972L159.206,11.138L159.289,11.459C158.752,12.046 157.417,12.003 156.585,12.058C156.23,12.079 156.212,12.089 155.923,11.907L155.859,11.619C156.364,11.093 157.93,11.101 158.741,11.029Z" style="fill:rgb(241,237,234);fill-rule:nonzero;"/>
    </g>
    <g transform="matrix(1.024034,0,0,1.024034,-1.604161,-1.26576)">
        <path d="M149.116,23.098L149.303,23.217C148.889,24.04 143.164,27.136 141.918,28.073L141.779,28.039C141.831,27.759 141.914,27.653 142.189,27.497C144.61,26.123 146.875,24.756 149.116,23.098Z" style="fill:rgb(241,237,234);fill-rule:nonzero;"/>
    </g>
    <g transform="matrix(1.024034,0,0,1.024034,-1.604161,-1.26576)">
        <path d="M137.321,18.206C137.81,18.855 138.193,24.903 138.377,26.301C138.276,26.237 138.141,26.111 138.046,26.03C137.883,25.362 137.257,18.91 137.322,18.206L137.321,18.206Z" style="fill:rgb(241,237,234);fill-rule:nonzero;"/>
    </g>
    <g transform="matrix(1.024034,0,0,1.024034,-1.604161,-1.26576)">
        <path d="M148.364,21.959L148.545,22.168L148.523,22.386C147.321,22.839 142.119,25.862 141.218,26.761L141.13,26.687C141.375,25.887 147.25,22.608 148.364,21.96L148.364,21.959Z" style="fill:rgb(241,237,234);fill-rule:nonzero;"/>
    </g>
    <g transform="matrix(1.024034,0,0,1.024034,-1.604161,-1.26576)">
        <path d="M160.5,12.876C160.711,12.966 160.86,13.138 160.948,13.352C161.396,14.443 160.737,14.622 160.049,14.891C159.893,14.882 159.845,14.768 159.697,14.617C159.475,13.52 159.688,13.364 160.5,12.877L160.5,12.876Z" style="fill:rgb(241,237,234);fill-rule:nonzero;"/>
    </g>
    <g transform="matrix(1.024034,0,0,1.024034,-1.604161,-1.26576)">
        <path d="M147.633,14.13C148.659,14.281 149.089,15.073 149.743,15.898C149.828,17.018 150.295,19.282 150.195,20.189C149.705,19.883 149.519,16.737 149.445,15.994C148.871,15.24 148.398,14.694 147.633,14.13Z" style="fill:rgb(241,237,234);fill-rule:nonzero;"/>
    </g>
    <g transform="matrix(1.024034,0,0,1.024034,-1.604161,-1.26576)">
        <path d="M116.93,25.273L117.202,25.156C116.866,26.112 118.055,29.799 118.372,30.992L118.093,30.949C118.047,30.835 118.006,30.72 117.967,30.603C117.711,29.807 116.585,25.961 116.929,25.272L116.93,25.273Z" style="fill:rgb(241,237,234);fill-rule:nonzero;"/>
    </g>
    <g transform="matrix(1.024034,0,0,1.024034,-1.604161,-1.26576)">
        <path d="M113.486,26.141C113.983,26.818 114.918,30.92 115.159,31.92C114.991,31.83 114.942,31.768 114.8,31.642C114.442,30.028 113.511,27.595 113.486,26.141Z" style="fill:rgb(241,237,234);fill-rule:nonzero;"/>
    </g>
    <g transform="matrix(1.024034,0,0,1.024034,-1.604161,-1.26576)">
        <path d="M131.762,21.201C132.117,21.549 132.623,25.24 132.857,26.228L132.58,26.017C132.016,24.705 131.914,22.664 131.761,21.201L131.762,21.201Z" style="fill:rgb(241,237,234);fill-rule:nonzero;"/>
    </g>
    <g transform="matrix(1.024034,0,0,1.024034,-1.604161,-1.26576)">
        <path d="M134.406,20.244C134.714,20.564 135.254,23.995 135.388,24.71L135.158,24.588C134.832,24.068 134.373,20.938 134.406,20.244Z" style="fill:rgb(241,237,234);fill-rule:nonzero;"/>
    </g>
    <g transform="matrix(1.024034,0,0,1.024034,-1.604161,-1.26576)">
        <path d="M134.411,15.023C134.76,15.044 137.243,17.614 137.289,18.125C136.944,17.966 134.825,15.666 134.378,15.198L134.411,15.022L134.411,15.023Z" style="fill:rgb(241,237,234);fill-rule:nonzero;"/>
    </g>
    <g transform="matrix(1.024034,0,0,1.024034,-1.604161,-1.26576)">
        <path d="M157.571,13.544C157.993,13.573 158.422,13.958 158.819,14.227C158.815,14.919 158.832,15.474 158.88,16.164L158.651,16.032C158.356,15.596 158.475,15.105 158.519,14.552C158.282,13.897 157.859,14.13 157.571,13.543L157.571,13.544Z" style="fill:rgb(241,237,234);fill-rule:nonzero;"/>
    </g>
    <g transform="matrix(1.024034,0,0,1.024034,-1.604161,-1.26576)">
        <path d="M145.572,16.486C146.119,17.29 145.92,18.773 146.342,19.845L146.051,19.759C145.697,18.648 145.632,17.633 145.572,16.486Z" style="fill:rgb(241,237,234);fill-rule:nonzero;"/>
    </g>
    <g transform="matrix(1.024034,0,0,1.024034,-1.604161,-1.26576)">
        <path d="M98.143,6.56C99.216,6.468 110.158,7.187 111,7.463C109.197,7.409 99.371,6.982 98.143,6.56Z" style="fill:rgb(241,237,234);fill-rule:nonzero;"/>
    </g>
    <g transform="matrix(1.024034,0,0,1.024034,-1.604161,-1.26576)">
        <path d="M118.507,7.817C119.926,7.827 122.424,7.964 123.848,8.134C123.037,8.335 119.28,8.08 118.507,7.817Z" style="fill:rgb(241,237,234);fill-rule:nonzero;"/>
    </g>
    <g transform="matrix(1.024034,0,0,1.024034,-1.604161,-1.26576)">
        <path d="M53.631,6.768C53.111,6.722 52.62,6.738 52.244,6.407C52.719,6.228 52.969,6.365 53.535,6.456L53.631,6.768Z" style="fill:rgb(241,237,234);fill-rule:nonzero;"/>
    </g>
</svg>
