<?xml version="1.0" encoding="UTF-8" standalone="no"?>
<!DOCTYPE svg PUBLIC "-//W3C//DTD SVG 1.1//EN" "http://www.w3.org/Graphics/SVG/1.1/DTD/svg11.dtd">
<svg width="100%" height="100%" viewBox="0 0 58 59" version="1.1" xmlns="http://www.w3.org/2000/svg" xmlns:xlink="http://www.w3.org/1999/xlink" xml:space="preserve" xmlns:serif="http://www.serif.com/" style="fill-rule:evenodd;clip-rule:evenodd;stroke-linejoin:round;stroke-miterlimit:2;">
    <path d="M25.246,43.493c-4.46,-1.16 -6.426,-4.228 -8.316,-8.253c-7.203,-15.325 17.261,-21.468 21.429,-8.229c3.82,9.212 -4.064,16.906 -13.113,16.482Z" style="fill:#143b27;fill-rule:nonzero;"/>
    <path d="M23.023,19.272c6.081,-1.904 14.083,-0.118 16.462,7.33c2.062,5.021 0.95,9.707 -1.952,13.049c-2.88,3.316 -7.475,5.266 -12.342,5.038l-0.125,-0.006l-0.121,-0.031c-5.007,-1.303 -7.177,-4.811 -9.098,-8.902l-0.089,-0.193c-1.842,-4.04 -1.686,-7.63 -0.16,-10.492c1.527,-2.864 4.333,-4.824 7.425,-5.792Zm15.337,7.739c-4.168,-13.239 -28.632,-7.096 -21.429,8.229c1.89,4.025 3.856,7.092 8.316,8.253c9.049,0.424 16.933,-7.27 13.113,-16.482Z" style="fill:#143b27;fill-rule:nonzero;"/>
    <path d="M26.172,42.195c-4.46,-1.16 -7.352,-2.93 -9.242,-6.955c-7.203,-15.325 17.261,-21.468 21.429,-8.229c0.004,1.026 0.012,1.681 0.14,2.698c-0.597,0.046 -0.809,-0.15 -1.349,-0.433c-1.746,-3.596 -2.454,-6.568 -6.651,-7.858c-7.712,-2.373 -15.039,7.169 -10.779,14.088c1.554,2.524 2.803,3.056 5.013,4.744l-0.304,0.383l1.397,0.549c-0.084,0.855 0.597,0.198 0.345,1.012Z" style="fill:#143b27;fill-rule:nonzero;"/>
    <path d="M23.023,19.272c6.095,-1.908 14.12,-0.111 16.478,7.38l0.055,0.173l0.001,0.182c0.004,1.016 0.012,1.611 0.131,2.552l0.157,1.246l-1.252,0.097c-0.468,0.036 -0.857,-0.024 -1.235,-0.177c-0.263,-0.106 -0.616,-0.313 -0.761,-0.389l-0.35,-0.183l-0.172,-0.355c-0.943,-1.942 -1.464,-3.384 -2.32,-4.643c-0.777,-1.144 -1.785,-2.033 -3.606,-2.593c-3.263,-1.004 -6.538,0.483 -8.577,3.144c-2.006,2.619 -2.621,6.123 -0.914,9.035l0.083,0.138c1.404,2.281 2.388,2.639 4.72,4.421l0.97,0.741l-0.057,0.071l0.733,0.288l-0.054,0.545c0.105,0.11 0.199,0.247 0.268,0.415c0.112,0.273 0.114,0.529 0.098,0.702c-0.016,0.176 -0.058,0.342 -0.103,0.487l-0.338,1.092l-1.106,-0.288c-2.305,-0.6 -4.3,-1.38 -5.982,-2.59c-1.699,-1.222 -3.02,-2.837 -4.042,-5.014l-0.089,-0.193c-1.842,-4.04 -1.686,-7.63 -0.16,-10.492c1.527,-2.864 4.333,-4.824 7.425,-5.792Zm15.337,7.739c-4.168,-13.239 -28.632,-7.096 -21.429,8.229c1.86,3.962 4.692,5.738 9.034,6.9l0.208,0.055c0.252,-0.814 -0.429,-0.157 -0.345,-1.012l-1.397,-0.549l0.304,-0.383c-2.21,-1.689 -3.459,-2.22 -5.013,-4.744c-4.26,-6.92 3.067,-16.461 10.779,-14.088c4.196,1.29 4.905,4.262 6.651,7.858c0.541,0.283 0.753,0.479 1.349,0.433c-0.112,-0.889 -0.132,-1.502 -0.138,-2.329l-0.002,-0.369Zm-11.906,13.562c0.001,0 0.004,0.001 0.008,0.003c-0.031,-0.013 -0.038,-0.013 -0.008,-0.003Z" style="fill:#143b27;fill-rule:nonzero;"/>
    <path d="M27.879,24.244c3.805,1.592 -3.547,3.583 -7.611,5.385c-8.239,-1.763 0.739,-3.735 7.611,-5.385Z" style="fill:#143b27;fill-rule:nonzero;"/>
    <path d="M28.341,23.14c0.537,0.225 1.083,0.533 1.433,1.008c0.191,0.258 0.33,0.576 0.357,0.94c0.027,0.361 -0.062,0.684 -0.193,0.947c-0.241,0.486 -0.663,0.85 -1.028,1.111c-0.391,0.279 -0.861,0.541 -1.357,0.785c-0.99,0.488 -2.22,0.974 -3.415,1.436c-1.218,0.472 -2.403,0.92 -3.386,1.356l-0.355,0.158l-0.38,-0.081c-1.061,-0.227 -1.907,-0.47 -2.539,-0.739c-0.317,-0.135 -0.614,-0.291 -0.868,-0.479c-0.248,-0.184 -0.517,-0.444 -0.683,-0.807c-0.182,-0.399 -0.197,-0.832 -0.06,-1.232c0.125,-0.363 0.353,-0.635 0.556,-0.826c0.397,-0.374 0.949,-0.671 1.499,-0.915c2.202,-0.977 6.316,-1.913 9.677,-2.72l0.38,-0.091l0.361,0.151Zm-0.462,1.104c-6.818,1.638 -15.709,3.591 -7.801,5.344l0.19,0.041c4.064,-1.802 11.416,-3.793 7.611,-5.385Z" style="fill:#143b27;fill-rule:nonzero;"/>
    <path d="M37.15,29.276c0.541,0.283 0.753,0.479 1.349,0.433c-0.128,-1.016 -0.136,-1.672 -0.14,-2.698c3.82,9.212 -3.484,12.766 -12.533,12.341c0.252,-0.814 -0.084,2.685 0,1.83l-1.397,-0.549l0.304,-0.383c0.961,-0.106 2.11,0.129 3.131,0.028c8.332,-0.827 9.966,-3.03 9.285,-11.003Z" style="fill:#143b27;fill-rule:nonzero;"/>
    <path d="M39.465,26.553c1.014,2.445 1.339,4.632 0.998,6.543c-0.344,1.934 -1.352,3.477 -2.796,4.634c-0.34,0.272 -0.704,0.523 -1.089,0.753c-1.682,1.808 -4.439,2.545 -8.21,2.948l-0.386,0.04c-0.331,0.033 -0.667,0.036 -0.987,0.027l0,0.001c-0.001,0.007 -0.004,0.029 -0.01,0.057c-0.003,0.016 -0.013,0.058 -0.02,0.084c-0.015,0.051 -0.092,0.232 -0.166,0.356c-0.31,0.257 -0.883,0.299 -1.366,0.185l-0.046,0.117l-2.903,-1.142l1.622,-2.039l0.496,-0.054c0.021,-0.002 0.042,-0.004 0.063,-0.006l0.018,-0.057c0.018,-0.059 0.066,-0.21 0.154,-0.359c0.025,-0.042 0.168,-0.295 0.477,-0.462c0.19,-0.103 0.472,-0.187 0.799,-0.124c0.135,0.026 0.252,0.071 0.351,0.125c3.473,0.095 6.48,-0.44 8.569,-1.57c0.967,-1.246 1.259,-3.312 0.924,-7.231l-0.185,-2.172l1.4,0.732c-0.006,-0.289 -0.008,-0.589 -0.01,-0.921l2.302,-0.463Zm-3.651,10.991c-2.482,1.423 -6.025,1.983 -9.895,1.813c-0.009,-0.152 -0.036,-0.186 -0.092,-0.004c0.031,0.001 0.061,0.003 0.092,0.004c0.01,0.181 -0.005,0.53 -0.026,0.884c-0.402,-0.021 -0.794,-0.03 -1.158,0.01l-0.304,0.383l1.394,0.548c0.016,-0.195 0.046,-0.571 0.069,-0.941c0.656,0.034 1.339,0.101 1.973,0.038c4.093,-0.406 6.569,-1.144 7.949,-2.735Zm2.546,-10.532c0.004,1.026 0.012,1.681 0.14,2.698c-0.596,0.046 -0.809,-0.15 -1.349,-0.433c0.346,4.057 0.093,6.62 -1.336,8.268c3.294,-1.888 4.717,-5.296 2.546,-10.532Z" style="fill:#143b27;fill-rule:nonzero;"/>
    <path d="M1.535,35.356c2.611,-0.204 3.796,-0.177 6.278,0.689l0.12,0.63l-0.829,0.206c-2.959,0.99 -3.287,1.215 -5.69,-0.706l0.12,-0.819Z" style="fill:#143b27;fill-rule:nonzero;"/>
    <path d="M1.442,34.163c1.311,-0.102 2.35,-0.155 3.395,-0.055c0.993,0.095 1.948,0.324 3.131,0.724l0.24,0.082l0.652,0.228l0.462,2.421l-1.882,0.467c-0.694,0.233 -1.305,0.444 -1.823,0.583c-0.542,0.146 -1.087,0.244 -1.66,0.199c-1.166,-0.093 -2.116,-0.765 -3.288,-1.703l-0.536,-0.429l0.358,-2.443l0.952,-0.074Zm6.371,1.882c-2.482,-0.866 -3.668,-0.893 -6.278,-0.689l-0.12,0.819c2.402,1.921 2.731,1.695 5.69,0.706l0.829,-0.206l-0.12,-0.63Z" style="fill:#143b27;fill-rule:nonzero;"/>
    <path d="M17.262,48.348c0.893,0.592 0.693,0.208 0.893,1.013c-1.285,1.525 -2.967,3.562 -4.629,4.647l-1.606,-0.392l-0.192,-0.484c2.571,-2.045 3.512,-2.201 5.533,-4.783Z" style="fill:#143b27;fill-rule:nonzero;"/>
    <path d="M17.924,47.351c0.187,0.124 0.31,0.193 0.399,0.241c0.035,0.019 0.108,0.058 0.163,0.09c0.059,0.034 0.172,0.102 0.287,0.207c0.299,0.271 0.396,0.586 0.439,0.746c0.019,0.072 0.038,0.152 0.051,0.21c0.015,0.066 0.032,0.139 0.054,0.227l0.147,0.593l-0.394,0.467c-1.239,1.47 -3.046,3.674 -4.889,4.878l-0.434,0.283l-2.71,-0.662l-0.748,-1.884l0.695,-0.553c2.771,-2.204 3.428,-2.148 5.336,-4.584l0.682,-0.871l0.922,0.611Zm-0.662,0.997c-2.022,2.582 -2.963,2.738 -5.533,4.783l0.192,0.484l1.606,0.392c1.454,-0.949 2.923,-2.627 4.129,-4.054l0.5,-0.593c-0.2,-0.805 0,-0.42 -0.893,-1.013Z" style="fill:#143b27;fill-rule:nonzero;"/>
    <path d="M30.195,2.703l0.493,0.738c0.036,3.178 -0.296,4.975 -1.502,7.92l-0.5,-0.662c-0.096,-3.377 0.256,-4.851 1.509,-7.996Z" style="fill:#143b27;fill-rule:nonzero;"/>
    <path d="M31.88,3.071l0.004,0.355c0.038,3.335 -0.323,5.291 -1.591,8.387l-0.796,1.944l-1.998,-2.643l-0.011,-0.382c-0.049,-1.735 0.014,-3.045 0.271,-4.35c0.255,-1.296 0.69,-2.534 1.323,-4.123l0.843,-2.115l1.954,2.927Zm-1.685,-0.369c-1.253,3.145 -1.606,4.618 -1.509,7.996l0.5,0.662c1.205,-2.945 1.538,-4.742 1.502,-7.92l-0.493,-0.738Z" style="fill:#143b27;fill-rule:nonzero;"/>
    <path d="M49.362,13.587l0.605,0.104l0.248,0.532c-0.981,1.142 -4.821,3.213 -6.314,4.088l-0.529,-0.092l-0.116,-0.548c1.197,-1.333 4.44,-3.089 6.106,-4.085Z" style="fill:#143b27;fill-rule:nonzero;"/>
    <path d="M50.787,12.619l0.839,1.799l-0.503,0.586c-0.348,0.405 -0.876,0.819 -1.408,1.195c-0.554,0.391 -1.199,0.801 -1.845,1.193c-1.271,0.771 -2.666,1.543 -3.365,1.953l-0.378,0.221l-1.758,-0.305l-0.41,-1.936l0.407,-0.453c0.726,-0.809 1.976,-1.66 3.134,-2.384c1.175,-0.734 2.464,-1.459 3.249,-1.928l0.381,-0.228l1.658,0.286Zm-1.425,0.968c-1.666,0.996 -4.909,2.752 -6.106,4.085l0.116,0.548l0.529,0.092c1.47,-0.861 5.214,-2.881 6.266,-4.034l0.048,-0.054l-0.248,-0.532l-0.605,-0.104Z" style="fill:#143b27;fill-rule:nonzero;"/>
    <path d="M46.211,35.794c2.154,-0.242 6.935,0.086 8.408,1.875c-2.286,-0.204 -7.119,-0.091 -8.408,-1.875Z" style="fill:#143b27;fill-rule:nonzero;"/>
    <path d="M46.077,34.605c1.195,-0.135 3.041,-0.108 4.791,0.184c0.879,0.147 1.773,0.367 2.568,0.688c0.78,0.315 1.561,0.766 2.108,1.431l1.817,2.206l-2.847,-0.254c-0.974,-0.087 -2.975,-0.13 -4.63,-0.351c-0.867,-0.115 -1.759,-0.289 -2.545,-0.575c-0.767,-0.279 -1.572,-0.714 -2.097,-1.441l-1.2,-1.661l2.036,-0.229Zm0.134,1.189c2.154,-0.242 6.935,0.086 8.408,1.875c-2.286,-0.204 -7.119,-0.091 -8.408,-1.875Z" style="fill:#143b27;fill-rule:nonzero;"/>
    <path d="M34.051,48.357c1.337,1.909 3.071,6.036 3.62,8.293l-0.965,-0.408c-1.473,-2.546 -2.711,-4.911 -2.655,-7.885Z" style="fill:#143b27;fill-rule:nonzero;"/>
    <path d="M35.031,47.67c0.739,1.054 1.544,2.651 2.224,4.229c0.683,1.584 1.282,3.249 1.578,4.468l0.562,2.312l-3.525,-1.491l-0.201,-0.347c-1.474,-2.546 -2.878,-5.169 -2.815,-8.507l0.069,-3.673l2.107,3.009Zm-0.98,0.687c-0.056,2.974 1.181,5.339 2.655,7.885l0.965,0.408c-0.549,-2.257 -2.282,-6.384 -3.62,-8.293Z" style="fill:#143b27;fill-rule:nonzero;"/>
    <path d="M5.659,13.492c2.563,0.345 4.673,2.869 6.582,4.695c-2.046,-0.06 -5.009,-3.234 -6.582,-4.695Z" style="fill:#143b27;fill-rule:nonzero;"/>
    <path d="M5.818,12.306c1.613,0.217 2.992,1.103 4.141,2.057c1.126,0.935 2.232,2.12 3.109,2.959l2.25,2.152l-3.112,-0.091c-0.789,-0.023 -1.556,-0.335 -2.218,-0.704c-0.678,-0.378 -1.352,-0.876 -1.977,-1.391c-1.227,-1.012 -2.443,-2.247 -3.167,-2.919l-2.763,-2.566l3.737,0.503Zm6.423,5.881c-2.046,-0.06 -5.009,-3.234 -6.582,-4.695c2.563,0.345 4.673,2.869 6.582,4.695Z" style="fill:#143b27;fill-rule:nonzero;"/>
</svg>
