<?xml version="1.0" encoding="UTF-8" standalone="no"?>
<!DOCTYPE svg PUBLIC "-//W3C//DTD SVG 1.1//EN" "http://www.w3.org/Graphics/SVG/1.1/DTD/svg11.dtd">
<svg width="100%" height="100%" viewBox="0 0 84 67" version="1.1" xmlns="http://www.w3.org/2000/svg" xmlns:xlink="http://www.w3.org/1999/xlink" xml:space="preserve" xmlns:serif="http://www.serif.com/" style="fill-rule:evenodd;clip-rule:evenodd;stroke-linejoin:round;stroke-miterlimit:2;">
    <clipPath id="_clip1">
        <rect x="0.083" y="0.018" width="83.045" height="66.335"/>
    </clipPath>
    <g clip-path="url(#_clip1)">
        <path d="M63.548,0.148c1.624,-0.215 3.761,-0.124 5.622,-0.012c3.443,0.207 9.525,-0.32 12.026,2.423c0.284,0.31 1.16,5.326 1.139,5.845c-0.456,11.664 -0.414,23.061 0.511,34.707c0.319,4.019 -0.118,8.033 -0.123,12.043c-0.003,2.463 0.874,5.594 0.056,7.899c-2.658,1.604 -16.391,-0.608 -20.373,0.586c-0.954,0.285 -4.851,0.049 -6.178,0.273c-4.824,0.817 -9.697,1.041 -14.573,0.766c-7.175,-0.02 -14.413,0.601 -21.566,1.062c-1.526,0.181 -2.826,-0.014 -4.189,0.101c-3.779,0.331 -7.557,0.834 -11.285,-0.186c-1.904,-0.522 -2.836,-0.329 -3.138,-2.547c-0.324,-2.372 -0.181,-4.757 -0.383,-7.101c-0.501,-5.811 -0.398,-11.68 -0.594,-17.514c-0.042,-1.227 0.498,-2.932 0.454,-4.135c-0.176,-4.858 -0.39,-8.465 -0.481,-13.473c-0.076,-4.093 -1.239,-12.594 0.859,-16.395c0.807,-0.917 3.722,-1.689 4.794,-1.749c5.484,-0.492 10.939,-0.414 16.422,-0.486c2.743,-0.036 6.218,-0.258 9.017,-0.368c6.385,-0.25 12.83,-1.312 19.262,-1.503c3.951,-0.118 8.63,0.331 12.482,-0.203l0.24,-0.034Z" style="fill:#143b27;fill-rule:nonzero;"/>
        <path d="M58.749,1.155c1.538,-0.209 3.816,0.036 5.398,0.002c3.401,-0.039 6.816,0.112 10.212,0.306c2.147,0.123 4.552,-0.061 6.422,1.017c-0.289,3.336 -0.965,7.555 -3.35,10.053c-0.857,0.897 -2.117,1.496 -3.042,2.288c-4.186,3.585 -8.833,6.463 -13.238,9.77c-4.854,3.617 -8.895,8.262 -14.145,11.356c-2.446,1.441 -7.125,2.139 -9.567,0.528c-2.252,-1.484 -6.151,-3.95 -7.979,-5.805c-0.187,-0.113 -0.187,-0.103 -0.326,-0.214c-1.622,-1.35 -3.526,-2.329 -5.236,-3.55c-4.944,-3.526 -10.097,-6.782 -15.48,-9.596c-1.583,-0.827 -2.959,-1.384 -4.25,-2.686c-2.486,-2.51 -2.62,-6.44 -2.625,-9.764c2.22,-1.529 9.049,-1.378 11.928,-1.477l12.323,-0.468c4.762,-0.18 9.895,-0.765 14.725,-1.041c6.188,-0.354 12.058,-0.321 18.228,-0.72Z" style="fill:#f1edea;fill-rule:nonzero;"/>
        <path d="M30.699,32.932c0.457,0.555 1.283,1.079 1.818,1.531c5.281,4.47 10.31,4.804 16.211,1.403c0.984,-0.567 1.889,-1.347 2.9,-1.816c0.694,0.037 26.061,18.938 29.179,20.252c0.221,0.095 1.16,0.906 1.406,1.131c0.044,2.39 0.014,4.88 0.02,7.277c-1.951,-0.216 -3.737,0.338 -5.57,0.28c-2.275,-0.073 -4.628,-0.336 -6.92,-0.425c-4.613,-0.177 -9.233,0.003 -13.819,0.542c-1.367,0.189 -3.17,-0.145 -4.429,0.073c-6.181,1.063 -12.268,0.513 -18.469,0.95c-4.061,0.287 -8.156,0.084 -12.214,0.081c-2.167,-0.002 -4.903,0.56 -7.165,0.623c-5.292,0.142 -12.617,2.763 -11.452,-5.734c0.076,-0.493 3.123,-2.773 3.894,-3.561c7.001,-7.163 14.828,-13.493 22.206,-20.246c0.793,-0.726 1.794,-1.495 2.405,-2.358Z" style="fill:#f1edea;fill-rule:nonzero;"/>
        <path d="M81.058,4.213c0.868,2.942 -0.284,16.304 -0.17,20.043c0.068,2.24 0.093,4.775 0.326,7.091c0.206,2.051 0.901,4.925 0.908,6.909c0.019,5.41 -0.206,10.455 0.059,15.887c-1.281,-0.977 -2.577,-1.624 -3.845,-2.523c-3.985,-2.836 -8.823,-5.695 -12.599,-8.694c-4.211,-3.653 -9.403,-6.316 -13.38,-9.829c4.721,-3.011 8.136,-7.481 13.063,-10.499c2.544,-1.558 5.254,-3.993 7.901,-5.773c5.408,-3.636 6.672,-6.408 7.737,-12.611Z" style="fill:#f1edea;fill-rule:nonzero;"/>
        <path d="M1.242,8.103c0.81,6.324 1.203,6.81 6.647,10.127c4.054,2.468 8.195,4.586 12.248,7.081c3.575,2.203 6.417,4.883 9.979,7.047c-0.511,0.756 -2.312,2.209 -3.062,2.937c-3.323,3.226 -7.464,6.244 -10.627,9.543c-1.227,0.933 -3.31,2.922 -4.498,3.999l-9.935,9.103c-0.537,-3.482 -0.55,-11.697 -0.557,-15.247l-0.086,-20.954c-0.019,-2.415 -0.564,-11.955 -0.108,-13.636Z" style="fill:#f1edea;fill-rule:nonzero;"/>
    </g>
</svg>
