<?xml version="1.0" encoding="UTF-8" standalone="no"?>
<!DOCTYPE svg PUBLIC "-//W3C//DTD SVG 1.1//EN" "http://www.w3.org/Graphics/SVG/1.1/DTD/svg11.dtd">
<svg width="100%" height="100%" viewBox="0 0 84 67" version="1.1" xmlns="http://www.w3.org/2000/svg" xmlns:xlink="http://www.w3.org/1999/xlink" xml:space="preserve" xmlns:serif="http://www.serif.com/" style="fill-rule:evenodd;clip-rule:evenodd;stroke-linejoin:round;stroke-miterlimit:2;">
    <clipPath id="_clip1">
        <rect x="0.208" y="0.128" width="82.707" height="66.166"/>
    </clipPath>
    <g clip-path="url(#_clip1)">
        <path d="M53.26,0.134c3.743,-0.083 26.765,0.726 29.299,2.496c0.608,1.161 -0.122,13.981 0.193,16.504c0.131,1.055 -0.439,4.402 -0.423,5.769c0.032,2.733 -0.113,5.553 -0.151,8.276l-0.235,20.459c-0.034,3.156 0.103,8.438 -0.37,11.387c-1.177,0.944 -13.872,1.393 -15.712,1.139c-3.749,-0.515 -8.029,-0.648 -11.971,-0.692c-1.434,-0.015 -3.881,-0.69 -5.612,-0.729c-3.134,-0.069 -6.162,0.116 -9.291,0.221c-2.378,0.047 -5.058,-0.294 -7.412,-0.024c-3.146,-0.027 -6.714,0.528 -9.97,0.64c-5.907,0.201 -13.178,-0.771 -18.915,-0.081c-3.312,-8.721 -2.439,-28.04 -2.189,-37.855l0.306,-15.606c0.044,-1.766 -0.228,-7.852 0.067,-9.118c1.066,-0.785 4.812,-0.906 6.387,-1.055c9.517,-0.871 19.065,-1.369 28.622,-1.495c3.212,-0.034 6.408,-0.051 9.623,-0.142c2.574,-0.071 5.182,0.101 7.756,-0.095Z" style="fill:#143b27;fill-rule:nonzero;"/>
        <path d="M32.616,0.954c2.022,0.243 4.355,-0.098 6.424,-0.017c12.085,0.468 24.182,-0.484 36.218,1.03c2.025,0.255 5.122,0.356 6.383,2.257c0.71,1.07 -0.195,56.182 -0.746,60.42c-0.592,0.51 -3.015,0.194 -4.055,0.246c-2.872,0.02 -6.164,0.837 -9.014,0.591c-5.726,-0.495 -11.249,-1.026 -17.014,-1.148c-4.373,-0.125 -8.866,0.143 -13.209,-0.13c-5.33,-0.336 -10.278,0.292 -15.539,0.471c-4.672,0.159 -9.641,-0.128 -14.365,0.044c-0.86,0.032 -3.903,-0.064 -4.554,-0.876c-1.988,-4.36 -1.672,-10.31 -1.89,-14.968c-0.139,-2.976 -0.482,-4.736 -0.465,-7.309c0.016,-2.388 0.295,-4.471 0.358,-6.693l0.434,-18.393c0.076,-2.859 -0.087,-10.266 0.341,-12.823c1.433,-1.637 19.814,-2.029 22.926,-2.177c2.591,-0.138 5.18,-0.314 7.766,-0.525Z" style="fill:#f1edea;fill-rule:nonzero;"/>
        <path d="M72.036,3.506c0.232,0.176 0.463,0.353 0.694,0.532c1.812,-0.668 5.425,-0.025 7.038,1.193c0.462,0.856 -0.014,9.884 0.222,11.567c0.092,0.66 -0.149,1.342 -0.32,2.019c-1.009,0.685 -1.334,0.998 -2.388,0.825l-0.115,-0.064c-1.146,0.471 -5.519,0.052 -6.98,0.197c-0.292,0.03 -1.986,-1.215 -2.009,-1.376c-0.547,-3.67 -0.639,-7.474 -0.323,-11.172c0.29,-3.389 2.158,-2.078 4.013,-3.582l0.17,-0.14Z" style="fill:#143b27;fill-rule:nonzero;"/>
        <path d="M71.874,4.026c0.594,0.272 0.417,0.545 0.983,0.7c0.637,-0.542 0.709,-0.736 1.537,-0.572c0.892,0.854 0.773,0.697 1.697,0.014c0.602,0.084 0.437,0.101 0.963,0.709c0.361,-0.071 0.475,-0.184 0.802,-0.375c0.576,0.322 1.233,0.653 1.736,1.065c0.08,0.773 -0.152,0.393 -0.466,1.327c1.533,1.134 0.159,1.284 -0.036,2.063l0.577,0.569c0.007,0.971 -0.488,0.258 -0.573,1.269c1.58,1.472 0.143,1.141 -0.016,2.052c1.463,1.197 0.339,0.895 0.077,1.885c-0.045,0.17 0.631,0.265 0.618,1.05c-0.308,0.253 -0.465,0.344 -0.659,0.699c0.472,0.415 0.632,0.437 0.524,1.063c-0.342,0.133 -0.362,0.106 -0.585,0.387l0.262,0.395l-0.087,0.223c-0.741,0.43 -1.08,0.874 -1.843,0.473l-0.249,0.061c-0.479,0.368 -0.54,0.476 -1.107,0.486c-0.401,-0.356 -0.491,-0.496 -1.023,-0.589c-1.372,1.433 -1.071,0.128 -2.024,-0.037c-0.479,0.525 -0.475,0.667 -1.144,0.628c-0.307,-0.385 -0.353,-0.51 -0.828,-0.646c-0.413,0.167 -0.263,0.029 -0.455,0.441c-0.659,-0.101 -0.838,-0.564 -1.355,-0.893c-0.142,-0.091 -0.311,0.179 -0.817,-0.186c-0.122,-0.785 0.257,-0.38 0.47,-1.247c-0.268,-0.194 -0.48,-0.36 -0.736,-0.571c-0.078,-0.547 -0.101,-0.378 0.325,-0.994l0.11,-0.157c-0.255,-0.314 -0.341,-0.446 -0.549,-0.778c0.094,-0.822 0.053,-0.547 0.65,-1.355c-0.63,-0.658 -0.624,-0.294 -0.885,-1.082c0.145,-0.329 0.195,-0.446 0.396,-0.748l0.151,-0.224l-0.43,-0.609c0.014,-0.667 0.068,-0.532 0.469,-1.195c-0.282,-2.078 -0.369,-4.426 2.4,-4.495c0.342,-0.01 0.833,-0.552 1.121,-0.803Z" style="fill:#f1edea;fill-rule:nonzero;"/>
        <path d="M72.857,5.508c1.632,-0.032 3.457,0.284 5.328,0.27c0.158,4.031 -0.048,7.962 0.133,12.17c-1.206,-0.142 -1.691,-0.165 -2.904,-0.122c-1.074,0.123 -4.154,0.047 -5.323,0.041c0.051,-4.196 -0.332,-7.719 0.022,-12.04c0.847,-0.022 1.883,-0.197 2.743,-0.319Z" style="fill:#143b27;fill-rule:nonzero;"/>
        <path d="M72.257,6.183c0.727,-0.368 4.263,0.218 5.247,0.375c-0.017,1.587 0.03,3.445 0.004,5.006c-0.015,0.9 0.236,5.384 0.047,5.705c-0.516,0.243 -0.833,0.149 -1.429,0.098c-2.18,-0.592 -3.739,0.287 -5.511,-0.019c-0.046,-1.298 0.015,-9.785 0.242,-10.814c0.503,-0.376 0.707,-0.282 1.401,-0.351Z" style="fill:#f1edea;fill-rule:nonzero;"/>
        <path d="M32.439,42.63c-1.166,0.238 -5.304,1.047 -5.248,-0.854c0.044,-1.489 -0.198,-14.359 0.047,-14.774c2.301,-0.866 26.226,-1.18 27.002,-0.473c0.615,2.027 0.02,4.873 0.05,7.022c0.025,1.762 0.259,3.54 -0.015,5.271l-0.47,0.339c0.413,-2.137 0.188,-3.695 0.174,-5.849c-0.013,-1.946 0.676,-4.78 -0.001,-6.588c-2.21,-0.495 -25.573,-0.084 -26.436,0.42c-0.151,0.503 -0.016,14.541 0.156,15.404c2.066,0.076 2.704,0.187 4.719,-0.279c2.483,1.386 8.653,-0.246 11.561,-0.095c1.317,0.068 8.658,-0.186 9.201,0.258c-0.401,0.179 -4.236,0.28 -4.682,0.226c-4.837,-0.571 -9.6,0.557 -14.424,0.638c-0.474,0.008 -1.215,-0.435 -1.635,-0.668Z" style="fill:#143b27;fill-rule:nonzero;"/>
        <path d="M54.276,38.822c-0.132,0.886 -0.179,3.064 -0.419,3.497l-0.246,0.051c-0.111,-0.542 0.047,-2.642 0.195,-3.209l0.47,-0.339Z" style="fill:#143b27;fill-rule:nonzero;"/>
    </g>
</svg>
