<?xml version="1.0" encoding="UTF-8" standalone="no"?>
<!DOCTYPE svg PUBLIC "-//W3C//DTD SVG 1.1//EN" "http://www.w3.org/Graphics/SVG/1.1/DTD/svg11.dtd">
<svg width="100%" height="100%" viewBox="0 0 84 102" version="1.1" xmlns="http://www.w3.org/2000/svg" xmlns:xlink="http://www.w3.org/1999/xlink" xml:space="preserve" xmlns:serif="http://www.serif.com/" style="fill-rule:evenodd;clip-rule:evenodd;stroke-linejoin:round;stroke-miterlimit:2;">
    <path d="M42.77,0.228c0.761,0.067 1.654,0.253 2.299,0.67c4.405,2.843 8.527,6.08 12.712,9.231c1.136,0.874 2.182,2.121 3.34,2.938c2.019,1.424 4.115,2.745 6.112,4.209c1.875,1.376 3.56,2.915 5.418,4.311c2.491,1.871 5.17,3.718 7.192,6.105c2.23,2.647 2.542,6.908 2.302,10.216c-0.219,3.001 0.549,5.842 0.505,8.834c-0.022,1.456 -0.076,2.914 -0.105,4.37c0.027,5.577 -0.655,11.217 -0.618,16.775c0.03,4.383 0.798,8.805 0.498,13.272c-0.118,1.733 0.569,4.239 0.515,6.072c-0.042,1.429 -0.041,2.825 -0.187,4.257c-0.149,2.463 -0.187,5.004 -0.457,7.453c-0.633,0.347 -2.518,0.368 -3.302,0.323c-2.213,-0.303 -5.055,0.597 -7.15,0.439c-3.953,-0.296 -7.248,0.097 -11.176,0.427c-5.653,0.475 -11.609,0.582 -17.299,0.708c-0.932,0.021 -1.852,0.01 -2.787,0.039c-1.166,0.184 -3.266,0.139 -4.466,0.062c-4.176,-0.266 -8.382,0.35 -12.556,0.355c-3.546,0.005 -7.098,-0.1 -10.649,-0.064c-0.957,0.01 -2.044,-0.216 -3.013,-0.239c-2.885,0.176 -5.876,0.328 -8.353,-1.529c-0.019,-1.368 -0.527,-3.126 -0.52,-4.532c0.014,-3.685 -0.199,-7.414 -0.268,-11.068c-0.223,-3.806 0.625,-9.078 0.209,-12.746c-1.06,-9.333 -0.945,-18.208 -0.132,-27.555c0.116,-1.341 1.273,-3.367 1.212,-4.608c-0.196,-4.007 -0.901,-8.657 0.643,-12.5c1.549,-3.437 7.498,-6.177 10.57,-8.18c1.543,-0.798 3.123,-2.46 4.6,-3.247c6.475,-3.452 11.55,-8.468 17.488,-12.568c1.882,-1.301 5.023,-1.431 7.19,-2.151l0.233,-0.078Z" style="fill:#143b27;fill-rule:nonzero;"/>
    <path d="M41.985,1.277c0.056,-0.004 0.111,-0.008 0.167,-0.011c3.931,-0.213 13.64,8.938 16.849,11.394c2.404,1.841 5.057,3.369 7.494,5.175c3.872,2.871 7.872,6.009 11.447,9.232c0.856,0.771 1.512,1.69 2.365,2.467c0.306,2.237 1.055,5.396 0.994,7.45c-3.43,1.972 -7.722,3.876 -11.363,5.858c-5.703,3.104 -10.683,6.205 -16.113,9.804c-3.288,2.18 -7.094,4.12 -10.284,6.498c-0.608,-0.641 -0.729,-0.785 -1.539,-1.227c-1.335,0.363 -1.03,0.957 -2.257,1.39c-1.381,0.063 -11.187,-6.089 -13.36,-7.295l-12.669,-7.173c-4.005,-2.228 -7.142,-3.783 -11.054,-6.255c-0.049,-2.027 -0.155,-10.789 0.743,-12.012c2.859,-3.899 14.167,-9.81 18.309,-12.989c5.151,-3.955 8.48,-6.482 13.52,-10.098c1.242,-0.891 5.263,-1.818 6.752,-2.208Z" style="fill:#f1edea;fill-rule:nonzero;"/>
    <path d="M41.629,58.911c0.94,-0.04 5.265,4.391 6.25,5.3l14.666,13.757c2.637,2.436 5.543,4.633 8.171,7.106c1.379,1.297 3.919,2.116 5.518,3.181c1.985,1.323 3.727,2.944 5.612,4.398c-0.054,1.529 0.027,4.532 -0.954,5.636c-0.918,0.292 -2.319,0.299 -3.33,0.399c-5.074,0.5 -10.121,0.105 -15.161,0.24c-5.123,0.137 -10.288,1.06 -15.453,1.02c-1.425,-0.011 -3.232,0.229 -4.613,0.068c-4.51,-0.591 -12.111,0.291 -16.882,0.389c-3.295,0.068 -5.898,-0.099 -9.545,-0.167c-3.204,-0.06 -9.758,0.555 -12.931,-0.809c-0.903,-0.388 -0.824,-3.618 -0.856,-4.741l24.514,-22.088c1.902,-1.686 4.105,-3.133 5.773,-4.699c3.048,-2.862 6.076,-6.163 9.221,-8.99Z" style="fill:#f1edea;fill-rule:nonzero;"/>
    <path d="M80.793,37.85l0.241,0.175c0.425,0.761 0.513,8.477 0.522,9.947c0.162,7.446 -0.623,15.09 -0.432,22.53c0.122,4.779 0.797,9.411 0.457,14.323c-0.125,1.8 0.365,4.291 0.289,6.331c-3.298,-2.037 -6.196,-4.571 -9.739,-6.351c-1.17,-0.587 -3.185,-2.762 -4.419,-3.619c-2.051,-1.426 -4.012,-3.047 -5.815,-4.78c-0.765,-1.028 -3.575,-3.383 -4.762,-4.479c-4.36,-4.026 -8.84,-8.589 -13.233,-12.486c1.328,-0.806 2.711,-1.676 4.07,-2.428c5.103,-2.823 9.722,-6.445 14.781,-9.326c5.952,-3.389 12.087,-6.444 18.04,-9.837Z" style="fill:#f1edea;fill-rule:nonzero;"/>
    <path d="M2.66,39.128c1.425,0.651 2.849,1.875 4.171,2.791c1.431,0.992 2.621,1.656 4.135,2.499l21.852,12.273c2.221,1.235 4.324,2.045 6.569,3.373c-2.128,2.447 -4.858,4.554 -7.25,6.745c-3.916,3.588 -7.888,7.049 -11.927,10.498c-4.792,4.539 -9.765,8.831 -14.629,13.285c-1.122,1.028 -2.748,2.388 -3.597,3.605c-0.105,-6.145 -0.375,-12.886 -0.106,-19.055c0.022,-0.536 0.197,-1.089 0.15,-1.658c-0.37,-3.602 -0.349,-7.325 -0.648,-10.917c-0.322,-3.889 -0.292,-7.296 0.047,-11.195c0.219,-2.522 0.074,-5.213 0.4,-7.766c0.192,-1.52 0.741,-2.974 0.832,-4.478Z" style="fill:#f1edea;fill-rule:nonzero;"/>
</svg>
