<?xml version="1.0" encoding="UTF-8" standalone="no"?>
<!DOCTYPE svg PUBLIC "-//W3C//DTD SVG 1.1//EN" "http://www.w3.org/Graphics/SVG/1.1/DTD/svg11.dtd">
<svg width="100%" height="100%" viewBox="0 0 83 102" version="1.1" xmlns="http://www.w3.org/2000/svg" xmlns:xlink="http://www.w3.org/1999/xlink" xml:space="preserve" xmlns:serif="http://www.serif.com/" style="fill-rule:evenodd;clip-rule:evenodd;stroke-linejoin:round;stroke-miterlimit:2;">
    <path d="M38.336,0.275c0.46,-0.046 0.92,-0.081 1.381,-0.107c1.598,-0.081 3.726,0.721 5.09,1.51c5.47,3.167 10.662,7.5 15.868,11.059c4.482,3.064 9.533,5.883 13.609,9.534c1.645,1.473 4.851,4.625 5.545,6.623c1.118,3.22 1.235,7.203 1.518,10.553c1.201,14.231 0.475,28.82 0.48,43.102c0.001,1.928 -0.266,4.115 -0.222,5.965c0.064,2.716 0.439,5.537 0.57,8.287l-0.899,1.13c-1.326,0.538 -2.501,0.825 -3.964,0.837c-7.638,0.061 -15.291,0.288 -22.914,0.702c-4.004,0.218 -7.502,0.8 -11.57,0.82c-2.678,-0.102 -6.406,0.391 -9.177,0.499c-7.042,0.274 -14.143,0.547 -21.189,0.324c-3.09,-0.098 -6.371,0.096 -9.241,-1.18c-0.828,-1.919 -1.493,-7.161 -1.555,-9.504c-0.305,-11.486 -1.074,-22.931 -1.456,-34.406c-0.186,-5.565 -0.089,-10.547 0.351,-16.204c0.296,-3.81 -1.331,-10.975 1.067,-14.528c4.933,-5.238 11.342,-9.084 17.333,-12.974c3.592,-2.461 6.713,-5.62 10.534,-8.019c3.576,-2.245 4.278,-3.584 8.844,-4.024Z" style="fill:#f1edea;fill-rule:nonzero;"/>
    <path d="M40.514,57.456c0.273,0.031 0.744,0.076 0.936,0.272c3.125,3.194 5.957,6.808 9.209,9.874c3.243,3.058 6.758,5.824 10.18,8.663c2.107,1.748 3.893,4.058 6.233,5.615c4.505,3.332 10.429,6.773 14.217,10.935c0.06,1.281 0.419,3.352 -0.089,4.433c-0.656,0.461 -3.535,0.875 -4.349,0.873c-6.866,-0.019 -13.64,0.378 -20.482,0.693l-12.944,0.468c-1.852,0.4 -5.244,0.144 -7.293,0.422c-1.904,0.258 -4.048,0.244 -5.995,0.52c-1.44,0.204 -3.274,-0.047 -4.748,0.117c-5.877,0.38 -11.572,0.507 -17.443,-0.171c-3.572,-0.413 -4.528,-0.211 -5.113,-4.243c-0.096,-0.665 -0.164,-1.61 0.315,-2.151c2.081,-2.35 4.661,-4.21 6.928,-6.391l19.11,-18.507c2.493,-2.385 4.957,-4.8 7.392,-7.245c1.049,-1.047 3.003,-2.908 3.828,-4.029l0.107,-0.148Z" style="fill:#143b27;fill-rule:nonzero;"/>
    <path d="M39.671,0.594c4.212,-0.362 7.39,3.966 10.47,5.967c3.776,2.223 7.413,5.107 11.031,7.503c5.756,3.811 11.056,6.424 15.679,11.842c1.968,2.307 2.791,2.774 3.02,6.227c0.088,1.317 0.883,2.589 -0.277,3.504c-0.822,-0.636 -0.587,-4.354 -1.083,-6.167c-2.122,-0.18 -5.941,0.464 -8.336,0.41c-1.816,0.094 -3.943,-0.372 -5.715,-0.265c-8.028,0.483 -16.157,0.345 -24.165,0.754c-7.33,0.177 -14.411,0.287 -21.733,0.829c-5.017,0.371 -11.016,-0.455 -16.006,0.45c-0.944,0.922 -0.102,5.323 -0.176,7.127l-0.011,0.24c-0.348,-0.263 -1.052,-0.589 -1.465,-0.797c0.658,-3.569 -0.868,-10.715 1.648,-13.092c2.661,-2.515 8.234,-6.002 11.294,-8.41c1.628,-1.281 4.119,-2.429 5.844,-3.836c4.449,-3.629 8.971,-7.221 13.732,-10.418c1.735,-1.149 4.2,-1.715 6.249,-1.868Z" style="fill:#143b27;fill-rule:nonzero;"/>
    <path d="M77.132,29.954c0.294,-0.038 0.477,-0.024 0.77,-0.019l0.191,0.261c-0.111,1.765 0.346,4.035 0.361,5.993c-0.273,0.495 -19.303,11.548 -21.549,12.896c-3.814,2.29 -9.902,7.622 -13.561,9.417c-2.359,-2.237 -2.89,-2.051 -5.158,0.136c-7.206,-3.674 -14.662,-7.481 -21.634,-11.563c-1.876,-0.966 -3.061,-1.237 -5.172,-2.55c-2.296,-1.428 -5.803,-3.958 -8.188,-4.922c-0.297,-1.996 -0.351,-5.385 -0.522,-7.592c3.553,-0.252 7.323,-0.028 10.914,-0.331c1.266,-0.116 3.321,0.3 4.512,0.115c5.374,-0.832 10.579,-0.555 15.937,-0.76c6.247,-0.239 12.337,-0.587 18.606,-0.416c2.318,0.063 5.004,-0.323 7.362,-0.265c3.407,-0.235 6.254,-0.369 9.687,0.017c2.192,0.085 5.18,-0.285 7.445,-0.417Z" style="fill:#143b27;fill-rule:nonzero;"/>
    <path d="M79.708,36.214l0.419,0.319c1.547,2.719 0.924,32.755 0.911,37.755c0.005,5.561 0.049,11.122 0.132,16.683c-0.917,-0.426 -1.711,-0.967 -2.471,-1.627c-2.716,-2.36 -5.791,-4.2 -8.657,-6.325c-2.879,-2.175 -5.686,-4.445 -8.417,-6.804c-3.865,-3.286 -7.63,-6.509 -11.254,-10.072c-2.155,-2.118 -4.414,-5.034 -6.601,-6.97c1.584,-1.087 3.304,-2.031 4.887,-3.14c1.658,-1.103 3.248,-2.563 4.907,-3.634c4.795,-3.094 9.193,-6.475 14.427,-8.782c1.596,-0.703 4.404,-3.122 6.165,-4.083c1.595,-0.871 4.146,-2.286 5.552,-3.319Z" style="fill:#143b27;fill-rule:nonzero;"/>
    <path d="M1.044,39.079c3.868,1.813 8.634,5.16 12.402,7.371c4.187,2.854 9.482,4.511 13.766,6.965c4.084,2.339 6.068,3.911 10.624,5.745c-1.617,2.302 -7.816,7.816 -9.96,9.938c-1.995,1.974 -5.771,6.21 -7.774,7.853c-4.04,3.548 -7.868,7.583 -12.047,11.051c-1.736,1.441 -3.39,3.265 -5.14,4.795c-0.795,-1.026 -0.543,-11.348 -0.665,-13.37c-0.341,-5.659 -0.914,-11.545 -1.199,-17.192c-0.237,-5.742 -0.265,-11.491 -0.083,-17.235c0.036,-1.267 -0.02,-4.961 0.076,-5.92Z" style="fill:#143b27;fill-rule:nonzero;"/>
</svg>
