<?xml version="1.0" encoding="UTF-8" standalone="no"?>
<!DOCTYPE svg PUBLIC "-//W3C//DTD SVG 1.1//EN" "http://www.w3.org/Graphics/SVG/1.1/DTD/svg11.dtd">
<svg width="100%" height="100%" viewBox="0 0 76 100" version="1.1" xmlns="http://www.w3.org/2000/svg" xmlns:xlink="http://www.w3.org/1999/xlink" xml:space="preserve" xmlns:serif="http://www.serif.com/" style="fill-rule:evenodd;clip-rule:evenodd;stroke-linejoin:round;stroke-miterlimit:2;">
    <clipPath id="_clip1">
        <rect x="0.189" y="0.105" width="74.732" height="99.08"/>
    </clipPath>
    <g clip-path="url(#_clip1)">
        <path d="M0.196,35.549c-0.093,-4.49 0.821,-32.104 2.822,-35.143c1.313,-0.729 15.805,0.146 18.658,-0.232c1.193,-0.158 4.976,0.526 6.522,0.507c3.089,-0.039 6.278,0.135 9.356,0.182l23.129,0.282c3.568,0.04 9.539,-0.123 12.872,0.444c1.067,1.412 1.574,16.639 1.288,18.847c-0.582,4.497 -0.733,9.631 -0.782,14.36c-0.017,1.72 -0.78,4.656 -0.824,6.731c-0.078,3.76 0.132,7.391 0.25,11.145c0.053,2.852 -0.332,6.067 -0.027,8.891c-0.031,3.774 0.597,8.054 0.723,11.959c0.227,7.085 -0.872,15.807 -0.092,22.689c-9.859,3.972 -31.698,2.925 -42.794,2.625l-17.643,-0.366c-1.996,-0.053 -8.877,0.273 -10.308,-0.08c-0.887,-1.279 -1.025,-5.773 -1.193,-7.662c-0.985,-11.416 -1.547,-22.868 -1.691,-34.331c-0.038,-3.853 -0.057,-7.686 -0.16,-11.543c-0.08,-3.088 0.114,-6.216 -0.107,-9.303Z" style="fill:#143b27;fill-rule:nonzero;"/>
        <path d="M1.123,60.312c0.275,-2.426 -0.111,-5.224 -0.019,-7.706c0.529,-14.496 -0.548,-29.006 1.164,-43.443c0.288,-2.429 0.403,-6.144 2.551,-7.656c1.21,-0.851 63.513,0.234 68.304,0.894c0.576,0.711 0.219,3.617 0.279,4.864c0.023,3.445 0.946,7.394 0.668,10.812c-0.559,6.869 -1.16,13.493 -1.298,20.408c-0.141,5.245 0.162,10.635 -0.147,15.844c-0.38,6.393 0.33,12.329 0.532,18.639c0.179,5.604 -0.145,11.564 0.05,17.231c0.036,1.031 -0.072,4.681 -0.99,5.463c-4.929,2.385 -11.655,2.005 -16.921,2.267c-3.364,0.166 -5.354,0.578 -8.262,0.557c-2.7,-0.019 -5.055,-0.354 -7.566,-0.43l-20.793,-0.52c-3.232,-0.091 -11.605,0.104 -14.496,-0.409c-1.851,-1.719 -2.294,-23.767 -2.462,-27.5c-0.156,-3.108 -0.355,-6.213 -0.593,-9.315Z" style="fill:#f1edea;fill-rule:nonzero;"/>
    </g>
</svg>
