<?xml version="1.0" encoding="UTF-8" standalone="no"?>
<!DOCTYPE svg PUBLIC "-//W3C//DTD SVG 1.1//EN" "http://www.w3.org/Graphics/SVG/1.1/DTD/svg11.dtd">
<svg width="100%" height="100%" viewBox="0 0 82 100" version="1.1" xmlns="http://www.w3.org/2000/svg" xmlns:xlink="http://www.w3.org/1999/xlink" xml:space="preserve" xmlns:serif="http://www.serif.com/" style="fill-rule:evenodd;clip-rule:evenodd;stroke-linejoin:round;stroke-miterlimit:2;">
    <clipPath id="_clip1">
        <rect x="0.15" y="0.158" width="81.526" height="99.08"/>
    </clipPath>
    <g clip-path="url(#_clip1)">
        <path d="M0.157,35.602c-0.102,-4.49 0.895,-32.104 3.079,-35.143c1.432,-0.729 17.242,0.146 20.354,-0.232c1.301,-0.158 5.429,0.526 7.115,0.507c3.37,-0.039 6.849,0.135 10.206,0.182l25.231,0.282c3.893,0.04 10.406,-0.123 14.043,0.444c1.164,1.412 1.717,16.639 1.405,18.847c-0.635,4.497 -0.799,9.631 -0.853,14.36c-0.019,1.72 -0.851,4.656 -0.899,6.731c-0.085,3.76 0.144,7.391 0.273,11.145c0.058,2.852 -0.362,6.067 -0.029,8.891c-0.033,3.774 0.652,8.054 0.789,11.959c0.248,7.085 -0.951,15.807 -0.1,22.689c-10.756,3.972 -34.58,2.925 -46.684,2.625l-19.247,-0.366c-2.177,-0.053 -9.684,0.273 -11.245,-0.08c-0.968,-1.279 -1.118,-5.773 -1.301,-7.662c-1.074,-11.416 -1.688,-22.868 -1.844,-34.331c-0.042,-3.853 -0.062,-7.686 -0.175,-11.543c-0.087,-3.088 0.125,-6.216 -0.117,-9.303Z" style="fill:#f1edea;fill-rule:nonzero;"/>
        <path d="M1.168,60.364c0.3,-2.426 -0.121,-5.224 -0.021,-7.706c0.577,-14.496 -0.597,-29.006 1.27,-43.443c0.314,-2.429 0.439,-6.144 2.783,-7.656c1.32,-0.851 69.287,0.234 74.514,0.894c0.629,0.711 0.239,3.617 0.304,4.864c0.025,3.445 1.032,7.394 0.729,10.812c-0.61,6.869 -1.266,13.493 -1.416,20.408c-0.154,5.245 0.177,10.635 -0.16,15.844c-0.414,6.393 0.36,12.329 0.581,18.639c0.196,5.604 -0.158,11.564 0.054,17.231c0.04,1.031 -0.079,4.681 -1.08,5.463c-5.377,2.385 -12.714,2.005 -18.46,2.267c-3.67,0.166 -5.841,0.578 -9.013,0.557c-2.945,-0.019 -5.514,-0.354 -8.254,-0.43l-22.683,-0.52c-3.526,-0.091 -12.66,0.104 -15.814,-0.409c-2.019,-1.719 -2.502,-23.767 -2.685,-27.5c-0.171,-3.108 -0.387,-6.213 -0.647,-9.315Z" style="fill:#143b27;fill-rule:nonzero;"/>
    </g>
</svg>
