<?xml version="1.0" encoding="UTF-8" standalone="no"?>
<!DOCTYPE svg PUBLIC "-//W3C//DTD SVG 1.1//EN" "http://www.w3.org/Graphics/SVG/1.1/DTD/svg11.dtd">
<svg width="100%" height="100%" viewBox="0 0 165 92" version="1.1" xmlns="http://www.w3.org/2000/svg" xmlns:xlink="http://www.w3.org/1999/xlink" xml:space="preserve" xmlns:serif="http://www.serif.com/" style="fill-rule:evenodd;clip-rule:evenodd;stroke-linejoin:round;stroke-miterlimit:2;">
    <path d="M138.961,8.512c0.91,-0.175 3.228,0.008 4.115,0.26c6.446,0.521 12.967,0.558 19.371,1.469c1.257,0.179 1.503,0.799 2.118,1.76l0.082,1.166c-0.211,0.409 -0.453,0.8 -0.725,1.171c-1.234,1.693 -8.408,5.78 -10.607,7.493c-2.795,2.177 -6.093,4.451 -8.902,6.706c-1.269,1.018 -3.209,2.17 -4.387,3.163c-2.271,1.91 -5.112,3.812 -7.286,5.693c-2.997,2.595 -5.964,5.408 -8.913,8.058c-1.727,1.551 -3.481,2.924 -5.263,4.394c-0.919,0.759 -1.781,1.651 -2.721,2.452c-2.182,1.857 -4.256,3.308 -6.592,4.923c-1.542,1.065 -3.194,2.649 -4.785,3.737c-2.95,2.018 -6.035,4.122 -8.803,6.384c-5.604,4.579 -10.967,9.507 -16.786,13.832c-1.182,0.879 -3.539,2.356 -5.022,2.709c-0.092,0.022 -1.968,-0.107 -2.249,-0.121c-1.456,-0.054 -2.914,-0.074 -4.371,-0.062c-1.864,0.034 -3.683,0.353 -5.514,0.497c-0.923,-0.148 -1.5,-0.382 -2.466,-0.334c-12.869,0.635 -25.711,-0.566 -38.538,-1.444c-0.386,-0.08 -1.09,-0.061 -1.44,-0.154c-3.699,-0.982 -12.739,-1.8 -15.585,-3.905c-1.431,-3.814 -2.334,-8.934 -2.084,-12.997c0.21,-3.41 0.014,-6.682 0.142,-10.038c0.516,-11.995 2.269,-23.905 5.232,-35.54c0.764,-2.988 1.748,-8.043 4.103,-10.161c3.306,-2.975 22.502,-3.517 27.75,-3.528c1.977,-0.004 3.952,0.26 5.924,0.231c3.291,-0.048 6.614,-0.418 9.905,-0.561c7.561,-0.357 15.13,-0.507 22.699,-0.45c3.447,0.046 6.827,0.329 10.221,0.507l22.973,1.37c9.594,0.606 18.846,0.856 28.407,1.322Z" style="fill:#f1edea;fill-rule:nonzero;"/>
    <path d="M71.827,9.633c1.927,5.58 1.967,9.978 2.981,15.56c0.968,4.985 1.892,9.965 2.685,14.976c1.922,12.146 -0.151,24.175 -3.464,35.879c-0.477,1.684 -0.687,5.945 -1.77,7.014c-1.003,0.311 -2.202,0.302 -3.255,0.29c-2.004,-0.023 -3.953,0.111 -5.951,0.264c-0.272,-0.146 -0.273,-0.149 -0.499,-0.361c-5.21,0.351 -10.432,0.479 -15.653,0.383c-3.646,-0.102 -7.042,-0.401 -10.613,-0.594l-9.457,-0.596c-2.578,-0.157 -5.167,-0.244 -7.73,-0.593c-1.503,-0.205 -2.988,-0.604 -4.472,-0.915c-1.708,-0.359 -3.419,-0.639 -5.122,-1.039c-1.482,-0.348 -4.033,-0.626 -5.137,-1.649c-1.881,-1.743 -2.447,-9.909 -2.421,-12.362c0.019,-1.793 0.156,-3.583 0.179,-5.374c0.024,-1.898 -0.075,-3.795 0.013,-5.693c0.24,-5.141 0.82,-10.195 1.481,-15.294c0.209,-1.615 0.295,-3.249 0.526,-4.86c0.332,-2.31 0.89,-4.603 1.354,-6.89c0.271,-1.335 0.445,-2.692 0.751,-4.02c0.36,-1.567 0.876,-3.092 1.288,-4.645c0.715,-2.693 1.601,-7.228 3.639,-9.198c3.069,-2.965 24.313,-3.629 29.129,-3.461c4.441,0.155 8.947,0.268 13.37,0.658c2.262,0.2 4.503,0.598 6.761,0.841c3.321,0.358 6.872,0.6 10.128,1.345c-2.442,0.059 -3.587,-0.11 -6.022,0.381c-3.15,-1.27 -3.61,-0.591 -6.649,-1.011c-2.333,-0.323 -4.46,-0.9 -6.951,-1.117c-9.791,-0.756 -19.63,-0.619 -29.395,0.409c-2.808,0.28 -5.593,0.296 -8.245,1.416c-1.54,0.65 -2.517,1.591 -3.137,3.163c-1.39,3.522 -2.862,9.437 -3.607,13.159c-1.319,6.595 -5.029,31.37 -2.59,36.744c0.892,1.966 2.471,3.568 4.304,4.671c1.069,2.153 1.107,5.159 -0.554,7.036c-0.444,0.501 -0.92,0.983 -1.369,1.489c-0.035,0.816 -0.119,1.61 0.1,2.396l0.125,0.096c0.208,-0.643 0.108,-1.553 0.076,-2.25l0.078,-0.114c0.506,-0.722 1.098,-1.184 1.71,-1.854c1.11,-1.308 0.928,-3.559 0.814,-5.135c-0.097,-1.348 -1.21,-2.44 -2.208,-3.2c-4.602,-3.508 -3.42,-8.246 -3.417,-13.237c-0.14,-1.02 -0.075,-2.057 0.191,-3.052c0.998,-12.325 2.627,-24.833 6.617,-36.582c1.446,-4.257 7.61,-3.934 11.213,-4.389c8.224,-1.037 16.532,-1.026 24.797,-0.49c1.421,0.092 2.925,-0.028 4.352,0.112c3.847,0.564 7.644,1.154 11.523,1.47c0.614,0.05 1.374,0.396 1.891,0.73c1.903,3.802 1.905,8.749 2.661,12.897c0.537,2.949 1.395,5.81 1.944,8.751c0.611,3.269 0.909,6.606 1.359,9.899c0.776,5.681 2.824,16.67 1.053,22.038c-1.937,5.871 -8.862,6.911 -10.285,10.264c-0.414,0.976 -0.308,2.102 -0.304,3.141c1.562,1.335 1.767,1.883 1.937,4.054l0.029,0.384l0.191,0.093c0.222,-0.486 0.119,-0.913 0.121,-1.423c0.005,-1.493 -0.868,-2.408 -1.857,-3.39c-0.02,-1.665 -0.1,-2.643 1.222,-3.956c0.88,-0.746 2.326,-1.888 3.309,-2.425c4.7,-2.568 6.911,-6.616 6.744,-11.984c-0.143,-4.593 -0.684,-9.826 -1.35,-14.387c-0.622,-4.256 -1.246,-8.456 -1.829,-12.714c-0.401,-2.371 -1.309,-4.781 -1.703,-7.16c-1.035,-5.305 -0.976,-8.888 -2.747,-14.072c1.11,-0.182 2.244,-0.38 3.368,-0.405c1.323,-0.03 2.433,0.077 3.752,-0.112Z" style="fill:#143b27;fill-rule:nonzero;"/>
    <path d="M3.63,52.339c-0.14,-1.02 -0.075,-2.057 0.191,-3.052c-0.051,0.921 -0.086,2.159 -0.191,3.052Z" style="fill:#f1edea;fill-rule:nonzero;"/>
    <path d="M23.822,17.989c4.668,-2.507 12.875,-2.044 18.122,-2.22c0.805,-0.027 3.015,0.49 3.993,0.624c2.058,1.585 1.958,3.893 1.879,6.252c0.036,0.847 0.024,1.977 0.136,2.787c0.12,1.146 -0.102,2.617 -0.109,3.786c-0.013,2.315 -0.246,4.863 -0.244,7.148l0.201,22.736c0.051,2.793 0.681,7.975 0.049,10.581c-0.498,0.593 -3.526,0.296 -4.396,0.4c-2.235,0.267 -4.438,0.104 -6.674,0.002c-3.784,0.174 -7.531,0.371 -11.319,0.036c-1.247,-0.094 -2.332,-0.751 -3.33,-1.452c-0.2,-1.998 -1.135,-4.72 -0.733,-6.701c0.031,-1.243 0.042,-2.486 0.033,-3.73c0.468,-2.457 0.265,-4.166 0.437,-6.443c0.207,-2.734 0.376,-4.803 0.353,-7.565c-0.011,-1.248 0.072,-5.287 0.333,-6.312c0.211,-2.385 0.649,-4.428 0.744,-6.935c0.138,-3.652 -0.332,-9.552 0.525,-12.994Z" style="fill:#143b27;fill-rule:nonzero;"/>
    <path d="M47.366,25.474l0.138,-0.32l0.058,0.129l0.388,0.15c0.12,1.146 -0.102,2.617 -0.109,3.786c-0.013,2.315 -0.246,4.863 -0.244,7.148l0.201,22.736c0.051,2.793 0.681,7.975 0.049,10.581c-0.498,0.593 -3.526,0.296 -4.396,0.4c-2.235,0.267 -4.438,0.104 -6.674,0.002c-3.784,0.174 -7.531,0.371 -11.319,0.036c-1.247,-0.094 -2.332,-0.751 -3.33,-1.452c-0.2,-1.998 -1.135,-4.72 -0.733,-6.701c0.215,-0.423 0.608,-0.851 0.918,-1.221c0.028,0.766 0.096,1.557 0.125,2.328c0.054,1.402 -0.443,4.383 0.547,5.434c0.961,1.02 3.971,0.757 5.339,0.853c1.396,0.071 2.792,0.336 4.191,0.341c3.611,0.014 7.195,-0.186 10.797,-0.404c0.715,-0.043 1.542,0.064 2.258,0.118c0.441,0.033 0.799,0.221 1.253,0.206c0.3,-0.505 0.507,-7.456 0.489,-8.528c-0.04,-2.36 -0.247,-4.72 -0.283,-7.085c-0.02,-1.354 0.108,-2.722 0.019,-4.072c-0.093,-1.415 -0.629,-2.64 -0.621,-4.103c0.012,-2.18 0.293,-4.322 0.389,-6.495c0.115,-2.626 -0.013,-5.276 0.036,-7.906c0.036,-1.977 0.254,-3.948 0.271,-5.921l0.242,-0.038Z" style="fill:#f1edea;fill-rule:nonzero;"/>
    <path d="M47.366,25.474l0.138,-0.32l0.058,0.129c0.187,0.703 -0.243,5.221 -0.174,6.623l-0.227,1.044c0.015,-0.325 -0.003,-0.728 -0.016,-1.059c-0.081,-2.101 0.347,-4.33 0.219,-6.417Z" style="fill:#f1edea;fill-rule:nonzero;"/>
    <path d="M47.389,31.906c0.014,0.92 0.094,1.704 -0.238,2.558c-0.16,-0.373 -0.044,-1.093 0.011,-1.513l0.227,-1.044Z" style="fill:#f1edea;fill-rule:nonzero;"/>
    <path d="M47.186,39.814c0.443,0.792 0,6.547 0.009,7.884l-0.163,0.107c-0.667,-1.185 -0.051,-6.454 0.154,-7.991Z" style="fill:#143b27;fill-rule:nonzero;"/>
    <path d="M47.477,46.729l0.131,0.073c0.153,0.957 0.062,7.78 -0.153,8.626c-0.191,-0.797 -0.084,-7.621 0.023,-8.699Z" style="fill:#f1edea;fill-rule:nonzero;"/>
    <path d="M47.644,63.392c0.184,1.109 0.289,4.499 -0.004,5.471c-0.47,-0.634 -0.217,-4.566 0.004,-5.471Z" style="fill:#143b27;fill-rule:nonzero;"/>
    <path d="M21.78,62.488c0.537,0.613 0.256,1.94 0.179,2.732c-0.454,-0.948 -0.284,-1.701 -0.179,-2.732Z" style="fill:#f1edea;fill-rule:nonzero;"/>
    <path d="M23.822,17.989c4.668,-2.507 12.875,-2.044 18.122,-2.22c0.805,-0.027 3.015,0.49 3.993,0.624c2.058,1.585 1.958,3.893 1.879,6.252l-0.286,-0.103l-0.263,-0.405l-0.282,-0.151c-0.14,-1.978 -0.253,-2.751 -0.816,-4.605c-0.604,-0.219 -1.587,-0.566 -2.186,-0.66c-4.205,-0.666 -15.831,-0.408 -19.348,1.235c-0.087,0.041 -0.174,0.083 -0.259,0.127c-0.38,2.892 -0.179,5.792 -0.417,8.706c-0.207,2.526 -0.223,5.097 -0.526,7.616c-0.552,0.731 0.074,2.333 -0.435,2.713l-0.239,0.908l-0.205,-0.108c0.211,-2.385 0.649,-4.428 0.744,-6.935c0.138,-3.652 -0.332,-9.552 0.525,-12.994Z" style="fill:#f1edea;fill-rule:nonzero;"/>
    <path d="M47.266,22.137c-0.042,-0.961 -0.24,-2.614 -0.173,-3.437c0.404,1.366 0.44,2.437 0.436,3.842l-0.263,-0.405Z" style="fill:#f1edea;fill-rule:nonzero;"/>
    <path d="M22.996,37.118c0.509,-0.381 -0.117,-1.983 0.435,-2.713c-0.031,5.967 -0.57,10.768 -0.965,16.599c-0.096,1.473 -0.177,2.946 -0.244,4.421c-0.016,0.382 -0.009,1.628 -0.056,1.91c-0.184,0.553 -0.22,0.717 -0.293,1.295l-0.174,0.052l-0.27,-0.444c0.468,-2.457 0.265,-4.166 0.437,-6.443c0.207,-2.734 0.376,-4.803 0.353,-7.565c-0.011,-1.248 0.072,-5.287 0.333,-6.312l0.205,0.108l0.239,-0.908Z" style="fill:#f1edea;fill-rule:nonzero;"/>
    <path d="M22.996,37.118c0.286,1.036 -0.221,5.552 -0.269,7.012c-0.488,-0.52 0.002,-5.089 0.03,-6.104l0.239,-0.908Z" style="fill:#f1edea;fill-rule:nonzero;"/>
    <path d="M21.429,58.238l0.27,0.444l0.174,-0.052c0.073,-0.578 0.11,-0.742 0.294,-1.295l0.147,3.412c-0.311,0.37 -0.703,0.798 -0.918,1.221c0.031,-1.243 0.042,-2.486 0.033,-3.73Z" style="fill:#f1edea;fill-rule:nonzero;"/>
    <path d="M46.984,21.985l0.282,0.151l0.263,0.405l0.286,0.103c0.035,0.847 0.024,1.977 0.136,2.787l-0.388,-0.15l-0.058,-0.129l-0.138,0.32l-0.242,0.038l-0.14,-3.526Z" style="fill:#f1edea;fill-rule:nonzero;"/>
    <path d="M37.855,19.95c0.885,-0.303 3.869,-0.128 4.65,0.423c1.106,1.265 0.63,5.023 0.586,6.72l-0.197,8.68c-0.075,2.774 0.126,6.281 -0.05,8.889l-0.008,0.112c0.014,0.795 -0.029,1.546 -0.069,2.338c-0.602,0.304 -0.648,0.369 -1.327,0.375c-1.923,0.016 -3.938,0.277 -5.858,0.168c-2.161,-0.123 -4.245,-0.65 -6.423,-0.797c-0.412,-0.347 -0.999,-0.617 -1.324,-1.049c-1.181,-1.566 0.032,-14.886 0.092,-17.558c0.063,-2.803 -0.3,-5.308 -0.035,-8.183c1.028,-0.16 3.888,-0.204 4.998,-0.192c1.43,-0.108 3.458,0.039 4.965,0.075Z" style="fill:#f1edea;fill-rule:nonzero;"/>
    <path d="M27.893,20.068c1.028,-0.16 3.888,-0.204 4.998,-0.192l0.077,0.162c0.678,0.084 0.926,-0.006 1.313,0.58c-0.516,0.079 -1.375,0.217 -1.871,0.213c-1.825,-0.014 -2.243,-0.551 -3.957,0.139c-0.078,1.248 -0.183,2.548 -0.19,3.795c-0.042,7.059 -0.419,14.036 0.027,21.099c3.793,1.458 7.543,1.197 11.514,1.223c1.493,0.01 1.993,0.054 2.322,-1.422c0.027,0.218 0.008,0.136 0.131,0.334l0.218,-0.192c0.102,-0.428 0.128,-0.55 0.321,-0.949l0.041,-0.083c0.014,0.795 -0.029,1.546 -0.069,2.338c-0.602,0.304 -0.648,0.369 -1.327,0.375c-1.923,0.016 -3.938,0.277 -5.858,0.168c-2.161,-0.123 -4.245,-0.65 -6.423,-0.797c-0.412,-0.347 -0.999,-0.617 -1.324,-1.049c-1.181,-1.566 0.032,-14.886 0.092,-17.558c0.063,-2.803 -0.3,-5.308 -0.035,-8.183Z" style="fill:#f1edea;fill-rule:nonzero;"/>
    <path d="M31.344,20.219c0.5,-0.031 1.524,-0.058 1.968,0.128l-0.195,0.14c-0.524,0.011 -1.419,0.074 -1.875,-0.09l0.102,-0.178Z" style="fill:#f1edea;fill-rule:nonzero;"/>
    <path d="M42.506,20.374c1.106,1.265 0.63,5.023 0.586,6.72l-0.197,8.68c-0.075,2.774 0.126,6.281 -0.05,8.889l-0.008,0.112l-0.041,0.083c-0.192,0.398 -0.218,0.52 -0.321,0.949l-0.218,0.192c-0.122,-0.197 -0.103,-0.116 -0.131,-0.334c0.62,-3.804 0.064,-8.858 0.031,-12.757c-0.025,-2.956 1.139,-9.718 -0.169,-12.135c-0.194,-0.152 -0.227,-0.154 -0.34,-0.38l0.858,-0.019Z" style="fill:#f1edea;fill-rule:nonzero;"/>
    <path d="M37.855,19.95c0.885,-0.303 3.869,-0.128 4.65,0.423l-0.858,0.019c0.113,0.226 0.145,0.228 0.34,0.38c-0.955,0.263 -3.375,0.169 -4.313,-0.158c0.285,-0.254 0.408,-0.271 0.466,-0.587l-0.284,-0.077Z" style="fill:#f1edea;fill-rule:nonzero;"/>
    <path d="M37.855,19.95l0.284,0.077c-0.058,0.316 -0.181,0.333 -0.466,0.587c-1.449,-0.186 -1.891,-0.197 -3.394,0.003c-0.387,-0.586 -0.635,-0.497 -1.313,-0.58l-0.077,-0.162c1.43,-0.108 3.458,0.039 4.965,0.075Z" style="fill:#f1edea;fill-rule:nonzero;"/>
    <path d="M34.592,56.376c0.795,-1.008 2.57,-4.529 4.071,-3.634c0.26,0.446 0.275,0.511 0.347,1.023c-0.278,0.47 -0.227,0.992 -0.236,1.547l-0.169,0.301c-0.304,-0.136 -0.341,-0.174 -0.602,-0.387c-0.498,-0.034 -0.848,0.223 -1.289,0.469l0.522,0.581c-0.866,1.477 -1.743,2.948 -2.631,4.412c-1.105,-1.454 -1.582,-2.452 -2.522,-3.907l-0.276,-0.044c-0.348,0.459 -1.142,4.27 -1.518,5.349c-0.705,-0.108 -1.006,-0.138 -1.716,-0.134c0.068,-1.098 1.711,-9.048 2.303,-9.625c1.244,-0.03 2.997,3.013 3.717,4.049Z" style="fill:#f1edea;fill-rule:nonzero;"/>
    <path d="M36.492,55.882l0.221,-0.188l0.522,0.581c-0.866,1.477 -1.743,2.948 -2.631,4.412c-1.105,-1.454 -1.582,-2.452 -2.522,-3.907l0.208,-0.166l-0.136,-0.669l0.41,0.394c0.027,-0.205 0.014,-0.224 0.113,-0.402l0.306,0.359c0.501,0.603 0.84,0.952 1.407,1.495c1.133,-0.643 1.283,-1.223 1.778,-1.49l0.324,-0.42Z" style="fill:#f1edea;fill-rule:nonzero;"/>
    <path d="M34.39,57.792c1.133,-0.643 1.283,-1.224 1.778,-1.49c-0.547,0.985 -1.151,2.044 -1.751,2.996c-0.305,-0.661 -1.439,-2.606 -1.435,-3.002c0.501,0.603 0.84,0.952 1.407,1.495Z" style="fill:#f1edea;fill-rule:nonzero;"/>
    <path d="M37.826,53.782c0.414,0.524 0.627,0.944 0.948,1.53l-0.169,0.301c-0.304,-0.136 -0.341,-0.174 -0.602,-0.387c-0.498,-0.034 -0.848,0.223 -1.289,0.469l-0.221,0.188c0.361,-0.655 0.917,-1.46 1.334,-2.1Z" style="fill:#f1edea;fill-rule:nonzero;"/>
    <path d="M31.099,54.117c0.474,0.155 1.061,0.757 1.189,1.239c-0.229,0.451 -0.177,-0.118 -0.833,0.226c-0.664,0.909 -1.17,3.47 -1.465,4.678c-0.099,0.404 -0.104,0.487 -0.403,0.768c-0.341,-0.67 1.225,-5.867 1.512,-6.91Z" style="fill:#f1edea;fill-rule:nonzero;"/>
    <path d="M39.01,53.766c0.884,2.239 1.953,4.956 2.268,7.381c0.071,0.547 -0.114,0.829 -0.611,1.003c-0.98,-0.199 -1.497,-1.637 -1.64,-2.545c-0.423,-0.793 -0.952,-2.833 -1.46,-3.387l-0.332,0.058l-0.522,-0.581c0.441,-0.246 0.791,-0.503 1.289,-0.469c0.261,0.213 0.298,0.251 0.602,0.387l0.169,-0.301c0.009,-0.555 -0.042,-1.077 0.236,-1.547Z" style="fill:#f1edea;fill-rule:nonzero;"/>
    <path d="M36.713,55.695c0.441,-0.246 0.791,-0.503 1.289,-0.469c-0.088,0.745 1.378,2.365 1.025,4.379c-0.423,-0.793 -0.952,-2.833 -1.46,-3.387l-0.332,0.058l-0.522,-0.581Z" style="fill:#f1edea;fill-rule:nonzero;"/>
    <path d="M49.679,23.825c0.057,-1.34 -0.173,-3.829 0.896,-4.795c1.131,-1.022 2.974,-0.907 4.385,-0.806c1.664,0.119 3.911,0.091 5.157,1.37c1.062,1.09 3.657,13.75 4.237,16.006c0.437,1.7 1.12,3.327 1.488,5.047c0.235,1.095 0.407,2.319 0.363,3.438c-0.007,0.177 -0.029,0.3 -0.168,0.416c-0.692,0.574 -1.463,0.774 -2.347,0.844c-2.124,0.17 -4.562,-0.348 -6.707,-0.519c-1.556,-0.125 -3.136,-0.095 -4.684,-0.248c-0.491,-0.049 -1.267,-0.134 -1.592,-0.55c-1.292,-1.659 -1.178,-10.527 -1.158,-12.873l0.291,0.105c0.024,-0.272 0.024,-0.871 0.159,-1.038c0.05,0.528 0.079,0.938 0.087,1.468l-0.263,-1.3c0.506,0.084 0.225,-4.336 0.017,-4.304c0.743,-1.266 0.152,-3.207 0.537,-4.642c0.036,-0.253 -0.399,-0.955 0.123,-2.025c0.419,-0.422 1.685,-0.675 2.361,-0.844c2.205,0.266 4.726,-0.119 6.662,0.985c-0.079,-0.038 -0.158,-0.074 -0.239,-0.109c-2.364,-1.035 -6.118,-0.891 -8.548,0.037c-0.038,1.474 -0.073,2.694 -0.236,4.169c-0.064,0.62 -0.109,1.241 -0.275,1.842l-0.256,-0.942l-0.025,0.091l-0.099,-0.12c-0.022,-0.29 -0.049,-0.437 -0.168,-0.703Z" style="fill:#f1edea;fill-rule:nonzero;"/>
    <path d="M49.841,31.26c0.024,-0.272 0.024,-0.871 0.159,-1.038c0.05,0.528 0.079,0.938 0.087,1.468c-0.017,0.558 -0.025,0.857 -0.121,1.406c-0.057,-0.611 -0.099,-1.223 -0.125,-1.836Z" style="fill:#f1edea;fill-rule:nonzero;"/>
    <path d="M49.881,33.742l0.138,0.135c0.22,0.947 0.149,1.804 0.065,2.753c-0.356,-0.569 -0.216,-2.152 -0.203,-2.888Z" style="fill:#f1edea;fill-rule:nonzero;"/>
    <path d="M64.846,38.276c0.345,0.84 0.475,1.342 0.654,2.221c-0.622,-0.709 -0.634,-1.308 -0.654,-2.221Z" style="fill:#f1edea;fill-rule:nonzero;"/>
    <path d="M49.679,23.825c0.119,0.266 0.146,0.413 0.168,0.703l0.099,0.12l0.024,-0.091l0.256,0.942c0.166,-0.601 0.211,-1.222 0.275,-1.842c0.078,1.454 -0.117,2.981 -0.149,4.441c-0.027,1.198 0.007,2.416 0.026,3.615l-0.291,-0.024c-0.008,-0.53 -0.037,-0.94 -0.087,-1.468c-0.135,0.167 -0.135,0.766 -0.159,1.038l-0.291,-0.105c-0.141,-0.979 0.061,-6.229 0.129,-7.329Z" style="fill:#f1edea;fill-rule:nonzero;"/>
    <path d="M18.673,18.596c3.609,-0.139 2.914,2.548 2.843,5.247c-0.08,3.037 -0.64,19.308 -2.038,20.61c-1.291,0.605 -8.53,0.385 -10.259,0.27c-0.981,0.001 -2.66,0.115 -3.303,-0.719c-0.898,-2.35 5.068,-21.455 6.317,-24.514c2.158,-0.531 4.241,-0.723 6.441,-0.894Z" style="fill:#f1edea;fill-rule:nonzero;"/>
    <path d="M11.671,21.806l0.012,0.048c0.153,0.565 -0.488,1.962 -0.732,2.593c-0.252,-0.585 0.437,-2.105 0.719,-2.641Z" style="fill:#f1edea;fill-rule:nonzero;"/>
    <path d="M41.648,7.813c0.362,-0.08 1.076,0.201 1.511,0.217c3.834,0.142 3.152,1.707 1.324,3.998c-4.37,-0.533 -8.823,-0.65 -13.156,0.163c-3.76,0.513 -3.682,0.427 -4.405,-3.281c4.205,-1.357 10.188,-0.542 14.726,-1.097Z" style="fill:#f1edea;fill-rule:nonzero;"/>
    <path d="M40.741,8.332c2.046,-0.094 2.136,0.175 4.069,0.653c0.033,-0.208 0.022,-0.205 0.128,-0.384l0.323,0.147c0.106,0.509 -0.409,1.726 -0.663,2.224c-0.055,0.109 -0.423,0.431 -0.479,0.433c-2.243,0.102 -5.412,-0.231 -7.596,-0.225c-1.573,0.003 -3.142,0.167 -4.681,0.49c-1.817,0.317 -4.009,1.127 -4.159,-1.401c-0.02,-0.333 -0.178,-0.861 -0.264,-1.201c2.885,-0.742 9.979,-0.658 13.321,-0.736Z" style="fill:#143b27;fill-rule:nonzero;"/>
    <path d="M12.212,69.145c-0.51,-0.542 -1.036,-1.037 -1.192,-1.786c-0.175,-0.859 0.011,-1.752 0.517,-2.469c1.264,-1.815 3.674,-1.667 5.335,-0.475c0.35,1.433 0.546,2.39 0.018,3.78c-0.263,0.584 -0.948,1.253 -1.534,1.489c-0.709,0.279 -1.499,0.265 -2.198,-0.039c-0.303,-0.131 -0.656,-0.334 -0.945,-0.5Z" style="fill:#f1edea;fill-rule:nonzero;"/>
    <path d="M14.495,64.687c0.265,-0.012 0.385,0.048 0.633,0.129c0.334,0.313 0.448,0.388 0.584,0.832l-0.122,0.104l-0.477,-0.406l-0.056,-0.083c-0.399,-0.247 -0.879,-0.153 -1.378,-0.129l0.039,-0.11l0.777,-0.338Z" style="fill:#f1edea;fill-rule:nonzero;"/>
    <path d="M65.314,64.614c1.905,-0.042 2.108,1.484 0.648,2.763c-0.137,-0.006 -0.274,-0.017 -0.411,-0.034c-1.647,-0.19 -1.882,-1.824 -0.237,-2.73Z" style="fill:#f1edea;fill-rule:nonzero;"/>
    <path d="M8.217,60.864c0.258,0.012 0.541,0.054 0.8,0.086c1.213,0.796 0.569,2.098 -0.579,2.613c-1.523,-0.792 -1.629,-1.626 -0.221,-2.698Z" style="fill:#f1edea;fill-rule:nonzero;"/>
    <path d="M59.865,10.794c0.333,-0.162 0.727,-0.129 1.028,0.085c0.302,0.214 0.462,0.576 0.419,0.943c-0.044,0.367 -0.284,0.681 -0.627,0.819c-0.505,0.203 -1.081,-0.03 -1.302,-0.528c-0.221,-0.498 -0.008,-1.081 0.482,-1.319Z" style="fill:#f1edea;fill-rule:nonzero;"/>
    <path d="M55.44,10.044c0.352,-0.057 0.707,0.081 0.928,0.361c0.221,0.28 0.272,0.658 0.134,0.987c-0.138,0.329 -0.443,0.557 -0.798,0.596c-0.529,0.058 -1.008,-0.316 -1.08,-0.843c-0.072,-0.527 0.29,-1.015 0.815,-1.101Z" style="fill:#f1edea;fill-rule:nonzero;"/>
    <path d="M16.745,10.023c0.323,-0.104 0.677,-0.026 0.926,0.205c0.249,0.231 0.354,0.578 0.274,0.908c-0.08,0.33 -0.332,0.591 -0.659,0.683c-0.492,0.138 -1.004,-0.143 -1.152,-0.633c-0.148,-0.489 0.124,-1.007 0.611,-1.163Z" style="fill:#f1edea;fill-rule:nonzero;"/>
    <path d="M13.283,10.532c0.561,0.164 0.803,0.445 1.006,0.964c-0.019,0.514 -0.162,0.633 -0.478,1.022c-0.38,0.015 -0.401,0.003 -0.769,-0.112c-0.739,-0.713 -0.339,-1.234 0.241,-1.874Z" style="fill:#f1edea;fill-rule:nonzero;"/>
    <path d="M158.903,10.788c1.366,0.018 3.734,-0.066 4.779,0.928c0.58,0.527 0.511,1.944 -0.073,2.448c-3.25,2.811 -7.305,5.173 -10.798,7.668c-6.497,4.733 -12.919,9.569 -19.262,14.507c-3.325,2.615 -6.501,5.936 -9.714,8.738c-3.294,2.873 -6.729,5.55 -10.017,8.423c-1.649,1.441 -3.591,2.479 -5.15,3.795c-4.553,3.846 -9.628,6.784 -14.203,10.589c-2.972,2.465 -18.372,16.438 -21.248,15.637c-0.345,-0.71 0.509,-3.702 0.726,-4.79c0.397,-2.881 1.435,-6.198 2.108,-9.12c1.415,-6.141 2.727,-13.861 2.591,-20.161c-0.089,-3.452 -0.394,-6.895 -0.914,-10.309c-0.359,-2.182 -0.73,-4.363 -1.114,-6.541c-0.475,-2.552 -1.311,-6.432 -1.775,-9.11c-0.028,-0.16 0.229,-0.316 0.364,-0.422c-0.897,-1.154 -1.089,-6.8 -1.619,-8.559c-0.216,-0.716 -1.239,-4.238 -1.151,-4.77c1.107,-0.478 8.346,0.666 10.222,0.633c5.556,-0.099 11.154,-0.281 16.703,-0.413c8.889,-0.205 17.782,-0.268 26.672,-0.191c6.909,0.087 13.818,0.272 20.724,0.552c4.1,0.167 7.909,0.587 12.149,0.469Z" style="fill:#143b27;fill-rule:nonzero;"/>
    <path d="M91.76,10.891c0.517,-0.023 1.04,-0.036 1.531,0.161c0.612,0.246 0.885,1.55 0.607,2.103c-2.269,-0.272 -6.769,0.141 -9.131,0.417c-0.594,0.006 -1.346,0.057 -1.906,-0.184c-0.546,-0.235 -0.576,-1.096 -0.32,-1.565c0.604,-0.211 3.073,-0.262 3.911,-0.333c1.791,-0.152 3.527,-0.243 5.308,-0.599Z" style="fill:#f1edea;fill-rule:nonzero;"/>
    <path d="M91.349,11.289c0.566,0.004 1.334,-0.047 1.825,0.18c0.357,0.428 0.553,0.648 0.256,1.143c-2.597,0.037 -5.592,0.306 -8.21,0.504c-0.561,0.002 -1.826,0.054 -2.25,-0.225c-0.205,-0.442 -0.219,-0.305 -0.154,-0.716c0.88,-0.208 2.748,-0.27 3.724,-0.338c1.611,-0.108 3.216,-0.291 4.81,-0.548Z" style="fill:#143b27;fill-rule:nonzero;"/>
    <path d="M86.426,25.392c0.414,0.002 0.255,-0.044 0.605,0.171c1.349,2.253 3.429,14.78 3.702,17.847c0.024,0.274 -7.938,2.513 -8.613,2.465c-0.165,-0.012 0.004,-0.125 0,-0.229c0.755,-0.411 0.339,-19.148 0.955,-19.392c1.759,-0.694 6.836,16.288 6.161,16.035c-0.027,-1.893 -3.686,-1.732 -4.051,-3.882c-0.246,-1.452 -0.427,-0.329 -0.76,-1.604c-0.294,-0.808 0.743,-0.612 0.506,-1.435c-1.453,0.137 0.208,2.851 -0.76,3.713c-0.06,1.621 -1.138,3.343 -1.013,4.979c0.32,4.185 0.972,-3.191 1.772,0.928c0.052,0.266 -2.724,0.709 -2.869,0.885c-0.554,-0.623 -2.391,-17.291 -2.101,-18.73c0.777,-0.681 5.289,-1.6 6.464,-1.752Z" style="fill:#f1edea;fill-rule:nonzero;"/>
    <path d="M93.508,20.92c0.987,2.37 1.712,4.263 2.998,6.583c0.813,1.47 1.038,3.035 2.098,4.593c-0.116,2.39 0.138,5.249 0.261,7.717c0.168,3.405 0.073,6.673 0.149,10.048l-0.213,-0.144c-0.108,-0.28 -0.11,-4.235 -0.084,-4.836c0.174,-4.035 -0.644,-8.545 -0.4,-12.515c-0.837,-1.358 -1.451,-3.303 -2.104,-4.812c-0.719,-1.663 -2.861,-4.86 -2.705,-6.634Z" style="fill:#f1edea;fill-rule:nonzero;"/>
    <path d="M95.923,62.091l0.122,0.154c-0.163,0.363 -0.965,0.834 -1.339,1.067c-5.043,3.15 -9.487,7.773 -14.393,11.04c-0.125,-0.133 -0.075,-0.051 -0.075,-0.297c5.179,-3.51 10.142,-8.151 15.684,-11.964Z" style="fill:#f1edea;fill-rule:nonzero;"/>
    <path d="M91.627,28.974c0.364,1.343 0.607,4.593 0.909,6.147c0.237,1.225 0.799,3.762 0.749,4.814c-0.312,-0.039 -0.18,0.022 -0.411,-0.186c-0.284,-1.167 -1.35,-9.741 -1.248,-10.775Z" style="fill:#f1edea;fill-rule:nonzero;"/>
    <path d="M94.793,29.305c0.396,0.53 0.977,8.802 1.113,10.081l-0.262,-0.179c-0.139,-1.296 -0.224,-2.681 -0.36,-4.004c-0.176,-1.705 -0.575,-4.269 -0.491,-5.897Z" style="fill:#f1edea;fill-rule:nonzero;"/>
    <path d="M96.05,56.967l0.219,0.049l0.067,0.179c-0.859,0.527 -2.288,1.668 -3.12,2.304l-0.202,0.081c0.067,-0.413 2.498,-2.192 3.036,-2.613Z" style="fill:#f1edea;fill-rule:nonzero;"/>
    <path d="M123.848,8.134l23.457,1.169c4.373,0.258 8.528,0.326 12.896,1.01c-3.356,0.489 -10.503,-0.234 -14.036,-0.313c-4.476,-0.1 -9.168,-0.368 -13.63,-0.444c-10.697,-0.163 -21.396,-0.143 -32.094,0.057l-11.454,0.262c-2.125,0.057 -4.534,0.259 -6.641,0.138c-9.63,-0.553 -19.137,-2.276 -28.715,-3.244l-0.096,-0.312c3.407,-0.463 7.27,-0.258 10.733,-0.462c1.441,-0.085 2.511,0.291 4.113,-0.116c0.065,0.027 -2.35,-0.099 -2.692,-0.146c1.8,-0.293 3.703,0.022 5.507,0.046c9.02,0.122 17.944,0.179 26.946,0.781c1.073,-0.092 12.015,0.627 12.857,0.903c2.13,0.319 5.291,0.185 7.507,0.354c1.419,0.01 3.917,0.147 5.341,0.317Z" style="fill:#143b27;fill-rule:nonzero;"/>
    <path d="M138.961,8.512c0.91,-0.175 3.228,0.008 4.115,0.26c-1.224,0.042 -2.863,-0.149 -4.115,-0.26Z" style="fill:#f1edea;fill-rule:nonzero;"/>
    <path d="M57.475,72.693c-2.299,-0.705 -3.402,-3.289 -2.263,-5.403c0.485,-0.883 1.298,-1.54 2.264,-1.83c0.885,-0.263 2.038,-0.258 2.88,0.193c0.299,0.187 0.737,0.441 1.004,0.651c0.371,1.512 0.777,3.168 -0.099,4.592c-0.349,0.642 -0.694,1.243 -1.361,1.608c-1.073,0.363 -1.357,0.574 -2.425,0.189Z" style="fill:#f1edea;fill-rule:nonzero;"/>
    <path d="M60.356,65.654c0.299,0.187 0.737,0.441 1.004,0.652c0.371,1.512 0.777,3.168 -0.099,4.592l-0.128,-0.211l-0.32,0.151l-0.109,-0.147l0.308,-0.511c-0.092,-0.396 -0.026,-0.254 -0.405,-0.552c0.316,-1.549 0.166,-3.06 -1.676,-3.412l-0.185,0.027l-0.072,-0.105l0.319,-0.201l-0.1,-0.049l0.437,-0.183c0.427,0.063 0.607,0.103 1.026,-0.049Z" style="fill:#f1edea;fill-rule:nonzero;"/>
    <path d="M57.19,68.533l0.455,-0.145l0.214,0.138c-0.317,1.287 -0.8,1.263 -0.455,2.129c0.762,0.678 0.945,0.202 0.951,1.34c-0.341,-0.057 -1.115,-0.081 -1.493,-0.103c0.131,-0.377 0.152,-0.46 0.188,-0.856l-0.159,-0.136c-0.291,0.114 -0.358,0.195 -0.601,0.399c-0.325,-0.579 -0.433,-0.754 -0.6,-1.389l0.131,-0.789c0.308,-0.117 0.603,0.08 1.159,-0.051l0.21,-0.538Z" style="fill:#f1edea;fill-rule:nonzero;"/>
    <path d="M58.355,71.995l0.09,-0.019c0.617,-0.134 0.496,-0.268 1.071,-0.298l-0.002,0.522l0.386,0.305c-1.073,0.363 -1.357,0.574 -2.425,0.189c-0.1,-0.24 -0.398,-0.467 -0.613,-0.802c0.378,0.022 1.153,0.046 1.493,0.103Z" style="fill:#f1edea;fill-rule:nonzero;"/>
    <path d="M55.82,69.121c-0.1,-0.457 -0.096,-1.203 0.198,-1.587l0.316,-0.042c0.434,0.379 0.555,0.543 0.855,1.04l-0.21,0.538c-0.556,0.13 -0.851,-0.066 -1.159,0.051Z" style="fill:#f1edea;fill-rule:nonzero;"/>
    <path d="M58.931,66.214c1.841,0.352 1.992,1.863 1.676,3.412c-0.228,0.446 -0.315,0.825 -0.685,1.025c0.563,-2.606 1.345,-2.42 -0.99,-4.437Z" style="fill:#f1edea;fill-rule:nonzero;"/>
    <path d="M56.289,71.299c-0.763,-0.251 -1.03,-1.437 -0.97,-2.153l0.138,0.028l0.232,0.736c0.167,0.635 0.274,0.81 0.6,1.389Z" style="fill:#f1edea;fill-rule:nonzero;"/>
    <path d="M12.845,68.454c1.71,1.779 3.651,-0.244 3.45,-2.277l-0.008,-0.081c0.249,-0.31 0.137,-0.266 0.451,-0.323c0.405,0.897 -0.304,1.398 -0.193,2.259l0.345,0.163c-0.263,0.584 -0.948,1.253 -1.534,1.489c-0.709,0.279 -1.499,0.265 -2.198,-0.039c-0.303,-0.131 -0.656,-0.334 -0.945,-0.5c-0.044,-0.259 0.15,-0.608 0.259,-0.867l0.31,-0.229l0.063,0.405Z" style="fill:#f1edea;fill-rule:nonzero;"/>
    <path d="M12.667,66.046c0.84,0.362 0.541,0.871 1.063,1.255c0.321,0.237 0.357,-0.658 1.169,0.374c-0.06,0.942 -1.418,0.805 -2.053,0.777l-0.063,-0.405l0.166,-0.103l-0.035,-0.109c-0.274,-0.875 -0.329,-0.811 -0.246,-1.79Z" style="fill:#f1edea;fill-rule:nonzero;"/>
    <path d="M12.471,68.278c-0.351,-0.368 -1.162,-1.542 -0.614,-1.977c0.261,-0.007 0.387,-0.179 0.809,-0.254c-0.083,0.98 -0.028,0.916 0.246,1.79l0.035,0.109l-0.166,0.103l-0.31,0.229Z" style="fill:#f1edea;fill-rule:nonzero;"/>
    <path d="M63.004,81.852l0.225,0.097l-0.061,0.212c-1.044,0.672 -2.736,0.658 -3.954,0.655c-6.638,-0.016 -13.28,0.248 -19.913,-0.084c-2.413,-0.121 -4.825,-0.552 -7.236,-0.704c-4.581,-0.293 -9.71,0.261 -14.126,-1.055c-3.595,-1.071 -7.142,-1.289 -10.771,-1.968c-0.217,-0.121 -0.204,-0.139 -0.371,-0.323c0.955,-0.458 11.794,2.086 13.618,2.435c3.677,0.704 7.548,0.18 11.169,0.543c7.187,0.721 14.194,1.131 21.423,0.813c2.7,-0.124 7.598,0.45 9.998,-0.622Z" style="fill:#f1edea;fill-rule:nonzero;"/>
    <path d="M44.81,74.266c0.78,0.003 1.763,-0.072 2.4,0.391c-0.398,0.137 -4.379,-0.025 -5.073,-0.029c-5.32,-0.034 -10.553,0.566 -15.862,0.335c-1.075,-0.033 -1.86,0.018 -2.896,-0.297l-0.062,-0.136c0.967,-0.161 4.991,0.228 6.458,0.176c1.895,-0.067 3.924,-0.194 5.816,-0.276c3.072,-0.107 6.145,-0.162 9.219,-0.164Z" style="fill:#f1edea;fill-rule:nonzero;"/>
    <path d="M44.412,73.009c1.015,-0.038 1.57,-0.066 2.541,0.226l-0.097,0.111c-0.993,0.14 -2.404,0.003 -3.466,0.007l-7.551,0.003c-3.409,-0.001 -6.482,0.315 -9.898,0.285c-0.669,-0.063 -1.931,-0.119 -2.461,-0.443c0.621,-0.213 2.278,0.114 3.023,0.091c5.956,-0.188 11.951,-0.375 17.91,-0.281Z" style="fill:#f1edea;fill-rule:nonzero;"/>
    <path d="M44.745,71.628c1.097,0.107 1.708,0.11 2.732,0.546c-0.05,0.014 -4.147,-0.129 -4.737,-0.15c-5.354,-0.194 -11.537,0.514 -16.777,0.123c-0.457,0.017 -1.968,0.112 -2.26,-0.136l-0.137,0.025c2.98,-0.563 2.772,-0.055 5.318,-0.118l15.861,-0.29Z" style="fill:#f1edea;fill-rule:nonzero;"/>
    <path d="M105.177,40.434c-0.395,-1.396 -0.648,-4.032 -0.904,-5.558l-1.079,-6.659c-0.183,-1.125 -0.535,-2.836 -0.576,-3.925c0.593,-1.033 2.453,-0.861 3.488,-1.076c1.175,-0.244 1.974,-0.803 3.117,-0.23c0.039,0.025 0.079,0.049 0.116,0.076c0.788,0.575 2.647,13.797 2.796,15.564c-3.134,0.887 -3.363,1.378 -6.957,1.809Z" style="fill:#f1edea;fill-rule:nonzero;"/>
    <path d="M105.177,40.434c-0.395,-1.396 -0.648,-4.032 -0.904,-5.558l-1.079,-6.659c-0.183,-1.125 -0.535,-2.836 -0.576,-3.925c0.593,-1.033 2.453,-0.861 3.488,-1.076c1.175,-0.244 1.974,-0.803 3.117,-0.23c-1.007,-0.06 -5.128,0.68 -6.006,1.074c-0.689,0.781 2.092,14.05 2.184,15.927c2.376,0.052 4.222,-0.695 6.334,-1.689c-0.152,-4.092 -1.343,-8.379 -1.952,-12.436c-0.124,-0.824 -0.231,-2.14 -0.56,-2.876c0.039,0.025 0.079,0.049 0.116,0.076c0.788,0.575 2.647,13.797 2.796,15.564c-3.134,0.887 -3.363,1.378 -6.957,1.809Z" style="fill:#f1edea;fill-rule:nonzero;"/>
    <path d="M120.092,10.68c0.575,0.16 0.729,0.996 0.21,1.495c-0.791,0.224 -8.311,0.791 -9.397,0.703l-0.503,-1.3c0.696,-0.727 7.975,-0.357 9.69,-0.898Z" style="fill:#f1edea;fill-rule:nonzero;"/>
    <path d="M119.787,11.098c0.3,0.101 0.198,0.047 0.4,0.387l-0.104,0.268c-0.636,0.303 -7.594,0.791 -8.638,0.765c-0.384,-0.107 -0.388,-0.199 -0.497,-0.513l0.121,-0.232c1.019,-0.457 7.082,-0.292 8.717,-0.675Z" style="fill:#143b27;fill-rule:nonzero;"/>
    <path d="M134.395,10.623c0.883,-0.044 1.815,-0.176 2.289,0.628c-0.127,1.256 -3.853,1.273 -4.95,1.365c-0.475,-0.004 -0.817,0.058 -1.168,-0.229c-0.02,-0.098 -0.043,-0.196 -0.068,-0.293c-0.245,-0.98 -0.485,-0.54 -0.881,-0.778c0.743,-0.808 3.345,-0.488 4.778,-0.693Z" style="fill:#f1edea;fill-rule:nonzero;"/>
    <path d="M135.183,10.947c0.426,0.042 0.535,0.032 0.879,0.275l-0.031,0.239c-0.812,0.512 -3.213,0.662 -4.277,0.764c-0.676,-0.016 -0.805,-0.057 -1.226,-0.59l0.067,-0.248c0.68,-0.452 3.241,-0.242 4.589,-0.441Z" style="fill:#143b27;fill-rule:nonzero;"/>
    <path d="M153.655,14.128c0.733,0.412 0.708,3.017 0.442,3.717c-0.181,0.478 -1.686,0.759 -2.196,0.883c-0.295,-0.496 -0.349,-3.192 -0.36,-3.908c0.731,-0.165 1.322,-0.27 1.993,-0.625l0.122,-0.066Z" style="fill:#f1edea;fill-rule:nonzero;"/>
    <path d="M153.495,14.528c0.422,0.329 0.394,2.561 0.398,3.142c-0.76,0.425 -0.959,0.516 -1.799,0.738c0.028,-1.034 -0.181,-2.179 -0.336,-3.209c0.593,-0.192 1.161,-0.435 1.737,-0.671Z" style="fill:#f1edea;fill-rule:nonzero;"/>
    <path d="M117.372,17.823c0.268,0.196 3.543,6.567 3.547,7.145c0.033,4.332 0.626,8.898 0.836,13.2l-0.169,-0.027c-0.695,-0.876 -0.427,-12.785 -1.467,-14.486c-0.545,-0.892 -2.659,-4.958 -2.748,-5.832Z" style="fill:#f1edea;fill-rule:nonzero;"/>
    <path d="M142.597,16.156c0.135,-0.013 0.324,0.045 0.467,0.077c0.075,0.067 0.165,0.148 0.273,0.243c0.213,1.665 0.501,3.835 0.664,5.456c-0.35,0.822 -1.972,1.289 -2.777,1.035c0.596,-0.382 -0.759,0.249 -0.216,-3.127c-0.285,-1.672 1.229,-2.532 1.736,-1.519c0.006,-0.17 -0.271,0.936 -0.422,0.76c-0.83,-0.042 0.601,-0.077 -0.253,0c0.187,0.842 -0.922,2.624 -1.11,3.137l2.713,-0.859l-2.447,1.604l-0.314,-0.755l0.097,-0.005c-0.501,-0.252 -0.951,-4.628 -1.375,-5.731l-0.024,-0.063c1.092,-0.135 1.889,-0.216 2.988,-0.253Z" style="fill:#f1edea;fill-rule:nonzero;"/>
    <path d="M148.274,10.976c0.521,-0.056 0.918,-0.141 1.415,0.023c0.364,0.317 0.277,0.162 0.394,0.58c-0.533,0.571 -2.152,0.571 -3.112,0.716c-0.481,0.017 -0.898,0.062 -1.357,-0.076c-0.176,-0.287 -0.308,-0.574 -0.456,-0.877c0.359,-0.32 2.492,-0.335 3.115,-0.367Z" style="fill:#f1edea;fill-rule:nonzero;"/>
    <path d="M148.203,11.373l0.041,0.317c-0.78,0.157 -1.494,0.351 -2.266,0.103l0.088,-0.169c0.65,-0.285 1.418,-0.238 2.137,-0.251Z" style="fill:#143b27;fill-rule:nonzero;"/>
    <path d="M148.203,11.373c0.473,-0.051 0.744,-0.129 1.179,0.055c-0.294,0.265 -0.663,0.212 -1.138,0.262l-0.041,-0.317Z" style="fill:#f1edea;fill-rule:nonzero;"/>
    <path d="M123.332,19.925l0.169,0.084c0.474,0.387 1.68,8.827 1.958,10.149c1.736,-0.474 3.142,-0.421 4.608,-0.918c-0.777,0.789 -3.445,0.916 -4.98,1.294c-0.225,-2.031 -0.606,-4.147 -0.955,-6.161c-0.228,-1.316 -0.681,-3.131 -0.799,-4.45Z" style="fill:#f1edea;fill-rule:nonzero;"/>
    <path d="M118.346,43.112l0.21,0.118l0.025,0.195c-1.18,0.337 -3.988,2.525 -5.163,3.281c-3.04,1.955 -5.826,3.896 -8.928,5.798l-0.215,-0.131l0.048,-0.155c3.303,-1.813 5.96,-3.846 9.138,-5.856c1.597,-1.01 3.169,-2.373 4.883,-3.249Z" style="fill:#f1edea;fill-rule:nonzero;"/>
    <path d="M123.333,19.925c1.33,0.079 3.795,-1.004 4.773,-0.641c0.688,0.917 2.547,9.485 1.961,9.956c-6.481,3.175 -6.059,-8.303 -1.819,-9.694c-0.189,0.126 3.946,11.35 -2.89,10.675l-2.025,-10.296Z" style="fill:#f1edea;fill-rule:nonzero;"/>
    <path d="M137.733,28.647l0.232,0.171c-0.137,0.331 -3.209,2.098 -3.69,2.449c-1.354,0.985 -2.713,2.026 -4.084,2.988c-1.459,1.024 -3.127,1.72 -4.352,3.044l-0.05,0.004l-0.101,-0.089c0.921,-1.393 4.212,-2.844 5.696,-4.132c1.841,-1.597 4.332,-3.001 6.35,-4.434Z" style="fill:#f1edea;fill-rule:nonzero;"/>
    <path d="M158.741,11.029l0.167,-0.057l0.298,0.166l0.083,0.321c-0.537,0.587 -1.872,0.544 -2.704,0.599c-0.355,0.021 -0.373,0.031 -0.662,-0.151l-0.064,-0.288c0.505,-0.526 2.071,-0.518 2.882,-0.59Z" style="fill:#f1edea;fill-rule:nonzero;"/>
    <path d="M149.116,23.098l0.187,0.119c-0.414,0.823 -6.139,3.919 -7.385,4.856l-0.139,-0.034c0.052,-0.28 0.135,-0.386 0.41,-0.542c2.421,-1.374 4.686,-2.741 6.927,-4.399Z" style="fill:#f1edea;fill-rule:nonzero;"/>
    <path d="M137.321,18.206c0.489,0.649 0.872,6.697 1.056,8.095c-0.101,-0.064 -0.236,-0.19 -0.331,-0.271c-0.163,-0.668 -0.789,-7.12 -0.724,-7.824Z" style="fill:#f1edea;fill-rule:nonzero;"/>
    <path d="M148.364,21.959l0.181,0.209l-0.022,0.218c-1.202,0.453 -6.404,3.476 -7.305,4.375l-0.088,-0.074c0.245,-0.8 6.12,-4.079 7.234,-4.727Z" style="fill:#f1edea;fill-rule:nonzero;"/>
    <path d="M160.5,12.876c0.211,0.09 0.36,0.262 0.448,0.476c0.448,1.091 -0.211,1.27 -0.899,1.539c-0.156,-0.009 -0.204,-0.123 -0.352,-0.274c-0.222,-1.097 -0.009,-1.253 0.803,-1.74Z" style="fill:#f1edea;fill-rule:nonzero;"/>
    <path d="M147.633,14.13c1.026,0.151 1.456,0.943 2.11,1.768c0.085,1.12 0.552,3.384 0.452,4.291c-0.49,-0.306 -0.676,-3.452 -0.75,-4.195c-0.574,-0.754 -1.047,-1.3 -1.812,-1.864Z" style="fill:#f1edea;fill-rule:nonzero;"/>
    <path d="M116.93,25.273l0.272,-0.117c-0.336,0.956 0.853,4.643 1.17,5.836l-0.279,-0.043c-0.046,-0.114 -0.087,-0.229 -0.126,-0.346c-0.256,-0.796 -1.382,-4.642 -1.038,-5.331Z" style="fill:#f1edea;fill-rule:nonzero;"/>
    <path d="M113.486,26.141c0.497,0.677 1.432,4.779 1.673,5.779c-0.168,-0.09 -0.217,-0.152 -0.359,-0.278c-0.358,-1.614 -1.289,-4.047 -1.314,-5.501Z" style="fill:#f1edea;fill-rule:nonzero;"/>
    <path d="M131.762,21.201c0.355,0.348 0.861,4.039 1.095,5.027l-0.277,-0.211c-0.564,-1.312 -0.666,-3.353 -0.819,-4.816Z" style="fill:#f1edea;fill-rule:nonzero;"/>
    <path d="M134.406,20.244c0.308,0.32 0.848,3.751 0.982,4.466l-0.23,-0.122c-0.326,-0.52 -0.785,-3.65 -0.752,-4.344Z" style="fill:#f1edea;fill-rule:nonzero;"/>
    <path d="M134.411,15.023c0.349,0.021 2.832,2.591 2.878,3.102c-0.345,-0.159 -2.464,-2.459 -2.911,-2.927l0.033,-0.176Z" style="fill:#f1edea;fill-rule:nonzero;"/>
    <path d="M157.571,13.544c0.422,0.029 0.851,0.414 1.248,0.683c-0.004,0.692 0.013,1.247 0.061,1.937l-0.229,-0.132c-0.295,-0.436 -0.176,-0.927 -0.132,-1.48c-0.237,-0.655 -0.66,-0.422 -0.948,-1.009Z" style="fill:#f1edea;fill-rule:nonzero;"/>
    <path d="M145.572,16.486c0.547,0.804 0.348,2.287 0.77,3.359l-0.291,-0.086c-0.354,-1.111 -0.419,-2.126 -0.479,-3.273Z" style="fill:#f1edea;fill-rule:nonzero;"/>
    <path d="M98.143,6.56c1.073,-0.092 12.015,0.627 12.857,0.903c-1.803,-0.054 -11.629,-0.481 -12.857,-0.903Z" style="fill:#f1edea;fill-rule:nonzero;"/>
    <path d="M118.507,7.817c1.419,0.01 3.917,0.147 5.341,0.317c-0.811,0.201 -4.568,-0.054 -5.341,-0.317Z" style="fill:#f1edea;fill-rule:nonzero;"/>
    <path d="M53.631,6.768c-0.52,-0.046 -1.011,-0.03 -1.387,-0.361c0.475,-0.179 0.725,-0.042 1.291,0.049l0.096,0.312Z" style="fill:#f1edea;fill-rule:nonzero;"/>
</svg>
