<?xml version="1.0" encoding="UTF-8" standalone="no"?>
<!DOCTYPE svg PUBLIC "-//W3C//DTD SVG 1.1//EN" "http://www.w3.org/Graphics/SVG/1.1/DTD/svg11.dtd">
<svg width="100%" height="100%" viewBox="0 0 167 95" version="1.1" xmlns="http://www.w3.org/2000/svg" xmlns:xlink="http://www.w3.org/1999/xlink" xml:space="preserve" xmlns:serif="http://www.serif.com/" style="fill-rule:evenodd;clip-rule:evenodd;stroke-linejoin:round;stroke-miterlimit:2;">
    <path d="M138.848,9.089c0.905,-0.194 3.222,-0.063 4.112,0.168c6.444,0.377 12.952,0.269 19.363,1.036c1.259,0.151 1.518,0.764 2.152,1.709l0.108,1.162c-0.201,0.412 -0.434,0.808 -0.698,1.184c-1.194,1.716 -8.262,5.955 -10.419,7.712c-2.74,2.235 -5.981,4.577 -8.735,6.889c-1.244,1.044 -3.154,2.237 -4.308,3.254c-2.224,1.957 -5.017,3.917 -7.144,5.843c-2.933,2.657 -5.831,5.529 -8.716,8.239c-1.689,1.586 -3.409,2.996 -5.155,4.502c-0.9,0.778 -1.74,1.687 -2.661,2.507c-2.136,1.902 -4.174,3.395 -6.469,5.058c-1.515,1.097 -3.129,2.714 -4.692,3.835c-2.899,2.079 -5.931,4.248 -8.643,6.566c-5.49,4.693 -10.733,9.731 -16.444,14.175c-1.16,0.903 -3.479,2.43 -4.952,2.815c-0.091,0.024 -1.966,-0.063 -2.247,-0.07c-1.455,-0.021 -2.909,-0.01 -4.364,0.035c-1.859,0.076 -3.667,0.434 -5.492,0.619c-0.924,-0.127 -1.506,-0.348 -2.469,-0.279c-12.828,0.919 -25.669,0.006 -38.489,-0.586c-0.387,-0.071 -1.09,-0.037 -1.441,-0.122c-3.713,-0.898 -12.752,-1.514 -15.639,-3.551c-1.513,-3.774 -2.527,-8.864 -2.367,-12.924c0.134,-3.407 -0.134,-6.668 -0.081,-10.02c0.249,-11.981 1.734,-23.905 4.433,-35.581c0.696,-2.999 1.566,-8.064 3.869,-10.231c3.233,-3.042 22.377,-4.009 27.613,-4.136c1.972,-0.048 3.95,0.172 5.917,0.099c3.283,-0.121 6.591,-0.564 9.872,-0.78c7.537,-0.524 15.087,-0.842 22.641,-0.952c3.44,-0.031 6.82,0.177 10.211,0.279l22.955,0.857c9.588,0.392 18.826,0.436 28.377,0.69Z" style="fill:#143b27;fill-rule:nonzero;"/>
    <path d="M138.851,9.089c0.905,-0.194 3.221,-0.063 4.112,0.168c-1.22,0.069 -2.86,-0.085 -4.112,-0.168Z" style="fill:#143b27;fill-rule:nonzero;"/>
    <path d="M71.881,11.697c2.046,5.525 2.184,9.913 3.319,15.461c1.077,4.953 2.109,9.902 3.012,14.885c2.188,12.078 0.386,24.127 -2.661,35.881c-0.439,1.691 -0.554,5.948 -1.611,7.038c-0.994,0.333 -2.191,0.35 -3.242,0.361c-2,0.021 -3.942,0.198 -5.933,0.396c-0.275,-0.139 -0.276,-0.143 -0.506,-0.349c-5.191,0.466 -10.4,0.709 -15.611,0.729c-3.641,-0.021 -7.036,-0.244 -10.604,-0.358l-9.45,-0.385c-2.576,-0.1 -5.161,-0.128 -7.727,-0.42c-1.504,-0.171 -2.995,-0.536 -4.482,-0.814c-1.713,-0.32 -3.426,-0.562 -5.134,-0.924c-1.486,-0.314 -4.039,-0.535 -5.163,-1.532c-1.916,-1.697 -2.662,-9.834 -2.69,-12.282c-0.02,-1.79 0.076,-3.578 0.059,-5.367c-0.018,-1.895 -0.159,-3.785 -0.113,-5.681c0.125,-5.135 0.592,-10.191 1.138,-15.295c0.173,-1.617 0.222,-3.248 0.417,-4.862c0.28,-2.313 0.786,-4.613 1.198,-6.905c0.241,-1.339 0.385,-2.696 0.66,-4.029c0.325,-1.571 0.806,-3.105 1.183,-4.664c0.653,-2.704 1.437,-7.249 3.428,-9.259c2.996,-3.027 24.182,-4.16 28.991,-4.099c4.435,0.056 8.934,0.069 13.357,0.36c2.262,0.149 4.507,0.496 6.765,0.69c3.321,0.284 6.871,0.446 10.136,1.118c-2.436,0.113 -3.582,-0.03 -6.001,0.514c-3.172,-1.197 -3.616,-0.509 -6.658,-0.862c-2.335,-0.27 -4.471,-0.8 -6.961,-0.96c-9.787,-0.537 -19.602,-0.182 -29.325,1.06c-2.796,0.342 -5.575,0.42 -8.196,1.596c-1.522,0.683 -2.476,1.644 -3.061,3.226c-1.309,3.545 -2.647,9.48 -3.307,13.212c-1.17,6.611 -4.322,31.415 -1.77,36.724c0.934,1.942 2.545,3.506 4.398,4.566c1.114,2.125 1.219,5.124 -0.397,7.033c-0.432,0.51 -0.897,1.002 -1.333,1.516c-0.017,0.815 -0.083,1.61 0.153,2.389l0.127,0.093c0.193,-0.646 0.073,-1.552 0.026,-2.247l0.076,-0.115c0.489,-0.731 1.069,-1.206 1.665,-1.888c1.078,-1.33 0.847,-3.572 0.699,-5.143c-0.127,-1.343 -1.261,-2.408 -2.274,-3.145c-4.67,-3.399 -3.596,-8.152 -3.703,-13.133c-0.162,-1.015 -0.12,-2.051 0.123,-3.05c0.723,-12.322 2.071,-24.839 5.791,-36.652c1.348,-4.28 7.507,-4.095 11.092,-4.628c8.183,-1.217 16.475,-1.39 24.734,-1.039c1.42,0.06 2.919,-0.092 4.345,0.015c3.851,0.478 7.654,0.982 11.532,1.212c0.614,0.036 1.38,0.365 1.903,0.687c1.983,3.752 2.095,8.688 2.942,12.811c0.602,2.931 1.52,5.767 2.134,8.69c0.682,3.249 1.053,6.572 1.575,9.848c0.901,5.652 3.188,16.573 1.539,21.969c-1.803,5.902 -8.69,7.093 -10.036,10.471c-0.392,0.984 -0.261,2.104 -0.233,3.141c1.589,1.298 1.805,1.84 2.023,4.003l0.037,0.383l0.193,0.088c0.211,-0.49 0.099,-0.914 0.089,-1.422c-0.029,-1.49 -0.92,-2.384 -1.928,-3.341c-0.057,-1.661 -0.158,-2.635 1.132,-3.975c0.861,-0.764 2.279,-1.936 3.248,-2.494c4.633,-2.667 6.75,-6.756 6.464,-12.108c-0.245,-4.58 -0.9,-9.79 -1.667,-14.327c-0.715,-4.233 -1.431,-8.411 -2.107,-12.646c-0.453,-2.357 -1.412,-4.742 -1.858,-7.107c-1.15,-5.271 -1.171,-8.848 -3.053,-13.981c1.104,-0.206 2.23,-0.429 3.352,-0.479c1.32,-0.059 2.43,0.023 3.741,-0.195Z" style="fill:#f1edea;fill-rule:nonzero;"/>
    <path d="M4.774,55.826c-0.162,-1.015 -0.12,-2.051 0.123,-3.05c-0.031,0.921 -0.038,2.156 -0.123,3.05Z" style="fill:#143b27;fill-rule:nonzero;"/>
    <path d="M24.163,21.1c4.603,-2.606 12.803,-2.325 18.034,-2.617c0.803,-0.045 3.02,0.422 3.998,0.534c2.089,1.536 2.041,3.842 2.013,6.197c0.054,0.845 0.068,1.972 0.198,2.778c0.145,1.141 -0.044,2.614 -0.025,3.781c0.038,2.31 -0.138,4.858 -0.085,7.138l0.705,22.684c0.113,2.786 0.856,7.943 0.283,10.558c-0.484,0.603 -3.512,0.374 -4.378,0.497c-2.224,0.316 -4.426,0.203 -6.66,0.15c-3.772,0.257 -7.507,0.537 -11.294,0.287c-1.246,-0.066 -2.344,-0.697 -3.355,-1.375c-0.244,-1.989 -1.237,-4.685 -0.88,-6.671c0.003,-1.241 -0.013,-2.482 -0.049,-3.723c0.413,-2.463 0.172,-4.163 0.293,-6.44c0.145,-2.733 0.269,-4.802 0.184,-7.557c-0.038,-1.245 -0.045,-5.277 0.193,-6.306c0.158,-2.385 0.55,-4.433 0.589,-6.937c0.057,-3.648 -0.544,-9.524 0.236,-12.978Z" style="fill:#f1edea;fill-rule:nonzero;"/>
    <path d="M47.824,28.047l0.131,-0.322l0.061,0.127l0.391,0.141c0.145,1.141 -0.044,2.614 -0.025,3.781c0.038,2.31 -0.138,4.858 -0.085,7.138l0.705,22.684c0.113,2.786 0.856,7.943 0.283,10.558c-0.484,0.603 -3.512,0.374 -4.378,0.497c-2.224,0.316 -4.426,0.203 -6.66,0.15c-3.772,0.257 -7.507,0.537 -11.294,0.287c-1.246,-0.066 -2.344,-0.698 -3.355,-1.375c-0.243,-1.989 -1.237,-4.685 -0.88,-6.671c0.206,-0.427 0.588,-0.862 0.889,-1.239c0.045,0.764 0.13,1.551 0.177,2.32c0.085,1.398 -0.345,4.383 0.666,5.41c0.982,0.997 3.979,0.668 5.346,0.733c1.394,0.04 2.794,0.273 4.19,0.247c3.604,-0.066 7.176,-0.345 10.765,-0.643c0.712,-0.059 1.54,0.03 2.256,0.067c0.441,0.023 0.802,0.203 1.254,0.178c0.288,-0.511 0.341,-7.451 0.299,-8.521c-0.092,-2.354 -0.351,-4.705 -0.439,-7.064c-0.05,-1.351 0.047,-2.719 -0.071,-4.064c-0.124,-1.411 -0.686,-2.621 -0.71,-4.081c-0.036,-2.176 0.197,-4.32 0.244,-6.49c0.057,-2.623 -0.13,-5.265 -0.14,-7.89c-0.007,-1.974 0.166,-3.945 0.14,-5.915l0.241,-0.043Z" style="fill:#143b27;fill-rule:nonzero;"/>
    <path d="M47.824,28.047l0.131,-0.322l0.061,0.127c0.202,0.697 -0.127,5.215 -0.026,6.613l-0.203,1.047c0.008,-0.325 -0.019,-0.726 -0.039,-1.057c-0.128,-2.095 0.25,-4.328 0.076,-6.409Z" style="fill:#143b27;fill-rule:nonzero;"/>
    <path d="M47.99,34.465c0.034,0.917 0.131,1.698 -0.181,2.558c-0.168,-0.368 -0.069,-1.089 -0.022,-1.51l0.203,-1.047Z" style="fill:#143b27;fill-rule:nonzero;"/>
    <path d="M47.962,42.361c0.46,0.78 0.145,6.533 0.184,7.867l-0.16,0.11c-0.692,-1.168 -0.194,-6.439 -0.023,-7.977Z" style="fill:#f1edea;fill-rule:nonzero;"/>
    <path d="M48.407,49.255l0.132,0.07c0.174,0.952 0.234,7.763 0.038,8.611c-0.208,-0.791 -0.253,-7.603 -0.17,-8.681Z" style="fill:#143b27;fill-rule:nonzero;"/>
    <path d="M48.942,65.879c0.208,1.103 0.388,4.483 0.117,5.46c-0.483,-0.622 -0.318,-4.551 -0.117,-5.46Z" style="fill:#f1edea;fill-rule:nonzero;"/>
    <path d="M23.113,65.551c0.549,0.6 0.299,1.93 0.24,2.722c-0.474,-0.936 -0.321,-1.691 -0.24,-2.722Z" style="fill:#143b27;fill-rule:nonzero;"/>
    <path d="M24.163,21.1c4.603,-2.606 12.803,-2.325 18.034,-2.617c0.803,-0.045 3.02,0.422 3.998,0.534c2.089,1.536 2.041,3.842 2.013,6.197l-0.288,-0.097l-0.272,-0.399l-0.284,-0.145c-0.184,-1.97 -0.313,-2.74 -0.917,-4.577c-0.607,-0.205 -1.597,-0.529 -2.196,-0.611c-4.21,-0.571 -15.807,-0.056 -19.28,1.662c-0.086,0.043 -0.171,0.087 -0.256,0.133c-0.315,2.894 -0.05,5.784 -0.223,8.698c-0.15,2.525 -0.11,5.091 -0.356,7.611c-0.535,0.741 0.126,2.326 -0.374,2.718l-0.218,0.911l-0.207,-0.103c0.158,-2.385 0.55,-4.433 0.589,-6.937c0.057,-3.648 -0.544,-9.524 0.236,-12.978Z" style="fill:#143b27;fill-rule:nonzero;"/>
    <path d="M47.65,24.719c-0.063,-0.958 -0.297,-2.603 -0.249,-3.426c0.433,1.354 0.493,2.422 0.521,3.824l-0.272,-0.399Z" style="fill:#143b27;fill-rule:nonzero;"/>
    <path d="M23.763,40.208c0.5,-0.391 -0.161,-1.976 0.374,-2.718c0.101,5.955 -0.33,10.759 -0.595,16.586c-0.063,1.472 -0.111,2.944 -0.145,4.417c-0.007,0.381 0.027,1.624 -0.014,1.907c-0.171,0.555 -0.204,0.72 -0.264,1.299l-0.173,0.056l-0.279,-0.437c0.413,-2.463 0.172,-4.163 0.293,-6.44c0.145,-2.733 0.269,-4.802 0.184,-7.557c-0.038,-1.245 -0.045,-5.277 0.193,-6.306l0.206,0.103l0.218,-0.911Z" style="fill:#143b27;fill-rule:nonzero;"/>
    <path d="M23.763,40.208c0.308,1.028 -0.098,5.545 -0.113,7.003c-0.499,-0.508 -0.111,-5.078 -0.105,-6.091l0.218,-0.911Z" style="fill:#143b27;fill-rule:nonzero;"/>
    <path d="M22.668,61.318l0.279,0.437l0.173,-0.056c0.06,-0.578 0.093,-0.743 0.264,-1.299l0.223,3.402c-0.302,0.376 -0.684,0.812 -0.889,1.239c0.003,-1.241 -0.013,-2.482 -0.049,-3.723Z" style="fill:#143b27;fill-rule:nonzero;"/>
    <path d="M47.365,24.574l0.284,0.145l0.272,0.399l0.288,0.097c0.054,0.845 0.068,1.972 0.198,2.778l-0.391,-0.141l-0.061,-0.127l-0.131,0.322l-0.241,0.043l-0.218,-3.516Z" style="fill:#143b27;fill-rule:nonzero;"/>
    <path d="M38.211,22.746c0.877,-0.322 3.858,-0.214 4.65,0.319c1.132,1.237 0.74,4.998 0.734,6.692l-0.004,8.667c-0.013,2.77 0.265,6.265 0.147,8.871l-0.005,0.112c0.032,0.793 0.005,1.543 -0.017,2.334c-0.594,0.316 -0.639,0.383 -1.316,0.403c-1.919,0.058 -3.923,0.364 -5.842,0.298c-2.159,-0.075 -4.251,-0.555 -6.427,-0.653c-0.419,-0.337 -1.01,-0.593 -1.345,-1.017c-1.213,-1.537 -0.299,-14.855 -0.298,-17.524c0.001,-2.799 -0.417,-5.29 -0.216,-8.165c1.022,-0.183 3.876,-0.29 4.983,-0.303c1.424,-0.14 3.452,-0.037 4.956,-0.035Z" style="fill:#143b27;fill-rule:nonzero;"/>
    <path d="M28.272,23.084c1.022,-0.183 3.876,-0.29 4.983,-0.303l0.08,0.16c0.679,0.068 0.924,-0.026 1.323,0.55c-0.513,0.09 -1.368,0.247 -1.862,0.254c-1.821,0.026 -2.25,-0.5 -3.946,0.227c-0.05,1.247 -0.126,2.546 -0.106,3.791c0.114,7.045 -0.107,14.017 0.495,21.054c3.817,1.37 7.553,1.027 11.517,0.965c1.49,-0.023 1.99,0.01 2.286,-1.471c0.032,0.217 0.011,0.136 0.138,0.33l0.214,-0.196c0.093,-0.43 0.116,-0.552 0.299,-0.954l0.039,-0.083c0.032,0.793 0.006,1.543 -0.016,2.334c-0.594,0.316 -0.639,0.383 -1.316,0.403c-1.919,0.058 -3.923,0.364 -5.842,0.298c-2.159,-0.075 -4.25,-0.555 -6.427,-0.653c-0.419,-0.337 -1.01,-0.593 -1.345,-1.017c-1.213,-1.537 -0.299,-14.855 -0.298,-17.524c0.001,-2.799 -0.417,-5.29 -0.216,-8.165Z" style="fill:#143b27;fill-rule:nonzero;"/>
    <path d="M31.719,23.159c0.499,-0.042 1.519,-0.092 1.967,0.084l-0.191,0.144c-0.523,0.022 -1.414,0.105 -1.873,-0.049l0.098,-0.18Z" style="fill:#143b27;fill-rule:nonzero;"/>
    <path d="M42.861,23.065c1.132,1.237 0.74,4.998 0.734,6.692l-0.004,8.666c-0.013,2.77 0.265,6.265 0.147,8.872l-0.005,0.112l-0.039,0.083c-0.183,0.402 -0.206,0.524 -0.299,0.954l-0.214,0.196c-0.126,-0.194 -0.106,-0.113 -0.138,-0.33c0.535,-3.809 -0.133,-8.841 -0.252,-12.731c-0.09,-2.949 0.921,-9.723 -0.438,-12.106c-0.197,-0.147 -0.23,-0.149 -0.348,-0.372l0.856,-0.038Z" style="fill:#143b27;fill-rule:nonzero;"/>
    <path d="M38.211,22.746c0.877,-0.322 3.858,-0.214 4.65,0.319l-0.856,0.038c0.117,0.223 0.15,0.224 0.348,0.372c-0.947,0.284 -3.364,0.244 -4.308,-0.062c0.278,-0.26 0.401,-0.28 0.452,-0.596l-0.286,-0.071Z" style="fill:#143b27;fill-rule:nonzero;"/>
    <path d="M38.211,22.746l0.285,0.071c-0.051,0.316 -0.174,0.336 -0.452,0.596c-1.45,-0.153 -1.892,-0.155 -3.386,0.078c-0.399,-0.576 -0.644,-0.482 -1.323,-0.55l-0.08,-0.16c1.424,-0.14 3.452,-0.037 4.956,-0.035Z" style="fill:#143b27;fill-rule:nonzero;"/>
    <path d="M35.762,59.168c0.771,-1.024 2.464,-4.577 3.982,-3.716c0.269,0.439 0.286,0.504 0.368,1.013c-0.267,0.475 -0.205,0.995 -0.201,1.548l-0.162,0.304c-0.307,-0.129 -0.344,-0.166 -0.61,-0.373c-0.498,-0.023 -0.842,0.242 -1.276,0.497l0.534,0.568c-0.832,1.493 -1.674,2.98 -2.528,4.461c-1.135,-1.426 -1.633,-2.411 -2.603,-3.843l-0.277,-0.038c-0.337,0.465 -1.045,4.286 -1.396,5.372c-0.706,-0.092 -1.007,-0.116 -1.715,-0.095c0.043,-1.097 1.507,-9.067 2.085,-9.656c1.241,-0.058 3.058,2.94 3.799,3.958Z" style="fill:#143b27;fill-rule:nonzero;"/>
    <path d="M37.647,58.633l0.217,-0.192l0.534,0.569c-0.832,1.493 -1.674,2.98 -2.528,4.461c-1.135,-1.426 -1.633,-2.411 -2.603,-3.843l0.204,-0.17l-0.15,-0.665l0.418,0.384c0.022,-0.205 0.009,-0.224 0.103,-0.404l0.313,0.352c0.513,0.591 0.859,0.932 1.437,1.461c1.117,-0.667 1.253,-1.249 1.741,-1.526l0.314,-0.426Z" style="fill:#143b27;fill-rule:nonzero;"/>
    <path d="M35.592,60.585c1.117,-0.667 1.253,-1.249 1.741,-1.526c-0.524,0.995 -1.103,2.065 -1.68,3.029c-0.319,-0.653 -1.494,-2.568 -1.498,-2.964c0.513,0.591 0.859,0.932 1.437,1.461Z" style="fill:#143b27;fill-rule:nonzero;"/>
    <path d="M38.931,56.507c0.425,0.514 0.646,0.928 0.98,1.506l-0.162,0.304c-0.307,-0.129 -0.344,-0.166 -0.61,-0.373c-0.498,-0.023 -0.842,0.242 -1.276,0.497l-0.217,0.192c0.346,-0.661 0.883,-1.477 1.284,-2.126Z" style="fill:#143b27;fill-rule:nonzero;"/>
    <path d="M32.227,56.991c0.477,0.144 1.076,0.732 1.214,1.21c-0.219,0.455 -0.179,-0.114 -0.827,0.244c-0.642,0.922 -1.09,3.489 -1.358,4.7c-0.09,0.405 -0.094,0.488 -0.385,0.775c-0.355,-0.661 1.093,-5.882 1.356,-6.929Z" style="fill:#143b27;fill-rule:nonzero;"/>
    <path d="M40.113,56.465c0.932,2.214 2.059,4.902 2.427,7.315c0.083,0.545 -0.096,0.829 -0.588,1.015c-0.982,-0.176 -1.53,-1.601 -1.693,-2.503c-0.44,-0.782 -1.012,-2.806 -1.531,-3.347l-0.33,0.066l-0.534,-0.569c0.434,-0.255 0.778,-0.52 1.276,-0.497c0.266,0.207 0.303,0.244 0.61,0.373l0.162,-0.304c-0.003,-0.554 -0.066,-1.074 0.201,-1.548Z" style="fill:#143b27;fill-rule:nonzero;"/>
    <path d="M37.864,58.441c0.434,-0.255 0.778,-0.52 1.276,-0.497c-0.071,0.745 1.427,2.329 1.119,4.347c-0.44,-0.782 -1.012,-2.806 -1.531,-3.347l-0.33,0.066l-0.534,-0.569Z" style="fill:#143b27;fill-rule:nonzero;"/>
    <path d="M50.096,26.35c0.027,-1.339 -0.257,-3.817 0.788,-4.804c1.106,-1.045 2.947,-0.971 4.358,-0.902c1.663,0.082 3.905,0.004 5.177,1.253c1.084,1.064 3.954,13.64 4.583,15.878c0.474,1.686 1.191,3.295 1.597,5.004c0.258,1.087 0.458,2.305 0.439,3.423c-0.003,0.177 -0.022,0.3 -0.158,0.419c-0.678,0.588 -1.443,0.804 -2.323,0.895c-2.115,0.217 -4.561,-0.246 -6.704,-0.37c-1.555,-0.09 -3.131,-0.025 -4.679,-0.144c-0.491,-0.038 -1.267,-0.105 -1.6,-0.514c-1.326,-1.626 -1.409,-10.479 -1.442,-12.821l0.293,0.099c0.018,-0.272 0.005,-0.87 0.136,-1.04c0.061,0.526 0.1,0.935 0.12,1.463l-0.292,-1.291c0.507,0.073 0.128,-4.332 -0.078,-4.296c0.713,-1.28 0.08,-3.204 0.433,-4.644c0.031,-0.254 -0.419,-0.944 0.078,-2.024c0.409,-0.43 1.667,-0.711 2.337,-0.895c2.206,0.216 4.713,-0.223 6.669,0.835c-0.079,-0.036 -0.16,-0.07 -0.24,-0.103c-2.382,-0.981 -6.125,-0.753 -8.53,0.226c-0.005,1.472 -0.012,2.69 -0.143,4.166c-0.05,0.62 -0.081,1.241 -0.234,1.845l-0.276,-0.934l-0.022,0.092l-0.101,-0.118c-0.029,-0.289 -0.059,-0.435 -0.183,-0.698Z" style="fill:#143b27;fill-rule:nonzero;"/>
    <path d="M50.422,33.766c0.018,-0.272 0.005,-0.87 0.136,-1.04c0.061,0.526 0.1,0.935 0.12,1.463c-0.004,0.557 -0.006,0.856 -0.089,1.406c-0.07,-0.608 -0.125,-1.218 -0.166,-1.829Z" style="fill:#143b27;fill-rule:nonzero;"/>
    <path d="M50.517,36.242l0.14,0.131c0.241,0.94 0.189,1.797 0.126,2.746c-0.367,-0.56 -0.263,-2.143 -0.266,-2.877Z" style="fill:#143b27;fill-rule:nonzero;"/>
    <path d="M65.551,40.435c0.363,0.83 0.504,1.329 0.702,2.202c-0.636,-0.694 -0.662,-1.291 -0.702,-2.202Z" style="fill:#143b27;fill-rule:nonzero;"/>
    <path d="M50.096,26.35c0.125,0.263 0.155,0.409 0.183,0.698l0.101,0.118l0.022,-0.092l0.276,0.934c0.152,-0.603 0.183,-1.224 0.234,-1.845c0.11,1.449 -0.051,2.977 -0.051,4.435c0,1.196 0.06,2.411 0.106,3.607l-0.291,-0.018c-0.02,-0.528 -0.058,-0.937 -0.12,-1.463c-0.131,0.17 -0.118,0.767 -0.136,1.04l-0.293,-0.099c-0.162,-0.974 -0.077,-6.217 -0.034,-7.317Z" style="fill:#143b27;fill-rule:nonzero;"/>
    <path d="M19.039,21.82c3.598,-0.219 2.965,2.478 2.953,5.173c-0.013,3.032 -0.211,19.282 -1.577,20.612c-1.275,0.633 -8.504,0.573 -10.231,0.497c-0.979,0.023 -2.652,0.174 -3.312,-0.644c-0.948,-2.325 4.582,-21.522 5.76,-24.603c2.142,-0.578 4.216,-0.815 6.407,-1.035Z" style="fill:#143b27;fill-rule:nonzero;"/>
    <path d="M12.123,25.178l0.013,0.047c0.165,0.561 -0.443,1.969 -0.673,2.604c-0.264,-0.578 0.389,-2.11 0.659,-2.651Z" style="fill:#143b27;fill-rule:nonzero;"/>
    <path d="M41.726,10.55c0.359,-0.088 1.078,0.177 1.512,0.183c3.829,0.056 3.183,1.634 1.41,3.96c-4.372,-0.434 -8.819,-0.453 -13.124,0.454c-3.741,0.596 -3.665,0.508 -4.469,-3.176c4.166,-1.447 10.154,-0.767 14.671,-1.422Z" style="fill:#143b27;fill-rule:nonzero;"/>
    <path d="M40.833,11.088c2.039,-0.139 2.135,0.128 4.075,0.562c0.028,-0.208 0.018,-0.205 0.12,-0.386l0.326,0.14c0.117,0.505 -0.369,1.732 -0.612,2.234c-0.053,0.11 -0.413,0.439 -0.468,0.443c-2.236,0.151 -5.406,-0.11 -7.585,-0.056c-1.57,0.037 -3.131,0.236 -4.661,0.592c-1.806,0.356 -3.975,1.213 -4.181,-1.306c-0.027,-0.332 -0.197,-0.855 -0.29,-1.192c2.863,-0.804 9.943,-0.878 13.277,-1.03Z" style="fill:#f1edea;fill-rule:nonzero;"/>
    <path d="M58.959,74.943c-2.31,-0.652 -3.467,-3.206 -2.378,-5.341c0.465,-0.892 1.262,-1.566 2.219,-1.876c0.878,-0.283 2.029,-0.302 2.878,0.129c0.303,0.179 0.746,0.423 1.017,0.628c0.403,1.5 0.846,3.144 0.003,4.584c-0.334,0.649 -0.665,1.255 -1.323,1.634c-1.063,0.386 -1.341,0.603 -2.416,0.242Z" style="fill:#143b27;fill-rule:nonzero;"/>
    <path d="M61.678,67.854c0.303,0.179 0.746,0.423 1.016,0.628c0.404,1.5 0.846,3.144 0.003,4.584l-0.133,-0.207l-0.316,0.157l-0.112,-0.144l0.296,-0.517c-0.101,-0.393 -0.032,-0.253 -0.416,-0.542c0.281,-1.553 0.098,-3.057 -1.748,-3.368l-0.184,0.031l-0.074,-0.103l0.314,-0.207l-0.1,-0.047l0.432,-0.192c0.427,0.053 0.608,0.09 1.022,-0.072Z" style="fill:#143b27;fill-rule:nonzero;"/>
    <path d="M58.582,70.797l0.451,-0.155l0.217,0.133c-0.288,1.291 -0.77,1.278 -0.407,2.135c0.775,0.659 0.947,0.181 0.979,1.316c-0.341,-0.05 -1.115,-0.056 -1.492,-0.07c0.122,-0.379 0.141,-0.462 0.168,-0.858l-0.162,-0.132c-0.288,0.12 -0.353,0.202 -0.591,0.412c-0.337,-0.571 -0.449,-0.743 -0.629,-1.373l0.113,-0.79c0.305,-0.124 0.604,0.066 1.156,-0.076l0.198,-0.541Z" style="fill:#143b27;fill-rule:nonzero;"/>
    <path d="M59.822,74.226l0.09,-0.021c0.613,-0.147 0.489,-0.279 1.062,-0.321l0.009,0.521l0.392,0.296c-1.063,0.386 -1.341,0.603 -2.416,0.242c-0.105,-0.237 -0.408,-0.457 -0.629,-0.786c0.378,0.014 1.151,0.02 1.492,0.07Z" style="fill:#143b27;fill-rule:nonzero;"/>
    <path d="M57.228,71.415c-0.11,-0.454 -0.122,-1.199 0.163,-1.588l0.315,-0.049c0.442,0.369 0.566,0.53 0.876,1.019l-0.198,0.541c-0.552,0.142 -0.851,-0.047 -1.156,0.076Z" style="fill:#143b27;fill-rule:nonzero;"/>
    <path d="M60.269,68.445c1.845,0.311 2.029,1.815 1.748,3.368c-0.217,0.45 -0.296,0.83 -0.661,1.038c0.504,-2.613 1.288,-2.444 -1.087,-4.406Z" style="fill:#143b27;fill-rule:nonzero;"/>
    <path d="M57.745,73.578c-0.767,-0.233 -1.06,-1.411 -1.016,-2.127l0.138,0.025l0.248,0.729c0.181,0.63 0.292,0.802 0.629,1.373Z" style="fill:#143b27;fill-rule:nonzero;"/>
    <path d="M13.713,72.406c-0.521,-0.529 -1.056,-1.012 -1.229,-1.756c-0.194,-0.853 -0.027,-1.749 0.461,-2.475c1.221,-1.84 3.629,-1.745 5.313,-0.592c0.381,1.423 0.598,2.372 0.102,3.772c-0.249,0.588 -0.918,1.271 -1.498,1.519c-0.701,0.294 -1.49,0.298 -2.194,0.01c-0.305,-0.124 -0.662,-0.319 -0.954,-0.478Z" style="fill:#143b27;fill-rule:nonzero;"/>
    <path d="M14.329,71.702c1.746,1.737 3.637,-0.324 3.392,-2.349l-0.01,-0.08c0.242,-0.314 0.131,-0.269 0.443,-0.332c0.424,0.886 -0.272,1.402 -0.142,2.259l0.348,0.155c-0.249,0.588 -0.918,1.271 -1.498,1.519c-0.701,0.294 -1.49,0.298 -2.194,0.01c-0.305,-0.124 -0.662,-0.319 -0.954,-0.478c-0.05,-0.257 0.136,-0.61 0.239,-0.871l0.304,-0.235l0.072,0.403Z" style="fill:#143b27;fill-rule:nonzero;"/>
    <path d="M14.097,69.304c0.846,0.342 0.559,0.857 1.088,1.229c0.326,0.229 0.342,-0.664 1.175,0.348c-0.039,0.942 -1.397,0.835 -2.032,0.822l-0.072,-0.403l0.164,-0.106l-0.037,-0.109c-0.293,-0.866 -0.347,-0.802 -0.285,-1.781Z" style="fill:#143b27;fill-rule:nonzero;"/>
    <path d="M13.952,71.535c-0.358,-0.36 -1.194,-1.513 -0.656,-1.959c0.261,-0.013 0.383,-0.188 0.802,-0.272c-0.061,0.979 -0.008,0.915 0.285,1.781l0.037,0.109l-0.164,0.106l-0.305,0.235Z" style="fill:#143b27;fill-rule:nonzero;"/>
    <path d="M15.892,67.907c0.264,-0.018 0.385,0.039 0.634,0.115c0.341,0.304 0.455,0.377 0.601,0.817l-0.12,0.107l-0.485,-0.395l-0.057,-0.081c-0.404,-0.238 -0.881,-0.133 -1.378,-0.098l0.037,-0.111l0.768,-0.354Z" style="fill:#143b27;fill-rule:nonzero;"/>
    <path d="M64.679,83.96l0.226,0.092l-0.056,0.213c-1.027,0.694 -2.716,0.718 -3.931,0.742c-6.624,0.131 -13.247,0.542 -19.873,0.359c-2.41,-0.067 -4.827,-0.444 -7.237,-0.542c-4.578,-0.19 -9.684,0.476 -14.12,-0.74c-3.611,-0.989 -7.156,-1.128 -10.792,-1.725c-0.219,-0.116 -0.207,-0.134 -0.378,-0.314c0.943,-0.478 11.816,1.82 13.643,2.128c3.685,0.621 7.537,0.012 11.158,0.294c7.188,0.56 14.19,0.814 21.396,0.336c2.692,-0.183 7.592,0.28 9.963,-0.842Z" style="fill:#143b27;fill-rule:nonzero;"/>
    <path d="M46.355,76.794c0.779,-0.014 1.757,-0.111 2.403,0.337c-0.394,0.146 -4.371,0.072 -5.063,0.083c-5.31,0.084 -10.518,0.799 -15.821,0.686c-1.074,-0.009 -1.855,0.059 -2.896,-0.233l-0.065,-0.134c0.961,-0.182 4.985,0.117 6.448,0.033c1.89,-0.109 3.912,-0.281 5.798,-0.405c3.063,-0.175 6.129,-0.298 9.196,-0.368Z" style="fill:#143b27;fill-rule:nonzero;"/>
    <path d="M45.931,75.548c1.013,-0.061 1.566,-0.101 2.541,0.169l-0.094,0.113c-0.988,0.162 -2.399,0.057 -3.459,0.084l-7.535,0.17c-3.402,0.074 -6.462,0.459 -9.871,0.504c-0.669,-0.048 -1.929,-0.076 -2.465,-0.387c0.615,-0.227 2.275,0.063 3.018,0.023c5.94,-0.319 11.917,-0.639 17.866,-0.677Z" style="fill:#143b27;fill-rule:nonzero;"/>
    <path d="M46.233,74.162c1.097,0.083 1.707,0.072 2.738,0.484c-0.05,0.015 -4.141,-0.037 -4.731,-0.045c-5.347,-0.075 -11.501,0.769 -16.739,0.495c-0.456,0.027 -1.962,0.156 -2.258,-0.086l-0.136,0.028c2.962,-0.628 2.765,-0.116 5.304,-0.235l15.821,-0.641Z" style="fill:#143b27;fill-rule:nonzero;"/>
    <path d="M66.603,66.706c1.9,-0.084 2.136,1.434 0.708,2.743c-0.137,-0.003 -0.274,-0.011 -0.411,-0.024c-1.648,-0.154 -1.918,-1.779 -0.297,-2.719Z" style="fill:#143b27;fill-rule:nonzero;"/>
    <path d="M9.542,64.231c0.258,0.007 0.541,0.042 0.8,0.068c1.228,0.767 0.614,2.081 -0.52,2.62c-1.537,-0.757 -1.662,-1.586 -0.28,-2.688Z" style="fill:#143b27;fill-rule:nonzero;"/>
    <path d="M59.971,13.121c0.328,-0.169 0.723,-0.145 1.028,0.062c0.306,0.207 0.474,0.564 0.439,0.932c-0.035,0.367 -0.268,0.686 -0.608,0.831c-0.5,0.214 -1.08,-0.006 -1.311,-0.498c-0.231,-0.492 -0.032,-1.079 0.452,-1.327Z" style="fill:#143b27;fill-rule:nonzero;"/>
    <path d="M55.539,12.47c0.35,-0.065 0.708,0.065 0.934,0.34c0.227,0.275 0.286,0.65 0.156,0.982c-0.13,0.331 -0.43,0.566 -0.783,0.612c-0.527,0.07 -1.013,-0.293 -1.096,-0.817c-0.083,-0.524 0.267,-1.019 0.789,-1.116Z" style="fill:#143b27;fill-rule:nonzero;"/>
    <path d="M16.925,13.308c0.32,-0.111 0.675,-0.041 0.929,0.184c0.254,0.225 0.366,0.569 0.293,0.9c-0.072,0.331 -0.318,0.597 -0.642,0.696c-0.488,0.149 -1.006,-0.121 -1.164,-0.606c-0.158,-0.485 0.101,-1.007 0.584,-1.174Z" style="fill:#143b27;fill-rule:nonzero;"/>
    <path d="M13.482,13.893c0.564,0.151 0.811,0.427 1.025,0.94c-0.007,0.514 -0.148,0.635 -0.455,1.031c-0.379,0.024 -0.4,0.012 -0.77,-0.095c-0.753,-0.695 -0.366,-1.224 0.199,-1.875Z" style="fill:#143b27;fill-rule:nonzero;"/>
    <path d="M158.801,10.918c1.363,-0.012 3.725,-0.148 4.79,0.82c0.591,0.513 0.553,1.929 -0.019,2.445c-3.18,2.877 -7.175,5.325 -10.605,7.891c-6.378,4.867 -12.679,9.835 -18.9,14.904c-3.26,2.683 -6.355,6.067 -9.5,8.935c-3.223,2.94 -6.592,5.688 -9.809,8.627c-1.613,1.475 -3.528,2.553 -5.055,3.902c-4.458,3.938 -9.457,6.983 -13.938,10.882c-2.911,2.525 -17.969,16.811 -20.857,16.075c-0.36,-0.701 0.426,-3.705 0.619,-4.796c0.332,-2.883 1.294,-6.217 1.901,-9.148c1.276,-6.159 2.414,-13.892 2.139,-20.176c-0.165,-3.443 -0.546,-6.872 -1.141,-10.267c-0.406,-2.17 -0.825,-4.338 -1.256,-6.503c-0.531,-2.536 -1.451,-6.39 -1.974,-9.052c-0.031,-0.159 0.221,-0.32 0.354,-0.43c-0.921,-1.132 -1.238,-6.761 -1.805,-8.505c-0.231,-0.71 -1.33,-4.202 -1.255,-4.735c1.094,-0.501 8.343,0.48 10.214,0.405c5.542,-0.222 11.124,-0.528 16.659,-0.783c8.866,-0.402 17.738,-0.662 26.612,-0.782c6.897,-0.066 13.795,-0.035 20.692,0.092c4.095,0.076 7.905,0.41 12.134,0.198Z" style="fill:#f1edea;fill-rule:nonzero;"/>
    <path d="M105.846,41.693c-0.425,-1.384 -0.736,-4.009 -1.026,-5.527l-1.225,-6.621c-0.207,-1.119 -0.597,-2.818 -0.661,-3.904c0.569,-1.044 2.429,-0.914 3.456,-1.151c1.168,-0.269 1.952,-0.845 3.105,-0.299c0.039,0.024 0.08,0.047 0.117,0.074c0.799,0.556 2.948,13.709 3.135,15.469c-3.107,0.955 -3.326,1.45 -6.902,1.959Z" style="fill:#143b27;fill-rule:nonzero;"/>
    <path d="M105.846,41.693c-0.425,-1.384 -0.736,-4.009 -1.026,-5.527l-1.225,-6.621c-0.207,-1.119 -0.597,-2.818 -0.661,-3.904c0.569,-1.044 2.429,-0.914 3.456,-1.151c1.168,-0.269 1.952,-0.845 3.105,-0.299c-1.006,-0.037 -5.102,0.792 -5.97,1.205c-0.67,0.795 2.4,13.974 2.533,15.845c2.372,-0 4.198,-0.787 6.283,-1.826c-0.243,-4.08 -1.526,-8.332 -2.224,-12.367c-0.142,-0.82 -0.278,-2.131 -0.623,-2.857c0.039,0.024 0.08,0.047 0.117,0.074c0.799,0.556 2.948,13.709 3.135,15.469c-3.107,0.955 -3.326,1.45 -6.902,1.959Z" style="fill:#143b27;fill-rule:nonzero;"/>
    <path d="M91.802,12.51c0.515,-0.034 1.037,-0.059 1.531,0.127c0.616,0.232 0.918,1.527 0.653,2.085c-2.27,-0.221 -6.752,0.291 -9.102,0.619c-0.593,0.019 -1.341,0.087 -1.906,-0.141c-0.55,-0.223 -0.599,-1.081 -0.354,-1.555c0.598,-0.224 3.06,-0.33 3.895,-0.419c1.784,-0.191 3.514,-0.321 5.284,-0.716Z" style="fill:#143b27;fill-rule:nonzero;"/>
    <path d="M91.4,12.916c0.565,-0.009 1.33,-0.077 1.825,0.139c0.366,0.419 0.566,0.634 0.281,1.135c-2.591,0.095 -5.573,0.43 -8.182,0.685c-0.56,0.015 -1.821,0.094 -2.25,-0.174c-0.214,-0.437 -0.225,-0.299 -0.17,-0.711c0.873,-0.228 2.737,-0.331 3.709,-0.42c1.605,-0.143 3.203,-0.361 4.788,-0.653Z" style="fill:#f1edea;fill-rule:nonzero;"/>
    <path d="M120.069,11.671c0.578,0.147 0.749,0.978 0.243,1.487c-0.785,0.241 -8.276,0.974 -9.361,0.91l-0.531,-1.286c0.679,-0.741 7.95,-0.533 9.65,-1.111Z" style="fill:#143b27;fill-rule:nonzero;"/>
    <path d="M119.774,12.095c0.302,0.094 0.199,0.043 0.408,0.378l-0.098,0.27c-0.628,0.316 -7.561,0.958 -8.603,0.955c-0.386,-0.098 -0.392,-0.19 -0.507,-0.501l0.116,-0.234c1.007,-0.479 7.061,-0.448 8.683,-0.867Z" style="fill:#f1edea;fill-rule:nonzero;"/>
    <path d="M86.8,27.099c0.413,-0.007 0.254,-0.05 0.608,0.157c1.396,2.218 3.75,14.673 4.09,17.727c0.03,0.272 -7.866,2.684 -8.54,2.651c-0.165,-0.008 0.001,-0.125 -0.005,-0.228c0.744,-0.427 -0.087,-19.116 0.523,-19.372c1.74,-0.732 7.183,16.102 6.504,15.865c-0.069,-1.889 -3.717,-1.647 -4.129,-3.784c-0.278,-1.444 -0.433,-0.319 -0.793,-1.583c-0.311,-0.799 0.728,-0.627 0.473,-1.443c-1.447,0.169 0.271,2.841 -0.676,3.723c-0.024,1.619 -1.061,3.361 -0.9,4.991c0.412,4.169 0.899,-3.206 1.789,0.887c0.057,0.264 -2.703,0.768 -2.844,0.946c-0.567,-0.609 -2.769,-17.202 -2.512,-18.644c0.76,-0.697 5.242,-1.714 6.411,-1.892Z" style="fill:#143b27;fill-rule:nonzero;"/>
    <path d="M134.341,11.297c0.88,-0.064 1.807,-0.216 2.298,0.576c-0.099,1.256 -3.817,1.356 -4.909,1.472c-0.474,0.007 -0.814,0.076 -1.171,-0.203c-0.022,-0.097 -0.048,-0.194 -0.074,-0.291c-0.266,-0.972 -0.496,-0.529 -0.896,-0.757c0.724,-0.822 3.327,-0.562 4.753,-0.798Z" style="fill:#143b27;fill-rule:nonzero;"/>
    <path d="M135.134,11.603c0.426,0.032 0.534,0.02 0.883,0.255l-0.026,0.239c-0.799,0.529 -3.191,0.732 -4.251,0.857c-0.674,-0.001 -0.804,-0.039 -1.237,-0.562l0.061,-0.248c0.668,-0.466 3.228,-0.313 4.57,-0.542Z" style="fill:#f1edea;fill-rule:nonzero;"/>
    <path d="M153.638,14.367c0.74,0.395 0.773,2.994 0.523,3.7c-0.17,0.481 -1.665,0.795 -2.172,0.93c-0.306,-0.489 -0.419,-3.177 -0.446,-3.892c0.726,-0.181 1.314,-0.298 1.975,-0.668l0.12,-0.069Z" style="fill:#143b27;fill-rule:nonzero;"/>
    <path d="M153.487,14.77c0.428,0.319 0.449,2.547 0.467,3.126c-0.749,0.441 -0.946,0.536 -1.779,0.777c0.005,-1.032 -0.229,-2.171 -0.406,-3.195c0.587,-0.205 1.149,-0.459 1.718,-0.708Z" style="fill:#143b27;fill-rule:nonzero;"/>
    <path d="M93.768,22.479c1.038,2.343 1.803,4.217 3.138,6.503c0.844,1.449 1.103,3.005 2.195,4.537c-0.062,2.388 0.254,5.235 0.432,7.695c0.243,3.394 0.221,6.658 0.372,10.023l-0.216,-0.139c-0.113,-0.277 -0.204,-4.223 -0.191,-4.824c0.084,-4.03 -0.832,-8.513 -0.677,-12.48c-0.865,-1.336 -1.521,-3.264 -2.206,-4.755c-0.755,-1.644 -2.963,-4.787 -2.846,-6.56Z" style="fill:#143b27;fill-rule:nonzero;"/>
    <path d="M117.513,18.859c0.272,0.189 3.681,6.475 3.698,7.051c0.129,4.322 0.822,8.866 1.127,13.154l-0.169,-0.023c-0.712,-0.858 -0.709,-12.749 -1.785,-14.424c-0.564,-0.878 -2.764,-4.889 -2.872,-5.758Z" style="fill:#143b27;fill-rule:nonzero;"/>
    <path d="M142.648,16.637c0.135,-0.016 0.325,0.038 0.467,0.067c0.076,0.065 0.168,0.144 0.278,0.236c0.25,1.657 0.585,3.816 0.784,5.43c-0.331,0.828 -1.939,1.33 -2.748,1.094c0.586,-0.395 -0.752,0.266 -0.285,-3.115c-0.322,-1.662 1.171,-2.554 1.698,-1.554c0.003,-0.17 -0.249,0.94 -0.404,0.767c-0.83,-0.023 0.598,-0.09 -0.253,0.006c0.205,0.836 -0.862,2.639 -1.038,3.156l2.689,-0.917l-2.407,1.654l-0.33,-0.746l0.097,-0.007c-0.506,-0.24 -1.051,-4.597 -1.499,-5.688l-0.025,-0.063c1.087,-0.159 1.88,-0.258 2.976,-0.319Z" style="fill:#143b27;fill-rule:nonzero;"/>
    <path d="M148.199,11.342c0.518,-0.068 0.913,-0.161 1.413,-0.008c0.371,0.309 0.28,0.156 0.406,0.57c-0.519,0.581 -2.135,0.617 -3.09,0.784c-0.479,0.027 -0.895,0.082 -1.355,-0.045c-0.182,-0.283 -0.32,-0.566 -0.474,-0.865c0.351,-0.328 2.48,-0.39 3.101,-0.435Z" style="fill:#143b27;fill-rule:nonzero;"/>
    <path d="M148.136,11.739l0.048,0.316c-0.775,0.174 -1.483,0.383 -2.259,0.153l0.084,-0.171c0.642,-0.299 1.409,-0.269 2.126,-0.298Z" style="fill:#f1edea;fill-rule:nonzero;"/>
    <path d="M148.136,11.739c0.471,-0.061 0.74,-0.145 1.178,0.029c-0.287,0.271 -0.657,0.226 -1.13,0.287l-0.048,-0.316Z" style="fill:#143b27;fill-rule:nonzero;"/>
    <path d="M97.092,63.51l0.125,0.15c-0.154,0.365 -0.944,0.854 -1.312,1.095c-4.963,3.255 -9.294,7.967 -14.118,11.336c-0.128,-0.13 -0.076,-0.05 -0.081,-0.294c5.09,-3.617 9.94,-8.358 15.386,-12.287Z" style="fill:#143b27;fill-rule:nonzero;"/>
    <path d="M123.508,20.825l0.17,0.08c0.481,0.376 1.873,8.771 2.179,10.084c1.722,-0.512 3.126,-0.49 4.578,-1.018c-0.758,0.805 -3.417,0.991 -4.941,1.402c-0.27,-2.022 -0.697,-4.125 -1.089,-6.126c-0.257,-1.308 -0.749,-3.109 -0.896,-4.423Z" style="fill:#143b27;fill-rule:nonzero;"/>
    <path d="M119.046,44.073l0.213,0.113l0.03,0.194c-1.17,0.362 -3.923,2.608 -5.079,3.388c-2.99,2.019 -5.727,4.017 -8.78,5.984l-0.218,-0.126l0.045,-0.155c3.256,-1.883 5.862,-3.97 8.989,-6.047c1.571,-1.044 3.109,-2.439 4.801,-3.351Z" style="fill:#143b27;fill-rule:nonzero;"/>
    <path d="M123.508,20.825c1.329,0.049 3.765,-1.086 4.749,-0.745c0.707,0.9 2.752,9.408 2.178,9.892c-6.397,3.312 -6.23,-8.151 -2.03,-9.634c-0.186,0.129 4.19,11.239 -2.647,10.717l-2.25,-10.23Z" style="fill:#143b27;fill-rule:nonzero;"/>
    <path d="M138.072,29.209l0.235,0.165c-0.129,0.333 -3.155,2.165 -3.628,2.525c-1.33,1.013 -2.663,2.082 -4.009,3.072c-1.433,1.054 -3.082,1.786 -4.276,3.134l-0.05,0.006l-0.103,-0.087c0.888,-1.41 4.14,-2.931 5.593,-4.249c1.802,-1.634 4.256,-3.091 6.238,-4.566Z" style="fill:#143b27;fill-rule:nonzero;"/>
    <path d="M92.07,30.558c0.393,1.332 0.708,4.57 1.044,6.114c0.264,1.217 0.881,3.736 0.855,4.787c-0.313,-0.032 -0.179,0.026 -0.415,-0.176c-0.309,-1.158 -1.563,-9.69 -1.484,-10.725Z" style="fill:#143b27;fill-rule:nonzero;"/>
    <path d="M158.645,11.163l0.166,-0.061l0.3,0.159l0.09,0.319c-0.523,0.598 -1.856,0.584 -2.685,0.658c-0.353,0.028 -0.372,0.039 -0.664,-0.136l-0.07,-0.286c0.492,-0.536 2.055,-0.563 2.863,-0.653Z" style="fill:#143b27;fill-rule:nonzero;"/>
    <path d="M95.237,30.818c0.406,0.52 1.17,8.762 1.334,10.035l-0.266,-0.173c-0.167,-1.29 -0.283,-2.67 -0.448,-3.987c-0.214,-1.698 -0.669,-4.247 -0.621,-5.874Z" style="fill:#143b27;fill-rule:nonzero;"/>
    <path d="M149.308,23.419l0.189,0.114c-0.395,0.831 -6.039,4.047 -7.262,5.01l-0.14,-0.03c0.046,-0.281 0.126,-0.388 0.398,-0.55c2.385,-1.424 4.615,-2.839 6.815,-4.543Z" style="fill:#143b27;fill-rule:nonzero;"/>
    <path d="M137.429,18.799c0.503,0.637 1.018,6.663 1.233,8.055c-0.103,-0.062 -0.24,-0.184 -0.337,-0.263c-0.177,-0.663 -0.945,-7.088 -0.896,-7.791Z" style="fill:#143b27;fill-rule:nonzero;"/>
    <path d="M148.532,22.299l0.186,0.204l-0.017,0.218c-1.19,0.479 -6.314,3.611 -7.193,4.528l-0.09,-0.072c0.227,-0.803 6.017,-4.206 7.114,-4.878Z" style="fill:#143b27;fill-rule:nonzero;"/>
    <path d="M160.441,12.967c0.212,0.085 0.365,0.253 0.457,0.465c0.472,1.079 -0.183,1.272 -0.863,1.555c-0.156,-0.005 -0.207,-0.118 -0.357,-0.266c-0.246,-1.09 -0.036,-1.25 0.763,-1.755Z" style="fill:#143b27;fill-rule:nonzero;"/>
    <path d="M147.629,14.503c1.027,0.128 1.473,0.909 2.145,1.718c0.109,1.116 0.626,3.365 0.546,4.272c-0.496,-0.295 -0.751,-3.43 -0.842,-4.169c-0.59,-0.74 -1.073,-1.274 -1.849,-1.82Z" style="fill:#143b27;fill-rule:nonzero;"/>
    <path d="M117.238,26.303l0.269,-0.122c-0.314,0.962 0.954,4.615 1.297,5.798l-0.279,-0.037c-0.048,-0.113 -0.092,-0.227 -0.133,-0.342c-0.273,-0.788 -1.483,-4.602 -1.154,-5.297Z" style="fill:#143b27;fill-rule:nonzero;"/>
    <path d="M113.82,27.246c0.511,0.665 1.535,4.737 1.797,5.73c-0.169,-0.086 -0.22,-0.147 -0.364,-0.269c-0.393,-1.602 -1.376,-4.01 -1.433,-5.461Z" style="fill:#143b27;fill-rule:nonzero;"/>
    <path d="M131.948,21.911c0.363,0.339 0.949,4.011 1.205,4.992l-0.281,-0.204c-0.592,-1.297 -0.739,-3.331 -0.924,-4.788Z" style="fill:#143b27;fill-rule:nonzero;"/>
    <path d="M134.566,20.898c0.314,0.312 0.93,3.725 1.079,4.435l-0.232,-0.116c-0.336,-0.511 -0.865,-3.625 -0.847,-4.318Z" style="fill:#143b27;fill-rule:nonzero;"/>
    <path d="M134.455,15.688c0.349,0.013 2.883,2.523 2.94,3.032c-0.348,-0.151 -2.513,-2.399 -2.969,-2.856l0.029,-0.176Z" style="fill:#143b27;fill-rule:nonzero;"/>
    <path d="M97.104,58.394l0.219,0.045l0.07,0.177c-0.845,0.545 -2.246,1.716 -3.062,2.368l-0.2,0.085c0.058,-0.413 2.444,-2.243 2.972,-2.675Z" style="fill:#143b27;fill-rule:nonzero;"/>
    <path d="M157.533,13.697c0.422,0.02 0.858,0.394 1.261,0.654c0.011,0.691 0.041,1.244 0.103,1.932l-0.231,-0.127c-0.304,-0.429 -0.196,-0.921 -0.164,-1.474c-0.251,-0.649 -0.668,-0.407 -0.969,-0.985Z" style="fill:#143b27;fill-rule:nonzero;"/>
    <path d="M145.624,16.899c0.563,0.791 0.398,2.275 0.843,3.335l-0.293,-0.08c-0.378,-1.101 -0.465,-2.112 -0.55,-3.255Z" style="fill:#143b27;fill-rule:nonzero;"/>
    <path d="M123.761,9.047l23.434,0.646c4.369,0.161 8.517,0.136 12.892,0.722c-3.338,0.562 -10.486,-0 -14.014,-0.001c-4.468,-0.001 -9.157,-0.164 -13.611,-0.141c-10.679,0.075 -21.355,0.331 -32.025,0.769l-11.424,0.515c-2.119,0.104 -4.519,0.359 -6.624,0.285c-9.622,-0.338 -19.147,-1.846 -28.727,-2.601l-0.103,-0.309c3.39,-0.538 7.25,-0.419 10.701,-0.699c1.436,-0.116 2.512,0.235 4.102,-0.207c0.066,0.026 -2.347,-0.046 -2.69,-0.086c1.79,-0.333 3.695,-0.061 5.497,-0.076c9.004,-0.079 17.91,-0.22 26.907,0.181c1.069,-0.115 12.003,0.359 12.85,0.616c2.133,0.271 5.284,0.067 7.499,0.187c1.416,-0.022 3.912,0.06 5.337,0.198Z" style="fill:#f1edea;fill-rule:nonzero;"/>
    <path d="M98.075,8.046c1.069,-0.115 12.003,0.359 12.85,0.616c-1.8,-0.014 -11.615,-0.222 -12.85,-0.616Z" style="fill:#143b27;fill-rule:nonzero;"/>
    <path d="M118.424,8.849c1.416,-0.022 3.912,0.06 5.337,0.198c-0.805,0.219 -4.56,0.047 -5.337,-0.198Z" style="fill:#143b27;fill-rule:nonzero;"/>
    <path d="M53.661,9.242c-0.519,-0.034 -1.009,-0.007 -1.392,-0.329c0.47,-0.189 0.722,-0.058 1.289,0.02l0.103,0.309Z" style="fill:#143b27;fill-rule:nonzero;"/>
</svg>
