<?xml version="1.0" encoding="UTF-8" standalone="no"?>
<!DOCTYPE svg PUBLIC "-//W3C//DTD SVG 1.1//EN" "http://www.w3.org/Graphics/SVG/1.1/DTD/svg11.dtd">
<svg width="100%" height="100%" viewBox="0 0 691 277" version="1.1" xmlns="http://www.w3.org/2000/svg" xmlns:xlink="http://www.w3.org/1999/xlink" xml:space="preserve" xmlns:serif="http://www.serif.com/" style="fill-rule:evenodd;clip-rule:evenodd;stroke-miterlimit:2;">
    <g transform="matrix(1,0,0,1,-2134.378911,-1866.106328)">
        <g transform="matrix(0.949985,0,0,0.889946,1390.86917,388.420442)">
            <path d="M1070.33,1950.731C1052.24,1950.5 1033.871,1949.101 1015.446,1946.452C1012.738,1946.375 1012.753,1946.399 1012.521,1946.368C964.67,1939.988 921.143,1921.608 913.561,1918.407C862.22,1896.727 817.506,1843.416 804.587,1817.11C803.64,1815.181 823.623,1786.216 825.789,1783.633C878.847,1720.341 931.319,1706.921 952.864,1700.123C962.889,1696.961 1011.206,1681.716 1070.33,1681.293L1217.33,1681.293L1217.33,1681.281C1232.088,1681.175 1247.52,1681.993 1263.197,1684.153C1308.034,1690.329 1318.898,1694.788 1342.388,1701.438C1351.823,1704.14 1355.951,1705.155 1378.562,1714.733C1426.095,1734.868 1468.688,1778.71 1487.45,1815.981C1487.661,1816.402 1468.909,1856.436 1422.481,1891.821C1372.848,1929.649 1297.863,1951.749 1217.33,1950.718L1217.33,1950.731L1070.33,1950.731Z" style="fill:none;stroke:rgb(229,224,220);stroke-width:3.62px;"/>
        </g>
        <g transform="matrix(1,0,0,1,1333.551366,188.56154)">
            <path d="M1070.33,1950.731C1052.24,1950.5 1033.871,1949.101 1015.446,1946.452C1012.738,1946.375 1012.753,1946.399 1012.521,1946.368C964.67,1939.988 921.143,1921.608 913.561,1918.407C862.22,1896.727 817.506,1843.416 804.587,1817.11C803.64,1815.181 823.623,1786.216 825.789,1783.633C878.847,1720.341 931.319,1706.921 952.864,1700.123C962.889,1696.961 1011.206,1681.716 1070.33,1681.293L1217.33,1681.293L1217.33,1681.281C1232.088,1681.175 1247.52,1681.993 1263.197,1684.153C1308.034,1690.329 1318.898,1694.788 1342.388,1701.438C1351.823,1704.14 1355.951,1705.155 1378.562,1714.733C1426.095,1734.868 1468.688,1778.71 1487.45,1815.981C1487.661,1816.402 1468.909,1856.436 1422.481,1891.821C1372.848,1929.649 1297.863,1951.749 1217.33,1950.718L1217.33,1950.731L1070.33,1950.731Z" style="fill:none;stroke:rgb(229,224,220);stroke-width:3.33px;"/>
        </g>
        <g transform="matrix(1,0,0,1,1333.551366,188.56154)">
            <path d="M1070.33,1950.731C1052.24,1950.5 1033.871,1949.101 1015.446,1946.452C1012.738,1946.375 1012.753,1946.399 1012.521,1946.368C964.67,1939.988 921.143,1921.608 913.561,1918.407C862.22,1896.727 817.506,1843.416 804.587,1817.11C803.64,1815.181 823.623,1786.216 825.789,1783.633C878.847,1720.341 931.319,1706.921 952.864,1700.123C962.889,1696.961 1011.206,1681.716 1070.33,1681.293L1217.33,1681.293L1217.33,1681.281C1232.088,1681.175 1247.52,1681.993 1263.197,1684.153C1308.034,1690.329 1318.898,1694.788 1342.388,1701.438C1351.823,1704.14 1355.951,1705.155 1378.562,1714.733C1426.095,1734.868 1468.688,1778.71 1487.45,1815.981C1487.661,1816.402 1468.909,1856.436 1422.481,1891.821C1372.848,1929.649 1297.863,1951.749 1217.33,1950.718L1217.33,1950.731L1070.33,1950.731Z" style="fill:rgb(14,35,25);"/>
        </g>
        <g transform="matrix(1,0,0,1,1333.551366,188.56154)">
            <path d="M1070.33,1950.731C1052.24,1950.5 1033.871,1949.101 1015.446,1946.452C1012.738,1946.375 1012.753,1946.399 1012.521,1946.368C964.67,1939.988 921.143,1921.608 913.561,1918.407C862.22,1896.727 817.506,1843.416 804.587,1817.11C803.64,1815.181 823.623,1786.216 825.789,1783.633C878.847,1720.341 931.319,1706.921 952.864,1700.123C962.889,1696.961 1011.206,1681.716 1070.33,1681.293L1217.33,1681.293L1217.33,1681.281C1232.088,1681.175 1247.52,1681.993 1263.197,1684.153C1308.034,1690.329 1318.898,1694.788 1342.388,1701.438C1351.823,1704.14 1355.951,1705.155 1378.562,1714.733C1426.095,1734.868 1468.688,1778.71 1487.45,1815.981C1487.661,1816.402 1468.909,1856.436 1422.481,1891.821C1372.848,1929.649 1297.863,1951.749 1217.33,1950.718L1217.33,1950.731L1070.33,1950.731Z" style="fill:rgb(14,35,25);"/>
        </g>
        <g transform="matrix(1,0,0,1,1333.551366,188.56154)">
            <path d="M1070.33,1950.731C1052.24,1950.5 1033.871,1949.101 1015.446,1946.452C1012.738,1946.375 1012.753,1946.399 1012.521,1946.368C964.67,1939.988 921.143,1921.608 913.561,1918.407C862.22,1896.727 817.506,1843.416 804.587,1817.11C803.64,1815.181 823.623,1786.216 825.789,1783.633C878.847,1720.341 931.319,1706.921 952.864,1700.123C962.889,1696.961 1011.206,1681.716 1070.33,1681.293L1217.33,1681.293L1217.33,1681.281C1232.088,1681.175 1247.52,1681.993 1263.197,1684.153C1308.034,1690.329 1318.898,1694.788 1342.388,1701.438C1351.823,1704.14 1355.951,1705.155 1378.562,1714.733C1426.095,1734.868 1468.688,1778.71 1487.45,1815.981C1487.661,1816.402 1468.909,1856.436 1422.481,1891.821C1372.848,1929.649 1297.863,1951.749 1217.33,1950.718L1217.33,1950.731L1070.33,1950.731Z" style="fill:none;stroke:rgb(229,224,220);stroke-width:3.33px;"/>
        </g>
        <g transform="matrix(0.949985,0,0,0.889946,1390.86917,388.420442)">
            <path d="M1070.33,1950.731C1052.24,1950.5 1033.871,1949.101 1015.446,1946.452C1012.738,1946.375 1012.753,1946.399 1012.521,1946.368C964.67,1939.988 921.143,1921.608 913.561,1918.407C862.22,1896.727 817.506,1843.416 804.587,1817.11C803.64,1815.181 823.623,1786.216 825.789,1783.633C878.847,1720.341 931.319,1706.921 952.864,1700.123C962.889,1696.961 1011.206,1681.716 1070.33,1681.293L1217.33,1681.293L1217.33,1681.281C1232.088,1681.175 1247.52,1681.993 1263.197,1684.153C1308.034,1690.329 1318.898,1694.788 1342.388,1701.438C1351.823,1704.14 1355.951,1705.155 1378.562,1714.733C1426.095,1734.868 1468.688,1778.71 1487.45,1815.981C1487.661,1816.402 1468.909,1856.436 1422.481,1891.821C1372.848,1929.649 1297.863,1951.749 1217.33,1950.718L1217.33,1950.731L1070.33,1950.731Z" style="fill:none;stroke:rgb(229,224,220);stroke-width:3.62px;"/>
        </g>
    </g>
</svg>
