<?xml version="1.0" encoding="UTF-8" standalone="no"?>
<!DOCTYPE svg PUBLIC "-//W3C//DTD SVG 1.1//EN" "http://www.w3.org/Graphics/SVG/1.1/DTD/svg11.dtd">
<svg width="100%" height="100%" viewBox="0 0 491 804" version="1.1" xmlns="http://www.w3.org/2000/svg" xmlns:xlink="http://www.w3.org/1999/xlink" xml:space="preserve" xmlns:serif="http://www.serif.com/" style="fill-rule:evenodd;clip-rule:evenodd;stroke-linecap:round;stroke-miterlimit:2;">
    <g transform="matrix(1,0,0,1,-1585.139546,-1062.925846)">
        <g transform="matrix(1,0,0,1,-1185.133674,309.652626)">
            <path d="M3257,866.997L3257,1442.665C3257,1503.374 3207.712,1552.662 3147.003,1552.662L2883.997,1552.662C2823.288,1552.662 2774,1503.374 2774,1442.665L2774,866.997C2774,806.288 2823.288,757 2883.997,757L3147.003,757C3207.712,757 3257,806.288 3257,866.997Z" style="fill:rgb(241,237,234);"/>
        </g>
        <g transform="matrix(1,0,0,1,-1185.133674,309.652626)">
            <path d="M3257,866.997L3257,1442.665C3257,1503.374 3207.712,1552.662 3147.003,1552.662L2883.997,1552.662C2823.288,1552.662 2774,1503.374 2774,1442.665L2774,866.997C2774,806.288 2823.288,757 2883.997,757L3147.003,757C3207.712,757 3257,806.288 3257,866.997Z" style="fill:none;stroke:rgb(26,58,46);stroke-width:3.33px;"/>
        </g>
        <g transform="matrix(1,0,0,1,-1185.133674,309.652626)">
            <path d="M3257,866.997L3257,1442.665C3257,1503.374 3207.712,1552.662 3147.003,1552.662L2883.997,1552.662C2823.288,1552.662 2774,1503.374 2774,1442.665L2774,866.997C2774,806.288 2823.288,757 2883.997,757L3147.003,757C3207.712,757 3257,806.288 3257,866.997Z" style="fill:none;stroke:rgb(26,58,46);stroke-width:3.33px;"/>
        </g>
        <g transform="matrix(0.945135,0,0,0.962726,-1019.936986,352.697684)">
            <path d="M3257,864.987L3257,1444.675C3257,1504.274 3207.712,1552.662 3147.003,1552.662L2883.997,1552.662C2823.288,1552.662 2774,1504.274 2774,1444.675L2774,864.987C2774,805.387 2823.288,757 2883.997,757L3147.003,757C3207.712,757 3257,805.387 3257,864.987Z" style="fill:none;stroke:rgb(26,58,46);stroke-width:3.33px;"/>
        </g>
    </g>
</svg>
