<svg width="667" height="103" viewBox="0 0 667 103" fill="none" xmlns="http://www.w3.org/2000/svg">
<path d="M104.859 18.6349C114.508 18.1126 117.518 19.2464 126.058 23.3483C129.154 21.7586 131.49 20.5993 134.878 19.6429C142.879 17.4457 151.426 18.5326 158.623 22.6626C166.225 26.9731 171.319 33.8555 173.566 42.2679C175.628 50.2885 174.39 58.8022 170.128 65.9037C164.843 74.9004 157.668 78.6843 147.941 81.2337C138.979 82.0589 133.544 80.6735 125.76 76.3429C106.228 88.3654 81.6315 77.4331 77.7567 55.1089C74.629 37.0859 87.0587 21.143 104.859 18.6349ZM132.896 29.6993C143.224 42.2196 141.863 57.6852 132.66 70.3048C139.133 72.7435 143.653 73.1528 150.418 71.3682C176.278 59.0874 166.146 25.9722 140.5 27.6551C137.56 28.2774 135.672 28.6286 132.896 29.6993ZM106.944 72.4114C111.097 72.7972 115.117 71.9317 118.951 70.3618C109.64 56.9204 108.707 43.0999 118.925 29.6792C114.263 27.8728 111.434 27.3394 106.482 27.6524C103.791 28.1737 101.752 28.4947 99.2543 29.6507C89.7822 34.0333 84.8843 44.4215 86.9044 54.5823C88.054 60.4828 91.5665 65.6588 96.6264 68.9093C100.455 71.4185 102.644 71.7137 106.944 72.4114ZM126.177 64.5988C128.864 60.8585 129.938 58.4668 131.046 53.9315C132.239 49.0507 130.317 37.895 125.627 35.4251C121.435 41.5323 119.454 46.8133 120.779 54.267C121.26 56.9741 123.769 63.4113 126.177 64.5988Z" fill="#1A3A2E"/>
<path d="M368.173 18.6278C373.651 18.3031 377.941 18.5265 383.09 20.507C390.987 23.469 397.34 29.5064 400.705 37.2389C401.943 40.1153 402.771 43.1502 403.164 46.2564C404.177 54.1864 403.67 75.1655 400.768 82.485C397.682 90.1936 391.695 96.3826 384.09 99.7136C371.215 105.225 353.792 100.898 345.768 89.2174C344.118 86.8156 343.239 84.7928 342.139 82.0925C345.389 82.0187 348.274 82.0623 351.508 82.1528C352.538 83.3973 353.635 85.0511 354.58 86.3963C365.392 98.3852 386.834 94.3666 392.359 79.2411C393.268 76.7488 393.509 75.0849 393.892 72.4684C381.336 82.5084 366.764 85.2021 353.188 75.0581C346.349 69.9257 341.854 62.2607 340.716 53.7839C338.288 36.367 350.931 20.977 368.173 18.6278ZM373.54 72.294C385.864 71.5594 395.294 61.0363 394.683 48.7052C394.073 36.3768 383.644 26.8406 371.309 27.33C358.797 27.8265 349.096 38.4348 349.716 50.9393C350.337 63.4448 361.045 73.0387 373.54 72.294Z" fill="#1A3A2E"/>
<path d="M0.146962 0.023468C2.91053 0.126786 6.09481 0.0627002 8.89229 0.0747764C8.88313 9.25468 8.93114 18.4346 9.03633 27.6142C13.0562 23.5911 18.0925 20.7348 23.6082 19.3494C31.8257 17.331 40.5091 18.6838 47.7233 23.1061C54.819 27.3995 59.8974 34.3584 61.8219 42.4256C63.8792 51.3083 62.1885 59.5335 57.4211 67.1582C51.2754 75.9806 41.9653 81.5021 31.0337 81.378C22.681 81.2337 14.7306 77.7652 8.94573 71.7371C-2.06351 60.2514 0.218312 47.1118 0.155986 32.4258C0.0459251 21.6254 0.0429392 10.8239 0.146962 0.023468ZM34.4043 72.3242C46.719 70.7174 55.4047 59.4396 53.814 47.1219C52.2233 34.8059 40.9569 26.1046 28.6379 27.6786C16.2948 29.2555 7.573 40.5484 9.16689 52.8882C10.7608 65.2294 22.0655 73.9377 34.4043 72.3242Z" fill="#1A3A2E"/>
<path d="M461.837 0.0402527L470.502 0.0754683L470.451 32.348C470.461 38.5817 471.005 51.2345 469.69 56.8767C468.341 62.5525 465.483 67.7587 461.424 71.9451C449.006 84.6218 429.728 84.3333 417.132 72.0894C405.777 61.09 405.092 43.0462 414.475 30.5732C419.329 24.1091 426.575 19.8616 434.585 18.7825C446.064 17.1955 453.159 20.8294 461.861 27.5068C461.673 18.5037 461.817 9.07658 461.837 0.0402527ZM441.972 72.3175C454.303 70.7308 463.011 59.4496 461.424 47.1185C459.834 34.7884 448.55 26.0825 436.219 27.6756C423.894 29.2683 415.196 40.5471 416.783 52.8715C418.37 65.1959 429.647 73.9008 441.972 72.3175Z" fill="#1A3A2E"/>
<path d="M501.782 18.647C502.534 18.5852 503.285 18.5607 504.037 18.5742C512.53 18.7144 520.625 22.2037 526.555 28.2821C536.199 38.3382 535.485 49.309 535.468 61.9991C535.485 68.4162 535.435 74.83 535.324 81.2471C532.352 81.2471 529.376 81.227 526.401 81.1935L526.438 72.0156C521.594 75.8766 519.189 77.8088 513.285 79.9188C511.866 80.3481 509.615 80.9251 508.183 81.123C499.904 82.2334 491.521 79.9993 484.892 74.9139C478.14 69.7211 473.759 62.0326 472.729 53.5759C470.445 35.149 483.769 20.6784 501.782 18.647ZM506.693 72.3779C519.011 70.8583 527.776 59.6576 526.29 47.3366C524.801 35.0139 513.624 26.2187 501.299 27.6729C488.928 29.1321 480.092 40.3609 481.585 52.7306C483.074 65.0986 494.329 73.9042 506.693 72.3779Z" fill="#1A3A2E"/>
<path d="M581.888 18.6422C584.454 18.5087 586.517 18.4541 589.08 18.8063C597.416 19.9589 604.943 24.3861 610.005 31.1075C615.053 37.832 617.204 46.2967 615.979 54.6158L563.082 54.6863C563.995 59.1444 565.82 62.7404 569.05 65.9976C573.337 70.3316 579.194 72.7536 585.289 72.7066C592.555 72.6194 597.355 69.389 602.169 64.3841C603.611 62.7806 604.229 61.8347 605.419 60.0467C608.522 60.0501 611.629 60.0736 614.731 60.1205C613.252 63.4079 612.081 65.9104 609.935 68.8355C604.94 75.5311 597.513 79.9892 589.257 81.2505C581.223 82.4078 572.579 80.0865 566.105 75.2225C559.332 70.0934 554.867 62.4922 553.69 54.0791C551.15 36.2037 564.213 20.8361 581.888 18.6422ZM562.884 45.9981L586.208 46.0115C592.874 46.0149 600.616 45.8472 607.207 46.0451C604.259 34.7243 596.406 27.3851 584.266 27.7034C572.472 29.2914 565.863 34.0645 562.884 45.9981Z" fill="#1A3A2E"/>
<path d="M221.151 28.488C233.111 13.0664 258.02 16.3364 263.385 35.8555C265.068 41.9771 264.466 51.6605 264.46 58.2823C264.504 65.9373 264.449 73.5955 264.296 81.2505C261.325 81.2773 258.353 81.2606 255.381 81.2002L255.435 55.9274C255.442 50.6441 255.828 44.7167 254.908 39.5438C252.645 27.5169 237.802 23.9008 229.482 32.0471C224.119 37.2993 225.395 47.833 225.449 54.9177C225.46 63.5488 225.597 72.6529 225.33 81.2371C222.304 81.3545 219.229 81.2069 216.165 81.274C216.381 73.5251 216.213 65.4005 216.283 57.5879C216.16 51.6001 216.708 45.4916 215.75 39.5676C213.971 28.5605 198.527 23.7803 190.742 31.3497C188.892 33.1498 187.585 35.4332 186.97 37.94C186.142 41.4471 186.325 50.0202 186.306 53.9483C186.338 63.039 186.251 72.1296 186.048 81.217C183.092 81.4216 180.047 81.2404 177.023 81.3612C176.838 73.1963 177.208 64.5988 176.977 56.5212C176.425 37.2104 176.443 24.1416 198.28 19.0351C199.176 18.9482 200.076 18.8949 200.976 18.8751C209.871 18.7352 215.05 22.5499 221.151 28.488Z" fill="#1A3A2E"/>
<path d="M308.661 19.0045C316.792 18.7808 324.253 20.0062 329.952 26.3878C332.397 29.1358 334.115 32.4537 334.943 36.037C336.466 42.3451 335.956 53.009 335.973 59.8421C335.99 66.4639 336.174 74.6522 335.836 81.1901C333.082 81.4316 329.861 81.3008 327.02 81.3578C326.701 67.7151 327.688 52.7406 326.44 39.1301C325.94 33.6797 320.431 28.9284 314.877 28.0627C301.963 25.7239 296.702 34.5328 296.825 46.1055C296.947 57.655 297.099 69.6271 296.822 81.1532C294.061 81.4283 290.267 81.2606 287.398 81.2203C287.509 72.6462 287.352 63.9849 287.419 55.4041C287.581 49.6679 286.959 43.9485 288.017 38.271C290.187 26.632 297.173 20.506 308.661 19.0045Z" fill="#1A3A2E"/>
<path d="M646.039 18.6114C657.401 17.7556 662.634 23.0306 665.669 33.2722C663.003 33.455 659.782 33.4315 657.075 33.4815C654.831 28.7077 652.761 26.2573 646.975 26.7339C642.986 27.0623 638.756 33.3406 639.84 36.8796C642.191 44.549 654.073 44.18 659.802 48.5677C663.442 51.0164 665.545 54.0187 666.384 58.4098C668.849 71.3212 660.148 79.5464 648.008 81.1633C642.144 80.2173 637.163 77.8591 633.543 73.0118C630.991 69.5936 630.534 65.9137 629.817 61.8816C632.165 62.1366 636.287 62.0594 638.77 62.0863C639.045 62.9886 639.753 65.5984 640.199 66.276C646.284 75.5009 655.22 72.871 657.978 63.106C657.669 61.885 657.042 59.2182 656.398 58.1951C652.788 52.4522 644.55 53.1835 638.937 49.2654C635.573 47.1823 632.97 44.6697 632.165 40.5615C630.018 29.6198 634.731 20.8203 646.039 18.6114Z" fill="#1A3A2E"/>
<path d="M541.443 0.0902259C544.23 -0.0036999 547.42 0.0825122 550.238 0.0919048C550.335 26.4867 550.744 54.911 550.094 81.2203C547.249 81.3042 544.257 81.2538 541.412 81.1935C541.704 54.3173 541.372 27.0244 541.443 0.0902259Z" fill="#1A3A2E"/>
<path d="M66.0254 0C68.6724 0.13787 71.9494 0.0691011 74.6444 0.0865444L74.5458 81.0828C71.8018 81.4887 68.8687 81.274 66.0281 81.3344C65.8258 70.4323 65.9972 59.0505 65.9972 48.1148L66.0254 0Z" fill="#1A3A2E"/>
<path d="M271.587 21.031C273.808 21.2198 277.691 21.1158 280.04 21.1279L280.065 59.5805C280.065 65.4475 280.366 75.6653 279.835 81.18C277.127 81.3713 273.893 81.2639 271.117 81.2706L271.091 42.2237C271.086 39.5008 270.738 22.2862 271.587 21.031Z" fill="#1A3A2E"/>
<path d="M619.149 17.5339C622.094 17.4494 625.057 17.5265 628.002 17.5735C627.982 21.6039 628.337 53.5759 627.529 54.6561C624.694 54.6326 621.86 54.6293 619.025 54.6427C619.612 43.5125 618.908 29.1911 619.149 17.5339Z" fill="#1A3A2E"/>
<path d="M271.173 0C273.962 0.109692 277.174 0.050994 279.996 0.0687728C280.083 6.22527 280.098 12.3824 280.043 18.5396L271.075 18.5721C271.174 12.4341 271.078 6.20078 271.173 0Z" fill="#1A3A2E"/>
</svg>
