<svg width="687" height="687" viewBox="0 0 687 687" fill="none" xmlns="http://www.w3.org/2000/svg">
<path d="M114.912 311.075C124.561 310.553 127.571 311.686 136.111 315.788C139.206 314.199 141.542 313.039 144.93 312.083C152.932 309.886 161.479 310.972 168.676 315.103C176.278 319.413 181.372 326.295 183.619 334.708C185.681 342.728 184.443 351.242 180.181 358.344C174.896 367.34 167.721 371.124 157.994 373.674C149.031 374.499 143.596 373.113 135.812 368.783C116.28 380.805 91.6843 369.873 87.8095 347.549C84.6818 329.526 97.1115 313.583 114.912 311.075ZM142.949 322.139C153.277 334.66 151.916 350.125 142.713 362.745C149.186 365.183 153.706 365.593 160.471 363.808C186.331 351.527 176.199 318.412 150.553 320.095C147.613 320.717 145.724 321.069 142.949 322.139ZM116.997 364.851C121.15 365.237 125.17 364.372 129.004 362.802C119.693 349.36 118.759 335.54 128.978 322.119C124.315 320.313 121.487 319.779 116.535 320.092C113.844 320.614 111.805 320.935 109.307 322.091C99.835 326.473 94.9371 336.861 96.9572 347.022C98.1068 352.923 101.619 358.099 106.679 361.349C110.508 363.858 112.697 364.154 116.997 364.851ZM136.23 357.039C138.917 353.298 139.991 350.907 141.099 346.371C142.292 341.491 140.369 330.335 135.68 327.865C131.488 333.972 129.507 339.253 130.832 346.707C131.313 349.414 133.822 355.851 136.23 357.039Z" fill="#1A3A2E"/>
<path d="M378.226 311.068C383.704 310.743 387.994 310.966 393.143 312.947C401.04 315.909 407.393 321.946 410.758 329.679C411.995 332.555 412.824 335.59 413.216 338.696C414.229 346.626 413.723 367.605 410.821 374.925C407.735 382.634 401.747 388.823 394.143 392.154C381.268 397.665 363.845 393.338 355.821 381.657C354.171 379.256 353.292 377.233 352.191 374.532C355.442 374.459 358.327 374.502 361.561 374.593C362.59 375.837 363.687 377.491 364.633 378.836C375.445 390.825 396.887 386.806 402.412 371.681C403.321 369.189 403.562 367.525 403.945 364.908C391.389 374.948 376.817 377.642 363.241 367.498C356.401 362.366 351.906 354.701 350.769 346.224C348.341 328.807 360.984 313.417 378.226 311.068ZM383.593 364.734C395.917 363.999 405.347 353.476 404.736 341.145C404.126 328.817 393.697 319.281 381.362 319.77C368.85 320.266 359.149 330.875 359.769 343.379C360.39 355.885 371.097 365.479 383.593 364.734Z" fill="#1A3A2E"/>
<path d="M10.1998 292.463C12.9633 292.567 16.1476 292.503 18.9451 292.515C18.9359 301.695 18.9839 310.875 19.0891 320.054C23.109 316.031 28.1453 313.175 33.661 311.789C41.8785 309.771 50.5619 311.124 57.7761 315.546C64.8718 319.839 69.9502 326.798 71.8747 334.866C73.932 343.748 72.2413 351.973 67.4739 359.598C61.3282 368.421 52.0181 373.942 41.0865 373.818C32.7338 373.674 24.7833 370.205 18.9985 364.177C7.98928 352.691 10.2711 339.552 10.2088 324.866C10.0987 314.065 10.0957 303.264 10.1998 292.463ZM44.4571 364.764C56.7717 363.157 65.4575 351.88 63.8668 339.562C62.2761 327.246 51.0097 318.545 38.6907 320.118C26.3476 321.695 17.6258 332.988 19.2197 345.328C20.8136 357.669 32.1183 366.378 44.4571 364.764Z" fill="#1A3A2E"/>
<path d="M471.89 292.48L480.554 292.515L480.504 324.788C480.514 331.022 481.058 343.674 479.743 349.317C478.394 354.992 475.536 360.199 471.477 364.385C459.059 377.062 439.781 376.773 427.185 364.529C415.83 353.53 415.145 335.486 424.528 323.013C429.382 316.549 436.627 312.302 444.638 311.222C456.117 309.635 463.212 313.269 471.913 319.947C471.726 310.944 471.87 301.517 471.89 292.48ZM452.025 364.757C464.356 363.171 473.064 351.89 471.477 339.558C469.887 327.228 458.603 318.522 446.272 320.116C433.947 321.708 425.249 332.987 426.836 345.311C428.422 357.636 439.7 366.341 452.025 364.757Z" fill="#1A3A2E"/>
<path d="M511.835 311.087C512.587 311.025 513.338 311.001 514.089 311.014C522.583 311.154 530.677 314.644 536.608 320.722C546.252 330.778 545.538 341.749 545.521 354.439C545.538 360.856 545.487 367.27 545.377 373.687C542.405 373.687 539.429 373.667 536.454 373.633L536.491 364.456C531.647 368.317 529.242 370.249 523.338 372.359C521.919 372.788 519.668 373.365 518.236 373.563C509.957 374.673 501.574 372.439 494.945 367.354C488.193 362.161 483.812 354.473 482.782 346.016C480.497 327.589 493.822 313.118 511.835 311.087ZM516.746 364.818C529.064 363.298 537.829 352.098 536.343 339.777C534.854 327.454 523.677 318.659 511.352 320.113C498.981 321.572 490.145 332.801 491.638 345.171C493.127 357.539 504.381 366.344 516.746 364.818Z" fill="#1A3A2E"/>
<path d="M591.94 311.082C594.507 310.949 596.57 310.894 599.132 311.246C607.468 312.399 614.996 316.826 620.058 323.547C625.106 330.272 627.256 338.737 626.032 347.056L573.135 347.126C574.048 351.584 575.872 355.18 579.103 358.438C583.39 362.772 589.247 365.194 595.342 365.147C602.608 365.059 607.408 361.829 612.222 356.824C613.664 355.221 614.281 354.275 615.472 352.487C618.575 352.49 621.681 352.514 624.784 352.56C623.305 355.848 622.134 358.35 619.987 361.275C614.992 367.971 607.566 372.429 599.31 373.69C591.276 374.848 582.632 372.526 576.158 367.662C569.385 362.533 564.92 354.932 563.743 346.519C561.203 328.644 574.266 313.276 591.94 311.082ZM572.937 338.438L596.261 338.451C602.926 338.455 610.669 338.287 617.26 338.485C614.312 327.164 606.459 319.825 594.319 320.143C582.524 321.731 575.916 326.504 572.937 338.438Z" fill="#1A3A2E"/>
<path d="M231.204 320.928C243.163 305.506 268.073 308.776 273.438 328.295C275.121 334.417 274.519 344.1 274.513 350.722C274.556 358.377 274.502 366.035 274.349 373.69C271.377 373.717 268.405 373.7 265.434 373.64L265.488 348.367C265.495 343.084 265.881 337.157 264.961 331.984C262.698 319.957 247.854 316.341 239.535 324.487C234.171 329.739 235.448 340.273 235.502 347.358C235.513 355.989 235.65 365.093 235.383 373.677C232.357 373.794 229.282 373.647 226.218 373.714C226.434 365.965 226.266 357.84 226.336 350.028C226.213 344.04 226.761 337.932 225.803 332.008C224.024 321 208.58 316.22 200.795 323.79C198.945 325.59 197.638 327.873 197.022 330.38C196.195 333.887 196.378 342.46 196.359 346.388C196.39 355.479 196.304 364.57 196.101 373.657C193.145 373.862 190.099 373.68 187.075 373.801C186.89 365.636 187.261 357.039 187.03 348.961C186.478 329.65 186.496 316.582 208.332 311.475C209.229 311.388 210.128 311.335 211.029 311.315C219.924 311.175 225.103 314.99 231.204 320.928Z" fill="#1A3A2E"/>
<path d="M318.714 311.444C326.844 311.221 334.305 312.446 340.005 318.828C342.45 321.576 344.168 324.894 344.996 328.477C346.519 334.785 346.009 345.449 346.026 352.282C346.043 358.904 346.227 367.092 345.888 373.63C343.134 373.872 339.914 373.741 337.073 373.798C336.754 360.155 337.74 345.181 336.492 331.57C335.993 326.12 330.484 321.368 324.93 320.503C312.016 318.164 306.755 326.973 306.877 338.545C307 350.095 307.152 362.067 306.875 373.593C304.114 373.868 300.319 373.7 297.451 373.66C297.562 365.086 297.405 356.425 297.471 347.844C297.634 342.108 297.012 336.388 298.07 330.711C300.24 319.072 307.226 312.946 318.714 311.444Z" fill="#1A3A2E"/>
<path d="M656.092 311.051C667.453 310.196 672.686 315.471 675.722 325.712C673.055 325.895 669.835 325.871 667.128 325.921C664.884 321.148 662.814 318.697 657.028 319.174C653.039 319.502 648.809 325.781 649.893 329.32C652.244 336.989 664.126 336.62 669.855 341.008C673.495 343.456 675.598 346.459 676.437 350.85C678.902 363.761 670.201 371.986 658.061 373.603C652.197 372.657 647.216 370.299 643.596 365.452C641.043 362.034 640.587 358.354 639.869 354.322C642.218 354.577 646.34 354.499 648.823 354.526C649.098 355.429 649.805 358.038 650.252 358.716C656.337 367.941 665.273 365.311 668.03 355.546C667.722 354.325 667.094 351.658 666.45 350.635C662.841 344.892 654.602 345.623 648.99 341.705C645.626 339.622 643.023 337.11 642.218 333.001C640.071 322.06 644.784 313.26 656.092 311.051Z" fill="#1A3A2E"/>
<path d="M551.495 292.53C554.283 292.436 557.473 292.522 560.291 292.532C560.388 318.927 560.797 347.351 560.147 373.66C557.302 373.744 554.31 373.694 551.465 373.633C551.757 346.757 551.425 319.464 551.495 292.53Z" fill="#1A3A2E"/>
<path d="M76.0782 292.44C78.7252 292.578 82.0023 292.509 84.6973 292.526L84.5986 373.523C81.8547 373.929 78.9215 373.714 76.0809 373.774C75.8786 362.872 76.05 351.49 76.05 340.555L76.0782 292.44Z" fill="#1A3A2E"/>
<path d="M281.64 313.471C283.861 313.66 287.744 313.556 290.092 313.568L290.118 352.02C290.118 357.887 290.419 368.105 289.888 373.62C287.179 373.811 283.946 373.704 281.17 373.711L281.144 334.664C281.139 331.941 280.791 314.726 281.64 313.471Z" fill="#1A3A2E"/>
<path d="M629.202 309.974C632.147 309.889 635.109 309.966 638.055 310.013C638.034 314.044 638.39 346.016 637.582 347.096C634.747 347.073 631.912 347.069 629.078 347.083C629.665 335.952 628.961 321.631 629.202 309.974Z" fill="#1A3A2E"/>
<path d="M281.226 292.44C284.014 292.55 287.227 292.491 290.049 292.509C290.136 298.665 290.151 304.822 290.095 310.98L281.128 311.012C281.227 304.874 281.131 298.641 281.226 292.44Z" fill="#1A3A2E"/>
</svg>
