<svg width="1673" height="941" viewBox="0 0 1673 941" fill="none" xmlns="http://www.w3.org/2000/svg">
<path d="M927.911 363.429L992.551 363.447C1013.1 363.451 1033.65 361.689 1053.97 366.826C1086.06 374.937 1102.65 402.961 1094.43 435.007C1090.37 450.874 1076.98 458.602 1063.6 466.034C1080.78 473.543 1092.36 482.534 1100.15 500.794C1105.85 514.14 1106.68 533.287 1100.98 546.718C1098.1 553.726 1093.84 560.084 1088.45 565.411C1065.45 588.189 1037.81 584.094 1008.28 584.081L927.894 584.077L927.911 363.429ZM1044.73 541.84C1051.46 535.609 1055.1 530.951 1055.53 521.346C1055.93 512.175 1054.37 502.615 1047.99 495.658C1041.04 488.058 1029.74 485.437 1019.78 485.393C1003.95 485.323 987.969 485.494 972.121 485.616L970.201 486.021C968.371 492.569 969.597 539.49 969.613 549.836C981.205 549.904 1018.77 550.844 1028.19 548.938C1034.12 547.687 1039.74 545.275 1044.73 541.84ZM968.747 452.188C989.962 452.346 1025.96 456.404 1042.8 443.578C1056.14 428.6 1053.09 406.388 1032.58 401.134C1014.31 396.453 988.148 398.508 968.739 398.623L968.747 452.188Z" fill="#F1EDEA"/>
<path d="M812.572 357.317C831.411 356.52 851.163 363.314 863.253 378.283C872.133 389.438 876.136 403.705 874.339 417.849C871.202 443.537 855.705 452.738 837.766 466.82C846.303 476.686 856.391 492.759 865.165 503.778C872.059 493.164 875.842 480.903 878.358 468.611L914.513 468.607C909.588 492.895 906.042 515.264 888.651 534.722C900.357 548.629 915.118 569.185 926.456 584.042L894.908 584.073L878.905 584.077C873.505 577.387 868.163 570.654 862.869 563.881C856.089 569.817 848.533 574.816 840.421 578.745C818.577 589.394 796.458 593.688 773.075 585.757C731.282 571.583 716.705 525.001 742.529 489.338C753.624 474.016 766.019 465.707 782.935 457.664C762.86 434.191 749.591 403.951 771.904 374.955C781.333 362.702 797.618 358.528 812.572 357.317ZM806.469 551.608C818.79 548.271 830.267 542.373 840.143 534.298C836.002 528.771 806.901 489.098 803.912 487.487C787.447 498.643 761.565 518.881 776.424 541.098C782.778 550.598 795.599 554.724 806.469 551.608ZM820.162 435.195C827.751 429.482 835.757 423.188 837.047 413.112C838.951 398.171 827.465 390.205 813.726 391.369C787.677 401.546 799.631 425.535 815.798 438C817.973 437.552 818.463 436.78 820.162 435.195Z" fill="#F1EDEA"/>
<path d="M109.169 351.553C131.7 348.026 164.277 357.334 182.709 370.408C214.656 393.069 227.64 416.856 235.025 453.88C220.744 453.81 206.463 453.812 192.181 453.888C181.009 402.79 119.828 377.615 75.8601 408.16C59.8471 419.324 48.8751 436.345 45.3194 455.538C41.6027 475.395 45.9328 495.915 57.3559 512.578C82.4271 548.427 130.906 552.428 165.674 528.056C176.118 519.243 185.215 508.218 188.568 494.709L232.723 494.721C222.936 545.579 182.881 580.042 131.918 586.705C72.0713 594.529 8.83496 546.727 1.73279 486.366C-2.01817 454.486 5.61629 421.655 25.742 396.199C47.6183 368.423 74.7562 355.811 109.169 351.553Z" fill="#F1EDEA"/>
<path d="M634.032 414.383C638.27 414.285 642.509 414.223 646.748 414.197C690.907 414.026 719.58 447.623 725.755 489.083C726.987 497.354 727.038 504.694 727.063 513.058L606.587 513.104C608.314 524.869 611.85 533.377 621.652 540.982C630.987 548.101 642.755 551.245 654.397 549.727C667.498 548.046 674.209 540.951 681.783 531.335L711.107 531.364L725.919 531.361C715.984 561.537 695.79 580.898 663.902 586.41C641.841 590.095 619.213 585.033 600.825 572.299C541.824 530.664 554.639 427.674 634.032 414.383ZM608.211 481.326L649.84 481.365L680.006 481.353C678.003 459.134 663.163 444.913 640.205 447.915C619.934 450.396 611.574 462.502 608.211 481.326Z" fill="#F1EDEA"/>
<path d="M398.355 416.917C412.658 414.471 437.172 418.181 450.187 424.774C478.628 439.182 476.641 458.9 477.381 485.426C478.268 517.198 473.185 553.952 483.424 584.069L442.14 584.096C441.188 579.931 439.956 575.632 438.839 571.493C436.824 572.951 434.779 574.369 432.706 575.743C415.2 587.204 393.852 591.228 373.374 586.927C356.428 583.256 343.53 575.006 334.031 560.286C333.1 558.533 332.266 556.732 331.534 554.888C326.831 542.818 327.219 529.357 332.613 517.578C348.689 481.964 395.509 486.125 426.267 478.387C438.281 475.364 438.188 462.467 429.928 454.634C419.025 444.293 400.404 443.359 387.233 450.023C379.158 454.145 376.816 461.59 374.416 469.715L337.096 469.672C338.074 431.625 365.658 419.852 398.355 416.917ZM373.502 550.095C390.614 560.196 418.362 556.752 429.202 538.754C434.666 529.681 435.149 513.035 432.763 502.552C416.774 506.681 359.933 515.011 366.644 539.071C367.835 543.323 370.215 547.147 373.502 550.095Z" fill="#F1EDEA"/>
<path d="M1530.91 415.204C1591.96 407.448 1623.27 457.935 1623.6 513.045L1503.12 513.136C1503.27 514.284 1503.43 515.429 1503.62 516.571C1505.35 527.336 1510.63 535.796 1519.6 542.111C1529.41 548.961 1541.56 551.598 1553.33 549.434C1565.1 547.252 1571.14 541.046 1577.48 531.793L1606.42 531.796L1621.39 531.809C1616.68 560.131 1588.56 581.073 1561.6 586.21C1539.67 590.224 1517.05 585.457 1498.62 572.938C1447.13 537.452 1448.22 450.351 1506.5 422.293C1514.66 418.364 1522.06 416.732 1530.91 415.204ZM1548.42 481.87C1553.72 481.899 1571.81 482.325 1576.05 481.542C1577.18 476.26 1574.32 467.78 1571.35 463.368C1562.42 450.067 1549.24 447.972 1534.59 448.619C1524.06 451.611 1515.47 455.676 1509.76 465.584C1507.84 468.912 1504.03 478.099 1506.44 481.624C1516.56 482.619 1537.51 481.928 1548.42 481.87Z" fill="#F1EDEA"/>
<path d="M1180.58 417.756C1183.32 417.312 1187.94 417.392 1190.8 417.357C1215.32 417.055 1245.09 425.094 1254.98 450.157C1258.92 460.121 1258.39 470.767 1258.48 481.287C1258.61 494.357 1258.6 507.429 1258.44 520.499C1258.23 541.326 1256.26 564.739 1265.31 584.042L1223.55 584.086C1222.47 579.766 1221.63 575.634 1220.75 571.282C1217.63 573.588 1213.07 576.719 1209.72 578.592C1191.66 588.765 1170.27 591.278 1150.34 585.567C1135.92 581.436 1123.45 573.358 1116.07 559.991C1109.54 547.396 1108.26 534.027 1113.42 520.762C1123.82 493.997 1154.7 486.213 1180.28 483.47C1190.49 482.375 1200.83 481.712 1210.27 477.794C1226.18 471.201 1213.62 453.309 1202.83 449.434C1192.63 445.656 1179.82 445.617 1169.92 450.624C1161.56 454.852 1159.7 462.038 1157.25 470.306L1119.33 470.245C1122.14 433.491 1146.5 419.276 1180.58 417.756ZM1161.21 551.039C1171.26 556.316 1176.66 556.213 1187.64 555C1215.99 551.871 1222.91 529.981 1218.3 504.741C1218.01 504.385 1217.39 503.513 1217.06 503.317C1198.6 507.857 1166.33 512.846 1154.75 528.833C1149.32 536.319 1154.56 545.954 1161.21 551.039Z" fill="#F1EDEA"/>
<path d="M500.02 366.947C514.349 366.765 528.944 366.882 543.297 366.853L543.295 417.884L571.032 417.813L571.042 448.552C561.793 448.52 552.544 448.544 543.296 448.623L543.268 508.824C543.266 518.993 542.799 534.111 543.862 543.786C552.375 555.574 562.242 553.609 575.401 553.044L575.427 579.344C575.503 581.606 575.5 582.147 575.047 584.358C572.852 585.433 569.662 585.188 567.214 585.296C498.351 588.342 499.941 570.348 499.958 511.942L500.023 448.543L478.961 448.538C478.72 438.158 478.92 426.934 478.922 416.49L500.015 416.481L500.02 366.947Z" fill="#F1EDEA"/>
<path d="M1630.49 364.325L1672.06 364.326C1673.02 436.703 1672.1 511.454 1672.07 584.063L1630.5 584.085L1630.49 364.325Z" fill="#F1EDEA"/>
<path d="M1347.21 416.758C1353.66 416.315 1356.71 416.5 1363.17 417.029C1363.54 429.954 1363.25 444.044 1363.23 457.055C1327.42 449.35 1313.93 474.098 1314.22 505.653C1314.29 513.624 1314.22 521.848 1314.24 529.84L1314.21 584.11L1271.33 584.082C1270.07 582.247 1270.56 437.673 1270.55 421.878C1284.45 421.537 1299.43 421.798 1313.42 421.782L1313.39 438.125C1322.08 427.598 1333.6 419.259 1347.21 416.758Z" fill="#F1EDEA"/>
<path d="M316.69 415.91C323.239 415.283 327.39 415.588 333.884 416.183L333.946 455.986C281.585 450.38 284.83 488.52 284.874 526.67L284.916 584.076H244.864C242.904 584.02 243.76 584.326 242.211 583.134C241.545 579.714 241.896 543.753 241.897 538.147L241.927 421.395L283.462 421.391L283.479 437.3C292.318 426.44 303.311 419.693 316.69 415.91Z" fill="#F1EDEA"/>
<path d="M1449.05 416.825C1453.75 416.054 1460.64 416.619 1465.37 417.194L1465.4 457.114C1452.29 454.272 1438.04 454.607 1428.14 464.87C1412.59 481.004 1415.48 507.811 1415.49 528.444L1415.51 584.086L1374.75 584.073L1373.61 583.677C1372.8 580.029 1373.23 545.757 1373.23 539.303L1373.18 421.878C1386.43 421.499 1401.12 421.807 1414.49 421.804L1414.49 438.203C1423.74 427.502 1434.81 419.212 1449.05 416.825Z" fill="#F1EDEA"/>
</svg>
