<svg width="829" height="119" viewBox="0 0 829 119" fill="none" xmlns="http://www.w3.org/2000/svg">
<path d="M459.394 6.25342L491.424 6.26271C501.605 6.26433 511.789 5.39221 521.86 7.93579C537.76 11.9526 545.981 25.8307 541.909 41.7001C539.893 49.5582 533.259 53.3849 526.628 57.0656C535.141 60.7839 540.881 65.2368 544.743 74.2793C547.564 80.8882 547.977 90.3704 545.151 97.0215C543.727 100.492 541.614 103.641 538.942 106.279C527.547 117.559 513.849 115.531 499.216 115.524L459.386 115.522L459.394 6.25342ZM517.282 94.6061C520.613 91.5201 522.419 89.2135 522.629 84.4569C522.828 79.9154 522.054 75.181 518.897 71.7357C515.452 67.9721 509.85 66.6744 504.916 66.6526C497.071 66.6178 489.153 66.7023 481.301 66.763L480.349 66.9632C479.443 70.2062 480.05 93.4423 480.058 98.5659C485.802 98.5995 504.414 99.0647 509.085 98.1209C512.024 97.5016 514.809 96.3071 517.282 94.6061ZM479.629 50.2087C490.141 50.2868 507.98 52.2964 516.323 45.9447C522.933 38.5276 521.423 27.5276 511.259 24.9258C502.208 22.6075 489.243 23.6253 479.625 23.6823L479.629 50.2087Z" fill="#F1EDEA"/>
<path d="M402.241 3.22684C411.576 2.83203 421.364 6.19679 427.355 13.6095C431.755 19.1335 433.738 26.1992 432.848 33.2033C431.293 45.9245 423.615 50.4809 414.726 57.4548C418.956 62.3405 423.955 70.3001 428.302 75.757C431.718 70.5007 433.593 64.429 434.839 58.3415L452.755 58.3398C450.314 70.3676 448.558 81.4453 439.94 91.0812C445.74 97.968 453.055 108.148 458.673 115.505L435.111 115.522C432.435 112.209 429.788 108.875 427.165 105.521C423.805 108.461 420.061 110.936 416.041 112.882C405.217 118.155 394.257 120.282 382.67 116.354C361.961 109.335 354.738 86.2671 367.534 68.606C373.032 61.0181 379.174 56.9034 387.556 52.9206C377.608 41.2965 371.034 26.3209 382.09 11.9615C386.762 5.89381 394.832 3.82673 402.241 3.22684ZM399.217 99.4433C405.322 97.7909 411.01 94.8699 415.904 90.8709C413.851 88.1339 399.431 68.4871 397.95 67.6894C389.792 73.2142 376.966 83.236 384.329 94.2384C387.478 98.9429 393.831 100.987 399.217 99.4433ZM406.003 41.7936C409.763 38.964 413.73 35.8472 414.369 30.8576C415.313 23.4586 409.621 19.5138 402.813 20.0898C389.905 25.1301 395.829 37.0098 403.84 43.1827C404.918 42.9606 405.161 42.5784 406.003 41.7936Z" fill="#F1EDEA"/>
<path d="M53.6933 0.372591C64.8577 -1.3741 81.0005 3.23534 90.1337 9.70958C105.964 20.932 112.398 32.7115 116.057 51.0465C108.981 51.0117 101.904 51.0129 94.8272 51.0505C89.2913 25.7457 58.9749 13.2786 37.1882 28.4054C29.2535 33.9339 23.8167 42.3627 22.0548 51.8676C20.2131 61.7013 22.3587 71.8631 28.019 80.1148C40.4422 97.8677 64.4642 99.8494 81.6927 87.7799C86.8679 83.4156 91.3756 77.9559 93.0368 71.2657L114.916 71.2717C110.067 96.4576 90.2191 113.524 64.9658 116.824C35.3108 120.698 3.97608 97.0259 0.456836 67.134C-1.40183 51.3466 2.38118 35.088 12.3538 22.4821C23.1939 8.72662 36.6412 2.48092 53.6933 0.372591Z" fill="#F1EDEA"/>
<path d="M313.772 31.487C315.872 31.4384 317.972 31.4077 320.073 31.3948C341.954 31.3102 356.162 47.9479 359.222 68.4798C359.833 72.5759 359.858 76.2105 359.87 80.3527L300.172 80.3753C301.028 86.2015 302.78 90.415 307.637 94.181C312.263 97.7067 318.095 99.2633 323.863 98.5117C330.355 97.6792 333.68 94.1656 337.434 89.4037L351.964 89.4178L359.303 89.4166C354.38 104.36 344.374 113.948 328.573 116.678C317.642 118.503 306.429 115.996 297.317 109.69C268.081 89.0716 274.431 38.0688 313.772 31.487ZM300.977 64.6385L321.605 64.6575L336.553 64.6519C335.56 53.6483 328.207 46.6061 316.831 48.0927C306.786 49.3212 302.643 55.3161 300.977 64.6385Z" fill="#F1EDEA"/>
<path d="M196.99 32.7418C204.077 31.5303 216.224 33.3676 222.673 36.6328C236.767 43.7676 235.782 53.5326 236.149 66.6688C236.588 82.4028 234.069 100.604 239.143 115.519L218.686 115.532C218.215 113.469 217.604 111.34 217.05 109.291C216.052 110.013 215.039 110.715 214.011 111.395C205.337 117.071 194.759 119.064 184.611 116.934C176.214 115.116 169.823 111.03 165.116 103.74C164.655 102.873 164.242 101.981 163.879 101.067C161.548 95.0903 161.741 88.4239 164.413 82.5908C172.38 64.9544 195.58 67.0146 210.821 63.1827C216.774 61.686 216.728 55.2991 212.635 51.4198C207.232 46.2991 198.005 45.8363 191.479 49.1363C187.478 51.1779 186.317 54.8647 185.128 58.8884L166.635 58.8669C167.12 40.0255 180.788 34.1952 196.99 32.7418ZM184.675 98.6941C193.154 103.696 206.904 101.991 212.275 93.0775C214.983 88.5845 215.222 80.3413 214.04 75.1498C206.117 77.1946 177.951 81.3195 181.276 93.2348C181.867 95.3403 183.046 97.2342 184.675 98.6941Z" fill="#F1EDEA"/>
<path d="M758.19 31.8935C788.439 28.0527 803.955 53.0545 804.121 80.3462L744.419 80.3911C744.492 80.9594 744.573 81.5266 744.666 82.0925C745.524 87.4232 748.143 91.6127 752.584 94.74C757.449 98.1323 763.468 99.4381 769.301 98.3665C775.134 97.286 778.126 94.2125 781.267 89.6302L803.024 89.6383C800.692 103.664 786.756 114.035 773.398 116.579C762.533 118.566 751.325 116.206 742.189 110.006C716.675 92.4331 717.218 49.299 746.095 35.4043C750.139 33.4582 753.806 32.6504 758.19 31.8935ZM766.868 64.9075C769.491 64.9221 778.457 65.1329 780.558 64.7453C781.117 62.1293 779.7 57.9301 778.231 55.7453C773.802 49.1582 767.273 48.1206 760.015 48.441C754.794 49.9227 750.539 51.936 747.71 56.8423C746.759 58.4907 744.868 63.0403 746.067 64.7858C751.078 65.2785 761.461 64.9367 766.868 64.9075Z" fill="#F1EDEA"/>
<path d="M584.594 33.1572C585.954 32.9376 588.241 32.9772 589.662 32.9598C601.809 32.8102 616.56 36.7914 621.462 49.2027C623.413 54.1373 623.154 59.4094 623.198 64.6191C623.263 71.0917 623.255 77.5652 623.178 84.0374C623.073 94.3513 622.097 105.946 626.582 115.505L605.889 115.527C605.355 113.388 604.938 111.341 604.501 109.186C602.955 110.328 600.696 111.879 599.036 112.806C590.087 117.844 579.485 119.089 569.613 116.261C562.468 114.215 556.287 110.214 552.628 103.595C549.394 97.3572 548.762 90.7369 551.316 84.1676C556.469 70.9133 571.77 67.0583 584.448 65.7C589.508 65.1579 594.628 64.8295 599.308 62.8894C607.189 59.6242 600.967 50.7637 595.62 48.8447C590.564 46.9738 584.221 46.9544 579.315 49.4341C575.17 51.5278 574.247 55.0867 573.033 59.1812L554.247 59.1509C555.639 40.9498 567.71 33.91 584.594 33.1572ZM574.996 99.1614C579.979 101.775 582.655 101.724 588.095 101.123C602.141 99.5736 605.57 88.7334 603.287 76.2339C603.145 76.0576 602.837 75.6259 602.671 75.5284C593.527 77.7771 577.534 80.2475 571.794 88.1647C569.107 91.8716 571.701 96.6433 574.996 99.1614Z" fill="#F1EDEA"/>
<path d="M247.366 7.99565C254.467 7.90585 261.699 7.9637 268.811 7.94914L268.81 33.2207L282.554 33.1855L282.559 48.4082C277.976 48.3924 273.393 48.4042 268.811 48.4434L268.797 78.2561C268.796 83.2915 268.565 90.7782 269.091 95.5697C273.309 101.407 278.198 100.434 284.719 100.154L284.732 113.179C284.77 114.299 284.768 114.567 284.544 115.662C283.456 116.194 281.876 116.073 280.662 116.126C246.54 117.635 247.328 108.724 247.336 79.8001L247.368 48.4038L236.931 48.4009C236.812 43.2608 236.911 37.7024 236.912 32.5302L247.364 32.5258L247.366 7.99565Z" fill="#F1EDEA"/>
<path d="M807.533 6.69717L828.133 6.69758C828.606 42.5403 828.153 79.5582 828.137 115.515L807.537 115.526L807.533 6.69717Z" fill="#F1EDEA"/>
<path d="M667.162 32.6629C670.36 32.4437 671.873 32.5355 675.071 32.7972C675.253 39.1978 675.112 46.1757 675.1 52.6188C657.358 48.8034 650.675 61.059 650.817 76.6853C650.853 80.633 650.817 84.7056 650.829 88.6634L650.813 115.539L629.565 115.525C628.938 114.616 629.181 43.0205 629.177 35.1984C636.066 35.0297 643.486 35.1592 650.42 35.1511L650.408 43.2446C654.711 38.0312 660.422 33.9015 667.162 32.6629Z" fill="#F1EDEA"/>
<path d="M156.524 32.243C159.769 31.9328 161.826 32.0836 165.044 32.3781L165.074 52.0897C139.128 49.3135 140.736 68.2011 140.758 87.0935L140.779 115.522H120.933C119.961 115.494 120.385 115.646 119.618 115.056C119.288 113.362 119.462 95.5535 119.462 92.7769L119.477 34.9593L140.058 34.9573L140.067 42.8356C144.447 37.4576 149.894 34.1163 156.524 32.243Z" fill="#F1EDEA"/>
<path d="M717.626 32.6961C719.954 32.3146 723.37 32.5942 725.714 32.8789L725.73 52.6483C719.233 51.2406 712.17 51.4065 707.268 56.4888C699.561 64.4788 700.994 77.7541 700.998 87.9721L701.006 115.527L680.811 115.521L680.244 115.325C679.844 113.518 680.058 96.5458 680.058 93.3497L680.034 35.1988C686.6 35.0107 693.878 35.1632 700.5 35.162L700.504 43.283C705.086 37.9835 710.571 33.8785 717.626 32.6961Z" fill="#F1EDEA"/>
</svg>
