<svg width="829" height="119" viewBox="0 0 829 119" fill="none" xmlns="http://www.w3.org/2000/svg">
<path d="M459.352 6.07683L491.389 6.08616C501.571 6.08778 511.758 5.21257 521.83 7.76516C537.733 11.7962 545.956 25.7234 541.883 41.6491C539.867 49.535 533.231 53.3753 526.6 57.069C535.114 60.8004 540.855 65.2691 544.717 74.3436C547.539 80.976 547.952 90.4918 545.126 97.1663C543.701 100.649 541.588 103.809 538.916 106.456C527.519 117.776 513.818 115.741 499.183 115.735L459.344 115.733L459.352 6.07683ZM517.252 94.7424C520.584 91.6454 522.389 89.3308 522.6 84.5572C522.798 79.9997 522.025 75.2485 518.867 71.791C515.422 68.0141 509.818 66.7118 504.883 66.6899C497.037 66.655 489.118 66.7398 481.263 66.8007L480.312 67.0017C479.405 70.2561 480.012 93.5745 480.021 98.7162C485.765 98.7499 504.381 99.2168 509.053 98.2697C511.992 97.6482 514.778 96.4494 517.252 94.7424ZM479.591 50.1878C490.106 50.2661 507.948 52.2829 516.292 45.9087C522.903 38.4653 521.393 27.4263 511.227 24.8153C502.175 22.4888 489.207 23.5102 479.587 23.5674L479.591 50.1878Z" fill="#1A3A2E"/>
<path d="M402.352 3.00242C411.698 2.60692 421.497 5.97761 427.495 13.4034C431.9 18.9372 433.886 26.0153 432.994 33.0318C431.438 45.7754 423.75 50.3399 414.851 57.326C419.086 62.2203 424.091 70.194 428.443 75.6605C431.863 70.395 433.74 64.3125 434.988 58.2143L452.924 58.2126C450.48 70.2617 448.722 81.3588 440.094 91.0117C445.901 97.9107 453.224 108.108 458.849 115.479L435.259 115.496C432.581 112.177 429.93 108.837 427.304 105.477C423.941 108.422 420.192 110.902 416.168 112.851C405.332 118.134 394.359 120.264 382.759 116.33C362.026 109.298 354.795 86.1891 367.606 68.4969C373.109 60.8957 379.259 56.7737 387.651 52.7838C377.692 41.1392 371.109 26.1373 382.178 11.7525C386.855 5.67409 394.934 3.60337 402.352 3.00242ZM399.325 99.3886C405.437 97.7333 411.131 94.8071 416.03 90.801C413.976 88.0593 399.539 68.3778 398.056 67.5787C389.889 73.1133 377.049 83.1528 384.42 94.1745C387.572 98.8873 393.933 100.935 399.325 99.3886ZM406.118 41.6372C409.883 38.8026 413.854 35.6804 414.495 30.6819C415.439 23.2699 409.741 19.3181 402.925 19.8951C390.003 24.9443 395.933 36.845 403.953 43.0288C405.032 42.8063 405.275 42.4234 406.118 41.6372Z" fill="#1A3A2E"/>
<path d="M53.6441 0.372993C64.7983 -1.37558 80.9263 3.23883 90.0511 9.72006C105.867 20.9546 112.295 32.7468 115.951 51.1015C108.881 51.0667 101.811 51.0679 94.7403 51.1056C89.2095 25.7735 58.9209 13.2929 37.1541 28.4361C29.2267 33.9705 23.7948 42.4084 22.0346 51.9236C20.1945 61.7679 22.3382 71.9407 27.9934 80.2012C40.4052 97.9733 64.4052 99.9571 81.6178 87.8746C86.7883 83.5056 91.2918 78.04 92.9516 71.3426L114.811 71.3486C109.966 96.5616 90.1364 113.646 64.9062 116.95C35.2784 120.829 3.97244 97.1306 0.456418 67.2064C-1.40054 51.402 2.379 35.1258 12.3425 22.5064C23.1727 8.73603 36.6076 2.48359 53.6441 0.372993Z" fill="#1A3A2E"/>
<path d="M313.637 31.2916C315.737 31.2429 317.838 31.212 319.939 31.1991C341.825 31.1142 356.036 47.8106 359.097 68.4149C359.708 72.5255 359.733 76.1728 359.745 80.3297L300.034 80.3524C300.89 86.1992 302.643 90.4275 307.501 94.2068C312.127 97.7449 317.96 99.307 323.73 98.5528C330.224 97.7173 333.55 94.1913 337.304 89.4126L351.837 89.4268L359.178 89.4256C354.254 104.422 344.246 114.043 328.441 116.783C317.507 118.614 306.292 116.099 297.179 109.771C267.936 89.0793 274.287 37.8967 313.637 31.2916ZM300.839 64.5601L321.471 64.5792L336.423 64.5735C335.43 53.5311 328.075 46.4641 316.696 47.9559C306.649 49.1887 302.506 55.2048 300.839 64.5601Z" fill="#1A3A2E"/>
<path d="M197.225 32.5653C204.304 31.3499 216.439 33.193 222.882 36.4687C236.961 43.6263 235.977 53.4225 236.344 66.6006C236.783 82.3848 234.266 100.644 239.335 115.607L218.899 115.62C218.428 113.551 217.817 111.415 217.265 109.359C216.267 110.083 215.255 110.787 214.229 111.47C205.563 117.164 194.995 119.163 184.858 117.026C176.47 115.202 170.085 111.104 165.383 103.791C164.922 102.92 164.509 102.025 164.147 101.109C161.818 95.1129 162.011 88.4252 164.681 82.5735C172.639 64.8808 195.816 66.9476 211.041 63.1034C216.988 61.6019 216.942 55.1946 212.854 51.3029C207.456 46.1658 198.239 45.7016 191.719 49.0122C187.722 51.0603 186.562 54.7588 185.374 58.7953L166.9 58.7738C167.384 39.8722 181.039 34.0233 197.225 32.5653ZM184.922 98.7283C193.392 103.746 207.128 102.035 212.494 93.0936C215.199 88.5864 215.438 80.3169 214.257 75.1087C206.342 77.1601 178.205 81.2981 181.527 93.2515C182.117 95.3637 183.295 97.2637 184.922 98.7283Z" fill="#1A3A2E"/>
<path d="M758.371 32.0853C788.569 28.2486 804.059 53.2236 804.224 80.4861L744.623 80.531C744.696 81.0987 744.777 81.6652 744.87 82.2305C745.727 87.5555 748.341 91.7406 752.774 94.8645C757.631 98.2531 763.64 99.5575 769.463 98.4871C775.287 97.4078 778.273 94.3376 781.409 89.7602L803.129 89.7683C800.801 103.779 786.888 114.139 773.553 116.68C762.707 118.665 751.517 116.307 742.397 110.115C716.926 92.56 717.468 49.4721 746.296 35.5924C750.333 33.6483 753.995 32.8414 758.371 32.0853ZM767.035 65.064C769.653 65.0785 778.604 65.289 780.701 64.9019C781.259 62.2888 779.845 58.094 778.378 55.9115C773.957 49.3315 767.439 48.295 760.193 48.6151C754.98 50.0952 750.733 52.1063 747.909 57.0074C746.959 58.6541 745.072 63.1987 746.268 64.9423C751.271 65.4345 761.636 65.0931 767.035 65.064Z" fill="#1A3A2E"/>
<path d="M584.86 33.3808C586.22 33.1614 588.506 33.201 589.926 33.1836C602.068 33.0342 616.811 37.0103 621.711 49.4059C623.661 54.3343 623.402 59.5997 623.447 64.8028C623.511 71.2673 623.503 77.7325 623.426 84.1966C623.321 94.4974 622.346 106.077 626.829 115.624L606.146 115.646C605.612 113.51 605.195 111.466 604.758 109.313C603.213 110.454 600.955 112.003 599.296 112.929C590.351 117.961 579.755 119.203 569.886 116.379C562.745 114.336 556.567 110.34 552.91 103.729C549.677 97.4995 549.046 90.8876 551.599 84.3266C556.749 71.0891 572.043 67.239 584.715 65.8823C589.772 65.341 594.89 65.0129 599.568 63.0753C607.445 59.8142 601.226 50.965 595.882 49.0484C590.828 47.1799 584.488 47.1605 579.585 49.637C575.442 51.7281 574.519 55.2825 573.305 59.3718L554.528 59.3415C555.92 41.1635 567.985 34.1326 584.86 33.3808ZM575.268 99.3014C580.248 101.911 582.922 101.861 588.36 101.261C602.4 99.7131 605.827 88.8866 603.545 76.403C603.403 76.2268 603.096 75.7957 602.93 75.6984C593.79 77.9442 577.804 80.4115 572.067 88.3186C569.381 92.0209 571.974 96.7865 575.268 99.3014Z" fill="#1A3A2E"/>
<path d="M247.392 7.97517C254.52 7.88527 261.781 7.94318 268.921 7.9286L268.919 33.2259L282.718 33.1907L282.722 48.4288C278.122 48.413 273.521 48.4248 268.92 48.4641L268.906 78.307C268.905 83.3476 268.673 90.8419 269.202 95.6382C273.437 101.482 278.345 100.508 284.891 100.228L284.904 113.265C284.942 114.386 284.94 114.655 284.715 115.751C283.623 116.284 282.036 116.162 280.818 116.216C246.562 117.726 247.353 108.806 247.362 79.8526L247.394 48.4244L236.916 48.4215C236.796 43.2761 236.896 37.7121 236.897 32.5347L247.39 32.5302L247.392 7.97517Z" fill="#1A3A2E"/>
<path d="M807.693 6.93304L828.289 6.93345C828.763 42.6522 828.31 79.542 828.293 115.375L807.697 115.386L807.693 6.93304Z" fill="#1A3A2E"/>
<path d="M667.379 32.8069C670.58 32.5884 672.096 32.6799 675.297 32.9407C675.48 39.3184 675.338 46.2712 675.326 52.6912C657.563 48.8895 650.873 61.1011 651.015 76.6715C651.051 80.605 651.014 84.663 651.027 88.6066L651.01 115.386L629.739 115.372C629.111 114.466 629.354 43.1273 629.35 35.3333C636.247 35.1652 643.675 35.2942 650.617 35.2861L650.605 43.3506C654.913 38.156 660.631 34.0411 667.379 32.8069Z" fill="#1A3A2E"/>
<path d="M156.47 32.3601C159.71 32.0508 161.764 32.2012 164.977 32.4948L165.007 52.1464C139.102 49.3786 140.707 68.2088 140.729 87.0438L140.749 115.386H120.934C119.964 115.358 120.387 115.509 119.621 114.921C119.292 113.232 119.465 95.478 119.466 92.7099L119.48 35.0681L140.03 35.0661L140.039 42.9205C144.412 37.5588 149.851 34.2277 156.47 32.3601Z" fill="#1A3A2E"/>
<path d="M717.854 32.8694C720.174 32.4894 723.58 32.7679 725.916 33.0515L725.932 52.7459C719.456 51.3436 712.414 51.5088 707.527 56.5718C699.844 64.5314 701.273 77.7564 701.277 87.9357L701.285 115.386L681.153 115.38L680.588 115.184C680.188 113.384 680.402 96.4768 680.402 93.2929L680.378 35.3626C686.923 35.1753 694.179 35.3272 700.78 35.326L700.784 43.4162C705.352 38.1367 710.82 34.0473 717.854 32.8694Z" fill="#1A3A2E"/>
</svg>
