<?xml version="1.0" encoding="UTF-8" standalone="no"?>
<!DOCTYPE svg PUBLIC "-//W3C//DTD SVG 1.1//EN" "http://www.w3.org/Graphics/SVG/1.1/DTD/svg11.dtd">
<svg width="100%" height="100%" viewBox="0 0 972 694" version="1.1" xmlns="http://www.w3.org/2000/svg" xmlns:xlink="http://www.w3.org/1999/xlink" xml:space="preserve" xmlns:serif="http://www.serif.com/" style="fill-rule:evenodd;clip-rule:evenodd;stroke-linejoin:round;stroke-miterlimit:2;">
    <g transform="matrix(1.420813,0,0,1.420813,-1203.923559,-345.785159)">
        <g>
            <g>
                <g transform="matrix(1,0,0,1,849,294)">
                    <path d="M2.444,109.972C2.308,104.477 2.596,84.913 2.426,49.753C2.325,29.059 2.105,11.445 2.077,-9.488C2.076,-10.046 2.021,-12.858 3.178,-13.236C4.383,-13.631 6.937,-11.825 9.975,-10.661C59.456,8.298 138.969,16.779 230.44,1.526C346.659,-17.854 439.367,-36.367 457.474,-39.983C519.242,-52.318 581.509,-54.546 672.718,-26.051C675.096,-25.308 677.318,-24.595 677.49,-24.382C678.787,-22.78 676.663,62.315 677.492,87.324C677.497,87.485 677.475,87.472 677.285,89.337C574.025,63.831 517.223,73.583 445.932,82C410.277,86.209 372.169,94.946 335.052,103.289C288.313,113.792 259.426,120.329 198.61,126.48C163.98,129.983 74.418,138.014 4.434,110.777C4.274,110.715 3.087,110.253 2.444,109.972Z" style="fill:rgb(254,254,254);"/>
                </g>
                <g transform="matrix(1,0,0,1,849,294)">
                    <path d="M2.444,109.972C15.112,115.511 34.04,120.044 36.844,120.715C100.927,136.063 171.619,130.499 239.125,121.779C270.085,117.78 302.998,110.492 335.052,103.289C406.636,87.198 419.723,85.09 454.104,81.111C470.189,79.249 513.644,72.457 558.829,72.99C593.859,73.403 631.128,77.936 677.285,89.337C677.935,103.196 678.165,163.24 677.579,179.912C651.536,173.026 594.623,154.251 508.742,161.21C481.286,163.435 474.269,165.493 450.573,167.522C395.196,172.262 298.53,203.485 227.742,212.29C207.501,214.807 104.053,235.428 4.743,199.808C4.515,199.726 2.113,198.865 1.91,198.758C1.68,161.149 2.157,137.044 2.444,109.972Z" style="fill:rgb(20,59,39);"/>
                </g>
                <g transform="matrix(1,0,0,1,849,294)">
                    <path d="M2.074,245.102C6.064,245.547 54.014,265.754 124.015,268.078C165.522,269.456 199.592,264.656 235.262,258.746C308.293,246.647 409.36,213.706 454.1,211.157C474.992,209.967 560.011,188.729 672.803,226.478C673.168,226.6 676.099,227.581 677.349,228.057C677.604,231.064 678.426,312.254 677.685,319.271C660.199,313.524 636.808,308.237 633.217,307.426C534.435,285.098 476.297,298.857 451.591,301.989C389.054,309.917 264.513,348.925 181.727,356.345C82.781,365.212 21.774,339.543 2.43,332.029C2.189,279.76 1.965,253.091 2.074,245.102Z" style="fill:rgb(20,59,39);"/>
                </g>
                <g transform="matrix(1,0,0,1,849,294)">
                    <path d="M2.43,332.029C27.683,341.838 101.753,372.184 224.724,350.605C305.202,336.483 401.367,308.015 454.708,301.615C473.109,299.407 549.818,280.297 676.5,318.903C676.896,319.023 677.292,319.141 677.685,319.271C677.929,333.287 678.186,355.313 678.146,373.851C678.098,396.1 677.547,405.824 676.466,406.129C674.51,406.682 555.249,372.715 466.046,388.569C455.048,390.524 455.1,390.711 444.077,392.448C213.827,428.739 213.995,432.774 166.509,435.769C80.823,441.173 29.918,420.272 6.106,409.024C3.569,407.825 2.307,407.438 2.286,404.612C2.087,378.437 1.986,339.55 2.43,332.029Z" style="fill:white;"/>
                </g>
                <g transform="matrix(1,0,0,1,849,294)">
                    <path d="M1.91,198.758C1.946,198.777 16.08,204.234 36.186,209.242C122.549,230.751 202.304,215.631 230.421,211.948C303.677,202.35 396.727,171.401 454.694,167.213C468.898,166.187 508.088,158.761 554.78,159.737C617.354,161.046 664.966,176.577 677.579,179.912C677.916,220.96 677.656,224.218 677.349,228.057C676.231,227.632 656.694,220.657 631.309,214.839C540.085,193.932 477.739,209.647 452.464,211.247C407.969,214.065 298.427,249.54 227.155,260.016C211.887,262.26 160.053,272.533 97.679,266.345C43.594,260.979 4.66,245.391 2.074,245.102C1.709,238.234 1.616,204.277 1.91,198.758Z" style="fill:rgb(254,254,254);"/>
                </g>
                <g transform="matrix(2.322861,0,0,2.322861,-1208.010664,-444.509585)">
                    <path d="M1094.171,341.862L1095.384,341.722C1104.487,329.729 1121.023,322.071 1123.119,313.083C1123.97,309.401 1122.075,307.692 1119.739,307.668C1114.396,307.612 1110.438,313.718 1108.734,316.691L1108.477,316.705C1110.771,308.934 1107.859,306.592 1104.695,306.839C1101.297,307.104 1097.395,309.507 1096.365,317.435C1095.468,324.381 1097.036,333.812 1094.171,341.862Z" style="fill:rgb(20,59,39);"/>
                </g>
                <g transform="matrix(2.322861,0,0,2.322861,-1377.070668,-444.922264)">
                    <path d="M1093.82,353.442L1095.124,353.2C1103.771,340.535 1122.072,331.023 1123.806,321.801C1124.449,318.335 1122.338,317.115 1119.599,317.62C1113.441,318.754 1109.458,325.17 1107.995,327.761L1107.709,327.812C1109.605,320.544 1106.235,318.837 1102.727,319.476C1098.727,320.205 1095.011,322.981 1094.542,329.843C1094.117,336.151 1096.539,344.558 1093.82,353.442Z" style="fill:rgb(20,59,39);"/>
                </g>
                <g transform="matrix(2.322861,0,0,2.322861,-1546.070668,-444.125692)">
                    <path d="M1092.538,361.963L1093.86,361.935C1102.585,350.487 1121.128,342.694 1122.619,334.001C1123.136,330.938 1121.183,329.621 1118.493,329.926C1112.902,330.561 1109.053,335.654 1107.307,338.371L1107.028,338.39C1108.871,332.086 1105.897,329.911 1102.317,330.09C1098.235,330.294 1094.705,332.563 1094.067,338.664C1093.466,344.453 1095.626,352.97 1092.538,361.963Z" style="fill:rgb(20,59,39);"/>
                </g>
            </g>
        </g>
    </g>
    <g transform="matrix(0.939383,0,0,0.939383,-471.464172,-101.580616)">
        <g style="filter:url(#_Effect1);">
            <g>
                <g transform="matrix(1.064529,0,0,1.064529,-471.518027,-44.517946)">
                </g>
            </g>
        </g>
    </g>
    <defs>
        <filter id="_Effect1" filterUnits="userSpaceOnUse" x="489.113" y="95.361" width="1059.419" height="764.332">
            <feGaussianBlur in="SourceGraphic" stdDeviation="2.129"/>
        </filter>
    </defs>
</svg>
