<?xml version="1.0" encoding="UTF-8" standalone="no"?>
<!DOCTYPE svg PUBLIC "-//W3C//DTD SVG 1.1//EN" "http://www.w3.org/Graphics/SVG/1.1/DTD/svg11.dtd">
<svg width="100%" height="100%" viewBox="0 0 2481 3508" version="1.1" xmlns="http://www.w3.org/2000/svg" xmlns:xlink="http://www.w3.org/1999/xlink" xml:space="preserve" xmlns:serif="http://www.serif.com/" style="fill-rule:evenodd;clip-rule:evenodd;stroke-linejoin:round;stroke-miterlimit:2;">
    <g transform="matrix(3.670142,0,0,48.848801,-8.031551,-6486.974158)">
        <path d="M2.276,123.582C4.795,123.654 4.792,123.646 334.5,123.646C448.95,123.641 563.401,123.635 677.851,123.629C678.038,129.955 678.053,195.715 677.854,204.373C671.7,204.675 4.089,204.677 2.3,204.428C2.079,171.035 2.25,130.05 2.276,123.582Z" style="fill:rgb(20,59,39);"/>
    </g>
    <g transform="matrix(1.23922,0,0,1.23922,-744.960651,1308.322915)">
        <path d="M1008.175,359.592C1156.81,359.592 1274.48,235.042 1418.298,88.471L1484.358,21.034L1566.245,21.034L1550.418,45.119C1494.68,129.758 1480.23,173.11 1480.23,208.893C1480.23,228.848 1488.487,261.878 1522.205,261.878C1558.889,261.878 1574.463,266.658 1625.873,230.624C1635.119,224.143 1620.654,228.644 1627.746,218.271L1635.978,234.425C1634.602,232.361 1640.726,216.207 1637.973,218.271L1619.25,205.275C1609.34,251.731 1561.428,255.685 1522.893,255.685C1508.443,255.685 1498.809,249.492 1498.809,233.665C1498.809,210.269 1513.26,192.378 1563.493,111.179L1787.134,-243.206L1776.812,-243.206C1768.554,-233.572 1752.039,-227.379 1728.643,-227.379L1717.633,-227.379L1480.918,14.153L1392.149,14.153L1385.956,21.034L1474.036,21.034L1413.481,82.966C1272.415,227.472 1157.498,351.335 1007.487,351.335C984.091,351.335 955.878,345.83 935.234,336.196L936.61,346.518C958.63,356.152 982.714,359.592 1008.175,359.592ZM1491.24,14.153L1719.009,-219.122L1724.514,-219.122L1571.062,14.153L1491.24,14.153Z" style="fill:rgb(241,237,234);fill-rule:nonzero;"/>
    </g>
    <g transform="matrix(1.23922,0,0,1.23922,-290.649061,1598.850147)">
        <path d="M1008.175,359.592C1156.81,359.592 1274.48,235.042 1418.298,88.471L1484.358,21.034L1566.245,21.034L1550.418,45.119C1494.68,129.758 1480.23,173.11 1480.23,208.893C1480.23,228.848 1488.487,261.878 1522.205,261.878C1565.557,261.878 1598.587,217.838 1644.692,150.402L1657.766,131.134C1656.39,129.07 1653.637,129.07 1650.885,131.134L1637.81,150.402C1592.394,217.838 1561.428,255.685 1522.893,255.685C1508.443,255.685 1498.809,249.492 1498.809,233.665C1498.809,210.269 1513.26,192.378 1563.493,111.179L1787.134,-243.206L1776.812,-243.206C1768.554,-233.572 1752.039,-227.379 1728.643,-227.379L1717.633,-227.379L1480.918,14.153C1480.918,14.153 1375.698,16.369 1342.118,39.976C1329.696,48.708 1323.343,72.376 1328.662,58.154C1338.948,30.654 1474.036,21.034 1474.036,21.034L1413.481,82.966C1272.415,227.472 1157.498,351.335 1007.487,351.335C984.091,351.335 955.878,345.83 935.234,336.196L936.61,346.518C958.63,356.152 982.714,359.592 1008.175,359.592ZM1491.24,14.153L1719.009,-219.122L1724.514,-219.122L1571.062,14.153L1491.24,14.153Z" style="fill:rgb(241,237,234);fill-rule:nonzero;"/>
    </g>
    <g transform="matrix(1,0,0,1,-76.250714,1474.167316)">
        <path d="M1324.713,279.77L1337.787,279.77C1429.308,171.734 1604.78,96.04 1619.231,-1.674C1624.736,-39.521 1603.404,-56.724 1577.255,-56.724C1553.859,-56.724 1509.819,-47.778 1466.467,33.421L1463.715,33.421C1480.918,-40.897 1452.705,-70.486 1416.234,-70.486C1374.258,-70.486 1341.916,-42.961 1336.411,29.98C1330.906,103.609 1353.614,200.635 1324.713,279.77Z" style="fill:rgb(241,237,234);fill-rule:nonzero;"/>
    </g>
</svg>
