<?xml version="1.0" encoding="UTF-8" standalone="no"?>
<!DOCTYPE svg PUBLIC "-//W3C//DTD SVG 1.1//EN" "http://www.w3.org/Graphics/SVG/1.1/DTD/svg11.dtd">
<svg width="100%" height="100%" viewBox="0 0 2800 981" version="1.1" xmlns="http://www.w3.org/2000/svg" xmlns:xlink="http://www.w3.org/1999/xlink" xml:space="preserve" xmlns:serif="http://www.serif.com/" style="fill-rule:evenodd;clip-rule:evenodd;stroke-linejoin:round;stroke-miterlimit:2;">
    <g>
        <g transform="matrix(1.929851,0,0,1.929851,-131.707608,-1662.162535)">
            <g transform="matrix(0.723856,0,0,0.723856,151.75956,829.362084)">
                <path d="M103.859,334.664C170.171,334.664 222.668,279.097 286.83,213.707L316.302,183.621L352.835,183.621L345.774,194.366C320.907,232.126 314.46,251.467 314.46,267.431C314.46,276.334 318.144,291.07 333.187,291.07C352.528,291.07 367.264,271.422 387.833,241.336L393.666,232.74C393.052,231.819 391.824,231.819 390.596,232.74L384.763,241.336C364.501,271.422 350.686,288.307 333.494,288.307C327.047,288.307 322.749,285.544 322.749,278.483C322.749,268.045 329.196,260.063 351.607,223.837L451.381,65.734L446.776,65.734C443.092,70.031 435.724,72.794 425.286,72.794L420.374,72.794L314.767,180.551L275.164,180.551L272.401,183.621L311.697,183.621L284.681,211.251C221.747,275.72 170.478,330.98 103.552,330.98C93.115,330.98 80.528,328.524 71.318,324.226L71.932,328.831C81.756,333.129 92.501,334.664 103.859,334.664ZM319.372,180.551L420.988,76.478L423.444,76.478L354.984,180.551L319.372,180.551Z" style="fill:rgb(241,237,234);fill-rule:nonzero;"/>
                <path d="M459.056,290.149C475.634,290.149 490.37,271.422 505.72,248.704L516.465,232.74C515.851,232.126 514.623,232.126 513.395,232.74L504.645,249.165C488.988,272.497 473.485,287.693 459.056,287.693C452.302,287.693 448.925,284.009 448.925,278.176C448.925,268.045 452.149,251.314 467.192,227.061L482.081,182.393C476.862,181.165 472.871,180.858 467.345,180.858C438.487,180.858 411.778,197.436 395.508,222.916C387.833,234.889 382,249.625 382,263.747C382,278.176 388.14,291.377 399.191,291.377C411.164,291.377 424.979,276.641 445.241,246.248L449.386,246.248C447.237,253.002 447.237,258.375 447.237,264.822C447.237,279.865 447.697,290.149 459.056,290.149ZM391.824,279.097C391.824,266.51 401.34,245.941 414.848,225.986C432.654,199.278 447.083,183.314 467.345,183.314C472.564,183.314 476.555,184.235 479.625,186.077L464.582,210.023L441.557,246.248C422.83,275.106 409.322,288.614 399.805,288.614C394.894,288.614 391.824,284.93 391.824,279.097Z" style="fill:rgb(241,237,234);fill-rule:nonzero;"/>
                <path d="M518,290.149C533.657,290.149 546.55,270.194 560.058,249.318L570.803,232.74C570.189,232.126 568.961,232.126 567.733,232.74L557.602,248.397C543.174,270.808 532.122,287.693 518,287.693C512.167,287.693 508.79,284.623 508.79,279.404C508.79,272.65 511.86,267.124 538.569,225.372L563.128,186.691L562.514,183.621L528.131,183.621C526.903,184.542 526.596,185.463 526.596,186.384L539.49,186.384L540.104,188.226L524.447,213.093C511.553,233.661 503.264,248.704 503.264,268.352C503.264,277.562 505.413,290.149 518,290.149ZM570.496,130.817L588.916,130.817L603.959,108.406L585.539,108.406L570.496,130.817Z" style="fill:rgb(241,237,234);fill-rule:nonzero;"/>
                <path d="M652.772,291.07C669.657,291.07 685.007,268.352 700.663,245.02L708.952,232.74C708.338,231.819 707.11,231.819 705.882,232.74L697.593,245.02C680.402,270.501 667.815,288.614 653.079,288.614C647.86,288.614 644.79,285.851 644.79,280.939C644.79,275.106 649.395,267.431 662.596,249.932L672.113,237.345C684.393,221.074 687.77,211.865 687.77,200.199C687.77,188.533 684.393,180.858 675.183,180.858C661.061,180.858 642.334,197.436 621.458,224.758L620.23,224.758L620.537,199.278C620.537,187.919 616.546,183.621 608.871,183.621L600.275,183.621L567.733,232.74C568.347,233.968 569.575,233.968 570.803,232.74L601.503,186.384L608.257,186.384C613.169,186.384 616.853,189.454 616.853,194.98C616.853,200.506 612.248,207.567 605.801,217.697L561.286,288L583.39,288L608.871,247.783L610.406,245.327C636.194,207.26 658.912,184.235 674.262,184.235C678.867,184.235 680.402,186.384 680.402,189.761C680.402,194.98 676.104,202.348 666.894,214.321L656.763,227.521C643.869,244.406 638.036,257.607 638.036,270.501C638.036,280.018 641.106,291.07 652.772,291.07Z" style="fill:rgb(241,237,234);fill-rule:nonzero;"/>
                <path d="M770.966,291.07C783.86,291.07 797.061,277.869 818.244,244.406L825.612,232.74C824.691,232.126 823.463,232.126 822.542,232.74L815.174,244.406C793.991,277.869 782.325,288.307 770.659,288.307C764.826,288.307 762.37,285.237 762.37,280.939C762.37,276.334 765.44,268.966 781.711,243.792L820.086,183.621L804.736,183.621C795.833,181.165 790.921,180.551 783.246,180.551C754.388,180.551 727.679,197.129 711.408,222.609C703.733,234.582 697.9,249.318 697.9,263.44C697.9,277.869 704.04,291.07 715.092,291.07C726.451,291.07 739.652,277.562 758.686,249.318L760.221,249.318C758.379,256.072 756.844,263.747 756.844,271.422C756.844,287.079 763.905,291.07 770.966,291.07ZM707.724,278.79C707.724,266.203 717.241,245.634 730.749,225.679C748.555,198.971 762.984,183.007 783.246,183.007C789.386,183.007 793.684,184.235 796.754,186.384L773.115,221.995L758.993,243.792C739.345,274.185 725.53,288.307 715.706,288.307C710.794,288.307 707.724,284.623 707.724,278.79Z" style="fill:rgb(241,237,234);fill-rule:nonzero;"/>
                <path d="M910.036,301.508C960.691,301.508 1004.898,250.239 1050.027,183.314C1072.745,149.544 1095.156,113.625 1124.935,92.135L1125.856,92.135C1101.296,115.16 1089.937,144.018 1084.718,179.323L1083.49,187.612C1076.122,237.652 1074.587,263.44 1052.79,287.693L1055.86,290.149C1144.582,205.111 1190.018,47.928 1288.257,47.928C1298.081,47.928 1306.063,49.463 1313.431,51.919L1314.659,48.235C1306.984,45.779 1298.388,44.244 1288.564,44.244C1260.014,44.244 1235.761,56.831 1213.964,77.092L1107.436,77.092C1055.86,77.092 996.609,93.67 979.418,169.806C913.106,178.095 865.828,212.479 865.828,259.142C865.828,287.386 883.327,301.508 910.036,301.508ZM868.898,258.835C868.898,207.26 929.684,171.034 1011.038,171.034L1054.325,171.034L1046.036,183.314C990.469,265.896 951.174,298.131 910.036,298.131C884.555,298.131 868.898,285.544 868.898,258.835ZM983.102,169.499C999.372,95.512 1057.088,80.162 1107.436,80.162L1139.363,80.162C1104.673,95.819 1080.113,132.352 1056.474,167.964L1011.038,167.964C1001.521,167.964 992.311,168.578 983.102,169.499ZM1072.131,267.738C1092.7,239.187 1104.366,210.33 1109.278,170.42L1110.506,160.289C1114.804,125.905 1121.251,98.889 1145.196,80.162L1210.587,80.162C1162.695,126.519 1124.628,207.874 1072.745,267.738L1072.131,267.738Z" style="fill:rgb(241,237,234);fill-rule:nonzero;"/>
                <path d="M1151.336,290.456C1168.528,290.456 1187.562,275.413 1214.578,232.74C1214.578,231.512 1212.736,231.512 1211.508,232.74C1185.72,273.264 1167.914,287.386 1152.257,287.386C1143.354,287.386 1140.284,282.167 1140.284,274.185C1140.284,261.598 1147.652,245.02 1155.327,231.205C1169.142,227.214 1185.413,219.846 1195.851,210.637C1203.219,203.883 1208.131,196.822 1208.131,190.375C1208.131,185.463 1205.368,180.858 1197.386,180.858C1181.115,180.858 1154.713,196.515 1139.977,220.46C1131.996,233.354 1128.312,246.862 1128.312,259.449C1128.312,276.027 1136.6,290.456 1151.336,290.456ZM1156.555,228.442L1158.704,225.065C1173.747,199.278 1188.79,183.314 1199.228,183.314C1203.526,183.314 1205.368,185.77 1205.368,189.454C1205.368,194.98 1200.763,201.734 1193.702,208.181C1184.185,216.776 1169.449,224.144 1156.555,228.442Z" style="fill:rgb(241,237,234);fill-rule:nonzero;"/>
                <path d="M1222.253,290.149C1240.366,290.149 1258.172,271.729 1274.443,246.555L1283.345,232.74C1282.731,231.819 1281.503,231.819 1280.275,232.74L1271.373,246.555C1253.874,273.878 1238.217,287.693 1221.946,287.693C1212.429,287.693 1209.666,283.088 1209.666,275.72C1209.666,264.975 1214.885,253.309 1232.998,228.442C1275.978,181.472 1341.061,108.713 1341.061,79.548C1341.061,72.794 1337.684,70.031 1333.079,70.031C1315.58,70.031 1285.801,110.555 1258.172,153.842C1242.515,178.402 1227.779,203.269 1221.946,213.4C1210.587,233.047 1202.912,248.397 1202.912,264.975C1202.912,279.711 1208.745,290.149 1222.253,290.149ZM1230.235,226.6L1272.908,157.833C1309.747,98.889 1326.018,72.487 1334.614,72.487C1337.07,72.487 1338.605,74.943 1338.605,79.548C1338.605,107.792 1276.592,177.481 1231.156,226.907L1230.235,226.6Z" style="fill:rgb(241,237,234);fill-rule:nonzero;"/>
                <path d="M1291.327,290.149C1310.054,290.149 1329.702,277.255 1328.781,235.503L1327.246,205.725C1326.325,191.603 1330.009,185.156 1337.684,185.156C1343.824,185.156 1348.736,189.454 1353.341,192.831L1359.481,181.779C1355.49,180.551 1350.578,180.244 1347.815,180.244C1335.842,180.244 1328.474,186.384 1323.869,193.138C1315.887,204.804 1314.966,221.074 1313.124,235.503C1310.054,260.063 1303.3,285.851 1284.88,285.851C1273.522,285.851 1267.689,276.334 1267.689,265.282C1267.689,260.677 1268.61,255.765 1270.759,251.467C1275.978,245.941 1281.81,240.722 1290.406,234.275L1291.634,231.819L1278.434,231.819C1271.68,241.95 1264.926,253.002 1264.926,265.282C1264.926,280.939 1275.364,290.149 1291.327,290.149Z" style="fill:rgb(241,237,234);fill-rule:nonzero;"/>
                <path d="M1369.305,290.149C1385.883,290.149 1407.066,268.659 1420.267,246.555C1429.783,230.591 1435.309,214.014 1435.309,200.813C1435.309,194.673 1434.081,189.761 1431.625,186.384L1464.167,186.384C1465.702,185.463 1465.395,184.542 1465.088,183.621L1429.169,183.621L1428.248,183.314C1425.793,181.779 1422.416,180.858 1418.425,180.858L1417.811,180.858C1385.883,180.858 1349.35,218.004 1349.35,261.291C1349.35,273.264 1354.876,290.149 1369.305,290.149ZM1369.305,287.386C1361.937,287.386 1359.481,282.781 1359.481,275.413C1359.481,262.212 1368.077,242.257 1379.129,224.451C1389.874,207.567 1402.768,192.524 1412.899,186.384L1427.941,186.384C1430.397,188.84 1431.625,192.831 1431.625,198.05C1431.625,210.33 1424.565,226.907 1415.048,243.485C1402.154,265.896 1384.348,287.386 1369.305,287.386Z" style="fill:rgb(241,237,234);fill-rule:nonzero;"/>
                <path d="M1513.901,291.07C1530.786,291.07 1546.136,268.352 1561.793,245.02L1562.407,244.406C1556.267,264.668 1581.133,288 1622.578,288C1693.495,288 1730.948,219.232 1675.996,198.357L1669.549,203.576C1722.659,222.609 1686.741,284.623 1619.815,284.623C1575.914,284.623 1556.267,258.835 1565.17,240.108L1570.082,232.74C1569.468,231.819 1568.24,231.819 1567.012,232.74L1558.723,245.02C1541.531,270.501 1528.944,288.614 1514.208,288.614C1508.989,288.614 1505.919,285.851 1505.919,280.939C1505.919,275.106 1510.524,267.431 1523.725,249.932L1533.242,237.345C1545.522,221.074 1548.899,211.865 1548.899,200.199C1548.899,188.533 1545.522,180.858 1536.312,180.858C1522.497,180.858 1504.691,196.208 1484.736,221.995L1482.587,221.995L1482.587,199.278C1482.587,187.919 1478.289,183.621 1468.772,183.621L1456.492,183.621C1455.878,184.235 1455.264,185.156 1454.957,186.384L1467.544,186.384C1475.526,186.384 1477.675,189.147 1477.675,194.366C1477.675,199.892 1473.684,207.26 1466.93,217.697L1422.416,288L1443.905,288L1470,247.783L1471.535,245.327C1497.323,207.26 1520.041,184.235 1535.391,184.235C1539.996,184.235 1541.531,186.384 1541.531,189.761C1541.531,194.98 1537.233,202.348 1528.023,214.321L1517.892,227.521C1504.998,244.406 1499.165,257.607 1499.165,270.501C1499.165,280.018 1502.235,291.07 1513.901,291.07Z" style="fill:rgb(241,237,234);fill-rule:nonzero;"/>
            </g>
            <g transform="matrix(1,0,0,1,107.721747,-1634.937266)">
                <g transform="matrix(0.723856,0,0,0.723856,-549.406631,2464.188239)">
                    <path d="M1281.503,290.149C1281.657,290.149 1285.034,287.693 1282.578,287.693C1273.061,287.693 1270.298,283.088 1270.298,275.72C1270.298,264.975 1275.517,253.309 1293.63,228.442C1336.61,181.472 1401.693,108.713 1401.693,79.548C1401.693,72.794 1398.316,70.031 1393.711,70.031C1376.212,70.031 1346.434,110.555 1318.804,153.842C1303.147,178.402 1288.411,203.269 1282.578,213.4C1271.219,233.047 1263.544,248.397 1263.544,264.975C1263.544,279.711 1267.996,290.149 1281.503,290.149ZM1290.867,226.6L1333.54,157.833C1370.379,98.889 1386.65,72.487 1395.246,72.487C1397.702,72.487 1399.237,74.943 1399.237,79.548C1399.237,107.792 1337.224,177.481 1291.788,226.907L1290.867,226.6Z" style="fill:rgb(241,237,234);fill-rule:nonzero;"/>
                </g>
                <g transform="matrix(0.723856,0,0,0.723856,64.371146,2464.29935)">
                    <path d="M431.273,290.149C447.851,290.149 462.587,271.422 477.936,248.704L488.681,232.74C488.067,232.126 486.839,232.126 485.611,232.74L475.48,247.783C459.824,271.115 445.702,287.693 431.273,287.693C424.519,287.693 420.988,282.628 420.988,276.795C420.988,266.664 422.83,260.984 430.966,240.876L454.298,182.393C449.079,181.165 444.781,180.858 439.255,180.858C410.397,180.858 383.688,197.436 367.417,222.916C359.742,234.889 353.909,249.625 353.909,263.747C353.909,278.176 360.049,291.377 371.101,291.377C382.767,291.377 396.275,277.255 415.923,248.09L417.765,248.09C415.923,254.23 415.309,260.37 415.309,266.203C415.309,281.246 419.914,290.149 431.273,290.149ZM363.733,279.097C363.733,266.51 373.25,245.941 386.758,225.986C404.564,199.278 418.993,183.314 439.255,183.314C444.781,183.314 448.772,184.235 451.842,186.077L436.799,210.023L415.309,243.485C395.354,274.492 381.539,288.614 371.715,288.614C366.803,288.614 363.733,284.93 363.733,279.097Z" style="fill:rgb(241,237,234);"/>
                </g>
            </g>
        </g>
        <g transform="matrix(1.929851,0,0,1.929851,-132.206108,-1859.580446)">
            <g transform="matrix(0.723856,0,0,0.723856,140.437662,1229.56476)">
                <path d="M-66.831,334.664C-0.52,334.664 51.977,279.097 116.139,213.707L145.611,183.621L182.144,183.621L175.083,194.366C150.216,232.126 143.769,251.467 143.769,267.431C143.769,276.334 147.453,291.07 162.496,291.07C181.837,291.07 196.573,271.422 217.142,241.336L222.975,232.74C222.361,231.819 221.133,231.819 219.905,232.74L214.072,241.336C193.81,271.422 179.995,288.307 162.803,288.307C156.356,288.307 152.058,285.544 152.058,278.483C152.058,268.045 158.505,260.063 180.916,223.837L280.69,65.734L276.085,65.734C272.401,70.031 265.033,72.794 254.595,72.794L249.684,72.794L144.076,180.551L104.473,180.551L101.711,183.621L141.006,183.621L113.99,211.251C51.056,275.72 -0.213,330.98 -67.138,330.98C-77.576,330.98 -90.163,328.524 -99.373,324.226L-98.759,328.831C-88.935,333.129 -78.19,334.664 -66.831,334.664ZM148.681,180.551L250.297,76.478L252.753,76.478L184.293,180.551L148.681,180.551Z" style="fill:rgb(241,237,234);fill-rule:nonzero;"/>
                <path d="M304.943,291.07C321.828,291.07 337.178,268.352 352.835,245.02L361.124,232.74C360.51,231.819 359.282,231.819 358.054,232.74L349.765,245.02C332.573,270.501 319.986,288.614 305.25,288.614C300.031,288.614 296.961,285.851 296.961,280.939C296.961,275.106 301.566,267.431 314.767,249.932L324.284,237.345C336.564,221.074 339.941,211.865 339.941,200.199C339.941,188.533 336.564,180.858 327.354,180.858C313.232,180.858 294.505,197.436 273.629,224.758L272.401,224.758L272.708,199.278C272.708,187.919 268.717,183.621 261.042,183.621L252.446,183.621L219.905,232.74C220.519,233.968 221.747,233.968 222.975,232.74L253.674,186.384L260.428,186.384C265.34,186.384 269.024,189.454 269.024,194.98C269.024,200.506 264.419,207.567 257.972,217.697L213.458,288L235.562,288L261.042,247.783L262.577,245.327C288.365,207.26 311.083,184.235 326.433,184.235C331.038,184.235 332.573,186.384 332.573,189.761C332.573,194.98 328.275,202.348 319.065,214.321L308.934,227.521C296.04,244.406 290.207,257.607 290.207,270.501C290.207,280.018 293.277,291.07 304.943,291.07Z" style="fill:rgb(241,237,234);fill-rule:nonzero;"/>
                <path d="M427.128,290.149C443.706,290.149 458.442,271.422 473.792,248.704L484.537,232.74C483.923,232.126 482.695,232.126 481.467,232.74L471.336,247.783C455.679,271.115 440.176,289.074 425.747,289.074C418.993,289.074 414.081,279.865 414.081,274.032C414.081,263.901 450.153,182.393 450.153,182.393C444.934,181.165 440.636,180.858 435.11,180.858C406.252,180.858 379.544,197.436 363.273,222.916C355.598,234.889 349.765,249.625 349.765,263.747C349.765,278.176 355.905,291.377 366.957,291.377C378.623,291.377 392.131,277.255 411.778,248.09L413.62,248.09C411.778,254.23 411.164,260.37 411.164,266.203C411.164,281.246 415.769,290.149 427.128,290.149ZM356.826,279.097C356.826,266.51 369.106,245.941 382.614,225.986C400.419,199.278 414.848,183.314 435.11,183.314C440.636,183.314 444.627,184.235 447.697,186.077L432.654,210.023L411.164,243.485C391.21,274.492 377.395,289.995 367.571,289.995C362.659,289.995 356.826,284.93 356.826,279.097Z" style="fill:rgb(241,237,234);fill-rule:nonzero;"/>
                <path d="M507.562,290.149C524.447,290.149 540.104,269.58 558.523,244.099L566.812,232.74C566.198,232.126 564.97,232.126 563.742,232.74L555.453,244.099C536.42,270.194 522.912,287.693 507.869,287.693C501.422,287.693 498.352,284.93 498.659,279.404C498.966,273.571 502.036,269.273 521.07,245.941L529.052,236.117C539.797,222.916 547.471,209.409 547.471,197.129C547.471,188.84 544.094,183.621 537.648,183.621L519.228,183.621L529.973,168.578L509.404,168.578L513.088,185.156L481.467,232.74C481.16,233.661 483.002,233.968 484.537,232.74L515.544,186.077L537.341,186.077C540.718,186.077 541.639,187.612 541.639,189.454C541.639,194.98 530.587,207.26 519.842,220.153L514.316,226.907C499.58,245.02 493.747,257.607 493.133,269.273C492.519,280.325 495.896,290.149 507.562,290.149Z" style="fill:rgb(241,237,234);fill-rule:nonzero;"/>
                <path d="M581.241,290.456C598.433,290.456 617.467,275.413 644.483,232.74C644.483,231.512 642.641,231.512 641.413,232.74C615.625,273.264 597.819,287.386 582.162,287.386C573.259,287.386 570.189,282.167 570.189,274.185C570.189,261.598 577.557,245.02 585.232,231.205C599.047,227.214 615.318,219.846 625.756,210.637C633.124,203.883 638.036,196.822 638.036,190.375C638.036,185.463 635.273,180.858 627.291,180.858C611.02,180.858 584.618,196.515 569.882,220.46C561.9,233.354 558.216,246.862 558.216,259.449C558.216,276.027 566.505,290.456 581.241,290.456ZM586.46,228.442L588.609,225.065C603.652,199.278 618.695,183.314 629.133,183.314C633.431,183.314 635.273,185.77 635.273,189.454C635.273,194.98 630.668,201.734 623.607,208.181C614.09,216.776 599.354,224.144 586.46,228.442Z" style="fill:rgb(241,237,234);fill-rule:nonzero;"/>
                <path d="M641.413,232.74C642.027,233.354 643.255,233.354 644.483,232.74L676.411,186.384L691.146,186.384C693.602,186.384 694.523,186.998 694.523,188.84C694.523,192.217 690.226,197.129 680.402,212.172L673.341,222.916C660.754,242.257 656.763,255.765 656.763,268.352C656.763,283.088 661.675,290.149 669.657,290.149C680.709,290.149 694.216,275.106 708.952,253.616L710.794,253.616C709.873,260.063 709.566,263.44 709.566,268.966C709.566,282.474 712.943,290.149 720.925,290.149C734.74,290.149 755.616,271.422 772.194,248.09C783.86,231.512 794.298,210.637 794.298,193.445C794.298,190.068 793.991,188.226 793.684,186.384L813.332,186.384C814.56,185.463 814.867,184.849 814.867,183.621L770.966,183.621L769.431,186.384L770.045,186.384C782.018,186.384 785.088,196.822 785.088,206.032C785.088,217.697 780.176,231.819 769.431,247.169C755.616,266.817 734.74,287.693 721.539,287.693C716.934,287.693 714.785,284.623 714.785,279.097C714.785,270.194 721.539,260.37 732.591,242.564L743.643,224.758C751.625,212.172 753.774,203.576 753.774,197.129C753.774,187.919 750.09,183.621 741.494,183.621L675.183,183.621L674.569,184.542L674.262,185.156L641.413,232.74ZM669.657,287.693C665.052,287.693 662.596,284.623 662.596,278.483C662.596,269.58 666.894,260.677 679.481,243.178L688.384,230.591C699.435,214.934 701.891,205.111 701.891,197.743C701.891,192.831 700.97,188.533 697.286,186.384L742.108,186.384C744.564,186.384 745.792,187.305 745.792,188.84C745.792,192.217 740.88,199.278 731.056,214.627L719.697,232.74C700.356,263.747 682.244,287.693 669.657,287.693Z" style="fill:rgb(241,237,234);fill-rule:nonzero;"/>
                <path d="M888.239,288L984.637,288C1077.043,288 1140.284,214.321 1140.284,140.334C1140.284,119.458 1134.758,97.661 1121.865,80.162L1183.878,80.162L1185.72,77.092L1119.409,77.092C1103.752,57.445 1078.578,43.937 1041.431,43.937C963.761,43.937 915.255,101.652 915.255,150.772C915.255,186.998 938.587,213.4 981.874,213.4L984.023,213.4L939.201,284.93L890.081,284.93L888.239,288ZM918.632,150.772C918.632,104.722 961.612,47.007 1041.431,47.007C1073.666,47.007 1099.147,56.217 1112.962,77.092L1090.244,77.092L1058.623,94.284L985.864,210.33L982.181,210.33C940.122,210.33 918.632,185.463 918.632,150.772ZM950.56,284.93L971.436,273.878L1092.7,80.162L1114.804,80.162C1120.637,90.293 1123.707,103.187 1123.707,118.844C1123.707,190.375 1065.991,284.93 988.013,284.93L950.56,284.93Z" style="fill:rgb(241,237,234);fill-rule:nonzero;"/>
                <path d="M1151.029,290.456C1168.221,290.456 1187.255,275.413 1214.271,232.74C1214.271,231.512 1212.429,231.512 1211.201,232.74C1185.413,273.264 1167.607,287.386 1151.95,287.386C1143.047,287.386 1139.977,282.167 1139.977,274.185C1139.977,261.598 1147.345,245.02 1155.02,231.205C1168.835,227.214 1185.106,219.846 1195.544,210.637C1202.912,203.883 1207.824,196.822 1207.824,190.375C1207.824,185.463 1205.061,180.858 1197.079,180.858C1180.808,180.858 1154.406,196.515 1139.67,220.46C1131.689,233.354 1128.005,246.862 1128.005,259.449C1128.005,276.027 1136.293,290.456 1151.029,290.456ZM1156.248,228.442L1158.397,225.065C1173.44,199.278 1188.483,183.314 1198.921,183.314C1203.219,183.314 1205.061,185.77 1205.061,189.454C1205.061,194.98 1200.456,201.734 1193.395,208.181C1183.878,216.776 1169.142,224.144 1156.248,228.442Z" style="fill:rgb(241,237,234);fill-rule:nonzero;"/>
                <path d="M1264.926,304.885C1306.37,304.885 1344.131,274.492 1373.603,227.521L1411.978,166.429L1438.686,166.429L1426.713,186.384L1431.932,186.384L1453.115,150.158L1448.203,150.158L1440.221,163.359L1413.82,163.359L1466.009,80.162L1535.391,80.162L1537.233,77.092L1386.497,77.092C1327.553,77.092 1285.801,89.986 1285.801,123.449C1285.801,144.632 1302.686,158.754 1333.386,164.28C1246.506,169.806 1211.201,216.469 1211.201,254.844C1211.201,281.86 1228.7,304.885 1264.926,304.885ZM1214.271,254.23C1214.271,215.548 1254.181,166.429 1352.727,166.429L1387.111,166.429L1347.201,230.284C1324.79,265.896 1300.537,301.815 1261.856,301.815C1231.77,301.815 1214.271,280.018 1214.271,254.23ZM1288.871,123.449C1288.871,91.828 1330.009,80.162 1386.497,80.162L1459.562,80.162L1431.932,94.591L1388.953,163.359L1364.086,163.359C1315.273,163.359 1288.871,148.93 1288.871,123.449Z" style="fill:rgb(241,237,234);fill-rule:nonzero;"/>
                <path d="M1450.659,290.149C1467.544,290.149 1483.201,269.58 1501.621,244.099L1509.91,232.74C1509.296,232.126 1508.068,232.126 1506.84,232.74L1498.551,244.099C1479.517,270.194 1466.009,287.693 1450.966,287.693C1444.519,287.693 1441.449,284.93 1441.756,279.404C1442.063,273.571 1445.133,269.273 1464.167,245.941L1472.149,236.117C1482.894,222.916 1490.569,209.409 1490.569,197.129C1490.569,188.84 1487.192,183.621 1480.745,183.621L1462.325,183.621L1473.07,168.578L1452.501,168.578L1456.185,185.156L1424.565,232.74C1424.258,233.661 1426.1,233.968 1427.634,232.74L1458.641,186.077L1480.438,186.077C1483.815,186.077 1484.736,187.612 1484.736,189.454C1484.736,194.98 1473.684,207.26 1462.939,220.153L1457.413,226.907C1442.677,245.02 1436.844,257.607 1436.23,269.273C1435.616,280.325 1438.993,290.149 1450.659,290.149Z" style="fill:rgb(241,237,234);fill-rule:nonzero;"/>
                <path d="M1571.924,291.07C1584.817,291.07 1598.018,277.869 1619.201,244.406L1626.569,232.74C1625.648,232.126 1624.42,232.126 1623.499,232.74L1616.131,244.406C1594.948,277.869 1583.282,288.307 1571.617,288.307C1565.784,288.307 1563.328,285.237 1563.328,280.939C1563.328,276.334 1566.398,268.966 1582.668,243.792L1621.043,183.621L1605.693,183.621C1596.79,181.165 1591.878,180.551 1584.203,180.551C1555.346,180.551 1528.637,197.129 1512.366,222.609C1504.691,234.582 1498.858,249.318 1498.858,263.44C1498.858,277.869 1504.998,291.07 1516.05,291.07C1527.409,291.07 1540.61,277.562 1559.644,249.318L1561.179,249.318C1559.337,256.072 1557.802,263.747 1557.802,271.422C1557.802,287.079 1564.863,291.07 1571.924,291.07ZM1508.682,278.79C1508.682,266.203 1518.199,245.634 1531.707,225.679C1549.513,198.971 1563.942,183.007 1584.203,183.007C1590.343,183.007 1594.641,184.235 1597.711,186.384L1574.072,221.995L1559.951,243.792C1540.303,274.185 1526.488,288.307 1516.664,288.307C1511.752,288.307 1508.682,284.623 1508.682,278.79Z" style="fill:rgb(241,237,234);fill-rule:nonzero;"/>
                <path d="M1708.538,291.07C1725.422,291.07 1740.772,268.352 1756.429,245.02L1764.718,232.74C1764.104,231.819 1762.876,231.819 1761.648,232.74L1753.359,245.02C1736.167,270.501 1723.58,288.614 1708.845,288.614C1703.626,288.614 1700.556,285.851 1700.556,280.939C1700.556,275.106 1705.161,267.431 1718.362,249.932L1727.878,237.345C1740.158,221.074 1743.535,211.865 1743.535,200.199C1743.535,188.533 1740.158,180.858 1730.948,180.858C1716.827,180.858 1698.1,197.436 1677.224,224.758L1675.996,224.758L1676.303,199.278C1676.303,187.919 1672.312,183.621 1664.637,183.621L1656.041,183.621L1623.499,232.74C1624.113,233.968 1625.341,233.968 1626.569,232.74L1657.269,186.384L1664.023,186.384C1668.935,186.384 1672.619,189.454 1672.619,194.98C1672.619,200.506 1668.014,207.567 1661.567,217.697L1617.052,288L1639.156,288L1664.637,247.783L1666.172,245.327C1691.96,207.26 1714.678,184.235 1730.027,184.235C1734.632,184.235 1736.167,186.384 1736.167,189.761C1736.167,194.98 1731.869,202.348 1722.659,214.321L1712.529,227.521C1699.635,244.406 1693.802,257.607 1693.802,270.501C1693.802,280.018 1696.872,291.07 1708.538,291.07Z" style="fill:rgb(241,237,234);fill-rule:nonzero;"/>
                <path d="M1742.614,288L1764.718,288L1797.567,235.196C1817.829,206.646 1844.845,183.621 1861.116,183.621C1866.028,183.621 1867.869,185.77 1867.869,189.147C1867.869,200.199 1848.836,221.995 1826.732,221.995L1822.434,221.995L1821.206,224.451L1835.942,224.451C1835.635,229.056 1831.03,235.196 1823.969,245.02C1815.68,256.072 1810.461,263.133 1810.461,272.65C1810.461,284.009 1818.136,290.456 1826.118,290.456C1840.547,290.456 1856.818,274.492 1873.088,249.318L1883.833,232.74C1883.219,232.126 1881.991,232.126 1880.763,232.74L1870.632,248.397C1853.748,274.492 1838.091,288 1826.425,288C1822.127,288 1819.671,286.158 1819.671,282.474C1819.671,276.334 1827.039,267.738 1834.407,257.914C1842.082,247.476 1845.459,242.564 1845.459,236.731C1845.459,231.819 1842.696,228.442 1838.091,223.53L1838.091,222.609C1863.265,219.232 1874.623,206.646 1874.623,195.287C1874.623,188.84 1870.632,180.858 1860.809,180.858C1848.222,180.858 1827.346,194.673 1804.935,221.995L1803.093,221.995L1905.016,63.278L1900.718,63.278C1892.736,73.715 1883.833,77.092 1869.711,77.092L1819.671,77.092L1817.829,80.162L1872.474,80.162L1742.614,288Z" style="fill:rgb(241,237,234);fill-rule:nonzero;"/>
            </g>
            <g transform="matrix(1,0,0,1,72.766342,-1234.512368)">
                <g transform="matrix(0.723856,0,0,0.723856,-549.406631,2464.188239)">
                    <path d="M1281.503,290.149C1281.657,290.149 1285.034,287.693 1282.578,287.693C1273.061,287.693 1270.298,283.088 1270.298,275.72C1270.298,264.975 1275.517,253.309 1293.63,228.442C1336.61,181.472 1401.693,108.713 1401.693,79.548C1401.693,72.794 1398.316,70.031 1393.711,70.031C1376.212,70.031 1346.434,110.555 1318.804,153.842C1303.147,178.402 1288.411,203.269 1282.578,213.4C1271.219,233.047 1263.544,248.397 1263.544,264.975C1263.544,279.711 1267.996,290.149 1281.503,290.149ZM1290.867,226.6L1333.54,157.833C1370.379,98.889 1386.65,72.487 1395.246,72.487C1397.702,72.487 1399.237,74.943 1399.237,79.548C1399.237,107.792 1337.224,177.481 1291.788,226.907L1290.867,226.6Z" style="fill:rgb(241,237,234);fill-rule:nonzero;"/>
                </g>
                <g transform="matrix(0.723856,0,0,0.723856,64.371146,2464.29935)">
                    <path d="M431.273,290.149C447.851,290.149 462.587,271.422 477.936,248.704L488.681,232.74C488.067,232.126 486.839,232.126 485.611,232.74L475.48,247.783C459.824,271.115 445.702,287.693 431.273,287.693C424.519,287.693 420.988,282.628 420.988,276.795C420.988,266.664 422.83,260.984 430.966,240.876L454.298,182.393C449.079,181.165 444.781,180.858 439.255,180.858C410.397,180.858 383.688,197.436 367.417,222.916C359.742,234.889 353.909,249.625 353.909,263.747C353.909,278.176 360.049,291.377 371.101,291.377C382.767,291.377 396.275,277.255 415.923,248.09L417.765,248.09C415.923,254.23 415.309,260.37 415.309,266.203C415.309,281.246 419.914,290.149 431.273,290.149ZM363.733,279.097C363.733,266.51 373.25,245.941 386.758,225.986C404.564,199.278 418.993,183.314 439.255,183.314C444.781,183.314 448.772,184.235 451.842,186.077L436.799,210.023L415.309,243.485C395.354,274.492 381.539,288.614 371.715,288.614C366.803,288.614 363.733,284.93 363.733,279.097Z" style="fill:rgb(241,237,234);"/>
                </g>
            </g>
        </g>
        <g transform="matrix(0.873084,0,0,0.873084,454.896835,344.260384)">
            <path d="M873.964,361.373L876.727,369.661C942.117,343.26 968.826,299.359 979.571,255.151C1001.061,231.512 1017.025,201.734 1016.718,186.384L1055.093,186.384L1056.935,183.621L987.246,183.621L987.246,166.429C1015.183,151.386 1040.664,136.343 1040.664,113.932C1040.664,102.573 1033.91,94.898 1021.63,94.898C999.219,94.898 979.571,119.458 977.115,169.192C943.038,185.77 884.709,210.944 884.709,254.23C884.709,278.483 903.129,290.149 920.32,290.149C937.819,290.149 956.853,278.176 973.124,261.905C964.528,300.28 939.968,338.348 873.964,361.373ZM905.585,256.686C907.734,214.014 958.388,182.393 977.115,171.955L977.115,187.305C977.729,207.567 978.957,231.819 974.352,256.379C959.923,272.343 942.731,284.316 926.46,284.316C911.724,284.316 904.664,272.957 905.585,256.686ZM981.106,248.397C985.711,226.907 986.939,205.418 987.246,186.384L1012.42,186.384C1011.806,199.892 998.912,226.293 981.106,248.397ZM987.246,163.973C988.167,132.659 993.386,97.968 1017.332,97.968C1025.621,97.968 1031.761,102.88 1031.761,114.239C1031.761,137.571 1004.131,155.377 987.246,163.973Z" style="fill:rgb(241,237,234);fill-rule:nonzero;"/>
        </g>
    </g>
</svg>
