<?xml version="1.0" encoding="UTF-8" standalone="no"?>
<!DOCTYPE svg PUBLIC "-//W3C//DTD SVG 1.1//EN" "http://www.w3.org/Graphics/SVG/1.1/DTD/svg11.dtd">
<svg width="100%" height="100%" viewBox="0 0 2359 271" version="1.1" xmlns="http://www.w3.org/2000/svg" xmlns:xlink="http://www.w3.org/1999/xlink" xml:space="preserve" xmlns:serif="http://www.serif.com/" style="fill-rule:evenodd;clip-rule:evenodd;stroke-linejoin:round;stroke-miterlimit:2;">
    <g transform="matrix(1,0,0,1,-34.271342,-2654.667384)">
        <g transform="matrix(0.461219,0,0,0.461219,177.866163,1588.397519)">
            <path d="M270.92,2893.79C229.099,2893.701 186.529,2890.693 143.819,2884.537C138.022,2884.371 138.055,2884.424 137.559,2884.358C35.135,2870.668 -58.03,2831.234 -74.26,2824.364C-184.152,2777.851 -279.861,2663.468 -307.513,2607.027C-309.541,2602.888 -266.767,2540.744 -262.132,2535.202C-148.563,2399.406 -36.25,2370.611 9.867,2356.027C31.865,2349.07 140.017,2314.866 270.92,2315.618L4229.894,2315.612C4258.543,2315.777 4288.282,2317.611 4318.446,2321.776C4414.418,2335.029 4437.672,2344.597 4487.95,2358.863C4508.144,2364.661 4516.98,2366.838 4565.378,2387.389C4667.121,2430.59 4758.29,2524.657 4798.447,2604.626C4798.9,2605.528 4758.763,2691.425 4659.386,2767.347C4555.128,2846.998 4398.61,2894.149 4229.894,2893.789L270.92,2893.79Z" style="fill:rgb(229,224,220);"/>
        </g>
        <g transform="matrix(0.461219,0,0,0.461219,177.866163,1588.397519)">
            <path d="M270.92,2893.79C229.099,2893.701 186.529,2890.693 143.819,2884.537C138.022,2884.371 138.055,2884.424 137.559,2884.358C35.135,2870.668 -58.03,2831.234 -74.26,2824.364C-184.152,2777.851 -279.861,2663.468 -307.513,2607.027C-309.541,2602.888 -266.767,2540.744 -262.132,2535.202C-148.563,2399.406 -36.25,2370.611 9.867,2356.027C31.865,2349.07 140.017,2314.866 270.92,2315.618L4229.894,2315.612C4258.543,2315.777 4288.282,2317.611 4318.446,2321.776C4414.418,2335.029 4437.672,2344.597 4487.95,2358.863C4508.144,2364.661 4516.98,2366.838 4565.378,2387.389C4667.121,2430.59 4758.29,2524.657 4798.447,2604.626C4798.9,2605.528 4758.763,2691.425 4659.386,2767.347C4555.128,2846.998 4398.61,2894.149 4229.894,2893.789L270.92,2893.79Z" style="fill:none;stroke:rgb(26,58,46);stroke-width:7.51px;"/>
        </g>
        <g transform="matrix(0.45404,0,0,0.414787,193.985423,1709.338268)">
            <path d="M270.92,2893.79C229.099,2893.701 186.529,2890.693 143.819,2884.537C138.022,2884.371 138.055,2884.424 137.559,2884.358C35.135,2870.668 -58.03,2831.234 -74.26,2824.364C-184.152,2777.851 -279.861,2663.468 -307.513,2607.027C-309.541,2602.888 -266.767,2540.744 -262.132,2535.202C-148.563,2399.406 -36.25,2370.611 9.867,2356.027C31.865,2349.07 140.017,2314.866 270.92,2315.618L4229.894,2315.612C4258.543,2315.777 4288.282,2317.611 4318.446,2321.776C4414.418,2335.029 4437.672,2344.597 4487.95,2358.863C4508.144,2364.661 4516.98,2366.838 4565.378,2387.389C4667.121,2430.59 4758.29,2524.657 4798.447,2604.626C4798.9,2605.528 4758.763,2691.425 4659.386,2767.347C4555.128,2846.998 4398.61,2894.149 4229.894,2893.789L270.92,2893.79Z" style="fill:none;stroke:rgb(26,58,46);stroke-width:7.96px;"/>
        </g>
    </g>
</svg>
