<svg width="680" height="77" viewBox="0 0 680 77" fill="none" xmlns="http://www.w3.org/2000/svg">
<mask id="mask0_169_2" style="mask-type:luminance" maskUnits="userSpaceOnUse" x="0" y="0" width="680" height="77">
<path d="M603.126 76.9323C611.404 76.915 619.688 75.97 627.836 74.0916C631.093 73.3587 634.254 72.4218 637.456 71.4741C638.272 71.2325 639.106 71.0614 639.919 70.8066C651.372 67.2142 660.935 61.5885 669.484 52.7952C671.13 51.1028 672.801 49.3263 674.247 47.4415C674.759 46.7753 675.151 46.0075 675.636 45.3178C677.207 43.0801 678.749 40.854 680 38.3935C679.965 38.2031 678.928 36.5986 678.753 36.2968C677.335 33.8466 675.602 31.614 674.042 29.2635C673.693 28.7376 672.972 28.1023 672.557 27.5929C671.031 25.8096 669.422 24.036 667.736 22.4123C660.739 15.6724 652.51 10.3572 643.536 7.1594C632.708 3.30183 621.972 0.792554 610.536 0.22721C607.842 0.0972342 605.142 0.0590122 602.443 0.0889883H82.9116C79.2259 -0.0464595 75.5335 -0.0184646 71.8443 0.114128C68.6633 0.228482 65.2901 0.587478 62.1321 1.01737C61.3996 1.11706 60.5895 1.11191 59.8854 1.23403C55.4783 1.9985 51.1075 2.83545 46.7739 3.98541C44.3555 4.64401 41.7734 5.50856 39.3836 6.28533C38.6059 6.5521 37.7365 6.71348 36.9739 7.01982C34.4005 8.054 31.2654 9.07787 28.8383 10.3865C21.7391 14.2142 15.1343 19.2444 9.57692 25.2566C8.27637 26.6634 7.00906 28.1728 5.74729 29.6206C5.347 30.0832 4.94984 30.8522 4.57487 31.3757C3.96257 32.1764 3.38661 33.1748 2.77035 33.9536C1.91282 35.039 0.89234 37.401 0 38.294C0.746786 39.1036 1.69211 41.1478 2.40726 42.1441C3.57806 43.7765 4.69112 45.6121 5.87538 47.2313C6.56679 48.1768 7.49079 49.134 8.26846 50.0104C13.5513 55.9557 19.6957 60.9899 26.4746 64.9273C31.2227 67.6423 36.595 69.7209 41.798 71.2669C42.3391 71.4276 42.8786 71.5929 43.4173 71.7584C54.3218 75.1737 65.6017 76.8766 76.8938 76.853V76.9326H603.126V76.9323Z" fill="white"/>
</mask>
<g mask="url(#mask0_169_2)">
<path d="M603.126 76.9323H602.335V76.1409L603.124 76.1392L603.126 76.9323ZM627.836 74.0916L627.659 73.3187L627.662 73.3183L627.663 73.3178L627.836 74.0916ZM680 38.3935L680.778 38.2505L680.827 38.5146L680.705 38.7538L680 38.3935ZM674.042 29.2634L673.383 29.7026V29.7025L674.042 29.2634ZM672.558 27.5929L673.157 27.0765L673.163 27.0838L673.17 27.0913L672.558 27.5929ZM610.536 0.227159L610.574 -0.564907H610.576L610.536 0.227159ZM602.443 0.0889372L602.452 0.88188L602.448 0.881957H602.443V0.0889372ZM82.9117 0.0889372V0.881957H82.8967L82.8824 0.8814L82.9117 0.0889372ZM46.774 3.98536L46.5665 3.2201L46.569 3.21938L46.5715 3.21875L46.774 3.98536ZM39.3836 6.28528L39.1275 5.535L39.1335 5.53286L39.1396 5.53088L39.3836 6.28528ZM36.974 7.01977L36.6796 6.28377L36.6797 6.28369L36.974 7.01977ZM9.57698 25.2565L10.1572 25.7956H10.1572L9.57698 25.2565ZM5.74735 29.6205L5.14969 29.1009L5.15064 29.0998L5.1516 29.0987L5.74735 29.6205ZM4.57493 31.3756L5.21753 31.8382L5.21031 31.8483L5.20277 31.8581L4.57493 31.3756ZM2.77041 33.9536L2.15028 33.4612L2.15063 33.4608L2.77041 33.9536ZM5.83798e-05 38.2939L-0.580795 38.8322L-1.09766 38.2719L-0.558855 37.7327L5.83798e-05 38.2939ZM2.40732 42.1441L3.04946 41.6809L3.04963 41.6812L2.40732 42.1441ZM8.26852 50.0103L7.67776 50.5378L7.67741 50.5374L8.26852 50.0103ZM26.4746 64.9273L26.0827 65.6162L26.0804 65.6148L26.0781 65.6135L26.4746 64.9273ZM41.798 71.2669L41.5734 72.0273L41.5732 72.0272L41.798 71.2669ZM43.4174 71.7583L43.6492 71.0001L43.6512 71.0008L43.6533 71.0014L43.4174 71.7583ZM76.8939 76.853L76.8922 76.0599L77.685 76.0583V76.853H76.8939ZM76.8939 76.9326V77.7256H76.1028V76.9326H76.8939ZM603.126 76.9326H603.917V77.7256H603.126V76.9326ZM603.126 76.9323L603.124 76.1392C611.343 76.1221 619.569 75.1838 627.659 73.3187L627.836 74.0916L628.014 74.8644C619.808 76.7561 611.465 77.7079 603.128 77.7253L603.126 76.9323ZM627.836 74.0916L627.663 73.3178C630.889 72.5916 634.026 71.6624 637.231 70.7135L637.456 71.4741L637.68 72.2346C634.482 73.181 631.295 74.1257 628.01 74.8653L627.836 74.0916ZM637.456 71.4741L637.231 70.7135C637.658 70.5874 638.087 70.48 638.494 70.3766C638.907 70.2716 639.299 70.1699 639.683 70.0497L639.919 70.8066L640.155 71.5634C639.726 71.698 639.295 71.8092 638.883 71.9139C638.466 72.0202 638.07 72.1191 637.68 72.2346L637.456 71.4741ZM639.919 70.8066L639.683 70.0497C651.019 66.4938 660.467 60.9343 668.918 52.2416L669.484 52.7951L670.051 53.3486C661.403 62.2426 651.724 67.9345 640.155 71.5634L639.919 70.8066ZM669.484 52.7951L668.918 52.2416C670.56 50.5524 672.204 48.8036 673.621 46.9578L674.247 47.4414L674.875 47.925C673.398 49.8489 671.699 51.6532 670.051 53.3486L669.484 52.7951ZM674.247 47.4414L673.621 46.9578C673.849 46.6602 674.057 46.3326 674.278 45.972C674.494 45.6215 674.729 45.2309 674.989 44.8613L675.636 45.3178L676.282 45.7743C676.057 46.0944 675.854 46.4325 675.625 46.8049C675.402 47.1671 675.157 47.5565 674.875 47.925L674.247 47.4414ZM675.636 45.3178L674.989 44.8613C676.563 42.6206 678.072 40.437 679.296 38.0332L680 38.3935L680.705 38.7538C679.424 41.2709 677.852 43.5396 676.282 45.7743L675.636 45.3178ZM680 38.3935L679.222 38.5365C679.231 38.5859 679.243 38.6207 679.247 38.6318C679.252 38.6462 679.256 38.6546 679.256 38.6551C679.256 38.6555 679.252 38.6458 679.24 38.6228C679.217 38.5775 679.18 38.5113 679.131 38.4249C679.032 38.2537 678.899 38.0341 678.757 37.8042C678.486 37.3652 678.163 36.8576 678.069 36.6948L678.753 36.2968L679.438 35.8988C679.518 36.0377 679.802 36.4833 680.102 36.9696C680.245 37.2024 680.389 37.4385 680.5 37.6311C680.555 37.7266 680.607 37.8193 680.648 37.8994C680.669 37.9391 680.69 37.9837 680.71 38.0288C680.722 38.0587 680.76 38.1452 680.778 38.2505L680 38.3935ZM678.753 36.2968L678.069 36.6948C676.662 34.2654 674.991 32.1254 673.383 29.7026L674.042 29.2634L674.701 28.8242C676.212 31.1024 678.007 33.4277 679.438 35.8988L678.753 36.2968ZM674.042 29.2634L673.383 29.7025C673.254 29.507 673.035 29.2648 672.754 28.9709C672.497 28.7023 672.178 28.3813 671.944 28.0945L672.558 27.5929L673.17 27.0913C673.351 27.3139 673.601 27.5652 673.895 27.873C674.166 28.1557 674.481 28.494 674.701 28.8243L674.042 29.2634ZM672.558 27.5929L671.957 28.1092C670.44 26.3367 668.849 24.5838 667.188 22.984L667.736 22.4122L668.284 21.8404C669.994 23.4883 671.622 25.2825 673.157 27.0765L672.558 27.5929ZM667.736 22.4122L667.188 22.984C660.264 16.3139 652.129 11.0629 643.271 7.90661L643.536 7.15935L643.801 6.41216C652.892 9.65133 661.216 15.0307 668.284 21.8404L667.736 22.4122ZM643.536 7.15935L643.271 7.90661C632.498 4.06855 621.84 1.5799 610.497 1.01923L610.536 0.227159L610.576 -0.564907C622.105 0.00511537 632.918 2.53493 643.801 6.41216L643.536 7.15935ZM610.536 0.227159L610.498 1.01931C607.821 0.890204 605.139 0.852062 602.452 0.88188L602.443 0.0889372L602.435 -0.704005C605.147 -0.734219 607.862 -0.695756 610.574 -0.564907L610.536 0.227159ZM602.443 0.0889372V0.881957H82.9117V0.0889372V-0.704083H602.443V0.0889372ZM82.9117 0.0889372L82.8824 0.8814C79.2197 0.746825 75.5473 0.77458 71.8727 0.906618L71.8444 0.114077L71.816 -0.678391C75.5198 -0.811539 79.2315 -0.839846 82.9402 -0.703526L82.9117 0.0889372ZM71.8444 0.114077L71.8727 0.906618C68.7278 1.01962 65.3829 1.37514 62.2386 1.80313L62.1322 1.01732L62.0258 0.23152C65.1975 -0.2002 68.599 -0.562848 71.816 -0.678391L71.8444 0.114077ZM62.1322 1.01732L62.2386 1.80313C61.8401 1.85737 61.4229 1.88275 61.0526 1.90836C60.6682 1.93501 60.3274 1.96213 60.0204 2.01542L59.8855 1.23398L59.7505 0.452616C60.1476 0.383703 60.5639 0.352381 60.9437 0.326132C61.3376 0.298852 61.6918 0.27696 62.0258 0.23152L62.1322 1.01732ZM59.8855 1.23398L60.0204 2.01542C55.6203 2.77863 51.2763 3.6109 46.9764 4.75198L46.774 3.98536L46.5715 3.21875C50.9387 2.05983 55.3363 1.21828 59.7505 0.452616L59.8855 1.23398ZM46.774 3.98536L46.9814 4.75063C44.5865 5.4028 42.0287 6.25927 39.6276 7.0396L39.3836 6.28528L39.1396 5.53088C41.5182 4.75784 44.1247 3.88512 46.5665 3.2201L46.774 3.98536ZM39.3836 6.28528L39.6398 7.03555C39.2205 7.17941 38.7761 7.29487 38.3811 7.4028C37.9721 7.51462 37.6032 7.62136 37.2682 7.75594L36.974 7.01977L36.6797 6.28369C37.1073 6.11185 37.5545 5.9848 37.9651 5.87259C38.3899 5.75649 38.769 5.65792 39.1275 5.535L39.3836 6.28528ZM36.974 7.01977L37.2683 7.75585C34.6181 8.82088 31.5889 9.80383 29.2131 11.0848L28.8384 10.3865L28.4637 9.68805C30.942 8.35181 34.183 7.28702 36.6796 6.28377L36.974 7.01977ZM28.8384 10.3865L29.2131 11.0848C22.187 14.873 15.6525 19.8505 10.1572 25.7956L9.57698 25.2565L8.99663 24.7176C14.6161 18.6382 21.2913 13.5551 28.4637 9.68805L28.8384 10.3865ZM9.57698 25.2565L10.1572 25.7956C8.86705 27.1911 7.61808 28.6793 6.3431 30.1423L5.74735 29.6205L5.1516 29.0987C6.40016 27.6661 7.68577 26.1356 8.99671 24.7175L9.57698 25.2565ZM5.74735 29.6205L6.34501 30.14C6.19086 30.3182 6.02121 30.576 5.82298 30.8947C5.63938 31.1901 5.42485 31.5488 5.21753 31.8382L4.57493 31.3756L3.93233 30.9131C4.09999 30.679 4.27152 30.3916 4.48031 30.0558C4.67447 29.7435 4.90355 29.3855 5.14969 29.1009L5.74735 29.6205ZM4.57493 31.3756L5.20277 31.8581C4.91583 32.2334 4.63454 32.6587 4.33221 33.113C4.03707 33.5564 3.72168 34.0275 3.3902 34.4464L2.77041 33.9536L2.15063 33.4608C2.43541 33.1008 2.71613 32.6834 3.0161 32.2327C3.30889 31.7928 3.62173 31.3187 3.94709 30.8932L4.57493 31.3756ZM2.77041 33.9536L3.39055 34.446C3.0105 34.927 2.58032 35.7139 2.08646 36.587C1.62957 37.3948 1.09739 38.3163 0.558972 38.8552L5.83798e-05 38.2939L-0.558855 37.7327C-0.204922 37.3785 0.219298 36.6725 0.710119 35.8047C1.16396 35.0024 1.67279 34.0656 2.15028 33.4612L2.77041 33.9536ZM5.83798e-05 38.2939L0.580911 37.7556C1.02816 38.2404 1.49633 39.0416 1.90278 39.7562C2.33869 40.5226 2.72373 41.2271 3.04946 41.6809L2.40732 42.1441L1.76517 42.6073C1.37576 42.0647 0.930568 41.249 0.528324 40.5418C0.0966273 39.7828 -0.281251 39.1571 -0.580795 38.8322L5.83798e-05 38.2939ZM2.40732 42.1441L3.04963 41.6812C3.64555 42.512 4.2255 43.3928 4.79556 44.2543C5.3692 45.1211 5.93383 45.9699 6.51342 46.7624L5.87543 47.2313L5.23745 47.7002C4.63278 46.8735 4.04876 45.9949 3.47711 45.131C2.90187 44.2617 2.33989 43.4085 1.76501 42.607L2.40732 42.1441ZM5.87543 47.2313L6.51342 46.7624C7.17536 47.6675 8.04851 48.5693 8.85954 49.4832L8.26852 50.0103L7.67741 50.5374C6.9332 49.6988 5.95829 48.6858 5.23743 47.7001L5.87543 47.2313ZM8.26852 50.0103L8.85922 49.4828C14.087 55.3661 20.1661 60.3465 26.8713 64.2412L26.4746 64.9273L26.0781 65.6135C19.2255 61.6332 13.0158 56.5451 7.67776 50.5378L8.26852 50.0103ZM26.4746 64.9273L26.8666 64.2385C31.5468 66.9146 36.8586 68.9721 42.0228 70.5066L41.798 71.2669L41.5732 72.0272C36.3315 70.4697 30.8987 68.3699 26.0827 65.6162L26.4746 64.9273ZM41.798 71.2669L42.0227 70.5065C42.5677 70.6684 43.1105 70.8347 43.6492 71.0001L43.4174 71.7583L43.1857 72.5166C42.6468 72.3511 42.1105 72.1867 41.5734 72.0273L41.798 71.2669ZM43.4174 71.7583L43.6533 71.0014C54.481 74.3927 65.6806 76.0833 76.8922 76.0599L76.8939 76.853L76.8955 77.646C65.5228 77.6697 54.1629 75.9547 43.1815 72.5153L43.4174 71.7583ZM76.8939 76.853H77.685V76.9326H76.8939H76.1028V76.853H76.8939ZM76.8939 76.9326V76.1395H603.126V76.9326V77.7256H76.8939V76.9326ZM603.126 76.9326H602.335V76.9323H603.126H603.917V76.9326H603.126Z" fill="#152F24"/>
</g>
<mask id="mask1_169_2" style="mask-type:luminance" maskUnits="userSpaceOnUse" x="5" y="4" width="670" height="69">
<path d="M599.199 72.3323C607.348 72.3171 615.504 71.4859 623.525 69.8339C626.73 69.1893 629.843 68.3653 632.995 67.5318C633.798 67.3193 634.619 67.1688 635.419 66.9447C646.694 63.7851 656.109 58.8374 664.525 51.1036C666.144 49.6152 667.79 48.0526 669.214 46.395C669.717 45.8091 670.103 45.1338 670.58 44.5272C672.127 42.5591 673.645 40.6013 674.877 38.4373C674.843 38.2698 673.821 36.8587 673.649 36.5932C672.253 34.4382 670.547 32.4746 669.012 30.4073C668.668 29.9449 667.958 29.3862 667.55 28.9382C666.047 27.3697 664.463 25.8098 662.804 24.3817C655.916 18.4539 647.815 13.7791 638.98 10.9667C628.321 7.57395 617.752 5.36706 606.494 4.86983C603.842 4.75556 601.186 4.72186 598.529 4.74826H87.0802C83.4514 4.62907 79.8164 4.65381 76.1843 4.77039C73.0529 4.87094 69.7321 5.18672 66.6233 5.56484C65.9022 5.65246 65.1047 5.64787 64.4116 5.75532C60.073 6.42764 55.7702 7.1638 51.5041 8.17522C49.1233 8.75444 46.5814 9.51479 44.2287 10.1979C43.4632 10.4326 42.6073 10.5745 41.8565 10.844C39.3232 11.7536 36.2369 12.654 33.8476 13.805C26.8589 17.1715 20.3568 21.5955 14.8859 26.8833C13.6056 28.1205 12.358 29.4481 11.1159 30.7214C10.7218 31.1284 10.3308 31.8047 9.96168 32.2651C9.35887 32.9693 8.79189 33.8475 8.18529 34.5324C7.34106 35.487 6.33646 37.5644 5.45801 38.3498C6.19317 39.0618 7.12379 40.8597 7.8278 41.736C8.98041 43.1717 10.0761 44.7861 11.242 46.2101C11.9226 47.0416 12.8323 47.8836 13.5978 48.6544C18.7985 53.8832 24.8473 58.3109 31.5206 61.7739C36.1948 64.1617 41.4835 65.9898 46.6055 67.3495C47.1382 67.4908 47.6694 67.6363 48.1997 67.7818C58.9346 70.7856 70.0388 72.2832 81.1557 72.2625V72.3325H599.199V72.3323Z" fill="white"/>
</mask>
<g mask="url(#mask1_169_2)">
<path fill-rule="evenodd" clip-rule="evenodd" d="M599.199 72.3322H598.408V71.5407L599.197 71.5392L599.199 72.3322ZM623.525 69.8338L623.366 69.057L623.367 69.0567L623.369 69.0563L623.525 69.8338ZM674.877 38.4372L675.652 38.2778L675.711 38.5707L675.563 38.8304L674.877 38.4372ZM667.55 28.9381L668.12 28.3889L668.126 28.3958L668.133 28.4031L667.55 28.9381ZM606.493 4.86979L606.527 4.07748L606.528 4.07756L606.493 4.86979ZM598.529 4.74822L598.537 5.54116L598.533 5.54124H598.529V4.74822ZM87.0795 4.74822V5.54124H87.0661L87.0534 5.54076L87.0795 4.74822ZM64.411 5.75528L64.5319 6.53894L64.5318 6.53902L64.411 5.75528ZM51.5035 8.17517L51.3169 7.40452L51.3191 7.40396L51.3214 7.40341L51.5035 8.17517ZM44.2281 10.1979L43.9968 9.43957L44.0023 9.43782L44.008 9.43615L44.2281 10.1979ZM41.8559 10.8439L41.5893 10.0974L41.5893 10.0973L41.8559 10.8439ZM14.8853 26.8832L15.4344 27.4541H15.4343L14.8853 26.8832ZM11.1153 30.7214L10.5476 30.169L10.5486 30.168L10.5496 30.167L11.1153 30.7214ZM9.96106 32.2651L10.5776 32.7618L10.5697 32.7718L10.5614 32.7815L9.96106 32.2651ZM8.18467 34.5324L7.59268 34.0063L7.59307 34.0059L8.18467 34.5324ZM5.45739 38.3497L4.90768 38.92L4.29492 38.3264L4.93083 37.7579L5.45739 38.3497ZM7.82719 41.7359L8.44328 41.2385L8.44352 41.2387L7.82719 41.7359ZM11.2414 46.2101L11.8529 45.707H11.853L11.2414 46.2101ZM13.5972 48.6543L13.037 49.2143L13.0366 49.2139L13.5972 48.6543ZM31.52 61.7738L31.1608 62.4804L31.1585 62.4793L31.1563 62.4781L31.52 61.7738ZM46.6049 67.3494L46.4026 68.1161H46.4024L46.6049 67.3494ZM48.1991 67.7817L48.408 67.0169L48.4099 67.0174L48.4118 67.0179L48.1991 67.7817ZM81.1551 72.2625L81.1535 71.4694L81.9462 71.468V72.2625H81.1551ZM81.1551 72.3325V73.1255H80.364V72.3325H81.1551ZM599.199 72.3325H599.99V73.1255H599.199V72.3325ZM599.199 72.3322L599.197 71.5392C607.293 71.5241 615.396 70.6983 623.366 69.057L623.525 69.8338L623.684 70.6106C615.61 72.2734 607.401 73.11 599.199 73.1253L599.199 72.3322ZM623.525 69.8338L623.369 69.0563C626.547 68.4172 629.637 67.5995 632.792 66.765L632.994 67.5318L633.196 68.2985C630.048 69.131 626.912 69.9613 623.681 70.6114L623.525 69.8338ZM632.994 67.5318L632.792 66.765C633.211 66.6544 633.632 66.5602 634.033 66.4691C634.439 66.3768 634.827 66.287 635.206 66.1809L635.419 66.9447L635.632 67.7084C635.211 67.8264 634.788 67.9238 634.382 68.016C633.972 68.1093 633.581 68.1966 633.196 68.2985L632.994 67.5318ZM635.419 66.9447L635.206 66.1809C646.375 63.0509 655.675 58.159 663.99 50.5189L664.524 51.1036L665.058 51.6881C656.54 59.5157 647.012 64.5193 635.632 67.7084L635.419 66.9447ZM664.524 51.1036L663.99 50.5189C665.607 49.0332 667.222 47.4972 668.614 45.8774L669.213 46.3949L669.813 46.9124C668.356 48.6079 666.681 50.1971 665.058 51.6881L664.524 51.1036ZM669.213 46.3949L668.614 45.8774C668.835 45.6194 669.037 45.3349 669.255 45.018C669.467 44.7111 669.7 44.3643 669.958 44.0362L670.579 44.5271L671.201 45.018C670.982 45.2966 670.784 45.5907 670.557 45.9195C670.337 46.2385 670.094 46.5845 669.813 46.9124L669.213 46.3949ZM670.579 44.5271L669.958 44.0362C671.508 42.0647 672.991 40.1499 674.19 38.044L674.877 38.4372L675.563 38.8304C674.298 41.0526 672.745 43.0535 671.201 45.018L670.579 44.5271ZM674.877 38.4372L674.101 38.5967C674.113 38.6524 674.128 38.6919 674.133 38.7053C674.14 38.7225 674.145 38.7332 674.146 38.7356C674.148 38.74 674.146 38.7344 674.135 38.7154C674.114 38.6782 674.079 38.622 674.03 38.5466C673.934 38.3975 673.804 38.2055 673.664 38.0035C673.4 37.6206 673.079 37.17 672.985 37.0252L673.649 36.5932L674.313 36.1612C674.39 36.2818 674.667 36.6696 674.964 37.1003C675.106 37.3053 675.248 37.5141 675.358 37.685C675.413 37.7696 675.465 37.8531 675.507 37.9262C675.528 37.9623 675.551 38.0045 675.572 38.048C675.585 38.0747 675.628 38.1649 675.652 38.2778L674.877 38.4372ZM673.649 36.5932L672.985 37.0252C671.603 34.8914 669.966 33.0204 668.376 30.8808L669.011 30.4073L669.646 29.9337C671.128 31.9287 672.902 33.985 674.313 36.1612L673.649 36.5932ZM669.011 30.4073L668.376 30.8808C668.254 30.7161 668.043 30.5072 667.766 30.2475C667.514 30.0129 667.198 29.728 666.965 29.4732L667.55 28.9381L668.133 28.4031C668.309 28.5962 668.552 28.8147 668.844 29.0869C669.109 29.3343 669.424 29.636 669.646 29.9337L669.011 30.4073ZM667.55 28.9381L666.978 29.4873C665.486 27.9294 663.921 26.389 662.288 24.9833L662.803 24.3816L663.318 23.78C665.004 25.2305 666.607 26.81 668.12 28.3889L667.55 28.9381ZM662.803 24.3816L662.288 24.9833C655.476 19.1207 647.468 14.5007 638.74 11.7225L638.979 10.9667L639.218 10.2109C648.162 13.0575 656.356 17.787 663.319 23.78L662.803 24.3816ZM638.979 10.9667L638.74 11.7225C628.132 8.34591 617.633 6.15551 606.459 5.66202L606.493 4.86979L606.528 4.07756C617.871 4.57843 628.509 6.80183 639.218 10.2109L638.979 10.9667ZM606.493 4.86979L606.459 5.66209C603.823 5.54845 601.181 5.51499 598.537 5.54116L598.529 4.74822L598.521 3.9552C601.189 3.92871 603.86 3.96257 606.527 4.07748L606.493 4.86979ZM598.529 4.74822V5.54124H87.0795V4.74822V3.9552H598.529V4.74822ZM87.0795 4.74822L87.0534 5.54076C83.4453 5.42229 79.8276 5.44679 76.209 5.56297L76.1837 4.77034L76.1584 3.97772C79.8031 3.86067 83.4556 3.83577 87.1049 3.9556L87.0795 4.74822ZM76.1837 4.77034L76.209 5.56297C73.1099 5.66241 69.8145 5.97542 66.718 6.35202L66.6227 5.56479L66.5274 4.77748C69.6486 4.39794 72.9947 4.07931 76.1584 3.97772L76.1837 4.77034ZM66.6227 5.56479L66.718 6.35202C66.3284 6.39936 65.9205 6.42157 65.555 6.44409C65.1766 6.46749 64.8379 6.49151 64.5319 6.53894L64.411 5.75528L64.29 4.97154C64.6772 4.91158 65.0837 4.88422 65.4577 4.86107C65.8444 4.8372 66.1957 4.81785 66.5274 4.77748L66.6227 5.56479ZM64.411 5.75528L64.5318 6.53902C60.1995 7.21031 55.9211 7.94274 51.6855 8.94686L51.5035 8.17517L51.3214 7.40341C55.6181 6.38477 59.9451 5.64489 64.29 4.97154L64.411 5.75528ZM51.5035 8.17517L51.69 8.94575C49.3309 9.51982 46.8112 10.2735 44.4482 10.9596L44.2281 10.1979L44.008 9.43615C46.3503 8.75606 48.9146 7.98898 51.3169 7.40452L51.5035 8.17517ZM44.2281 10.1979L44.4594 10.9562C44.0487 11.0821 43.6134 11.1832 43.2237 11.2783C42.8207 11.3768 42.455 11.4712 42.1226 11.5906L41.8559 10.8439L41.5893 10.0973C42.0077 9.94718 42.4453 9.836 42.8493 9.73735C43.2665 9.63552 43.642 9.54829 43.9968 9.43957L44.2281 10.1979ZM41.8559 10.8439L42.1227 11.5905C39.5174 12.5259 36.5302 13.3922 34.1896 14.5197L33.847 13.805L33.5043 13.0902C35.9422 11.9159 39.1279 10.981 41.5893 10.0974L41.8559 10.8439ZM33.847 13.805L34.1896 14.5197C27.2705 17.8526 20.8396 22.2298 15.4344 27.4541L14.8853 26.8832L14.3362 26.3123C19.8727 20.9611 26.4459 16.4901 33.5043 13.0902L33.847 13.805ZM14.8853 26.8832L15.4343 27.4541C14.1651 28.6808 12.9371 29.988 11.6808 31.2758L11.1153 30.7214L10.5496 30.167C11.7776 28.9081 13.0448 27.5603 14.3362 26.3123L14.8853 26.8832ZM11.1153 30.7214L11.6829 31.2737C11.5359 31.4256 11.3724 31.6469 11.1776 31.9269C10.9985 32.1842 10.7843 32.5041 10.5776 32.7618L9.96106 32.2651L9.34441 31.7683C9.5069 31.5656 9.67279 31.3172 9.87998 31.0194C10.0714 30.7444 10.3005 30.4241 10.5476 30.169L11.1153 30.7214ZM9.96106 32.2651L10.5614 32.7815C10.2812 33.1088 10.0063 33.4803 9.70815 33.8804C9.41774 34.2702 9.10518 34.6875 8.77625 35.0589L8.18467 34.5324L7.59307 34.0059C7.87078 33.6923 8.14496 33.328 8.44043 32.9314C8.72815 32.5452 9.0381 32.1255 9.36063 31.7486L9.96106 32.2651ZM8.18467 34.5324L8.77657 35.0585C8.40847 35.4747 7.99054 36.1574 7.50181 36.9294C7.05298 37.6383 6.52235 38.4602 5.98396 38.9416L5.45739 38.3497L4.93083 37.7579C5.2709 37.4539 5.68179 36.8443 6.16593 36.0796C6.61015 35.3779 7.11665 34.5446 7.59268 34.0063L8.18467 34.5324ZM5.45739 38.3497L6.00711 37.7794C6.4548 38.2131 6.92149 38.9274 7.32083 39.5547C7.75232 40.2324 8.12692 40.8447 8.44328 41.2385L7.82719 41.7359L7.21106 42.2333C6.82343 41.7508 6.38073 41.0261 5.98712 40.4079C5.56135 39.7391 5.19515 39.1984 4.90768 38.92L5.45739 38.3497ZM7.82719 41.7359L8.44352 41.2387C9.03145 41.9711 9.60357 42.7474 10.1645 43.5046C10.7293 44.2671 11.2838 45.0119 11.8529 45.707L11.2414 46.2101L10.6298 46.7132C10.0331 45.9841 9.4569 45.2098 8.8942 44.4501C8.32754 43.6852 7.77549 42.9364 7.21088 42.2331L7.82719 41.7359ZM11.2414 46.2101L11.853 45.707C12.5014 46.4992 13.3562 47.2877 14.1578 48.0948L13.5972 48.6543L13.0366 49.2139C12.3071 48.4795 11.3426 47.5839 10.6298 46.7131L11.2414 46.2101ZM13.5972 48.6543L14.1574 48.0944C19.2992 53.2641 25.2814 57.6434 31.8836 61.0696L31.52 61.7738L31.1563 62.4781C24.4119 58.9782 18.2965 54.5023 13.037 49.2143L13.5972 48.6543ZM31.52 61.7738L31.8792 61.0673C36.4884 63.4219 41.7204 65.2325 46.8074 66.5828L46.6049 67.3494L46.4024 68.1161C41.2454 66.7471 35.9 64.9014 31.1608 62.4804L31.52 61.7738ZM46.6049 67.3494L46.8073 66.5828C47.3436 66.7251 47.8778 66.8713 48.408 67.0169L48.1991 67.7817L47.9903 68.5466C47.4598 68.4011 46.9316 68.2564 46.4026 68.1161L46.6049 67.3494ZM48.1991 67.7817L48.4118 67.0179C59.0764 70.002 70.1085 71.49 81.1535 71.4694L81.1551 72.2625L81.1559 73.0555C69.968 73.0764 58.7916 71.5691 47.9864 68.5456L48.1991 67.7817ZM81.1551 72.2625H81.9462V72.3325H81.1551H80.364V72.2625H81.1551ZM81.1551 72.3325V71.5394H599.199V72.3325V73.1255H81.1551V72.3325ZM599.199 72.3325H598.408V72.3322H599.199H599.99V72.3325H599.199Z" fill="#152F24"/>
</g>
</svg>
