<svg width="680" height="77" viewBox="0 0 680 77" fill="none" xmlns="http://www.w3.org/2000/svg">
<g clip-path="url(#clip0_166_6355)">
<mask id="mask0_166_6355" style="mask-type:luminance" maskUnits="userSpaceOnUse" x="0" y="0" width="680" height="78">
<path d="M603.126 77.0021C611.404 76.9848 619.688 76.0398 627.836 74.1614C631.093 73.4286 634.254 72.4916 637.456 71.5439C638.272 71.3023 639.106 71.1312 639.919 70.8764C651.372 67.284 660.935 61.6583 669.484 52.865C671.13 51.1727 672.801 49.3961 674.247 47.5113C674.759 46.8452 675.151 46.0774 675.636 45.3877C677.207 43.1499 678.749 40.9238 680 38.4633C679.965 38.2729 678.928 36.6684 678.753 36.3667C677.335 33.9164 675.602 31.6838 674.042 29.3333C673.693 28.8074 672.972 28.1722 672.557 27.6627C671.031 25.8795 669.422 24.1059 667.736 22.4821C660.739 15.7422 652.51 10.427 643.536 7.22922C632.708 3.37165 621.972 0.862378 610.536 0.297034C607.842 0.167058 605.142 0.128836 602.443 0.158813H82.9116C79.2259 0.0233647 75.5335 0.0513597 71.8443 0.183953C68.6633 0.298306 65.2901 0.657302 62.1321 1.0872C61.3996 1.18688 60.5895 1.18173 59.8854 1.30386C55.4783 2.06833 51.1075 2.90528 46.7739 4.05523C44.3555 4.71384 41.7734 5.57839 39.3836 6.35515C38.6059 6.62192 37.7365 6.78331 36.9739 7.08965C34.4005 8.12383 31.2654 9.14769 28.8383 10.4563C21.7391 14.284 15.1343 19.3142 9.57692 25.3264C8.27637 26.7332 7.00906 28.2426 5.74729 29.6904C5.347 30.153 4.94984 30.922 4.57487 31.4455C3.96257 32.2462 3.38661 33.2446 2.77035 34.0235C1.91282 35.1088 0.89234 37.4708 0 38.3638C0.746786 39.1734 1.69211 41.2176 2.40726 42.2139C3.57806 43.8464 4.69112 45.682 5.87538 47.3011C6.56679 48.2466 7.49079 49.2038 8.26846 50.0802C13.5513 56.0255 19.6957 61.0597 26.4746 64.9972C31.2227 67.7121 36.595 69.7908 41.798 71.3368C42.3391 71.4974 42.8786 71.6628 43.4173 71.8282C54.3218 75.2436 65.6017 76.9464 76.8938 76.9228V77.0024H603.126V77.0021Z" fill="white"/>
</mask>
<g mask="url(#mask0_166_6355)">
<path d="M603.126 77.0021H602.335V76.2107L603.124 76.2091L603.126 77.0021ZM627.836 74.1614L627.659 73.3885L627.662 73.3881L627.663 73.3876L627.836 74.1614ZM680 38.4633L680.778 38.3203L680.827 38.5845L680.705 38.8236L680 38.4633ZM674.042 29.3332L673.383 29.7724V29.7723L674.042 29.3332ZM672.558 27.6627L673.157 27.1463L673.163 27.1536L673.17 27.1611L672.558 27.6627ZM610.536 0.296983L610.574 -0.495083H610.576L610.536 0.296983ZM602.443 0.158761L602.452 0.951704L602.448 0.951781H602.443V0.158761ZM82.9117 0.158761V0.951781H82.8967L82.8824 0.951225L82.9117 0.158761ZM46.774 4.05518L46.5665 3.28992L46.569 3.28921L46.5715 3.28857L46.774 4.05518ZM39.3836 6.3551L39.1275 5.60482L39.1335 5.60269L39.1396 5.6007L39.3836 6.3551ZM36.974 7.0896L36.6796 6.3536L36.6797 6.35352L36.974 7.0896ZM9.57698 25.3264L10.1572 25.8654H10.1572L9.57698 25.3264ZM5.74735 29.6903L5.14969 29.1708L5.15064 29.1697L5.1516 29.1685L5.74735 29.6903ZM4.57493 31.4455L5.21753 31.908L5.21031 31.9181L5.20277 31.9279L4.57493 31.4455ZM2.77041 34.0234L2.15028 33.531L2.15063 33.5306L2.77041 34.0234ZM5.83798e-05 38.3638L-0.580795 38.9021L-1.09766 38.3417L-0.558855 37.8025L5.83798e-05 38.3638ZM2.40732 42.2139L3.04946 41.7508L3.04963 41.751L2.40732 42.2139ZM8.26852 50.0802L7.67776 50.6076L7.67741 50.6072L8.26852 50.0802ZM26.4746 64.9971L26.0827 65.686L26.0804 65.6846L26.0781 65.6833L26.4746 64.9971ZM41.798 71.3367L41.5734 72.0971L41.5732 72.097L41.798 71.3367ZM43.4174 71.8282L43.6492 71.0699L43.6512 71.0706L43.6533 71.0712L43.4174 71.8282ZM76.8939 76.9228L76.8922 76.1298L77.685 76.1281V76.9228H76.8939ZM76.8939 77.0024V77.7954H76.1028V77.0024H76.8939ZM603.126 77.0024H603.917V77.7954H603.126V77.0024ZM603.126 77.0021L603.124 76.2091C611.343 76.1919 619.569 75.2536 627.659 73.3885L627.836 74.1614L628.014 74.9342C619.808 76.8259 611.465 77.7777 603.128 77.7951L603.126 77.0021ZM627.836 74.1614L627.663 73.3876C630.889 72.6615 634.026 71.7322 637.231 70.7833L637.456 71.5439L637.68 72.3044C634.482 73.2508 631.295 74.1955 628.01 74.9351L627.836 74.1614ZM637.456 71.5439L637.231 70.7833C637.658 70.6572 638.087 70.5498 638.494 70.4464C638.907 70.3415 639.299 70.2397 639.683 70.1195L639.919 70.8764L640.155 71.6332C639.726 71.7678 639.295 71.879 638.883 71.9837C638.466 72.09 638.07 72.189 637.68 72.3044L637.456 71.5439ZM639.919 70.8764L639.683 70.1195C651.019 66.5636 660.467 61.0042 668.918 52.3114L669.484 52.8649L670.051 53.4185C661.403 62.3124 651.724 68.0043 640.155 71.6332L639.919 70.8764ZM669.484 52.8649L668.918 52.3114C670.56 50.6223 672.204 48.8734 673.621 47.0277L674.247 47.5112L674.875 47.9948C673.398 49.9187 671.699 51.7231 670.051 53.4185L669.484 52.8649ZM674.247 47.5112L673.621 47.0277C673.849 46.73 674.057 46.4024 674.278 46.0418C674.494 45.6913 674.729 45.3007 674.989 44.9311L675.636 45.3876L676.282 45.8442C676.057 46.1642 675.854 46.5024 675.625 46.8748C675.402 47.2369 675.157 47.6263 674.875 47.9948L674.247 47.5112ZM675.636 45.3876L674.989 44.9311C676.563 42.6904 678.072 40.5068 679.296 38.103L680 38.4633L680.705 38.8236C679.424 41.3408 677.852 43.6094 676.282 45.8442L675.636 45.3876ZM680 38.4633L679.222 38.6063C679.231 38.6557 679.243 38.6905 679.247 38.7016C679.252 38.716 679.256 38.7244 679.256 38.7249C679.256 38.7253 679.252 38.7156 679.24 38.6926C679.217 38.6473 679.18 38.5811 679.131 38.4947C679.032 38.3235 678.899 38.1039 678.757 37.874C678.486 37.435 678.163 36.9274 678.069 36.7646L678.753 36.3666L679.438 35.9686C679.518 36.1075 679.802 36.5531 680.102 37.0394C680.245 37.2722 680.389 37.5083 680.5 37.701C680.555 37.7964 680.607 37.8891 680.648 37.9692C680.669 38.0089 680.69 38.0535 680.71 38.0986C680.722 38.1286 680.76 38.2151 680.778 38.3203L680 38.4633ZM678.753 36.3666L678.069 36.7646C676.662 34.3352 674.991 32.1952 673.383 29.7724L674.042 29.3332L674.701 28.894C676.212 31.1723 678.007 33.4975 679.438 35.9686L678.753 36.3666ZM674.042 29.3332L673.383 29.7723C673.254 29.5769 673.035 29.3346 672.754 29.0407C672.497 28.7721 672.178 28.4511 671.944 28.1643L672.558 27.6627L673.17 27.1611C673.351 27.3837 673.601 27.635 673.895 27.9428C674.166 28.2255 674.481 28.5638 674.701 28.8941L674.042 29.3332ZM672.558 27.6627L671.957 28.179C670.44 26.4065 668.849 24.6536 667.188 23.0538L667.736 22.482L668.284 21.9103C669.994 23.5581 671.622 25.3523 673.157 27.1463L672.558 27.6627ZM667.736 22.482L667.188 23.0538C660.264 16.3837 652.129 11.1327 643.271 7.97643L643.536 7.22917L643.801 6.48199C652.892 9.72116 661.216 15.1005 668.284 21.9103L667.736 22.482ZM643.536 7.22917L643.271 7.97643C632.498 4.13837 621.84 1.64972 610.497 1.08905L610.536 0.296983L610.576 -0.495083C622.105 0.0749396 632.918 2.60475 643.801 6.48199L643.536 7.22917ZM610.536 0.296983L610.498 1.08913C607.821 0.960028 605.139 0.921886 602.452 0.951704L602.443 0.158761L602.435 -0.634181C605.147 -0.664395 607.862 -0.625931 610.574 -0.495083L610.536 0.296983ZM602.443 0.158761V0.951781H82.9117V0.158761V-0.634259H602.443V0.158761ZM82.9117 0.158761L82.8824 0.951225C79.2197 0.816649 75.5473 0.844404 71.8727 0.976442L71.8444 0.183901L71.816 -0.608567C75.5198 -0.741715 79.2315 -0.770022 82.9402 -0.633702L82.9117 0.158761ZM71.8444 0.183901L71.8727 0.976442C68.7278 1.08945 65.3829 1.44496 62.2386 1.87296L62.1322 1.08715L62.0258 0.301344C65.1975 -0.130376 68.599 -0.493024 71.816 -0.608567L71.8444 0.183901ZM62.1322 1.08715L62.2386 1.87296C61.8401 1.9272 61.4229 1.95257 61.0526 1.97819C60.6682 2.00483 60.3274 2.03196 60.0204 2.08525L59.8855 1.3038L59.7505 0.52244C60.1476 0.453527 60.5639 0.422205 60.9437 0.395956C61.3376 0.368676 61.6918 0.346784 62.0258 0.301344L62.1322 1.08715ZM59.8855 1.3038L60.0204 2.08525C55.6203 2.84845 51.2763 3.68072 46.9764 4.8218L46.774 4.05518L46.5715 3.28857C50.9387 2.12965 55.3363 1.2881 59.7505 0.52244L59.8855 1.3038ZM46.774 4.05518L46.9814 4.82045C44.5865 5.47263 42.0287 6.32909 39.6276 7.10942L39.3836 6.3551L39.1396 5.6007C41.5182 4.82766 44.1247 3.95495 46.5665 3.28992L46.774 4.05518ZM39.3836 6.3551L39.6398 7.10538C39.2205 7.24923 38.7761 7.3647 38.3811 7.47263C37.9721 7.58444 37.6032 7.69118 37.2682 7.82576L36.974 7.0896L36.6797 6.35352C37.1073 6.18167 37.5545 6.05463 37.9651 5.94241C38.3899 5.82632 38.769 5.72774 39.1275 5.60482L39.3836 6.3551ZM36.974 7.0896L37.2683 7.82568C34.6181 8.8907 31.5889 9.87365 29.2131 11.1546L28.8384 10.4563L28.4637 9.75787C30.942 8.42163 34.183 7.35684 36.6796 6.3536L36.974 7.0896ZM28.8384 10.4563L29.2131 11.1546C22.187 14.9428 15.6525 19.9203 10.1572 25.8654L9.57698 25.3264L8.99663 24.7874C14.6161 18.7081 21.2913 13.625 28.4637 9.75787L28.8384 10.4563ZM9.57698 25.3264L10.1572 25.8654C8.86705 27.2609 7.61808 28.7491 6.3431 30.2121L5.74735 29.6903L5.1516 29.1685C6.40016 27.736 7.68577 26.2054 8.99671 24.7873L9.57698 25.3264ZM5.74735 29.6903L6.34501 30.2099C6.19086 30.388 6.02121 30.6459 5.82298 30.9646C5.63938 31.2599 5.42485 31.6186 5.21753 31.908L4.57493 31.4455L3.93233 30.983C4.09999 30.7489 4.27152 30.4614 4.48031 30.1256C4.67447 29.8133 4.90355 29.4553 5.14969 29.1708L5.74735 29.6903ZM4.57493 31.4455L5.20277 31.9279C4.91583 32.3032 4.63454 32.7286 4.33221 33.1828C4.03707 33.6263 3.72168 34.0973 3.3902 34.5163L2.77041 34.0234L2.15063 33.5306C2.43541 33.1707 2.71613 32.7532 3.0161 32.3026C3.30889 31.8627 3.62173 31.3885 3.94709 30.9631L4.57493 31.4455ZM2.77041 34.0234L3.39055 34.5158C3.0105 34.9968 2.58032 35.7837 2.08646 36.6569C1.62957 37.4646 1.09739 38.3861 0.558972 38.925L5.83798e-05 38.3638L-0.558855 37.8025C-0.204922 37.4483 0.219298 36.7424 0.710119 35.8746C1.16396 35.0722 1.67279 34.1354 2.15028 33.531L2.77041 34.0234ZM5.83798e-05 38.3638L0.580911 37.8254C1.02816 38.3102 1.49633 39.1114 1.90278 39.826C2.33869 40.5924 2.72373 41.2969 3.04946 41.7508L2.40732 42.2139L1.76517 42.6771C1.37576 42.1345 0.930568 41.3188 0.528324 40.6116C0.0966273 39.8526 -0.281251 39.2269 -0.580795 38.9021L5.83798e-05 38.3638ZM2.40732 42.2139L3.04963 41.751C3.64555 42.5818 4.2255 43.4626 4.79556 44.3241C5.3692 45.191 5.93383 46.0397 6.51342 46.8322L5.87543 47.3011L5.23745 47.77C4.63278 46.9433 4.04876 46.0647 3.47711 45.2009C2.90187 44.3316 2.33989 43.4783 1.76501 42.6768L2.40732 42.2139ZM5.87543 47.3011L6.51342 46.8322C7.17536 47.7373 8.04851 48.6391 8.85954 49.553L8.26852 50.0802L7.67741 50.6072C6.9332 49.7686 5.95829 48.7557 5.23743 47.7699L5.87543 47.3011ZM8.26852 50.0802L8.85922 49.5526C14.087 55.4359 20.1661 60.4163 26.8713 64.311L26.4746 64.9971L26.0781 65.6833C19.2255 61.703 13.0158 56.6149 7.67776 50.6076L8.26852 50.0802ZM26.4746 64.9971L26.8666 64.3083C31.5468 66.9844 36.8586 69.0419 42.0228 70.5764L41.798 71.3367L41.5732 72.097C36.3315 70.5395 30.8987 68.4398 26.0827 65.686L26.4746 64.9971ZM41.798 71.3367L42.0227 70.5763C42.5677 70.7382 43.1105 70.9045 43.6492 71.0699L43.4174 71.8282L43.1857 72.5864C42.6468 72.4209 42.1105 72.2566 41.5734 72.0971L41.798 71.3367ZM43.4174 71.8282L43.6533 71.0712C54.481 74.4625 65.6806 76.1532 76.8922 76.1298L76.8939 76.9228L76.8955 77.7158C65.5228 77.7395 54.1629 76.0245 43.1815 72.5851L43.4174 71.8282ZM76.8939 76.9228H77.685V77.0024H76.8939H76.1028V76.9228H76.8939ZM76.8939 77.0024V76.2094H603.126V77.0024V77.7954H76.8939V77.0024ZM603.126 77.0024H602.335V77.0021H603.126H603.917V77.0024H603.126Z" fill="#F7F8F4"/>
</g>
<mask id="mask1_166_6355" style="mask-type:luminance" maskUnits="userSpaceOnUse" x="5" y="4" width="670" height="69">
<path d="M599.199 72.4021C607.348 72.3869 615.504 71.5558 623.525 69.9037C626.73 69.2591 629.843 68.4351 632.995 67.6016C633.798 67.3891 634.619 67.2386 635.419 67.0146C646.694 63.8549 656.109 58.9072 664.525 51.1734C666.144 49.685 667.79 48.1225 669.214 46.4648C669.717 45.8789 670.103 45.2036 670.58 44.597C672.127 42.629 673.645 40.6711 674.877 38.5071C674.843 38.3396 673.821 36.9285 673.649 36.6631C672.253 34.508 670.547 32.5444 669.012 30.4771C668.668 30.0147 667.958 29.456 667.55 29.008C666.047 27.4395 664.463 25.8797 662.804 24.4515C655.916 18.5237 647.815 13.8489 638.98 11.0366C628.321 7.64378 617.752 5.43688 606.494 4.93966C603.842 4.82538 601.186 4.79168 598.529 4.81809H87.0802C83.4514 4.6989 79.8164 4.72364 76.1843 4.84021C73.0529 4.94077 69.7321 5.25655 66.6233 5.63466C65.9022 5.72229 65.1047 5.71769 64.4116 5.82515C60.073 6.49747 55.7702 7.23363 51.5041 8.24504C49.1233 8.82426 46.5814 9.58462 44.2287 10.2677C43.4632 10.5025 42.6073 10.6443 41.8565 10.9138C39.3232 11.8234 36.2369 12.7239 33.8476 13.8749C26.8589 17.2413 20.3568 21.6653 14.8859 26.9531C13.6056 28.1904 12.358 29.5179 11.1159 30.7912C10.7218 31.1982 10.3308 31.8745 9.96168 32.3349C9.35887 33.0391 8.79189 33.9173 8.18529 34.6023C7.34106 35.5568 6.33646 37.6342 5.45801 38.4196C6.19317 39.1317 7.12379 40.9295 7.8278 41.8058C8.98041 43.2415 10.0761 44.8559 11.242 46.2799C11.9226 47.1114 12.8323 47.9535 13.5978 48.7242C18.7985 53.9531 24.8473 58.3807 31.5206 61.8437C36.1948 64.2315 41.4835 66.0596 46.6055 67.4193C47.1382 67.5606 47.6694 67.7061 48.1997 67.8516C58.9346 70.8554 70.0388 72.3531 81.1557 72.3323V72.4023H599.199V72.4021Z" fill="white"/>
</mask>
<g mask="url(#mask1_166_6355)">
<path fill-rule="evenodd" clip-rule="evenodd" d="M599.199 72.4021H598.408V71.6105L599.197 71.609L599.199 72.4021ZM623.525 69.9037L623.366 69.1269L623.367 69.1265L623.369 69.1261L623.525 69.9037ZM674.877 38.507L675.652 38.3476L675.711 38.6405L675.563 38.9002L674.877 38.507ZM667.55 29.0079L668.12 28.4587L668.126 28.4657L668.133 28.4729L667.55 29.0079ZM606.493 4.93961L606.527 4.14731L606.528 4.14739L606.493 4.93961ZM598.529 4.81804L598.537 5.61098L598.533 5.61106H598.529V4.81804ZM87.0795 4.81804V5.61106H87.0661L87.0534 5.61059L87.0795 4.81804ZM64.411 5.8251L64.5319 6.60876L64.5318 6.60884L64.411 5.8251ZM51.5035 8.245L51.3169 7.47434L51.3191 7.47379L51.3214 7.47323L51.5035 8.245ZM44.2281 10.2677L43.9968 9.50939L44.0023 9.50764L44.008 9.50598L44.2281 10.2677ZM41.8559 10.9137L41.5893 10.1672L41.5893 10.1671L41.8559 10.9137ZM14.8853 26.9531L15.4344 27.5239H15.4343L14.8853 26.9531ZM11.1153 30.7912L10.5476 30.2389L10.5486 30.2378L10.5496 30.2368L11.1153 30.7912ZM9.96106 32.3349L10.5776 32.8316L10.5697 32.8416L10.5614 32.8513L9.96106 32.3349ZM8.18467 34.6022L7.59268 34.0761L7.59307 34.0757L8.18467 34.6022ZM5.45739 38.4196L4.90768 38.9898L4.29492 38.3963L4.93083 37.8277L5.45739 38.4196ZM7.82719 41.8058L8.44328 41.3083L8.44352 41.3085L7.82719 41.8058ZM11.2414 46.2799L11.8529 45.7768H11.853L11.2414 46.2799ZM13.5972 48.7241L13.037 49.2841L13.0366 49.2837L13.5972 48.7241ZM31.52 61.8436L31.1608 62.5502L31.1585 62.5491L31.1563 62.5479L31.52 61.8436ZM46.6049 67.4193L46.4026 68.1859H46.4024L46.6049 67.4193ZM48.1991 67.8515L48.408 67.0867L48.4099 67.0872L48.4118 67.0877L48.1991 67.8515ZM81.1551 72.3323L81.1535 71.5393L81.9462 71.5378V72.3323H81.1551ZM81.1551 72.4023V73.1953H80.364V72.4023H81.1551ZM599.199 72.4023H599.99V73.1953H599.199V72.4023ZM599.199 72.4021L599.197 71.609C607.293 71.5939 615.396 70.7682 623.366 69.1269L623.525 69.9037L623.684 70.6805C615.61 72.3433 607.401 73.1798 599.199 73.1951L599.199 72.4021ZM623.525 69.9037L623.369 69.1261C626.547 68.487 629.637 67.6693 632.792 66.8348L632.994 67.6016L633.196 68.3684C630.048 69.2008 626.912 70.0312 623.681 70.6812L623.525 69.9037ZM632.994 67.6016L632.792 66.8348C633.211 66.7242 633.632 66.63 634.033 66.5389C634.439 66.4466 634.827 66.3569 635.206 66.2508L635.419 67.0145L635.632 67.7782C635.211 67.8962 634.788 67.9937 634.382 68.0858C633.972 68.1791 633.581 68.2665 633.196 68.3684L632.994 67.6016ZM635.419 67.0145L635.206 66.2508C646.375 63.1207 655.675 58.2288 663.99 50.5888L664.524 51.1734L665.058 51.7579C656.54 59.5855 647.012 64.5891 635.632 67.7782L635.419 67.0145ZM664.524 51.1734L663.99 50.5888C665.607 49.1031 667.222 47.5671 668.614 45.9472L669.213 46.4648L669.813 46.9822C668.356 48.6778 666.681 50.2669 665.058 51.7579L664.524 51.1734ZM669.213 46.4648L668.614 45.9472C668.835 45.6893 669.037 45.4047 669.255 45.0878C669.467 44.7809 669.7 44.4341 669.958 44.1061L670.579 44.597L671.201 45.0878C670.982 45.3664 670.784 45.6606 670.557 45.9893C670.337 46.3083 670.094 46.6544 669.813 46.9822L669.213 46.4648ZM670.579 44.597L669.958 44.1061C671.508 42.1345 672.991 40.2197 674.19 38.1139L674.877 38.507L675.563 38.9002C674.298 41.1224 672.745 43.1233 671.201 45.0878L670.579 44.597ZM674.877 38.507L674.101 38.6665C674.113 38.7222 674.128 38.7618 674.133 38.7752C674.14 38.7923 674.145 38.8031 674.146 38.8054C674.148 38.8098 674.146 38.8042 674.135 38.7852C674.114 38.748 674.079 38.6918 674.03 38.6164C673.934 38.4673 673.804 38.2753 673.664 38.0733C673.4 37.6904 673.079 37.2399 672.985 37.095L673.649 36.663L674.313 36.2311C674.39 36.3516 674.667 36.7394 674.964 37.1702C675.106 37.3751 675.248 37.5839 675.358 37.7548C675.413 37.8394 675.465 37.9229 675.507 37.996C675.528 38.0321 675.551 38.0743 675.572 38.1178C675.585 38.1445 675.628 38.2347 675.652 38.3476L674.877 38.507ZM673.649 36.663L672.985 37.095C671.603 34.9612 669.966 33.0902 668.376 30.9507L669.011 30.4771L669.646 30.0035C671.128 31.9985 672.902 34.0548 674.313 36.2311L673.649 36.663ZM669.011 30.4771L668.376 30.9507C668.254 30.7859 668.043 30.5771 667.766 30.3174C667.514 30.0827 667.198 29.7979 666.965 29.543L667.55 29.0079L668.133 28.4729C668.309 28.6661 668.552 28.8845 668.844 29.1568C669.109 29.4041 669.424 29.7059 669.646 30.0036L669.011 30.4771ZM667.55 29.0079L666.978 29.5572C665.486 27.9992 663.921 26.4588 662.288 25.0531L662.803 24.4515L663.318 23.8498C665.004 25.3003 666.607 26.8798 668.12 28.4587L667.55 29.0079ZM662.803 24.4515L662.288 25.0531C655.476 19.1905 647.468 14.5705 638.74 11.7923L638.979 11.0365L639.218 10.2807C648.162 13.1273 656.356 17.8568 663.319 23.8498L662.803 24.4515ZM638.979 11.0365L638.74 11.7923C628.132 8.41573 617.633 6.22534 606.459 5.73184L606.493 4.93961L606.528 4.14739C617.871 4.64826 628.509 6.87165 639.218 10.2807L638.979 11.0365ZM606.493 4.93961L606.459 5.73192C603.823 5.61828 601.181 5.58482 598.537 5.61098L598.529 4.81804L598.521 4.02502C601.189 3.99854 603.86 4.0324 606.527 4.14731L606.493 4.93961ZM598.529 4.81804V5.61106H87.0795V4.81804V4.02502H598.529V4.81804ZM87.0795 4.81804L87.0534 5.61059C83.4453 5.49211 79.8276 5.51661 76.209 5.63279L76.1837 4.84017L76.1584 4.04754C79.8031 3.93049 83.4556 3.90559 87.1049 4.02542L87.0795 4.81804ZM76.1837 4.84017L76.209 5.63279C73.1099 5.73223 69.8145 6.04524 66.718 6.42185L66.6227 5.63461L66.5274 4.84731C69.6486 4.46777 72.9947 4.14913 76.1584 4.04754L76.1837 4.84017ZM66.6227 5.63461L66.718 6.42185C66.3284 6.46919 65.9205 6.49139 65.555 6.51392C65.1766 6.53731 64.8379 6.56134 64.5319 6.60876L64.411 5.8251L64.29 5.04136C64.6772 4.98141 65.0837 4.95405 65.4577 4.93089C65.8444 4.90702 66.1957 4.88767 66.5274 4.84731L66.6227 5.63461ZM64.411 5.8251L64.5318 6.60884C60.1995 7.28013 55.9211 8.01257 51.6855 9.01669L51.5035 8.245L51.3214 7.47323C55.6181 6.4546 59.9451 5.71471 64.29 5.04136L64.411 5.8251ZM51.5035 8.245L51.69 9.01558C49.3309 9.58965 46.8112 10.3433 44.4482 11.0294L44.2281 10.2677L44.008 9.50598C46.3503 8.82588 48.9146 8.0588 51.3169 7.47434L51.5035 8.245ZM44.2281 10.2677L44.4594 11.026C44.0487 11.152 43.6134 11.253 43.2237 11.3482C42.8207 11.4466 42.455 11.541 42.1226 11.6604L41.8559 10.9137L41.5893 10.1671C42.0077 10.017 42.4453 9.90582 42.8493 9.80717C43.2665 9.70535 43.642 9.61811 43.9968 9.50939L44.2281 10.2677ZM41.8559 10.9137L42.1227 11.6603C39.5174 12.5957 36.5302 13.462 34.1896 14.5896L33.847 13.8748L33.5043 13.16C35.9422 11.9857 39.1279 11.0509 41.5893 10.1672L41.8559 10.9137ZM33.847 13.8748L34.1896 14.5896C27.2705 17.9225 20.8396 22.2996 15.4344 27.5239L14.8853 26.9531L14.3362 26.3822C19.8727 21.0309 26.4459 16.56 33.5043 13.16L33.847 13.8748ZM14.8853 26.9531L15.4343 27.5239C14.1651 28.7506 12.9371 30.0578 11.6808 31.3457L11.1153 30.7912L10.5496 30.2368C11.7776 28.9779 13.0448 27.6301 14.3362 26.3822L14.8853 26.9531ZM11.1153 30.7912L11.6829 31.3435C11.5359 31.4954 11.3724 31.7167 11.1776 31.9967C10.9985 32.254 10.7843 32.5739 10.5776 32.8316L9.96106 32.3349L9.34441 31.8381C9.5069 31.6354 9.67279 31.387 9.87998 31.0892C10.0714 30.8143 10.3005 30.494 10.5476 30.2389L11.1153 30.7912ZM9.96106 32.3349L10.5614 32.8513C10.2812 33.1787 10.0063 33.5501 9.70815 33.9503C9.41774 34.34 9.10518 34.7573 8.77625 35.1287L8.18467 34.6022L7.59307 34.0757C7.87078 33.7622 8.14496 33.3978 8.44043 33.0013C8.72815 32.6151 9.0381 32.1953 9.36063 31.8185L9.96106 32.3349ZM8.18467 34.6022L8.77657 35.1283C8.40847 35.5446 7.99054 36.2273 7.50181 36.9993C7.05298 37.7081 6.52235 38.53 5.98396 39.0114L5.45739 38.4196L4.93083 37.8277C5.2709 37.5237 5.68179 36.9141 6.16593 36.1494C6.61015 35.4477 7.11665 34.6144 7.59268 34.0761L8.18467 34.6022ZM5.45739 38.4196L6.00711 37.8492C6.4548 38.2829 6.92149 38.9972 7.32083 39.6245C7.75232 40.3022 8.12692 40.9146 8.44328 41.3083L7.82719 41.8058L7.21106 42.3031C6.82343 41.8207 6.38073 41.0959 5.98712 40.4777C5.56135 39.8089 5.19515 39.2683 4.90768 38.9898L5.45739 38.4196ZM7.82719 41.8058L8.44352 41.3085C9.03145 42.041 9.60357 42.8172 10.1645 43.5744C10.7293 44.3369 11.2838 45.0817 11.8529 45.7768L11.2414 46.2799L10.6298 46.783C10.0331 46.054 9.4569 45.2796 8.8942 44.52C8.32754 43.755 7.77549 43.0062 7.21088 42.3029L7.82719 41.8058ZM11.2414 46.2799L11.853 45.7768C12.5014 46.569 13.3562 47.3575 14.1578 48.1646L13.5972 48.7241L13.0366 49.2837C12.3071 48.5493 11.3426 47.6537 10.6298 46.7829L11.2414 46.2799ZM13.5972 48.7241L14.1574 48.1642C19.2992 53.334 25.2814 57.7133 31.8836 61.1394L31.52 61.8436L31.1563 62.5479C24.4119 59.048 18.2965 54.5721 13.037 49.2841L13.5972 48.7241ZM31.52 61.8436L31.8792 61.1371C36.4884 63.4917 41.7204 65.3023 46.8074 66.6527L46.6049 67.4193L46.4024 68.1859C41.2454 66.8169 35.9 64.9712 31.1608 62.5502L31.52 61.8436ZM46.6049 67.4193L46.8073 66.6527C47.3436 66.7949 47.8778 66.9412 48.408 67.0867L48.1991 67.8515L47.9903 68.6164C47.4598 68.4709 46.9316 68.3262 46.4026 68.1859L46.6049 67.4193ZM48.1991 67.8515L48.4118 67.0877C59.0764 70.0719 70.1085 71.5599 81.1535 71.5393L81.1551 72.3323L81.1559 73.1253C69.968 73.1462 58.7916 71.6389 47.9864 68.6154L48.1991 67.8515ZM81.1551 72.3323H81.9462V72.4023H81.1551H80.364V72.3323H81.1551ZM81.1551 72.4023V71.6093H599.199V72.4023V73.1953H81.1551V72.4023ZM599.199 72.4023H598.408V72.4021H599.199H599.99V72.4023H599.199Z" fill="#F7F8F4"/>
</g>
</g>
<defs>
<clipPath id="clip0_166_6355">
<rect width="680" height="77" fill="white" transform="matrix(1 0 0 -1 0 77)"/>
</clipPath>
</defs>
</svg>
