<?xml version="1.0" encoding="UTF-8" standalone="no"?>
<!DOCTYPE svg PUBLIC "-//W3C//DTD SVG 1.1//EN" "http://www.w3.org/Graphics/SVG/1.1/DTD/svg11.dtd">
<svg width="100%" height="100%" viewBox="0 0 1500 2100" version="1.1" xmlns="http://www.w3.org/2000/svg" xmlns:xlink="http://www.w3.org/1999/xlink" xml:space="preserve" xmlns:serif="http://www.serif.com/" style="fill-rule:evenodd;clip-rule:evenodd;stroke-linecap:round;stroke-linejoin:round;stroke-miterlimit:1.5;">
    <rect x="0" y="0" width="1500" height="2100" style="fill:rgb(241,237,234);"/>
    <path d="M1500,0L1500,2100L0,2100L0,0L1500,0ZM1491.667,8.333L8.333,8.333L8.333,2091.667L1491.667,2091.667L1491.667,8.333Z" style="fill:rgb(19,58,39);"/>
    <g transform="matrix(0.953716,0,0,0.964286,34.713325,37.5)">
        <rect x="0" y="0" width="1500" height="2100" style="fill:rgb(241,237,234);stroke:rgb(19,58,39);stroke-width:8.69px;"/>
    </g>
    <g transform="matrix(0.922072,0,0,0.922072,159.449394,129.422753)">
        <g transform="matrix(4.274398,0,0,4.274398,2464.592108,-2547.415123)">
            <g transform="matrix(50,0,0,50,-357.577747,768.084077)">
                <path d="M0.134,-0.277L0.152,-0.306C0.108,-0.262 0.064,-0.22 0.021,-0.18C0.02,-0.179 0.018,-0.179 0.017,-0.179C0.015,-0.179 0.014,-0.179 0.013,-0.179C0.012,-0.18 0.011,-0.18 0.011,-0.18C0.068,-0.232 0.12,-0.283 0.168,-0.331L0.246,-0.456C0.304,-0.547 0.349,-0.612 0.382,-0.651C0.416,-0.69 0.446,-0.71 0.473,-0.71C0.494,-0.71 0.505,-0.698 0.505,-0.673C0.505,-0.657 0.497,-0.635 0.481,-0.606C0.465,-0.578 0.444,-0.549 0.417,-0.519C0.377,-0.474 0.319,-0.419 0.242,-0.352L0.2,-0.285L0.146,-0.198L0.153,-0.198C0.227,-0.299 0.288,-0.349 0.334,-0.349C0.361,-0.349 0.375,-0.328 0.375,-0.286C0.375,-0.267 0.371,-0.248 0.364,-0.23C0.357,-0.213 0.344,-0.191 0.324,-0.165L0.293,-0.124C0.271,-0.095 0.256,-0.073 0.248,-0.059C0.239,-0.044 0.235,-0.032 0.235,-0.023C0.235,-0.006 0.244,0.002 0.262,0.002C0.272,0.002 0.281,-0.001 0.291,-0.006C0.3,-0.011 0.309,-0.017 0.317,-0.023C0.325,-0.03 0.335,-0.041 0.346,-0.055C0.358,-0.069 0.367,-0.082 0.375,-0.093C0.382,-0.104 0.393,-0.12 0.407,-0.14L0.434,-0.18C0.438,-0.183 0.442,-0.183 0.444,-0.18L0.417,-0.14C0.404,-0.12 0.394,-0.105 0.386,-0.094C0.379,-0.084 0.369,-0.071 0.357,-0.055C0.344,-0.04 0.334,-0.028 0.325,-0.02C0.316,-0.012 0.305,-0.005 0.294,0.001C0.283,0.007 0.272,0.01 0.261,0.01C0.244,0.01 0.232,0.003 0.224,-0.01C0.217,-0.023 0.213,-0.039 0.213,-0.057C0.213,-0.097 0.233,-0.143 0.274,-0.197L0.307,-0.24C0.336,-0.279 0.351,-0.305 0.351,-0.32C0.351,-0.332 0.344,-0.338 0.331,-0.338C0.283,-0.338 0.213,-0.271 0.122,-0.138L0.035,-0L-0.039,-0L0.134,-0.277ZM0.255,-0.375C0.315,-0.426 0.367,-0.476 0.411,-0.525C0.437,-0.554 0.458,-0.582 0.473,-0.61C0.488,-0.637 0.496,-0.658 0.496,-0.673C0.496,-0.692 0.489,-0.701 0.475,-0.701C0.469,-0.701 0.46,-0.695 0.449,-0.684C0.439,-0.672 0.426,-0.654 0.41,-0.63C0.394,-0.605 0.378,-0.58 0.363,-0.554C0.348,-0.529 0.328,-0.496 0.305,-0.456C0.303,-0.453 0.302,-0.451 0.301,-0.449L0.255,-0.375Z" style="fill:rgb(19,58,39);fill-rule:nonzero;"/>
            </g>
            <g transform="matrix(50,0,0,50,-336.435169,768.084077)">
            </g>
            <text x="-421.494px" y="768.084px" style="font-family:'PPPlayground-Medium', 'PP Playground';font-weight:500;font-style:italic;font-size:50px;fill:rgb(19,58,39);">Be<tspan x="-367.807px " y="768.084px ">t</tspan></text>
        </g>
        <g transform="matrix(0.41981,0,0,0.418119,237.115591,735.447927)">
            <path d="M873.964,361.373L876.727,369.661C942.117,343.26 968.826,299.359 979.571,255.151C1001.061,231.512 1017.025,201.734 1016.718,186.384L1055.093,186.384L1056.935,183.621L987.246,183.621L987.246,166.429C1015.183,151.386 1040.664,136.343 1040.664,113.932C1040.664,102.573 1033.91,94.898 1021.63,94.898C999.219,94.898 979.571,119.458 977.115,169.192C943.038,185.77 884.709,210.944 884.709,254.23C884.709,278.483 903.129,290.149 920.32,290.149C937.819,290.149 956.853,278.176 973.124,261.905C964.528,300.28 939.968,338.348 873.964,361.373ZM905.585,256.686C907.734,214.014 958.388,182.393 977.115,171.955L977.115,187.305C977.729,207.567 978.957,231.819 974.352,256.379C959.923,272.343 942.731,284.316 926.46,284.316C911.724,284.316 904.664,272.957 905.585,256.686ZM981.106,248.397C985.711,226.907 986.939,205.418 987.246,186.384L1012.42,186.384C1011.806,199.892 998.912,226.293 981.106,248.397ZM987.246,163.973C988.167,132.659 993.386,97.968 1017.332,97.968C1025.621,97.968 1031.761,102.88 1031.761,114.239C1031.761,137.571 1004.131,155.377 987.246,163.973Z" style="fill:rgb(20,59,39);fill-rule:nonzero;"/>
        </g>
        <g transform="matrix(0.702351,0,0,0.702351,81.465836,525.89347)">
            <path d="M103.859,334.664C170.171,334.664 222.668,279.097 286.83,213.707L316.302,183.621L352.835,183.621L345.774,194.366C320.907,232.126 314.46,251.467 314.46,267.431C314.46,276.334 318.144,291.07 333.187,291.07C352.528,291.07 367.264,271.422 387.833,241.336L393.666,232.74C393.052,231.819 391.824,231.819 390.596,232.74L384.763,241.336C364.501,271.422 350.686,288.307 333.494,288.307C327.047,288.307 322.749,285.544 322.749,278.483C322.749,268.045 329.196,260.063 351.607,223.837L451.381,65.734L446.776,65.734C443.092,70.031 435.724,72.794 425.286,72.794L420.374,72.794L314.767,180.551L275.164,180.551L272.401,183.621L311.697,183.621L284.681,211.251C221.747,275.72 170.478,330.98 103.552,330.98C93.115,330.98 80.528,328.524 71.318,324.226L71.932,328.831C81.756,333.129 92.501,334.664 103.859,334.664ZM319.372,180.551L420.988,76.478L423.444,76.478L354.984,180.551L319.372,180.551Z" style="fill:rgb(20,59,39);fill-rule:nonzero;"/>
        </g>
        <g transform="matrix(0.702351,0,0,0.702351,81.465836,525.89347)">
            <path d="M459.056,290.149C475.634,290.149 490.37,271.422 505.72,248.704L516.465,232.74C515.851,232.126 514.623,232.126 513.395,232.74L504.645,249.165C488.988,272.497 473.485,287.693 459.056,287.693C452.302,287.693 448.925,284.009 448.925,278.176C448.925,268.045 452.149,251.314 467.192,227.061L482.081,182.393C476.862,181.165 472.871,180.858 467.345,180.858C438.487,180.858 411.778,197.436 395.508,222.916C387.833,234.889 382,249.625 382,263.747C382,278.176 388.14,291.377 399.191,291.377C411.164,291.377 424.979,276.641 445.241,246.248L449.386,246.248C447.237,253.002 447.237,258.375 447.237,264.822C447.237,279.865 447.697,290.149 459.056,290.149ZM391.824,279.097C391.824,266.51 401.34,245.941 414.848,225.986C432.654,199.278 447.083,183.314 467.345,183.314C472.564,183.314 476.555,184.235 479.625,186.077L464.582,210.023L441.557,246.248C422.83,275.106 409.322,288.614 399.805,288.614C394.894,288.614 391.824,284.93 391.824,279.097Z" style="fill:rgb(20,59,39);fill-rule:nonzero;"/>
        </g>
        <g transform="matrix(0.702351,0,0,0.702351,81.465836,525.89347)">
            <path d="M518,290.149C533.657,290.149 546.55,270.194 560.058,249.318L570.803,232.74C570.189,232.126 568.961,232.126 567.733,232.74L557.602,248.397C543.174,270.808 532.122,287.693 518,287.693C512.167,287.693 508.79,284.623 508.79,279.404C508.79,272.65 511.86,267.124 538.569,225.372L563.128,186.691L562.514,183.621L528.131,183.621C526.903,184.542 526.596,185.463 526.596,186.384L539.49,186.384L540.104,188.226L524.447,213.093C511.553,233.661 503.264,248.704 503.264,268.352C503.264,277.562 505.413,290.149 518,290.149ZM570.496,130.817L588.916,130.817L603.959,108.406L585.539,108.406L570.496,130.817Z" style="fill:rgb(20,59,39);fill-rule:nonzero;"/>
        </g>
        <g transform="matrix(0.702351,0,0,0.702351,81.465836,525.89347)">
            <path d="M652.772,291.07C669.657,291.07 685.007,268.352 700.663,245.02L708.952,232.74C708.338,231.819 707.11,231.819 705.882,232.74L697.593,245.02C680.402,270.501 667.815,288.614 653.079,288.614C647.86,288.614 644.79,285.851 644.79,280.939C644.79,275.106 649.395,267.431 662.596,249.932L672.113,237.345C684.393,221.074 687.77,211.865 687.77,200.199C687.77,188.533 684.393,180.858 675.183,180.858C661.061,180.858 642.334,197.436 621.458,224.758L620.23,224.758L620.537,199.278C620.537,187.919 616.546,183.621 608.871,183.621L600.275,183.621L567.733,232.74C568.347,233.968 569.575,233.968 570.803,232.74L601.503,186.384L608.257,186.384C613.169,186.384 616.853,189.454 616.853,194.98C616.853,200.506 612.248,207.567 605.801,217.697L561.286,288L583.39,288L608.871,247.783L610.406,245.327C636.194,207.26 658.912,184.235 674.262,184.235C678.867,184.235 680.402,186.384 680.402,189.761C680.402,194.98 676.104,202.348 666.894,214.321L656.763,227.521C643.869,244.406 638.036,257.607 638.036,270.501C638.036,280.018 641.106,291.07 652.772,291.07Z" style="fill:rgb(20,59,39);fill-rule:nonzero;"/>
        </g>
        <g transform="matrix(0.702351,0,0,0.702351,81.465836,525.89347)">
            <path d="M770.966,291.07C783.86,291.07 797.061,277.869 818.244,244.406L825.612,232.74C824.691,232.126 823.463,232.126 822.542,232.74L815.174,244.406C793.991,277.869 782.325,288.307 770.659,288.307C764.826,288.307 762.37,285.237 762.37,280.939C762.37,276.334 765.44,268.966 781.711,243.792L820.086,183.621L804.736,183.621C795.833,181.165 790.921,180.551 783.246,180.551C754.388,180.551 727.679,197.129 711.408,222.609C703.733,234.582 697.9,249.318 697.9,263.44C697.9,277.869 704.04,291.07 715.092,291.07C726.451,291.07 739.652,277.562 758.686,249.318L760.221,249.318C758.379,256.072 756.844,263.747 756.844,271.422C756.844,287.079 763.905,291.07 770.966,291.07ZM707.724,278.79C707.724,266.203 717.241,245.634 730.749,225.679C748.555,198.971 762.984,183.007 783.246,183.007C789.386,183.007 793.684,184.235 796.754,186.384L773.115,221.995L758.993,243.792C739.345,274.185 725.53,288.307 715.706,288.307C710.794,288.307 707.724,284.623 707.724,278.79Z" style="fill:rgb(20,59,39);fill-rule:nonzero;"/>
        </g>
        <g transform="matrix(0.702351,0,0,0.702351,-494.347952,525.785659)">
            <path d="M1281.503,290.149C1281.657,290.149 1285.034,287.693 1282.578,287.693C1273.061,287.693 1270.298,283.088 1270.298,275.72C1270.298,264.975 1275.517,253.309 1293.63,228.442C1336.61,181.472 1401.693,108.713 1401.693,79.548C1401.693,72.794 1398.316,70.031 1393.711,70.031C1376.212,70.031 1346.434,110.555 1318.804,153.842C1303.147,178.402 1288.411,203.269 1282.578,213.4C1271.219,233.047 1263.544,248.397 1263.544,264.975C1263.544,279.711 1267.996,290.149 1281.503,290.149ZM1290.867,226.6L1333.54,157.833C1370.379,98.889 1386.65,72.487 1395.246,72.487C1397.702,72.487 1399.237,74.943 1399.237,79.548C1399.237,107.792 1337.224,177.481 1291.788,226.907L1290.867,226.6Z" style="fill:rgb(20,59,39);fill-rule:nonzero;"/>
        </g>
        <g transform="matrix(0.702351,0,0,0.702351,101.195086,525.89347)">
            <path d="M431.273,290.149C447.851,290.149 462.587,271.422 477.936,248.704L488.681,232.74C488.067,232.126 486.839,232.126 485.611,232.74L475.48,247.783C459.824,271.115 445.702,287.693 431.273,287.693C424.519,287.693 420.988,282.628 420.988,276.795C420.988,266.664 422.83,260.984 430.966,240.876L454.298,182.393C449.079,181.165 444.781,180.858 439.255,180.858C410.397,180.858 383.688,197.436 367.417,222.916C359.742,234.889 353.909,249.625 353.909,263.747C353.909,278.176 360.049,291.377 371.101,291.377C382.767,291.377 396.275,277.255 415.923,248.09L417.765,248.09C415.923,254.23 415.309,260.37 415.309,266.203C415.309,281.246 419.914,290.149 431.273,290.149ZM363.733,279.097C363.733,266.51 373.25,245.941 386.758,225.986C404.564,199.278 418.993,183.314 439.255,183.314C444.781,183.314 448.772,184.235 451.842,186.077L436.799,210.023L415.309,243.485C395.354,274.492 381.539,288.614 371.715,288.614C366.803,288.614 363.733,284.93 363.733,279.097Z" style="fill:rgb(20,59,39);"/>
        </g>
        <g transform="matrix(0.702351,0,0,0.702351,70.229665,814.948709)">
            <path d="M-66.831,334.664C-0.52,334.664 51.977,279.097 116.139,213.707L145.611,183.621L182.144,183.621L175.083,194.366C150.216,232.126 143.769,251.467 143.769,267.431C143.769,276.334 147.453,291.07 162.496,291.07C181.837,291.07 196.573,271.422 217.142,241.336L222.975,232.74C222.361,231.819 221.133,231.819 219.905,232.74L214.072,241.336C193.81,271.422 179.995,288.307 162.803,288.307C156.356,288.307 152.058,285.544 152.058,278.483C152.058,268.045 158.505,260.063 180.916,223.837L280.69,65.734L276.085,65.734C272.401,70.031 265.033,72.794 254.595,72.794L249.684,72.794L144.076,180.551L104.473,180.551L101.711,183.621L141.006,183.621L113.99,211.251C51.056,275.72 -0.213,330.98 -67.138,330.98C-77.576,330.98 -90.163,328.524 -99.373,324.226L-98.759,328.831C-88.935,333.129 -78.19,334.664 -66.831,334.664ZM148.681,180.551L250.297,76.478L252.753,76.478L184.293,180.551L148.681,180.551Z" style="fill:rgb(20,59,39);fill-rule:nonzero;"/>
        </g>
        <g transform="matrix(0.702351,0,0,0.702351,70.229665,814.948709)">
            <path d="M304.943,291.07C321.828,291.07 337.178,268.352 352.835,245.02L361.124,232.74C360.51,231.819 359.282,231.819 358.054,232.74L349.765,245.02C332.573,270.501 319.986,288.614 305.25,288.614C300.031,288.614 296.961,285.851 296.961,280.939C296.961,275.106 301.566,267.431 314.767,249.932L324.284,237.345C336.564,221.074 339.941,211.865 339.941,200.199C339.941,188.533 336.564,180.858 327.354,180.858C313.232,180.858 294.505,197.436 273.629,224.758L272.401,224.758L272.708,199.278C272.708,187.919 268.717,183.621 261.042,183.621L252.446,183.621L219.905,232.74C220.519,233.968 221.747,233.968 222.975,232.74L253.674,186.384L260.428,186.384C265.34,186.384 269.024,189.454 269.024,194.98C269.024,200.506 264.419,207.567 257.972,217.697L213.458,288L235.562,288L261.042,247.783L262.577,245.327C288.365,207.26 311.083,184.235 326.433,184.235C331.038,184.235 332.573,186.384 332.573,189.761C332.573,194.98 328.275,202.348 319.065,214.321L308.934,227.521C296.04,244.406 290.207,257.607 290.207,270.501C290.207,280.018 293.277,291.07 304.943,291.07Z" style="fill:rgb(20,59,39);fill-rule:nonzero;"/>
        </g>
        <g transform="matrix(0.702351,0,0,0.702351,70.229665,814.948709)">
            <path d="M427.128,290.149C443.706,290.149 458.442,271.422 473.792,248.704L484.537,232.74C483.923,232.126 482.695,232.126 481.467,232.74L471.336,247.783C455.679,271.115 440.176,289.074 425.747,289.074C418.993,289.074 414.081,279.865 414.081,274.032C414.081,263.901 450.153,182.393 450.153,182.393C444.934,181.165 440.636,180.858 435.11,180.858C406.252,180.858 379.544,197.436 363.273,222.916C355.598,234.889 349.765,249.625 349.765,263.747C349.765,278.176 355.905,291.377 366.957,291.377C378.623,291.377 392.131,277.255 411.778,248.09L413.62,248.09C411.778,254.23 411.164,260.37 411.164,266.203C411.164,281.246 415.769,290.149 427.128,290.149ZM356.826,279.097C356.826,266.51 369.106,245.941 382.614,225.986C400.419,199.278 414.848,183.314 435.11,183.314C440.636,183.314 444.627,184.235 447.697,186.077L432.654,210.023L411.164,243.485C391.21,274.492 377.395,289.995 367.571,289.995C362.659,289.995 356.826,284.93 356.826,279.097Z" style="fill:rgb(20,59,39);fill-rule:nonzero;"/>
        </g>
        <g transform="matrix(0.702351,0,0,0.702351,70.229665,814.948709)">
            <path d="M507.562,290.149C524.447,290.149 540.104,269.58 558.523,244.099L566.812,232.74C566.198,232.126 564.97,232.126 563.742,232.74L555.453,244.099C536.42,270.194 522.912,287.693 507.869,287.693C501.422,287.693 498.352,284.93 498.659,279.404C498.966,273.571 502.036,269.273 521.07,245.941L529.052,236.117C539.797,222.916 547.471,209.409 547.471,197.129C547.471,188.84 544.094,183.621 537.648,183.621L519.228,183.621L529.973,168.578L509.404,168.578L513.088,185.156L481.467,232.74C481.16,233.661 483.002,233.968 484.537,232.74L515.544,186.077L537.341,186.077C540.718,186.077 541.639,187.612 541.639,189.454C541.639,194.98 530.587,207.26 519.842,220.153L514.316,226.907C499.58,245.02 493.747,257.607 493.133,269.273C492.519,280.325 495.896,290.149 507.562,290.149Z" style="fill:rgb(20,59,39);fill-rule:nonzero;"/>
        </g>
        <g transform="matrix(0.702351,0,0,0.702351,70.229665,814.948709)">
            <path d="M581.241,290.456C598.433,290.456 617.467,275.413 644.483,232.74C644.483,231.512 642.641,231.512 641.413,232.74C615.625,273.264 597.819,287.386 582.162,287.386C573.259,287.386 570.189,282.167 570.189,274.185C570.189,261.598 577.557,245.02 585.232,231.205C599.047,227.214 615.318,219.846 625.756,210.637C633.124,203.883 638.036,196.822 638.036,190.375C638.036,185.463 635.273,180.858 627.291,180.858C611.02,180.858 584.618,196.515 569.882,220.46C561.9,233.354 558.216,246.862 558.216,259.449C558.216,276.027 566.505,290.456 581.241,290.456ZM586.46,228.442L588.609,225.065C603.652,199.278 618.695,183.314 629.133,183.314C633.431,183.314 635.273,185.77 635.273,189.454C635.273,194.98 630.668,201.734 623.607,208.181C614.09,216.776 599.354,224.144 586.46,228.442Z" style="fill:rgb(20,59,39);fill-rule:nonzero;"/>
        </g>
        <g transform="matrix(0.702351,0,0,0.702351,70.229665,814.948709)">
            <path d="M641.413,232.74C642.027,233.354 643.255,233.354 644.483,232.74L676.411,186.384L691.146,186.384C693.602,186.384 694.523,186.998 694.523,188.84C694.523,192.217 690.226,197.129 680.402,212.172L673.341,222.916C660.754,242.257 656.763,255.765 656.763,268.352C656.763,283.088 661.675,290.149 669.657,290.149C680.709,290.149 694.216,275.106 708.952,253.616L710.794,253.616C709.873,260.063 709.566,263.44 709.566,268.966C709.566,282.474 712.943,290.149 720.925,290.149C734.74,290.149 755.616,271.422 772.194,248.09C783.86,231.512 794.298,210.637 794.298,193.445C794.298,190.068 793.991,188.226 793.684,186.384L813.332,186.384C814.56,185.463 814.867,184.849 814.867,183.621L770.966,183.621L769.431,186.384L770.045,186.384C782.018,186.384 785.088,196.822 785.088,206.032C785.088,217.697 780.176,231.819 769.431,247.169C755.616,266.817 734.74,287.693 721.539,287.693C716.934,287.693 714.785,284.623 714.785,279.097C714.785,270.194 721.539,260.37 732.591,242.564L743.643,224.758C751.625,212.172 753.774,203.576 753.774,197.129C753.774,187.919 750.09,183.621 741.494,183.621L675.183,183.621L674.569,184.542L674.262,185.156L641.413,232.74ZM669.657,287.693C665.052,287.693 662.596,284.623 662.596,278.483C662.596,269.58 666.894,260.677 679.481,243.178L688.384,230.591C699.435,214.934 701.891,205.111 701.891,197.743C701.891,192.831 700.97,188.533 697.286,186.384L742.108,186.384C744.564,186.384 745.792,187.305 745.792,188.84C745.792,192.217 740.88,199.278 731.056,214.627L719.697,232.74C700.356,263.747 682.244,287.693 669.657,287.693Z" style="fill:rgb(20,59,39);fill-rule:nonzero;"/>
        </g>
        <g transform="matrix(0.702351,0,0,0.702351,-528.515501,815.056519)">
            <path d="M1281.503,290.149C1281.657,290.149 1285.034,287.693 1282.578,287.693C1273.061,287.693 1270.298,283.088 1270.298,275.72C1270.298,264.975 1275.517,253.309 1293.63,228.442C1336.61,181.472 1401.693,108.713 1401.693,79.548C1401.693,72.794 1398.316,70.031 1393.711,70.031C1376.212,70.031 1346.434,110.555 1318.804,153.842C1303.147,178.402 1288.411,203.269 1282.578,213.4C1271.219,233.047 1263.544,248.397 1263.544,264.975C1263.544,279.711 1267.996,290.149 1281.503,290.149ZM1290.867,226.6L1333.54,157.833C1370.379,98.889 1386.65,72.487 1395.246,72.487C1397.702,72.487 1399.237,74.943 1399.237,79.548C1399.237,107.792 1337.224,177.481 1291.788,226.907L1290.867,226.6Z" style="fill:rgb(20,59,39);fill-rule:nonzero;"/>
        </g>
        <g transform="matrix(0.702351,0,0,0.702351,67.027537,815.164329)">
            <path d="M431.273,290.149C447.851,290.149 462.587,271.422 477.936,248.704L488.681,232.74C488.067,232.126 486.839,232.126 485.611,232.74L475.48,247.783C459.824,271.115 445.702,287.693 431.273,287.693C424.519,287.693 420.988,282.628 420.988,276.795C420.988,266.664 422.83,260.984 430.966,240.876L454.298,182.393C449.079,181.165 444.781,180.858 439.255,180.858C410.397,180.858 383.688,197.436 367.417,222.916C359.742,234.889 353.909,249.625 353.909,263.747C353.909,278.176 360.049,291.377 371.101,291.377C382.767,291.377 396.275,277.255 415.923,248.09L417.765,248.09C415.923,254.23 415.309,260.37 415.309,266.203C415.309,281.246 419.914,290.149 431.273,290.149ZM363.733,279.097C363.733,266.51 373.25,245.941 386.758,225.986C404.564,199.278 418.993,183.314 439.255,183.314C444.781,183.314 448.772,184.235 451.842,186.077L436.799,210.023L415.309,243.485C395.354,274.492 381.539,288.614 371.715,288.614C366.803,288.614 363.733,284.93 363.733,279.097Z" style="fill:rgb(20,59,39);"/>
        </g>
        <g transform="matrix(4.274398,0,0,4.274398,2479.641566,-2264.15663)">
            <g transform="matrix(50,0,0,50,-391.073841,768.084077)">
                <path d="M-0.092,0.34C-0.125,0.34 -0.141,0.319 -0.141,0.278C-0.141,0.249 -0.133,0.218 -0.118,0.185C-0.102,0.153 -0.076,0.106 -0.038,0.046L0.135,-0.229C0.144,-0.244 0.15,-0.254 0.154,-0.261C0.158,-0.268 0.162,-0.275 0.165,-0.283C0.168,-0.292 0.17,-0.299 0.17,-0.306C0.17,-0.315 0.167,-0.321 0.162,-0.325C0.156,-0.329 0.146,-0.331 0.132,-0.331L0.121,-0.331L0.021,-0.18C0.017,-0.176 0.014,-0.176 0.011,-0.18L0.117,-0.34L0.139,-0.34C0.154,-0.34 0.166,-0.336 0.173,-0.328C0.18,-0.32 0.183,-0.307 0.183,-0.289L0.183,-0.216L0.186,-0.216C0.214,-0.26 0.239,-0.293 0.262,-0.316C0.285,-0.338 0.306,-0.349 0.325,-0.349C0.344,-0.349 0.358,-0.34 0.368,-0.322C0.378,-0.304 0.383,-0.283 0.383,-0.259C0.383,-0.234 0.378,-0.209 0.368,-0.183L0.441,-0.183C0.439,-0.179 0.437,-0.176 0.434,-0.174L0.364,-0.174C0.345,-0.128 0.316,-0.087 0.279,-0.052C0.241,-0.017 0.205,-0 0.171,-0C0.138,-0 0.122,-0.019 0.122,-0.057C0.122,-0.077 0.126,-0.099 0.135,-0.124L0.11,-0.084L-0.076,0.34L-0.092,0.34ZM-0.125,0.305C-0.125,0.323 -0.113,0.332 -0.088,0.332L-0.081,0.332L0.083,-0.043L0.024,0.047C-0.04,0.145 -0.08,0.209 -0.098,0.24C-0.116,0.272 -0.125,0.293 -0.125,0.305ZM0.13,-0.057C0.13,-0.043 0.132,-0.031 0.138,-0.022C0.143,-0.013 0.151,-0.009 0.161,-0.009C0.184,-0.009 0.208,-0.025 0.235,-0.057C0.262,-0.09 0.287,-0.129 0.308,-0.174L0.167,-0.174L0.164,-0.17C0.141,-0.129 0.13,-0.091 0.13,-0.057ZM0.173,-0.183L0.313,-0.183C0.338,-0.238 0.35,-0.279 0.35,-0.307C0.35,-0.329 0.341,-0.34 0.322,-0.34C0.304,-0.34 0.285,-0.33 0.267,-0.312C0.249,-0.293 0.224,-0.26 0.194,-0.215L0.173,-0.183Z" style="fill:rgb(19,58,39);fill-rule:nonzero;"/>
            </g>
            <g transform="matrix(50,0,0,50,-310.946887,768.084077)">
                <path d="M0.339,-0.158C0.293,-0.158 0.259,-0.17 0.237,-0.194C0.215,-0.218 0.207,-0.245 0.212,-0.277C0.192,-0.251 0.175,-0.229 0.162,-0.209L0.112,-0.131L0.027,-0L-0.043,-0L0.102,-0.229C0.125,-0.265 0.137,-0.291 0.137,-0.305C0.137,-0.314 0.135,-0.321 0.13,-0.325C0.125,-0.329 0.116,-0.331 0.104,-0.331L0.063,-0.331C0.064,-0.335 0.066,-0.338 0.068,-0.34L0.108,-0.34C0.124,-0.34 0.135,-0.336 0.142,-0.328C0.149,-0.32 0.153,-0.307 0.153,-0.289L0.153,-0.215L0.155,-0.215C0.176,-0.247 0.199,-0.279 0.225,-0.312C0.247,-0.337 0.269,-0.349 0.29,-0.349L0.321,-0.349L0.284,-0.292L0.224,-0.292L0.222,-0.289C0.214,-0.257 0.22,-0.228 0.24,-0.204C0.261,-0.179 0.294,-0.167 0.341,-0.167C0.373,-0.167 0.405,-0.174 0.435,-0.189C0.465,-0.204 0.49,-0.223 0.511,-0.246C0.532,-0.27 0.55,-0.296 0.564,-0.326C0.578,-0.357 0.587,-0.387 0.59,-0.417C0.593,-0.446 0.59,-0.476 0.581,-0.504C0.572,-0.533 0.557,-0.557 0.535,-0.576L0.556,-0.589C0.577,-0.572 0.591,-0.549 0.599,-0.52C0.608,-0.492 0.61,-0.462 0.606,-0.43C0.603,-0.399 0.594,-0.367 0.579,-0.334C0.564,-0.301 0.546,-0.272 0.524,-0.246C0.501,-0.22 0.474,-0.199 0.442,-0.183C0.409,-0.166 0.375,-0.158 0.339,-0.158Z" style="fill:rgb(19,58,39);fill-rule:nonzero;"/>
            </g>
            <g transform="matrix(50,0,0,50,-310.946887,768.084077)">
            </g>
            <g transform="matrix(50,0,0,50,-284.70177,768.084077)">
            </g>
            <text x="-421.494px" y="768.084px" style="font-family:'PPPlayground-Medium', 'PP Playground';font-weight:500;font-style:italic;font-size:50px;fill:rgb(19,58,39);">S<tspan x="-370.175px -357.236px " y="768.084px 768.084px ">en</tspan>ce</text>
        </g>
    </g>
    <g transform="matrix(0.176222,0,0,0.176222,203.3942,199.908709)">
        <text x="41.476px" y="288px" style="font-family:'Sentient-Medium', 'Sentient';font-weight:500;font-size:261.622px;fill:rgb(20,59,39);">DR<tspan x="430.77px " y="288px ">.</tspan> LEWIS NELSON AND MRS<tspan x="3922.377px " y="288px ">.</tspan> L<tspan x="4222.457px 4403.238px 4607.041px 4795.932px " y="288px 288px 288px 288px ">AURA</tspan> NELSON</text>
        <text x="1939.544px" y="713.599px" style="font-family:'Sentient-Medium', 'Sentient';font-weight:500;font-size:261.622px;fill:rgb(20,59,39);">TOGETHER WITH</text>
        <text x="-345.593px" y="1139.198px" style="font-family:'Sentient-Medium', 'Sentient';font-weight:500;font-size:261.622px;fill:rgb(20,59,39);">MR<tspan x="101.78px " y="1139.198px ">.</tspan> THOM<tspan x="1092.804px " y="1139.198px ">A</tspan>S DEFR<tspan x="2230.075px " y="1139.198px ">A</tspan>NK AND MS<tspan x="3958.35px " y="1139.198px ">.</tspan> MEL<tspan x="4690.629px " y="1139.198px ">A</tspan>NIE C<tspan x="5611.015px " y="1139.198px ">O</tspan>OPER</text>
        <text x="73.787px" y="1564.797px" style="font-family:'Sentient-Medium', 'Sentient';font-weight:500;font-size:261.622px;fill:rgb(20,59,39);">REQUES<tspan x="1161.872px " y="1564.797px ">T</tspan> THE PLEAS<tspan x="2877.328px " y="1564.797px ">U</tspan>RE OF Y<tspan x="4097.271px " y="1564.797px ">O</tspan>UR C<tspan x="4934.199px " y="1564.797px ">O</tspan>MP<tspan x="5550.842px " y="1564.797px ">A</tspan>NY</text>
        <text x="419.782px" y="1990.396px" style="font-family:'Sentient-Medium', 'Sentient';font-weight:500;font-size:261.622px;fill:rgb(20,59,39);">A<tspan x="600.562px " y="1990.396px ">T</tspan> THE M<tspan x="1727.891px " y="1990.396px ">A</tspan>RRIA<tspan x="2572.407px " y="1990.396px ">G</tspan>E OF THEIR CHILDREN</text>
    </g>
    <g transform="matrix(0.176222,0,0,0.176222,202.080248,1217.229587)">
        <text x="109.367px" y="288px" style="font-family:'Sentient-Medium', 'Sentient';font-weight:500;font-size:261.622px;fill:rgb(20,59,39);">S<tspan x="260.323px 441.104px " y="288px 288px ">AT</tspan>URD<tspan x="1194.575px 1368.292px 1517.94px " y="288px 288px 288px ">AY,</tspan> THE SEVENTEENTH OF OCTOBER</text>
        <text x="754.396px" y="713.599px" style="font-family:'Sentient-Medium', 'Sentient';font-weight:500;font-size:261.622px;fill:rgb(20,59,39);">T<tspan x="932.822px 1196.276px " y="713.599px 713.599px ">WO</tspan> THOUS<tspan x="2407.847px " y="713.599px ">A</tspan>ND AND T<tspan x="3911.65px " y="713.599px ">W</tspan>ENT<tspan x="4743.346px 4903.459px 5004.445px " y="713.599px 713.599px 713.599px ">Y-S</tspan>IX</text>
        <text x="-73.507px" y="1139.198px" style="font-family:'Sentient-Medium', 'Sentient';font-weight:500;font-size:261.622px;fill:rgb(20,59,39);">A<tspan x="107.274px " y="1139.198px ">T</tspan> HALF AFTER FIVE O<tspan x="2980.407px 3037.963px " y="1139.198px 1139.198px ">&apos;C</tspan>LOCK IN THE EVENING</text>
        <text x="973.897px" y="1990.396px" style="font-family:'Sentient-Medium', 'Sentient';font-weight:500;font-size:261.622px;fill:rgb(20,59,39);">The Inter<tspan x="2160.614px 2295.873px " y="1990.396px 1990.396px ">co</tspan>ntinental - The Whar<tspan x="5126.361px " y="1990.396px ">f</tspan></text>
        <g transform="matrix(261.621963,0,0,261.621963,4129.319495,2415.995557)">
        </g>
        <text x="2070.616px" y="2415.996px" style="font-family:'Sentient-Medium', 'Sentient';font-weight:500;font-size:261.622px;fill:rgb(20,59,39);">W<tspan x="2327.791px " y="2415.996px ">a</tspan>shington<tspan x="3609.738px " y="2415.996px ">,</tspan> DC</text>
    </g>
    <g transform="matrix(0.176222,0,0,0.176222,618.524559,1974.458326)">
        <g transform="matrix(261.621963,0,0,261.621963,4644.583951,288)">
        </g>
        <text x="1555.352px" y="288px" style="font-family:'Sentient-Medium', 'Sentient';font-weight:500;font-size:261.622px;fill:rgb(20,59,39);">BL<tspan x="1899.123px 2081.212px " y="288px 288px ">AC</tspan>K TIE PREFERRED</text>
    </g>
    <g transform="matrix(0.419856,0,0,0.419856,-556.481903,1714.747236)">
        <g transform="matrix(261.621963,0,0,261.621963,2051.116742,288)">
            <path d="M0.288,0.01C0.271,0.01 0.259,0.003 0.251,-0.01C0.244,-0.023 0.24,-0.039 0.24,-0.057C0.24,-0.097 0.26,-0.144 0.301,-0.197L0.334,-0.24C0.363,-0.279 0.378,-0.305 0.378,-0.32C0.378,-0.332 0.371,-0.338 0.358,-0.338C0.309,-0.338 0.24,-0.272 0.15,-0.139L0.145,-0.131L0.062,-0L-0.01,-0L0.135,-0.229C0.145,-0.244 0.151,-0.255 0.155,-0.26C0.158,-0.266 0.162,-0.273 0.165,-0.282C0.169,-0.291 0.171,-0.298 0.171,-0.303C0.171,-0.312 0.168,-0.319 0.163,-0.324C0.158,-0.329 0.151,-0.331 0.143,-0.331L0.121,-0.331L0.021,-0.18C0.017,-0.176 0.014,-0.176 0.011,-0.18L0.117,-0.34L0.145,-0.34C0.158,-0.34 0.167,-0.336 0.174,-0.328C0.18,-0.32 0.183,-0.307 0.183,-0.289L0.182,-0.206L0.186,-0.206C0.259,-0.301 0.317,-0.349 0.361,-0.349C0.388,-0.349 0.402,-0.328 0.402,-0.286C0.402,-0.267 0.398,-0.248 0.391,-0.23C0.384,-0.213 0.371,-0.191 0.351,-0.165L0.32,-0.124C0.298,-0.095 0.283,-0.073 0.275,-0.059C0.266,-0.044 0.262,-0.032 0.262,-0.023C0.262,-0.006 0.271,0.002 0.289,0.002C0.299,0.002 0.308,-0.001 0.318,-0.006C0.327,-0.011 0.336,-0.017 0.344,-0.023C0.352,-0.03 0.362,-0.041 0.373,-0.055C0.384,-0.069 0.394,-0.082 0.402,-0.093C0.409,-0.104 0.42,-0.12 0.434,-0.14L0.461,-0.18C0.465,-0.184 0.469,-0.184 0.471,-0.18L0.444,-0.14C0.431,-0.12 0.421,-0.105 0.413,-0.094C0.406,-0.084 0.396,-0.071 0.384,-0.055C0.371,-0.04 0.361,-0.028 0.352,-0.02C0.342,-0.012 0.332,-0.005 0.321,0.001C0.31,0.007 0.299,0.01 0.288,0.01Z" style="fill:rgb(20,59,39);fill-rule:nonzero;"/>
        </g>
        <g transform="matrix(261.621963,0,0,261.621963,2168.769979,288)">
            <path d="M0.288,0.01C0.271,0.01 0.259,0.003 0.251,-0.01C0.244,-0.023 0.24,-0.039 0.24,-0.057C0.24,-0.097 0.26,-0.144 0.301,-0.197L0.334,-0.24C0.363,-0.279 0.378,-0.305 0.378,-0.32C0.378,-0.332 0.371,-0.338 0.358,-0.338C0.309,-0.338 0.24,-0.272 0.15,-0.139L0.145,-0.131L0.062,-0L-0.01,-0L0.135,-0.229C0.145,-0.244 0.151,-0.255 0.155,-0.26C0.158,-0.266 0.162,-0.273 0.165,-0.282C0.169,-0.291 0.171,-0.298 0.171,-0.303C0.171,-0.312 0.168,-0.319 0.163,-0.324C0.158,-0.329 0.151,-0.331 0.143,-0.331L0.121,-0.331L0.021,-0.18C0.017,-0.176 0.014,-0.176 0.011,-0.18L0.117,-0.34L0.145,-0.34C0.158,-0.34 0.167,-0.336 0.174,-0.328C0.18,-0.32 0.183,-0.307 0.183,-0.289L0.182,-0.206L0.186,-0.206C0.259,-0.301 0.317,-0.349 0.361,-0.349C0.388,-0.349 0.402,-0.328 0.402,-0.286C0.402,-0.267 0.398,-0.248 0.391,-0.23C0.384,-0.213 0.371,-0.191 0.351,-0.165L0.32,-0.124C0.298,-0.095 0.283,-0.073 0.275,-0.059C0.266,-0.044 0.262,-0.032 0.262,-0.023C0.262,-0.006 0.271,0.002 0.289,0.002C0.299,0.002 0.308,-0.001 0.318,-0.006C0.327,-0.011 0.336,-0.017 0.344,-0.023C0.352,-0.03 0.362,-0.041 0.373,-0.055C0.384,-0.069 0.394,-0.082 0.402,-0.093C0.409,-0.104 0.42,-0.12 0.434,-0.14L0.461,-0.18C0.465,-0.184 0.469,-0.184 0.471,-0.18L0.444,-0.14C0.431,-0.12 0.421,-0.105 0.413,-0.094C0.406,-0.084 0.396,-0.071 0.384,-0.055C0.371,-0.04 0.361,-0.028 0.352,-0.02C0.342,-0.012 0.332,-0.005 0.321,0.001C0.31,0.007 0.299,0.01 0.288,0.01Z" style="fill:rgb(20,59,39);fill-rule:nonzero;"/>
        </g>
        <g transform="matrix(261.621963,0,0,261.621963,2352.595177,288)">
            <path d="M0.096,0.007C0.078,0.007 0.066,0 0.058,-0.012C0.051,-0.025 0.048,-0.041 0.049,-0.061C0.051,-0.098 0.074,-0.145 0.118,-0.199L0.136,-0.221C0.139,-0.225 0.163,-0.253 0.166,-0.257C0.169,-0.26 0.173,-0.266 0.178,-0.272C0.184,-0.279 0.188,-0.284 0.19,-0.288C0.193,-0.291 0.196,-0.295 0.199,-0.3C0.202,-0.305 0.204,-0.309 0.205,-0.312C0.206,-0.315 0.207,-0.318 0.207,-0.321C0.207,-0.328 0.202,-0.332 0.193,-0.332L0.122,-0.332L0.021,-0.18C0.017,-0.177 0.014,-0.176 0.012,-0.178C0.011,-0.179 0.011,-0.18 0.011,-0.18L0.114,-0.335L0.102,-0.389L0.169,-0.389L0.134,-0.34L0.194,-0.34C0.204,-0.34 0.212,-0.336 0.218,-0.328C0.223,-0.32 0.226,-0.31 0.226,-0.296C0.226,-0.26 0.206,-0.218 0.166,-0.169L0.14,-0.137C0.109,-0.098 0.089,-0.073 0.08,-0.06C0.072,-0.048 0.067,-0.037 0.067,-0.028C0.066,-0.01 0.076,-0.001 0.097,-0.001C0.119,-0.001 0.141,-0.012 0.164,-0.034C0.186,-0.056 0.215,-0.093 0.252,-0.143L0.279,-0.18C0.283,-0.182 0.287,-0.182 0.289,-0.18L0.262,-0.143C0.248,-0.123 0.236,-0.107 0.227,-0.095C0.217,-0.083 0.207,-0.07 0.194,-0.055C0.182,-0.041 0.17,-0.029 0.161,-0.021C0.151,-0.014 0.141,-0.007 0.129,-0.001C0.118,0.004 0.107,0.007 0.096,0.007Z" style="fill:rgb(20,59,39);fill-rule:nonzero;"/>
        </g>
        <g transform="matrix(261.621963,0,0,261.621963,2577.171061,288)">
            <path d="M0.288,0.01C0.271,0.01 0.259,0.003 0.251,-0.01C0.244,-0.023 0.24,-0.039 0.24,-0.057C0.24,-0.097 0.26,-0.144 0.301,-0.197L0.334,-0.24C0.363,-0.279 0.378,-0.305 0.378,-0.32C0.378,-0.332 0.371,-0.338 0.358,-0.338C0.309,-0.338 0.24,-0.272 0.15,-0.139L0.145,-0.131L0.062,-0L-0.01,-0L0.135,-0.229C0.145,-0.244 0.151,-0.255 0.155,-0.26C0.158,-0.266 0.162,-0.273 0.165,-0.282C0.169,-0.291 0.171,-0.298 0.171,-0.303C0.171,-0.312 0.168,-0.319 0.163,-0.324C0.158,-0.329 0.151,-0.331 0.143,-0.331L0.121,-0.331L0.021,-0.18C0.017,-0.176 0.014,-0.176 0.011,-0.18L0.117,-0.34L0.145,-0.34C0.158,-0.34 0.167,-0.336 0.174,-0.328C0.18,-0.32 0.183,-0.307 0.183,-0.289L0.182,-0.206L0.186,-0.206C0.259,-0.301 0.317,-0.349 0.361,-0.349C0.388,-0.349 0.402,-0.328 0.402,-0.286C0.402,-0.267 0.398,-0.248 0.391,-0.23C0.384,-0.213 0.371,-0.191 0.351,-0.165L0.32,-0.124C0.298,-0.095 0.283,-0.073 0.275,-0.059C0.266,-0.044 0.262,-0.032 0.262,-0.023C0.262,-0.006 0.271,0.002 0.289,0.002C0.299,0.002 0.308,-0.001 0.318,-0.006C0.327,-0.011 0.336,-0.017 0.344,-0.023C0.352,-0.03 0.362,-0.041 0.373,-0.055C0.384,-0.069 0.394,-0.082 0.402,-0.093C0.409,-0.104 0.42,-0.12 0.434,-0.14L0.461,-0.18C0.465,-0.184 0.469,-0.184 0.471,-0.18L0.444,-0.14C0.431,-0.12 0.421,-0.105 0.413,-0.094C0.406,-0.084 0.396,-0.071 0.384,-0.055C0.371,-0.04 0.361,-0.028 0.352,-0.02C0.342,-0.012 0.332,-0.005 0.321,0.001C0.31,0.007 0.299,0.01 0.288,0.01Z" style="fill:rgb(20,59,39);fill-rule:nonzero;"/>
        </g>
        <g transform="matrix(261.621963,0,0,261.621963,2694.824298,288)">
            <path d="M0.236,0.007C0.201,0.007 0.184,-0.019 0.184,-0.071C0.184,-0.092 0.187,-0.112 0.192,-0.13L0.186,-0.13C0.153,-0.081 0.125,-0.045 0.102,-0.023C0.079,-0 0.059,0.011 0.04,0.011C0.023,0.011 0.009,0.002 -0.001,-0.015C-0.011,-0.033 -0.016,-0.054 -0.016,-0.079C-0.016,-0.122 -0.001,-0.166 0.028,-0.212C0.055,-0.254 0.089,-0.288 0.13,-0.312C0.172,-0.337 0.216,-0.349 0.262,-0.349C0.28,-0.349 0.297,-0.347 0.311,-0.344L0.52,-0.677L0.352,-0.677L0.358,-0.687L0.511,-0.687C0.534,-0.687 0.554,-0.69 0.57,-0.697C0.587,-0.704 0.601,-0.716 0.613,-0.732L0.626,-0.732L0.289,-0.194C0.285,-0.188 0.28,-0.18 0.274,-0.169C0.267,-0.158 0.252,-0.133 0.246,-0.125C0.241,-0.116 0.237,-0.109 0.235,-0.104C0.232,-0.1 0.229,-0.094 0.225,-0.087C0.222,-0.081 0.219,-0.075 0.217,-0.071C0.216,-0.067 0.214,-0.062 0.212,-0.057C0.21,-0.052 0.209,-0.048 0.208,-0.044C0.207,-0.04 0.207,-0.036 0.207,-0.032C0.207,-0.011 0.217,-0.001 0.236,-0.001C0.258,-0.001 0.28,-0.012 0.303,-0.034C0.326,-0.056 0.352,-0.089 0.38,-0.131L0.413,-0.18C0.417,-0.182 0.421,-0.182 0.423,-0.18L0.407,-0.156C0.402,-0.146 0.399,-0.135 0.4,-0.124C0.401,-0.113 0.404,-0.102 0.409,-0.091C0.413,-0.081 0.421,-0.07 0.432,-0.061C0.442,-0.051 0.455,-0.042 0.469,-0.035C0.483,-0.028 0.5,-0.022 0.52,-0.018C0.54,-0.013 0.562,-0.011 0.585,-0.011C0.653,-0.011 0.711,-0.029 0.76,-0.064C0.797,-0.091 0.819,-0.122 0.828,-0.156C0.836,-0.193 0.826,-0.223 0.796,-0.248C0.783,-0.259 0.767,-0.268 0.747,-0.275L0.768,-0.292C0.815,-0.274 0.842,-0.247 0.851,-0.21C0.86,-0.175 0.85,-0.139 0.823,-0.103C0.794,-0.063 0.752,-0.035 0.698,-0.017C0.665,-0.006 0.631,-0 0.594,-0C0.562,-0 0.532,-0.004 0.505,-0.013C0.477,-0.022 0.455,-0.033 0.438,-0.046C0.421,-0.06 0.409,-0.075 0.402,-0.092C0.394,-0.109 0.393,-0.126 0.398,-0.142L0.388,-0.128C0.359,-0.084 0.332,-0.051 0.309,-0.028C0.285,-0.005 0.261,0.007 0.236,0.007ZM0.016,-0.029C0.016,-0.019 0.018,-0.012 0.023,-0.006C0.028,-0.001 0.034,0.002 0.042,0.002C0.074,0.002 0.121,-0.047 0.184,-0.145L0.254,-0.254L0.303,-0.332C0.293,-0.338 0.28,-0.341 0.262,-0.341C0.231,-0.341 0.203,-0.33 0.177,-0.307C0.152,-0.285 0.123,-0.25 0.091,-0.202C0.068,-0.169 0.05,-0.137 0.037,-0.106C0.023,-0.075 0.016,-0.049 0.016,-0.029Z" style="fill:rgb(20,59,39);fill-rule:nonzero;"/>
        </g>
        <g transform="matrix(261.621963,0,0,261.621963,2694.824298,288)">
        </g>
        <g transform="matrix(261.621963,0,0,261.621963,3993.097742,288)">
            <path d="M0.046,0.007C0.025,0.007 0.009,-0.001 -0.001,-0.015C-0.012,-0.03 -0.017,-0.05 -0.017,-0.075C-0.017,-0.1 -0.012,-0.125 -0.002,-0.151C0.008,-0.176 0.024,-0.207 0.045,-0.243C0.075,-0.296 0.114,-0.36 0.163,-0.437C0.279,-0.619 0.36,-0.71 0.407,-0.71C0.424,-0.71 0.433,-0.7 0.433,-0.679C0.433,-0.661 0.425,-0.636 0.409,-0.606C0.393,-0.575 0.373,-0.544 0.351,-0.512C0.328,-0.481 0.299,-0.444 0.264,-0.402C0.229,-0.36 0.199,-0.325 0.173,-0.295C0.146,-0.266 0.116,-0.232 0.081,-0.194C0.052,-0.154 0.032,-0.123 0.021,-0.101C0.01,-0.078 0.005,-0.058 0.005,-0.04C0.005,-0.027 0.008,-0.018 0.014,-0.011C0.02,-0.004 0.03,-0.001 0.045,-0.001C0.071,-0.001 0.097,-0.012 0.123,-0.034C0.149,-0.056 0.177,-0.09 0.206,-0.135L0.235,-0.18C0.239,-0.184 0.243,-0.184 0.245,-0.18L0.216,-0.135C0.155,-0.04 0.098,0.007 0.046,0.007ZM0.072,-0.2L0.075,-0.199C0.121,-0.249 0.161,-0.293 0.195,-0.332C0.228,-0.371 0.264,-0.414 0.303,-0.463C0.342,-0.511 0.372,-0.554 0.393,-0.591C0.414,-0.628 0.425,-0.657 0.425,-0.679C0.425,-0.694 0.421,-0.702 0.412,-0.702C0.4,-0.702 0.381,-0.685 0.356,-0.649C0.332,-0.614 0.287,-0.545 0.222,-0.441C0.217,-0.433 0.213,-0.428 0.211,-0.424L0.072,-0.2Z" style="fill:rgb(20,59,39);fill-rule:nonzero;"/>
        </g>
        <g transform="matrix(261.621963,0,0,261.621963,4051.604997,288)">
            <path d="M0.046,0.007C0.025,0.007 0.009,-0.001 -0.001,-0.015C-0.012,-0.03 -0.017,-0.05 -0.017,-0.075C-0.017,-0.1 -0.012,-0.125 -0.002,-0.151C0.008,-0.176 0.024,-0.207 0.045,-0.243C0.075,-0.296 0.114,-0.36 0.163,-0.437C0.279,-0.619 0.36,-0.71 0.407,-0.71C0.424,-0.71 0.433,-0.7 0.433,-0.679C0.433,-0.661 0.425,-0.636 0.409,-0.606C0.393,-0.575 0.373,-0.544 0.351,-0.512C0.328,-0.481 0.299,-0.444 0.264,-0.402C0.229,-0.36 0.199,-0.325 0.173,-0.295C0.146,-0.266 0.116,-0.232 0.081,-0.194C0.052,-0.154 0.032,-0.123 0.021,-0.101C0.01,-0.078 0.005,-0.058 0.005,-0.04C0.005,-0.027 0.008,-0.018 0.014,-0.011C0.02,-0.004 0.03,-0.001 0.045,-0.001C0.071,-0.001 0.097,-0.012 0.123,-0.034C0.149,-0.056 0.177,-0.09 0.206,-0.135L0.235,-0.18C0.239,-0.184 0.243,-0.184 0.245,-0.18L0.216,-0.135C0.155,-0.04 0.098,0.007 0.046,0.007ZM0.072,-0.2L0.075,-0.199C0.121,-0.249 0.161,-0.293 0.195,-0.332C0.228,-0.371 0.264,-0.414 0.303,-0.463C0.342,-0.511 0.372,-0.554 0.393,-0.591C0.414,-0.628 0.425,-0.657 0.425,-0.679C0.425,-0.694 0.421,-0.702 0.412,-0.702C0.4,-0.702 0.381,-0.685 0.356,-0.649C0.332,-0.614 0.287,-0.545 0.222,-0.441C0.217,-0.433 0.213,-0.428 0.211,-0.424L0.072,-0.2Z" style="fill:rgb(20,59,39);fill-rule:nonzero;"/>
        </g>
        <g transform="matrix(261.621963,0,0,261.621963,4300.19696,288)">
        </g>
        <text x="1899.739px" y="288px" style="font-family:'PPPlayground-Medium', 'PP Playground';font-weight:500;font-style:italic;font-size:261.622px;fill:rgb(20,59,39);">d<tspan x="1998.103px 2286.423px 2422.855px 2477.785px 2921.827px " y="288px 288px 288px 288px 288px ">ie a </tspan>da<tspan x="3180.256px 3289.35px 3349.773px 3401.766px " y="288px 288px 288px 288px ">ncin</tspan>g to f<tspan x="3917.089px 4110.112px 4179.35px " y="288px 288px 288px ">oow</tspan></text>
    </g>
</svg>
